%TF.GenerationSoftware,KiCad,Pcbnew,10.0.1*%
%TF.CreationDate,2026-06-14T11:07:34+02:00*%
%TF.ProjectId,Aero-Zero,4165726f-2d5a-4657-926f-2e6b69636164,rev?*%
%TF.SameCoordinates,Original*%
%TF.FileFunction,Legend,Bot*%
%TF.FilePolarity,Positive*%
%FSLAX46Y46*%
G04 Gerber Fmt 4.6, Leading zero omitted, Abs format (unit mm)*
G04 Created by KiCad (PCBNEW 10.0.1) date 2026-06-14 11:07:34*
%MOMM*%
%LPD*%
G01*
G04 APERTURE LIST*
%ADD10C,0.150000*%
%ADD11C,0.300000*%
%ADD12C,0.200000*%
%ADD13C,0.120000*%
%ADD14C,0.000000*%
%ADD15C,0.254000*%
%ADD16C,0.127000*%
G04 APERTURE END LIST*
D10*
X115272857Y-86904819D02*
X115606190Y-86428628D01*
X115844285Y-86904819D02*
X115844285Y-85904819D01*
X115844285Y-85904819D02*
X115463333Y-85904819D01*
X115463333Y-85904819D02*
X115368095Y-85952438D01*
X115368095Y-85952438D02*
X115320476Y-86000057D01*
X115320476Y-86000057D02*
X115272857Y-86095295D01*
X115272857Y-86095295D02*
X115272857Y-86238152D01*
X115272857Y-86238152D02*
X115320476Y-86333390D01*
X115320476Y-86333390D02*
X115368095Y-86381009D01*
X115368095Y-86381009D02*
X115463333Y-86428628D01*
X115463333Y-86428628D02*
X115844285Y-86428628D01*
X114415714Y-85904819D02*
X114606190Y-85904819D01*
X114606190Y-85904819D02*
X114701428Y-85952438D01*
X114701428Y-85952438D02*
X114749047Y-86000057D01*
X114749047Y-86000057D02*
X114844285Y-86142914D01*
X114844285Y-86142914D02*
X114891904Y-86333390D01*
X114891904Y-86333390D02*
X114891904Y-86714342D01*
X114891904Y-86714342D02*
X114844285Y-86809580D01*
X114844285Y-86809580D02*
X114796666Y-86857200D01*
X114796666Y-86857200D02*
X114701428Y-86904819D01*
X114701428Y-86904819D02*
X114510952Y-86904819D01*
X114510952Y-86904819D02*
X114415714Y-86857200D01*
X114415714Y-86857200D02*
X114368095Y-86809580D01*
X114368095Y-86809580D02*
X114320476Y-86714342D01*
X114320476Y-86714342D02*
X114320476Y-86476247D01*
X114320476Y-86476247D02*
X114368095Y-86381009D01*
X114368095Y-86381009D02*
X114415714Y-86333390D01*
X114415714Y-86333390D02*
X114510952Y-86285771D01*
X114510952Y-86285771D02*
X114701428Y-86285771D01*
X114701428Y-86285771D02*
X114796666Y-86333390D01*
X114796666Y-86333390D02*
X114844285Y-86381009D01*
X114844285Y-86381009D02*
X114891904Y-86476247D01*
X113749047Y-86333390D02*
X113844285Y-86285771D01*
X113844285Y-86285771D02*
X113891904Y-86238152D01*
X113891904Y-86238152D02*
X113939523Y-86142914D01*
X113939523Y-86142914D02*
X113939523Y-86095295D01*
X113939523Y-86095295D02*
X113891904Y-86000057D01*
X113891904Y-86000057D02*
X113844285Y-85952438D01*
X113844285Y-85952438D02*
X113749047Y-85904819D01*
X113749047Y-85904819D02*
X113558571Y-85904819D01*
X113558571Y-85904819D02*
X113463333Y-85952438D01*
X113463333Y-85952438D02*
X113415714Y-86000057D01*
X113415714Y-86000057D02*
X113368095Y-86095295D01*
X113368095Y-86095295D02*
X113368095Y-86142914D01*
X113368095Y-86142914D02*
X113415714Y-86238152D01*
X113415714Y-86238152D02*
X113463333Y-86285771D01*
X113463333Y-86285771D02*
X113558571Y-86333390D01*
X113558571Y-86333390D02*
X113749047Y-86333390D01*
X113749047Y-86333390D02*
X113844285Y-86381009D01*
X113844285Y-86381009D02*
X113891904Y-86428628D01*
X113891904Y-86428628D02*
X113939523Y-86523866D01*
X113939523Y-86523866D02*
X113939523Y-86714342D01*
X113939523Y-86714342D02*
X113891904Y-86809580D01*
X113891904Y-86809580D02*
X113844285Y-86857200D01*
X113844285Y-86857200D02*
X113749047Y-86904819D01*
X113749047Y-86904819D02*
X113558571Y-86904819D01*
X113558571Y-86904819D02*
X113463333Y-86857200D01*
X113463333Y-86857200D02*
X113415714Y-86809580D01*
X113415714Y-86809580D02*
X113368095Y-86714342D01*
X113368095Y-86714342D02*
X113368095Y-86523866D01*
X113368095Y-86523866D02*
X113415714Y-86428628D01*
X113415714Y-86428628D02*
X113463333Y-86381009D01*
X113463333Y-86381009D02*
X113558571Y-86333390D01*
X130564819Y-78363333D02*
X130088628Y-78030000D01*
X130564819Y-77791905D02*
X129564819Y-77791905D01*
X129564819Y-77791905D02*
X129564819Y-78172857D01*
X129564819Y-78172857D02*
X129612438Y-78268095D01*
X129612438Y-78268095D02*
X129660057Y-78315714D01*
X129660057Y-78315714D02*
X129755295Y-78363333D01*
X129755295Y-78363333D02*
X129898152Y-78363333D01*
X129898152Y-78363333D02*
X129993390Y-78315714D01*
X129993390Y-78315714D02*
X130041009Y-78268095D01*
X130041009Y-78268095D02*
X130088628Y-78172857D01*
X130088628Y-78172857D02*
X130088628Y-77791905D01*
X129660057Y-78744286D02*
X129612438Y-78791905D01*
X129612438Y-78791905D02*
X129564819Y-78887143D01*
X129564819Y-78887143D02*
X129564819Y-79125238D01*
X129564819Y-79125238D02*
X129612438Y-79220476D01*
X129612438Y-79220476D02*
X129660057Y-79268095D01*
X129660057Y-79268095D02*
X129755295Y-79315714D01*
X129755295Y-79315714D02*
X129850533Y-79315714D01*
X129850533Y-79315714D02*
X129993390Y-79268095D01*
X129993390Y-79268095D02*
X130564819Y-78696667D01*
X130564819Y-78696667D02*
X130564819Y-79315714D01*
X130359580Y-76052142D02*
X130407200Y-76004523D01*
X130407200Y-76004523D02*
X130454819Y-75861666D01*
X130454819Y-75861666D02*
X130454819Y-75766428D01*
X130454819Y-75766428D02*
X130407200Y-75623571D01*
X130407200Y-75623571D02*
X130311961Y-75528333D01*
X130311961Y-75528333D02*
X130216723Y-75480714D01*
X130216723Y-75480714D02*
X130026247Y-75433095D01*
X130026247Y-75433095D02*
X129883390Y-75433095D01*
X129883390Y-75433095D02*
X129692914Y-75480714D01*
X129692914Y-75480714D02*
X129597676Y-75528333D01*
X129597676Y-75528333D02*
X129502438Y-75623571D01*
X129502438Y-75623571D02*
X129454819Y-75766428D01*
X129454819Y-75766428D02*
X129454819Y-75861666D01*
X129454819Y-75861666D02*
X129502438Y-76004523D01*
X129502438Y-76004523D02*
X129550057Y-76052142D01*
X129454819Y-76909285D02*
X129454819Y-76718809D01*
X129454819Y-76718809D02*
X129502438Y-76623571D01*
X129502438Y-76623571D02*
X129550057Y-76575952D01*
X129550057Y-76575952D02*
X129692914Y-76480714D01*
X129692914Y-76480714D02*
X129883390Y-76433095D01*
X129883390Y-76433095D02*
X130264342Y-76433095D01*
X130264342Y-76433095D02*
X130359580Y-76480714D01*
X130359580Y-76480714D02*
X130407200Y-76528333D01*
X130407200Y-76528333D02*
X130454819Y-76623571D01*
X130454819Y-76623571D02*
X130454819Y-76814047D01*
X130454819Y-76814047D02*
X130407200Y-76909285D01*
X130407200Y-76909285D02*
X130359580Y-76956904D01*
X130359580Y-76956904D02*
X130264342Y-77004523D01*
X130264342Y-77004523D02*
X130026247Y-77004523D01*
X130026247Y-77004523D02*
X129931009Y-76956904D01*
X129931009Y-76956904D02*
X129883390Y-76909285D01*
X129883390Y-76909285D02*
X129835771Y-76814047D01*
X129835771Y-76814047D02*
X129835771Y-76623571D01*
X129835771Y-76623571D02*
X129883390Y-76528333D01*
X129883390Y-76528333D02*
X129931009Y-76480714D01*
X129931009Y-76480714D02*
X130026247Y-76433095D01*
X129883390Y-77575952D02*
X129835771Y-77480714D01*
X129835771Y-77480714D02*
X129788152Y-77433095D01*
X129788152Y-77433095D02*
X129692914Y-77385476D01*
X129692914Y-77385476D02*
X129645295Y-77385476D01*
X129645295Y-77385476D02*
X129550057Y-77433095D01*
X129550057Y-77433095D02*
X129502438Y-77480714D01*
X129502438Y-77480714D02*
X129454819Y-77575952D01*
X129454819Y-77575952D02*
X129454819Y-77766428D01*
X129454819Y-77766428D02*
X129502438Y-77861666D01*
X129502438Y-77861666D02*
X129550057Y-77909285D01*
X129550057Y-77909285D02*
X129645295Y-77956904D01*
X129645295Y-77956904D02*
X129692914Y-77956904D01*
X129692914Y-77956904D02*
X129788152Y-77909285D01*
X129788152Y-77909285D02*
X129835771Y-77861666D01*
X129835771Y-77861666D02*
X129883390Y-77766428D01*
X129883390Y-77766428D02*
X129883390Y-77575952D01*
X129883390Y-77575952D02*
X129931009Y-77480714D01*
X129931009Y-77480714D02*
X129978628Y-77433095D01*
X129978628Y-77433095D02*
X130073866Y-77385476D01*
X130073866Y-77385476D02*
X130264342Y-77385476D01*
X130264342Y-77385476D02*
X130359580Y-77433095D01*
X130359580Y-77433095D02*
X130407200Y-77480714D01*
X130407200Y-77480714D02*
X130454819Y-77575952D01*
X130454819Y-77575952D02*
X130454819Y-77766428D01*
X130454819Y-77766428D02*
X130407200Y-77861666D01*
X130407200Y-77861666D02*
X130359580Y-77909285D01*
X130359580Y-77909285D02*
X130264342Y-77956904D01*
X130264342Y-77956904D02*
X130073866Y-77956904D01*
X130073866Y-77956904D02*
X129978628Y-77909285D01*
X129978628Y-77909285D02*
X129931009Y-77861666D01*
X129931009Y-77861666D02*
X129883390Y-77766428D01*
X134591904Y-68176819D02*
X134020476Y-68176819D01*
X134306190Y-69176819D02*
X134306190Y-68176819D01*
X133687142Y-69176819D02*
X133687142Y-68176819D01*
X133687142Y-68176819D02*
X133306190Y-68176819D01*
X133306190Y-68176819D02*
X133210952Y-68224438D01*
X133210952Y-68224438D02*
X133163333Y-68272057D01*
X133163333Y-68272057D02*
X133115714Y-68367295D01*
X133115714Y-68367295D02*
X133115714Y-68510152D01*
X133115714Y-68510152D02*
X133163333Y-68605390D01*
X133163333Y-68605390D02*
X133210952Y-68653009D01*
X133210952Y-68653009D02*
X133306190Y-68700628D01*
X133306190Y-68700628D02*
X133687142Y-68700628D01*
X132782380Y-68176819D02*
X132163333Y-68176819D01*
X132163333Y-68176819D02*
X132496666Y-68557771D01*
X132496666Y-68557771D02*
X132353809Y-68557771D01*
X132353809Y-68557771D02*
X132258571Y-68605390D01*
X132258571Y-68605390D02*
X132210952Y-68653009D01*
X132210952Y-68653009D02*
X132163333Y-68748247D01*
X132163333Y-68748247D02*
X132163333Y-68986342D01*
X132163333Y-68986342D02*
X132210952Y-69081580D01*
X132210952Y-69081580D02*
X132258571Y-69129200D01*
X132258571Y-69129200D02*
X132353809Y-69176819D01*
X132353809Y-69176819D02*
X132639523Y-69176819D01*
X132639523Y-69176819D02*
X132734761Y-69129200D01*
X132734761Y-69129200D02*
X132782380Y-69081580D01*
X153806092Y-83747731D02*
X154513198Y-83040624D01*
X154513198Y-83040624D02*
X154344840Y-82872265D01*
X154344840Y-82872265D02*
X154210153Y-82804922D01*
X154210153Y-82804922D02*
X154075466Y-82804922D01*
X154075466Y-82804922D02*
X153974450Y-82838594D01*
X153974450Y-82838594D02*
X153806092Y-82939609D01*
X153806092Y-82939609D02*
X153705076Y-83040624D01*
X153705076Y-83040624D02*
X153604061Y-83208983D01*
X153604061Y-83208983D02*
X153570389Y-83309998D01*
X153570389Y-83309998D02*
X153570389Y-83444685D01*
X153570389Y-83444685D02*
X153637733Y-83579372D01*
X153637733Y-83579372D02*
X153806092Y-83747731D01*
X153267344Y-82266174D02*
X152795939Y-82737578D01*
X153705076Y-82165159D02*
X153368359Y-82838594D01*
X153368359Y-82838594D02*
X152930626Y-82400861D01*
X145604762Y-65581009D02*
X145938095Y-65581009D01*
X145938095Y-66104819D02*
X145938095Y-65104819D01*
X145938095Y-65104819D02*
X145461905Y-65104819D01*
X144938095Y-66104819D02*
X145033333Y-66057200D01*
X145033333Y-66057200D02*
X145080952Y-65961961D01*
X145080952Y-65961961D02*
X145080952Y-65104819D01*
X144128571Y-66104819D02*
X144128571Y-65581009D01*
X144128571Y-65581009D02*
X144176190Y-65485771D01*
X144176190Y-65485771D02*
X144271428Y-65438152D01*
X144271428Y-65438152D02*
X144461904Y-65438152D01*
X144461904Y-65438152D02*
X144557142Y-65485771D01*
X144128571Y-66057200D02*
X144223809Y-66104819D01*
X144223809Y-66104819D02*
X144461904Y-66104819D01*
X144461904Y-66104819D02*
X144557142Y-66057200D01*
X144557142Y-66057200D02*
X144604761Y-65961961D01*
X144604761Y-65961961D02*
X144604761Y-65866723D01*
X144604761Y-65866723D02*
X144557142Y-65771485D01*
X144557142Y-65771485D02*
X144461904Y-65723866D01*
X144461904Y-65723866D02*
X144223809Y-65723866D01*
X144223809Y-65723866D02*
X144128571Y-65676247D01*
X143699999Y-66057200D02*
X143604761Y-66104819D01*
X143604761Y-66104819D02*
X143414285Y-66104819D01*
X143414285Y-66104819D02*
X143319047Y-66057200D01*
X143319047Y-66057200D02*
X143271428Y-65961961D01*
X143271428Y-65961961D02*
X143271428Y-65914342D01*
X143271428Y-65914342D02*
X143319047Y-65819104D01*
X143319047Y-65819104D02*
X143414285Y-65771485D01*
X143414285Y-65771485D02*
X143557142Y-65771485D01*
X143557142Y-65771485D02*
X143652380Y-65723866D01*
X143652380Y-65723866D02*
X143699999Y-65628628D01*
X143699999Y-65628628D02*
X143699999Y-65581009D01*
X143699999Y-65581009D02*
X143652380Y-65485771D01*
X143652380Y-65485771D02*
X143557142Y-65438152D01*
X143557142Y-65438152D02*
X143414285Y-65438152D01*
X143414285Y-65438152D02*
X143319047Y-65485771D01*
X142842856Y-66104819D02*
X142842856Y-65104819D01*
X142414285Y-66104819D02*
X142414285Y-65581009D01*
X142414285Y-65581009D02*
X142461904Y-65485771D01*
X142461904Y-65485771D02*
X142557142Y-65438152D01*
X142557142Y-65438152D02*
X142699999Y-65438152D01*
X142699999Y-65438152D02*
X142795237Y-65485771D01*
X142795237Y-65485771D02*
X142842856Y-65533390D01*
X141414285Y-66104819D02*
X141985713Y-66104819D01*
X141699999Y-66104819D02*
X141699999Y-65104819D01*
X141699999Y-65104819D02*
X141795237Y-65247676D01*
X141795237Y-65247676D02*
X141890475Y-65342914D01*
X141890475Y-65342914D02*
X141985713Y-65390533D01*
X165529819Y-71676666D02*
X166244104Y-71676666D01*
X166244104Y-71676666D02*
X166386961Y-71629047D01*
X166386961Y-71629047D02*
X166482200Y-71533809D01*
X166482200Y-71533809D02*
X166529819Y-71390952D01*
X166529819Y-71390952D02*
X166529819Y-71295714D01*
X166529819Y-72676666D02*
X166529819Y-72105238D01*
X166529819Y-72390952D02*
X165529819Y-72390952D01*
X165529819Y-72390952D02*
X165672676Y-72295714D01*
X165672676Y-72295714D02*
X165767914Y-72200476D01*
X165767914Y-72200476D02*
X165815533Y-72105238D01*
X122414819Y-67677142D02*
X121938628Y-67343809D01*
X122414819Y-67105714D02*
X121414819Y-67105714D01*
X121414819Y-67105714D02*
X121414819Y-67486666D01*
X121414819Y-67486666D02*
X121462438Y-67581904D01*
X121462438Y-67581904D02*
X121510057Y-67629523D01*
X121510057Y-67629523D02*
X121605295Y-67677142D01*
X121605295Y-67677142D02*
X121748152Y-67677142D01*
X121748152Y-67677142D02*
X121843390Y-67629523D01*
X121843390Y-67629523D02*
X121891009Y-67581904D01*
X121891009Y-67581904D02*
X121938628Y-67486666D01*
X121938628Y-67486666D02*
X121938628Y-67105714D01*
X121414819Y-68581904D02*
X121414819Y-68105714D01*
X121414819Y-68105714D02*
X121891009Y-68058095D01*
X121891009Y-68058095D02*
X121843390Y-68105714D01*
X121843390Y-68105714D02*
X121795771Y-68200952D01*
X121795771Y-68200952D02*
X121795771Y-68439047D01*
X121795771Y-68439047D02*
X121843390Y-68534285D01*
X121843390Y-68534285D02*
X121891009Y-68581904D01*
X121891009Y-68581904D02*
X121986247Y-68629523D01*
X121986247Y-68629523D02*
X122224342Y-68629523D01*
X122224342Y-68629523D02*
X122319580Y-68581904D01*
X122319580Y-68581904D02*
X122367200Y-68534285D01*
X122367200Y-68534285D02*
X122414819Y-68439047D01*
X122414819Y-68439047D02*
X122414819Y-68200952D01*
X122414819Y-68200952D02*
X122367200Y-68105714D01*
X122367200Y-68105714D02*
X122319580Y-68058095D01*
X121414819Y-68962857D02*
X121414819Y-69581904D01*
X121414819Y-69581904D02*
X121795771Y-69248571D01*
X121795771Y-69248571D02*
X121795771Y-69391428D01*
X121795771Y-69391428D02*
X121843390Y-69486666D01*
X121843390Y-69486666D02*
X121891009Y-69534285D01*
X121891009Y-69534285D02*
X121986247Y-69581904D01*
X121986247Y-69581904D02*
X122224342Y-69581904D01*
X122224342Y-69581904D02*
X122319580Y-69534285D01*
X122319580Y-69534285D02*
X122367200Y-69486666D01*
X122367200Y-69486666D02*
X122414819Y-69391428D01*
X122414819Y-69391428D02*
X122414819Y-69105714D01*
X122414819Y-69105714D02*
X122367200Y-69010476D01*
X122367200Y-69010476D02*
X122319580Y-68962857D01*
X137174286Y-58614819D02*
X137507619Y-58138628D01*
X137745714Y-58614819D02*
X137745714Y-57614819D01*
X137745714Y-57614819D02*
X137364762Y-57614819D01*
X137364762Y-57614819D02*
X137269524Y-57662438D01*
X137269524Y-57662438D02*
X137221905Y-57710057D01*
X137221905Y-57710057D02*
X137174286Y-57805295D01*
X137174286Y-57805295D02*
X137174286Y-57948152D01*
X137174286Y-57948152D02*
X137221905Y-58043390D01*
X137221905Y-58043390D02*
X137269524Y-58091009D01*
X137269524Y-58091009D02*
X137364762Y-58138628D01*
X137364762Y-58138628D02*
X137745714Y-58138628D01*
X136364762Y-58567200D02*
X136460000Y-58614819D01*
X136460000Y-58614819D02*
X136650476Y-58614819D01*
X136650476Y-58614819D02*
X136745714Y-58567200D01*
X136745714Y-58567200D02*
X136793333Y-58471961D01*
X136793333Y-58471961D02*
X136793333Y-58091009D01*
X136793333Y-58091009D02*
X136745714Y-57995771D01*
X136745714Y-57995771D02*
X136650476Y-57948152D01*
X136650476Y-57948152D02*
X136460000Y-57948152D01*
X136460000Y-57948152D02*
X136364762Y-57995771D01*
X136364762Y-57995771D02*
X136317143Y-58091009D01*
X136317143Y-58091009D02*
X136317143Y-58186247D01*
X136317143Y-58186247D02*
X136793333Y-58281485D01*
X135936190Y-58567200D02*
X135840952Y-58614819D01*
X135840952Y-58614819D02*
X135650476Y-58614819D01*
X135650476Y-58614819D02*
X135555238Y-58567200D01*
X135555238Y-58567200D02*
X135507619Y-58471961D01*
X135507619Y-58471961D02*
X135507619Y-58424342D01*
X135507619Y-58424342D02*
X135555238Y-58329104D01*
X135555238Y-58329104D02*
X135650476Y-58281485D01*
X135650476Y-58281485D02*
X135793333Y-58281485D01*
X135793333Y-58281485D02*
X135888571Y-58233866D01*
X135888571Y-58233866D02*
X135936190Y-58138628D01*
X135936190Y-58138628D02*
X135936190Y-58091009D01*
X135936190Y-58091009D02*
X135888571Y-57995771D01*
X135888571Y-57995771D02*
X135793333Y-57948152D01*
X135793333Y-57948152D02*
X135650476Y-57948152D01*
X135650476Y-57948152D02*
X135555238Y-57995771D01*
X134698095Y-58567200D02*
X134793333Y-58614819D01*
X134793333Y-58614819D02*
X134983809Y-58614819D01*
X134983809Y-58614819D02*
X135079047Y-58567200D01*
X135079047Y-58567200D02*
X135126666Y-58471961D01*
X135126666Y-58471961D02*
X135126666Y-58091009D01*
X135126666Y-58091009D02*
X135079047Y-57995771D01*
X135079047Y-57995771D02*
X134983809Y-57948152D01*
X134983809Y-57948152D02*
X134793333Y-57948152D01*
X134793333Y-57948152D02*
X134698095Y-57995771D01*
X134698095Y-57995771D02*
X134650476Y-58091009D01*
X134650476Y-58091009D02*
X134650476Y-58186247D01*
X134650476Y-58186247D02*
X135126666Y-58281485D01*
X134364761Y-57948152D02*
X133983809Y-57948152D01*
X134221904Y-57614819D02*
X134221904Y-58471961D01*
X134221904Y-58471961D02*
X134174285Y-58567200D01*
X134174285Y-58567200D02*
X134079047Y-58614819D01*
X134079047Y-58614819D02*
X133983809Y-58614819D01*
X133698094Y-57710057D02*
X133650475Y-57662438D01*
X133650475Y-57662438D02*
X133555237Y-57614819D01*
X133555237Y-57614819D02*
X133317142Y-57614819D01*
X133317142Y-57614819D02*
X133221904Y-57662438D01*
X133221904Y-57662438D02*
X133174285Y-57710057D01*
X133174285Y-57710057D02*
X133126666Y-57805295D01*
X133126666Y-57805295D02*
X133126666Y-57900533D01*
X133126666Y-57900533D02*
X133174285Y-58043390D01*
X133174285Y-58043390D02*
X133745713Y-58614819D01*
X133745713Y-58614819D02*
X133126666Y-58614819D01*
X156976666Y-90054819D02*
X157309999Y-89578628D01*
X157548094Y-90054819D02*
X157548094Y-89054819D01*
X157548094Y-89054819D02*
X157167142Y-89054819D01*
X157167142Y-89054819D02*
X157071904Y-89102438D01*
X157071904Y-89102438D02*
X157024285Y-89150057D01*
X157024285Y-89150057D02*
X156976666Y-89245295D01*
X156976666Y-89245295D02*
X156976666Y-89388152D01*
X156976666Y-89388152D02*
X157024285Y-89483390D01*
X157024285Y-89483390D02*
X157071904Y-89531009D01*
X157071904Y-89531009D02*
X157167142Y-89578628D01*
X157167142Y-89578628D02*
X157548094Y-89578628D01*
X156119523Y-89054819D02*
X156309999Y-89054819D01*
X156309999Y-89054819D02*
X156405237Y-89102438D01*
X156405237Y-89102438D02*
X156452856Y-89150057D01*
X156452856Y-89150057D02*
X156548094Y-89292914D01*
X156548094Y-89292914D02*
X156595713Y-89483390D01*
X156595713Y-89483390D02*
X156595713Y-89864342D01*
X156595713Y-89864342D02*
X156548094Y-89959580D01*
X156548094Y-89959580D02*
X156500475Y-90007200D01*
X156500475Y-90007200D02*
X156405237Y-90054819D01*
X156405237Y-90054819D02*
X156214761Y-90054819D01*
X156214761Y-90054819D02*
X156119523Y-90007200D01*
X156119523Y-90007200D02*
X156071904Y-89959580D01*
X156071904Y-89959580D02*
X156024285Y-89864342D01*
X156024285Y-89864342D02*
X156024285Y-89626247D01*
X156024285Y-89626247D02*
X156071904Y-89531009D01*
X156071904Y-89531009D02*
X156119523Y-89483390D01*
X156119523Y-89483390D02*
X156214761Y-89435771D01*
X156214761Y-89435771D02*
X156405237Y-89435771D01*
X156405237Y-89435771D02*
X156500475Y-89483390D01*
X156500475Y-89483390D02*
X156548094Y-89531009D01*
X156548094Y-89531009D02*
X156595713Y-89626247D01*
D11*
X143034587Y-78799181D02*
X143177445Y-78727752D01*
X143177445Y-78727752D02*
X143391730Y-78727752D01*
X143391730Y-78727752D02*
X143606016Y-78799181D01*
X143606016Y-78799181D02*
X143748873Y-78942038D01*
X143748873Y-78942038D02*
X143820302Y-79084895D01*
X143820302Y-79084895D02*
X143891730Y-79370609D01*
X143891730Y-79370609D02*
X143891730Y-79584895D01*
X143891730Y-79584895D02*
X143820302Y-79870609D01*
X143820302Y-79870609D02*
X143748873Y-80013466D01*
X143748873Y-80013466D02*
X143606016Y-80156324D01*
X143606016Y-80156324D02*
X143391730Y-80227752D01*
X143391730Y-80227752D02*
X143248873Y-80227752D01*
X143248873Y-80227752D02*
X143034587Y-80156324D01*
X143034587Y-80156324D02*
X142963159Y-80084895D01*
X142963159Y-80084895D02*
X142963159Y-79584895D01*
X142963159Y-79584895D02*
X143248873Y-79584895D01*
X142106016Y-78727752D02*
X142106016Y-79084895D01*
X142463159Y-78942038D02*
X142106016Y-79084895D01*
X142106016Y-79084895D02*
X141748873Y-78942038D01*
X142320302Y-79370609D02*
X142106016Y-79084895D01*
X142106016Y-79084895D02*
X141891730Y-79370609D01*
X140963159Y-78727752D02*
X140963159Y-79084895D01*
X141320302Y-78942038D02*
X140963159Y-79084895D01*
X140963159Y-79084895D02*
X140606016Y-78942038D01*
X141177445Y-79370609D02*
X140963159Y-79084895D01*
X140963159Y-79084895D02*
X140748873Y-79370609D01*
X139820302Y-78727752D02*
X139820302Y-79084895D01*
X140177445Y-78942038D02*
X139820302Y-79084895D01*
X139820302Y-79084895D02*
X139463159Y-78942038D01*
X140034588Y-79370609D02*
X139820302Y-79084895D01*
X139820302Y-79084895D02*
X139606016Y-79370609D01*
D10*
X128019580Y-76347142D02*
X128067200Y-76299523D01*
X128067200Y-76299523D02*
X128114819Y-76156666D01*
X128114819Y-76156666D02*
X128114819Y-76061428D01*
X128114819Y-76061428D02*
X128067200Y-75918571D01*
X128067200Y-75918571D02*
X127971961Y-75823333D01*
X127971961Y-75823333D02*
X127876723Y-75775714D01*
X127876723Y-75775714D02*
X127686247Y-75728095D01*
X127686247Y-75728095D02*
X127543390Y-75728095D01*
X127543390Y-75728095D02*
X127352914Y-75775714D01*
X127352914Y-75775714D02*
X127257676Y-75823333D01*
X127257676Y-75823333D02*
X127162438Y-75918571D01*
X127162438Y-75918571D02*
X127114819Y-76061428D01*
X127114819Y-76061428D02*
X127114819Y-76156666D01*
X127114819Y-76156666D02*
X127162438Y-76299523D01*
X127162438Y-76299523D02*
X127210057Y-76347142D01*
X127114819Y-77204285D02*
X127114819Y-77013809D01*
X127114819Y-77013809D02*
X127162438Y-76918571D01*
X127162438Y-76918571D02*
X127210057Y-76870952D01*
X127210057Y-76870952D02*
X127352914Y-76775714D01*
X127352914Y-76775714D02*
X127543390Y-76728095D01*
X127543390Y-76728095D02*
X127924342Y-76728095D01*
X127924342Y-76728095D02*
X128019580Y-76775714D01*
X128019580Y-76775714D02*
X128067200Y-76823333D01*
X128067200Y-76823333D02*
X128114819Y-76918571D01*
X128114819Y-76918571D02*
X128114819Y-77109047D01*
X128114819Y-77109047D02*
X128067200Y-77204285D01*
X128067200Y-77204285D02*
X128019580Y-77251904D01*
X128019580Y-77251904D02*
X127924342Y-77299523D01*
X127924342Y-77299523D02*
X127686247Y-77299523D01*
X127686247Y-77299523D02*
X127591009Y-77251904D01*
X127591009Y-77251904D02*
X127543390Y-77204285D01*
X127543390Y-77204285D02*
X127495771Y-77109047D01*
X127495771Y-77109047D02*
X127495771Y-76918571D01*
X127495771Y-76918571D02*
X127543390Y-76823333D01*
X127543390Y-76823333D02*
X127591009Y-76775714D01*
X127591009Y-76775714D02*
X127686247Y-76728095D01*
X128114819Y-77775714D02*
X128114819Y-77966190D01*
X128114819Y-77966190D02*
X128067200Y-78061428D01*
X128067200Y-78061428D02*
X128019580Y-78109047D01*
X128019580Y-78109047D02*
X127876723Y-78204285D01*
X127876723Y-78204285D02*
X127686247Y-78251904D01*
X127686247Y-78251904D02*
X127305295Y-78251904D01*
X127305295Y-78251904D02*
X127210057Y-78204285D01*
X127210057Y-78204285D02*
X127162438Y-78156666D01*
X127162438Y-78156666D02*
X127114819Y-78061428D01*
X127114819Y-78061428D02*
X127114819Y-77870952D01*
X127114819Y-77870952D02*
X127162438Y-77775714D01*
X127162438Y-77775714D02*
X127210057Y-77728095D01*
X127210057Y-77728095D02*
X127305295Y-77680476D01*
X127305295Y-77680476D02*
X127543390Y-77680476D01*
X127543390Y-77680476D02*
X127638628Y-77728095D01*
X127638628Y-77728095D02*
X127686247Y-77775714D01*
X127686247Y-77775714D02*
X127733866Y-77870952D01*
X127733866Y-77870952D02*
X127733866Y-78061428D01*
X127733866Y-78061428D02*
X127686247Y-78156666D01*
X127686247Y-78156666D02*
X127638628Y-78204285D01*
X127638628Y-78204285D02*
X127543390Y-78251904D01*
X123474299Y-67677142D02*
X122998108Y-67343809D01*
X123474299Y-67105714D02*
X122474299Y-67105714D01*
X122474299Y-67105714D02*
X122474299Y-67486666D01*
X122474299Y-67486666D02*
X122521918Y-67581904D01*
X122521918Y-67581904D02*
X122569537Y-67629523D01*
X122569537Y-67629523D02*
X122664775Y-67677142D01*
X122664775Y-67677142D02*
X122807632Y-67677142D01*
X122807632Y-67677142D02*
X122902870Y-67629523D01*
X122902870Y-67629523D02*
X122950489Y-67581904D01*
X122950489Y-67581904D02*
X122998108Y-67486666D01*
X122998108Y-67486666D02*
X122998108Y-67105714D01*
X122474299Y-68534285D02*
X122474299Y-68343809D01*
X122474299Y-68343809D02*
X122521918Y-68248571D01*
X122521918Y-68248571D02*
X122569537Y-68200952D01*
X122569537Y-68200952D02*
X122712394Y-68105714D01*
X122712394Y-68105714D02*
X122902870Y-68058095D01*
X122902870Y-68058095D02*
X123283822Y-68058095D01*
X123283822Y-68058095D02*
X123379060Y-68105714D01*
X123379060Y-68105714D02*
X123426680Y-68153333D01*
X123426680Y-68153333D02*
X123474299Y-68248571D01*
X123474299Y-68248571D02*
X123474299Y-68439047D01*
X123474299Y-68439047D02*
X123426680Y-68534285D01*
X123426680Y-68534285D02*
X123379060Y-68581904D01*
X123379060Y-68581904D02*
X123283822Y-68629523D01*
X123283822Y-68629523D02*
X123045727Y-68629523D01*
X123045727Y-68629523D02*
X122950489Y-68581904D01*
X122950489Y-68581904D02*
X122902870Y-68534285D01*
X122902870Y-68534285D02*
X122855251Y-68439047D01*
X122855251Y-68439047D02*
X122855251Y-68248571D01*
X122855251Y-68248571D02*
X122902870Y-68153333D01*
X122902870Y-68153333D02*
X122950489Y-68105714D01*
X122950489Y-68105714D02*
X123045727Y-68058095D01*
X123474299Y-69105714D02*
X123474299Y-69296190D01*
X123474299Y-69296190D02*
X123426680Y-69391428D01*
X123426680Y-69391428D02*
X123379060Y-69439047D01*
X123379060Y-69439047D02*
X123236203Y-69534285D01*
X123236203Y-69534285D02*
X123045727Y-69581904D01*
X123045727Y-69581904D02*
X122664775Y-69581904D01*
X122664775Y-69581904D02*
X122569537Y-69534285D01*
X122569537Y-69534285D02*
X122521918Y-69486666D01*
X122521918Y-69486666D02*
X122474299Y-69391428D01*
X122474299Y-69391428D02*
X122474299Y-69200952D01*
X122474299Y-69200952D02*
X122521918Y-69105714D01*
X122521918Y-69105714D02*
X122569537Y-69058095D01*
X122569537Y-69058095D02*
X122664775Y-69010476D01*
X122664775Y-69010476D02*
X122902870Y-69010476D01*
X122902870Y-69010476D02*
X122998108Y-69058095D01*
X122998108Y-69058095D02*
X123045727Y-69105714D01*
X123045727Y-69105714D02*
X123093346Y-69200952D01*
X123093346Y-69200952D02*
X123093346Y-69391428D01*
X123093346Y-69391428D02*
X123045727Y-69486666D01*
X123045727Y-69486666D02*
X122998108Y-69534285D01*
X122998108Y-69534285D02*
X122902870Y-69581904D01*
X165414819Y-76906666D02*
X166129104Y-76906666D01*
X166129104Y-76906666D02*
X166271961Y-76859047D01*
X166271961Y-76859047D02*
X166367200Y-76763809D01*
X166367200Y-76763809D02*
X166414819Y-76620952D01*
X166414819Y-76620952D02*
X166414819Y-76525714D01*
X165414819Y-77859047D02*
X165414819Y-77382857D01*
X165414819Y-77382857D02*
X165891009Y-77335238D01*
X165891009Y-77335238D02*
X165843390Y-77382857D01*
X165843390Y-77382857D02*
X165795771Y-77478095D01*
X165795771Y-77478095D02*
X165795771Y-77716190D01*
X165795771Y-77716190D02*
X165843390Y-77811428D01*
X165843390Y-77811428D02*
X165891009Y-77859047D01*
X165891009Y-77859047D02*
X165986247Y-77906666D01*
X165986247Y-77906666D02*
X166224342Y-77906666D01*
X166224342Y-77906666D02*
X166319580Y-77859047D01*
X166319580Y-77859047D02*
X166367200Y-77811428D01*
X166367200Y-77811428D02*
X166414819Y-77716190D01*
X166414819Y-77716190D02*
X166414819Y-77478095D01*
X166414819Y-77478095D02*
X166367200Y-77382857D01*
X166367200Y-77382857D02*
X166319580Y-77335238D01*
X163214509Y-89703997D02*
X163248181Y-89602982D01*
X163248181Y-89602982D02*
X163248181Y-89468295D01*
X163248181Y-89468295D02*
X163248181Y-89266264D01*
X163248181Y-89266264D02*
X163281853Y-89165249D01*
X163281853Y-89165249D02*
X163349196Y-89097906D01*
X163483883Y-89299936D02*
X163517555Y-89198921D01*
X163517555Y-89198921D02*
X163517555Y-89064234D01*
X163517555Y-89064234D02*
X163416540Y-88895875D01*
X163416540Y-88895875D02*
X163180837Y-88660173D01*
X163180837Y-88660173D02*
X163012479Y-88559158D01*
X163012479Y-88559158D02*
X162877792Y-88559158D01*
X162877792Y-88559158D02*
X162776776Y-88592829D01*
X162776776Y-88592829D02*
X162642089Y-88727516D01*
X162642089Y-88727516D02*
X162608418Y-88828532D01*
X162608418Y-88828532D02*
X162608418Y-88963219D01*
X162608418Y-88963219D02*
X162709433Y-89131577D01*
X162709433Y-89131577D02*
X162945135Y-89367280D01*
X162945135Y-89367280D02*
X163113494Y-89468295D01*
X163113494Y-89468295D02*
X163248181Y-89468295D01*
X163248181Y-89468295D02*
X163349196Y-89434623D01*
X163349196Y-89434623D02*
X163483883Y-89299936D01*
X162507402Y-90276417D02*
X162911463Y-89872356D01*
X162709433Y-90074386D02*
X162002326Y-89367280D01*
X162002326Y-89367280D02*
X162170685Y-89400951D01*
X162170685Y-89400951D02*
X162305372Y-89400951D01*
X162305372Y-89400951D02*
X162406387Y-89367280D01*
X120294819Y-67677142D02*
X119818628Y-67343809D01*
X120294819Y-67105714D02*
X119294819Y-67105714D01*
X119294819Y-67105714D02*
X119294819Y-67486666D01*
X119294819Y-67486666D02*
X119342438Y-67581904D01*
X119342438Y-67581904D02*
X119390057Y-67629523D01*
X119390057Y-67629523D02*
X119485295Y-67677142D01*
X119485295Y-67677142D02*
X119628152Y-67677142D01*
X119628152Y-67677142D02*
X119723390Y-67629523D01*
X119723390Y-67629523D02*
X119771009Y-67581904D01*
X119771009Y-67581904D02*
X119818628Y-67486666D01*
X119818628Y-67486666D02*
X119818628Y-67105714D01*
X119294819Y-68010476D02*
X119294819Y-68677142D01*
X119294819Y-68677142D02*
X120294819Y-68248571D01*
X120294819Y-69581904D02*
X120294819Y-69010476D01*
X120294819Y-69296190D02*
X119294819Y-69296190D01*
X119294819Y-69296190D02*
X119437676Y-69200952D01*
X119437676Y-69200952D02*
X119532914Y-69105714D01*
X119532914Y-69105714D02*
X119580533Y-69010476D01*
X132541904Y-68176819D02*
X131970476Y-68176819D01*
X132256190Y-69176819D02*
X132256190Y-68176819D01*
X131637142Y-69176819D02*
X131637142Y-68176819D01*
X131637142Y-68176819D02*
X131256190Y-68176819D01*
X131256190Y-68176819D02*
X131160952Y-68224438D01*
X131160952Y-68224438D02*
X131113333Y-68272057D01*
X131113333Y-68272057D02*
X131065714Y-68367295D01*
X131065714Y-68367295D02*
X131065714Y-68510152D01*
X131065714Y-68510152D02*
X131113333Y-68605390D01*
X131113333Y-68605390D02*
X131160952Y-68653009D01*
X131160952Y-68653009D02*
X131256190Y-68700628D01*
X131256190Y-68700628D02*
X131637142Y-68700628D01*
X130208571Y-68510152D02*
X130208571Y-69176819D01*
X130446666Y-68129200D02*
X130684761Y-68843485D01*
X130684761Y-68843485D02*
X130065714Y-68843485D01*
X147040601Y-81174746D02*
X146973258Y-81309433D01*
X146973258Y-81309433D02*
X146973258Y-81376777D01*
X146973258Y-81376777D02*
X147006930Y-81477792D01*
X147006930Y-81477792D02*
X147107945Y-81578807D01*
X147107945Y-81578807D02*
X147208960Y-81612479D01*
X147208960Y-81612479D02*
X147276304Y-81612479D01*
X147276304Y-81612479D02*
X147377319Y-81578807D01*
X147377319Y-81578807D02*
X147646693Y-81309433D01*
X147646693Y-81309433D02*
X146939586Y-80602327D01*
X146939586Y-80602327D02*
X146703884Y-80838029D01*
X146703884Y-80838029D02*
X146670212Y-80939044D01*
X146670212Y-80939044D02*
X146670212Y-81006388D01*
X146670212Y-81006388D02*
X146703884Y-81107403D01*
X146703884Y-81107403D02*
X146771227Y-81174746D01*
X146771227Y-81174746D02*
X146872243Y-81208418D01*
X146872243Y-81208418D02*
X146939586Y-81208418D01*
X146939586Y-81208418D02*
X147040601Y-81174746D01*
X147040601Y-81174746D02*
X147276304Y-80939044D01*
X146299823Y-81242090D02*
X145828418Y-81713494D01*
X145828418Y-81713494D02*
X147006930Y-81949197D01*
X147006930Y-81949197D02*
X146535525Y-82420601D01*
X145895762Y-83060365D02*
X146299823Y-82656304D01*
X146097792Y-82858334D02*
X145390685Y-82151227D01*
X145390685Y-82151227D02*
X145559044Y-82184899D01*
X145559044Y-82184899D02*
X145693731Y-82184899D01*
X145693731Y-82184899D02*
X145794746Y-82151227D01*
X129402468Y-81030427D02*
X130117845Y-81030427D01*
X130117845Y-81030427D02*
X130260921Y-80982736D01*
X130260921Y-80982736D02*
X130356305Y-80887352D01*
X130356305Y-80887352D02*
X130403996Y-80744277D01*
X130403996Y-80744277D02*
X130403996Y-80648893D01*
X129736311Y-81936572D02*
X130403996Y-81936572D01*
X129354777Y-81698113D02*
X130070154Y-81459654D01*
X130070154Y-81459654D02*
X130070154Y-82079647D01*
X121354299Y-67677142D02*
X120878108Y-67343809D01*
X121354299Y-67105714D02*
X120354299Y-67105714D01*
X120354299Y-67105714D02*
X120354299Y-67486666D01*
X120354299Y-67486666D02*
X120401918Y-67581904D01*
X120401918Y-67581904D02*
X120449537Y-67629523D01*
X120449537Y-67629523D02*
X120544775Y-67677142D01*
X120544775Y-67677142D02*
X120687632Y-67677142D01*
X120687632Y-67677142D02*
X120782870Y-67629523D01*
X120782870Y-67629523D02*
X120830489Y-67581904D01*
X120830489Y-67581904D02*
X120878108Y-67486666D01*
X120878108Y-67486666D02*
X120878108Y-67105714D01*
X120354299Y-68010476D02*
X120354299Y-68677142D01*
X120354299Y-68677142D02*
X121354299Y-68248571D01*
X120354299Y-69248571D02*
X120354299Y-69343809D01*
X120354299Y-69343809D02*
X120401918Y-69439047D01*
X120401918Y-69439047D02*
X120449537Y-69486666D01*
X120449537Y-69486666D02*
X120544775Y-69534285D01*
X120544775Y-69534285D02*
X120735251Y-69581904D01*
X120735251Y-69581904D02*
X120973346Y-69581904D01*
X120973346Y-69581904D02*
X121163822Y-69534285D01*
X121163822Y-69534285D02*
X121259060Y-69486666D01*
X121259060Y-69486666D02*
X121306680Y-69439047D01*
X121306680Y-69439047D02*
X121354299Y-69343809D01*
X121354299Y-69343809D02*
X121354299Y-69248571D01*
X121354299Y-69248571D02*
X121306680Y-69153333D01*
X121306680Y-69153333D02*
X121259060Y-69105714D01*
X121259060Y-69105714D02*
X121163822Y-69058095D01*
X121163822Y-69058095D02*
X120973346Y-69010476D01*
X120973346Y-69010476D02*
X120735251Y-69010476D01*
X120735251Y-69010476D02*
X120544775Y-69058095D01*
X120544775Y-69058095D02*
X120449537Y-69105714D01*
X120449537Y-69105714D02*
X120401918Y-69153333D01*
X120401918Y-69153333D02*
X120354299Y-69248571D01*
X124534299Y-67677142D02*
X124058108Y-67343809D01*
X124534299Y-67105714D02*
X123534299Y-67105714D01*
X123534299Y-67105714D02*
X123534299Y-67486666D01*
X123534299Y-67486666D02*
X123581918Y-67581904D01*
X123581918Y-67581904D02*
X123629537Y-67629523D01*
X123629537Y-67629523D02*
X123724775Y-67677142D01*
X123724775Y-67677142D02*
X123867632Y-67677142D01*
X123867632Y-67677142D02*
X123962870Y-67629523D01*
X123962870Y-67629523D02*
X124010489Y-67581904D01*
X124010489Y-67581904D02*
X124058108Y-67486666D01*
X124058108Y-67486666D02*
X124058108Y-67105714D01*
X123534299Y-68010476D02*
X123534299Y-68677142D01*
X123534299Y-68677142D02*
X124534299Y-68248571D01*
X123629537Y-69010476D02*
X123581918Y-69058095D01*
X123581918Y-69058095D02*
X123534299Y-69153333D01*
X123534299Y-69153333D02*
X123534299Y-69391428D01*
X123534299Y-69391428D02*
X123581918Y-69486666D01*
X123581918Y-69486666D02*
X123629537Y-69534285D01*
X123629537Y-69534285D02*
X123724775Y-69581904D01*
X123724775Y-69581904D02*
X123820013Y-69581904D01*
X123820013Y-69581904D02*
X123962870Y-69534285D01*
X123962870Y-69534285D02*
X124534299Y-68962857D01*
X124534299Y-68962857D02*
X124534299Y-69581904D01*
X128022857Y-66199580D02*
X128070476Y-66247200D01*
X128070476Y-66247200D02*
X128213333Y-66294819D01*
X128213333Y-66294819D02*
X128308571Y-66294819D01*
X128308571Y-66294819D02*
X128451428Y-66247200D01*
X128451428Y-66247200D02*
X128546666Y-66151961D01*
X128546666Y-66151961D02*
X128594285Y-66056723D01*
X128594285Y-66056723D02*
X128641904Y-65866247D01*
X128641904Y-65866247D02*
X128641904Y-65723390D01*
X128641904Y-65723390D02*
X128594285Y-65532914D01*
X128594285Y-65532914D02*
X128546666Y-65437676D01*
X128546666Y-65437676D02*
X128451428Y-65342438D01*
X128451428Y-65342438D02*
X128308571Y-65294819D01*
X128308571Y-65294819D02*
X128213333Y-65294819D01*
X128213333Y-65294819D02*
X128070476Y-65342438D01*
X128070476Y-65342438D02*
X128022857Y-65390057D01*
X127689523Y-65294819D02*
X127070476Y-65294819D01*
X127070476Y-65294819D02*
X127403809Y-65675771D01*
X127403809Y-65675771D02*
X127260952Y-65675771D01*
X127260952Y-65675771D02*
X127165714Y-65723390D01*
X127165714Y-65723390D02*
X127118095Y-65771009D01*
X127118095Y-65771009D02*
X127070476Y-65866247D01*
X127070476Y-65866247D02*
X127070476Y-66104342D01*
X127070476Y-66104342D02*
X127118095Y-66199580D01*
X127118095Y-66199580D02*
X127165714Y-66247200D01*
X127165714Y-66247200D02*
X127260952Y-66294819D01*
X127260952Y-66294819D02*
X127546666Y-66294819D01*
X127546666Y-66294819D02*
X127641904Y-66247200D01*
X127641904Y-66247200D02*
X127689523Y-66199580D01*
X126165714Y-65294819D02*
X126641904Y-65294819D01*
X126641904Y-65294819D02*
X126689523Y-65771009D01*
X126689523Y-65771009D02*
X126641904Y-65723390D01*
X126641904Y-65723390D02*
X126546666Y-65675771D01*
X126546666Y-65675771D02*
X126308571Y-65675771D01*
X126308571Y-65675771D02*
X126213333Y-65723390D01*
X126213333Y-65723390D02*
X126165714Y-65771009D01*
X126165714Y-65771009D02*
X126118095Y-65866247D01*
X126118095Y-65866247D02*
X126118095Y-66104342D01*
X126118095Y-66104342D02*
X126165714Y-66199580D01*
X126165714Y-66199580D02*
X126213333Y-66247200D01*
X126213333Y-66247200D02*
X126308571Y-66294819D01*
X126308571Y-66294819D02*
X126546666Y-66294819D01*
X126546666Y-66294819D02*
X126641904Y-66247200D01*
X126641904Y-66247200D02*
X126689523Y-66199580D01*
%TO.C,U3*%
D12*
X106630000Y-87460000D02*
G75*
G02*
X106430000Y-87460000I-100000J0D01*
G01*
X106430000Y-87460000D02*
G75*
G02*
X106630000Y-87460000I100000J0D01*
G01*
%TO.C,R68*%
D13*
X114476359Y-84900000D02*
X114783641Y-84900000D01*
X114476359Y-85660000D02*
X114783641Y-85660000D01*
%TO.C,R2*%
X130900000Y-78376359D02*
X130900000Y-78683641D01*
X131660000Y-78376359D02*
X131660000Y-78683641D01*
%TO.C,C68*%
X128060000Y-76835580D02*
X128060000Y-76554420D01*
X129080000Y-76835580D02*
X129080000Y-76554420D01*
%TO.C,TP3*%
X132630000Y-69470000D02*
X132630000Y-70870000D01*
X132630000Y-70870000D02*
X134030000Y-70870000D01*
X134030000Y-69470000D02*
X132630000Y-69470000D01*
X134030000Y-70870000D02*
X134030000Y-69470000D01*
%TO.C,D4*%
X152644121Y-80528335D02*
X154058335Y-79114121D01*
X152644121Y-80528335D02*
X155479619Y-83363833D01*
X154058335Y-79114121D02*
X156893833Y-81949619D01*
%TO.C,Flash1*%
X140950000Y-62900000D02*
X140950000Y-60900000D01*
X141950000Y-59600000D02*
X142400000Y-59150000D01*
X141950000Y-64200000D02*
X142400000Y-64650000D01*
X142400000Y-59150000D02*
X145000000Y-59150000D01*
X142400000Y-64650000D02*
X145000000Y-64650000D01*
X145450000Y-59600000D02*
X145000000Y-59150000D01*
X145450000Y-64200000D02*
X145000000Y-64650000D01*
X146450000Y-62900000D02*
X146450000Y-60900000D01*
%TO.C,J1*%
X159410000Y-73950000D02*
X159410000Y-70070000D01*
X161380000Y-68900000D02*
X163880000Y-68900000D01*
X161380000Y-75120000D02*
X163880000Y-75120000D01*
X163880000Y-68900000D02*
X163880000Y-69950000D01*
X163880000Y-74070000D02*
X164870000Y-74070000D01*
X163880000Y-75120000D02*
X163880000Y-74070000D01*
%TO.C,R53*%
X120410000Y-68473641D02*
X120410000Y-68166359D01*
X121170000Y-68473641D02*
X121170000Y-68166359D01*
%TO.C,Reset2*%
X132710000Y-60910000D02*
X132710000Y-62910000D01*
X133710000Y-59610000D02*
X134160000Y-59160000D01*
X133710000Y-64210000D02*
X134160000Y-64660000D01*
X136760000Y-59160000D02*
X134160000Y-59160000D01*
X136760000Y-64660000D02*
X134160000Y-64660000D01*
X137210000Y-59610000D02*
X136760000Y-59160000D01*
X137210000Y-64210000D02*
X136760000Y-64660000D01*
X138210000Y-60910000D02*
X138210000Y-62910000D01*
%TO.C,R6*%
X156656359Y-88050000D02*
X156963641Y-88050000D01*
X156656359Y-88810000D02*
X156963641Y-88810000D01*
D14*
%TO.C,G\u002A\u002A\u002A*%
G36*
X128112451Y-84698478D02*
G01*
X128097439Y-84713489D01*
X128082427Y-84698478D01*
X128097439Y-84683466D01*
X128112451Y-84698478D01*
G37*
G36*
X134207250Y-77552851D02*
G01*
X134192238Y-77567863D01*
X134177226Y-77552851D01*
X134192238Y-77537839D01*
X134207250Y-77552851D01*
G37*
G36*
X134207250Y-77672946D02*
G01*
X134192238Y-77687957D01*
X134177226Y-77672946D01*
X134192238Y-77657934D01*
X134207250Y-77672946D01*
G37*
G36*
X150780300Y-82987130D02*
G01*
X150765288Y-83002142D01*
X150750276Y-82987130D01*
X150765288Y-82972118D01*
X150780300Y-82987130D01*
G37*
G36*
X151290702Y-82867035D02*
G01*
X151275690Y-82882047D01*
X151260678Y-82867035D01*
X151275690Y-82852024D01*
X151290702Y-82867035D01*
G37*
G36*
X152942002Y-78513608D02*
G01*
X152926990Y-78528619D01*
X152911978Y-78513608D01*
X152926990Y-78498596D01*
X152942002Y-78513608D01*
G37*
G36*
X153152167Y-79114080D02*
G01*
X153137155Y-79129092D01*
X153122144Y-79114080D01*
X153137155Y-79099069D01*
X153152167Y-79114080D01*
G37*
G36*
X153332309Y-78753797D02*
G01*
X153317297Y-78768809D01*
X153302285Y-78753797D01*
X153317297Y-78738785D01*
X153332309Y-78753797D01*
G37*
G36*
X153902758Y-85539139D02*
G01*
X153887746Y-85554151D01*
X153872735Y-85539139D01*
X153887746Y-85524128D01*
X153902758Y-85539139D01*
G37*
G36*
X153922774Y-85444065D02*
G01*
X153927471Y-85453095D01*
X153902758Y-85464080D01*
X153886864Y-85461914D01*
X153882743Y-85444065D01*
X153887143Y-85440471D01*
X153922774Y-85444065D01*
G37*
G36*
X153981565Y-85321972D02*
G01*
X153962203Y-85359723D01*
X153937673Y-85383654D01*
X153910485Y-85391744D01*
X153905791Y-85369996D01*
X153928921Y-85332722D01*
X153968254Y-85313962D01*
X153981565Y-85321972D01*
G37*
G36*
X128309340Y-89728788D02*
G01*
X128337628Y-89757461D01*
X128343221Y-89768091D01*
X128341172Y-89787485D01*
X128335893Y-89786134D01*
X128307605Y-89757461D01*
X128302012Y-89746831D01*
X128304061Y-89727437D01*
X128309340Y-89728788D01*
G37*
G36*
X130302616Y-80340669D02*
G01*
X130356221Y-80345822D01*
X130392566Y-80364668D01*
X130375288Y-80399037D01*
X130348737Y-80403518D01*
X130292723Y-80384962D01*
X130276494Y-80376508D01*
X130229061Y-80348989D01*
X130237206Y-80339558D01*
X130302616Y-80340669D01*
G37*
G36*
X131621579Y-80185542D02*
G01*
X131710742Y-80193243D01*
X131744237Y-80214074D01*
X131725296Y-80249975D01*
X131697295Y-80265563D01*
X131625947Y-80263895D01*
X131548390Y-80226987D01*
X131533474Y-80215660D01*
X131515686Y-80194686D01*
X131540939Y-80186321D01*
X131617711Y-80185491D01*
X131621579Y-80185542D01*
G37*
G36*
X145115609Y-75676374D02*
G01*
X145162862Y-75719197D01*
X145234718Y-75764700D01*
X145318568Y-75807991D01*
X145249730Y-75846201D01*
X145199155Y-75872638D01*
X145162032Y-75877217D01*
X145138584Y-75842433D01*
X145114306Y-75758939D01*
X145097782Y-75690376D01*
X145097077Y-75660825D01*
X145115609Y-75676374D01*
G37*
G36*
X151220034Y-83002213D02*
G01*
X151212298Y-83028989D01*
X151183196Y-83094775D01*
X151138714Y-83185987D01*
X151135431Y-83192446D01*
X151086890Y-83278176D01*
X151046791Y-83332394D01*
X151023530Y-83343611D01*
X151006461Y-83322541D01*
X150959672Y-83262922D01*
X150899207Y-83184731D01*
X150797264Y-83052071D01*
X150895732Y-83071765D01*
X150972885Y-83076471D01*
X151101082Y-83046800D01*
X151120983Y-83038569D01*
X151187144Y-83012606D01*
X151219741Y-83002142D01*
X151220034Y-83002213D01*
G37*
G36*
X133413989Y-80054009D02*
G01*
X133402535Y-80116893D01*
X133377419Y-80205319D01*
X133356276Y-80267238D01*
X133329737Y-80334093D01*
X133313820Y-80360061D01*
X133307429Y-80358392D01*
X133265327Y-80330367D01*
X133208505Y-80281818D01*
X133157345Y-80231097D01*
X133132228Y-80196556D01*
X133150544Y-80173709D01*
X133208116Y-80157002D01*
X133270031Y-80138321D01*
X133315831Y-80102205D01*
X133332292Y-80082368D01*
X133368433Y-80075977D01*
X133379970Y-80079863D01*
X133396612Y-80056593D01*
X133397900Y-80043186D01*
X133412003Y-80035185D01*
X133413989Y-80054009D01*
G37*
G36*
X152952578Y-78834966D02*
G01*
X152961829Y-78918746D01*
X152957294Y-78974058D01*
X152952284Y-79034404D01*
X152977329Y-79117821D01*
X153024683Y-79190375D01*
X153082228Y-79227490D01*
X153128823Y-79228816D01*
X153152167Y-79198216D01*
X153155661Y-79180095D01*
X153181018Y-79173403D01*
X153193221Y-79169491D01*
X153213454Y-79123233D01*
X153229921Y-79040068D01*
X153239338Y-78984783D01*
X153259320Y-78915841D01*
X153279883Y-78888903D01*
X153296175Y-78912213D01*
X153293821Y-78971468D01*
X153289321Y-78998672D01*
X153276443Y-79083336D01*
X153256758Y-79216402D01*
X153231203Y-79391413D01*
X153200716Y-79601909D01*
X153166236Y-79841430D01*
X153128699Y-80103518D01*
X153089045Y-80381714D01*
X153058593Y-80594663D01*
X153021003Y-80854122D01*
X152986365Y-81089446D01*
X152955574Y-81294749D01*
X152929526Y-81464140D01*
X152909117Y-81591730D01*
X152895243Y-81671632D01*
X152888800Y-81697955D01*
X152888368Y-81696354D01*
X152886759Y-81653879D01*
X152886112Y-81558245D01*
X152886386Y-81415202D01*
X152887536Y-81230502D01*
X152889521Y-81009894D01*
X152892296Y-80759130D01*
X152895820Y-80483959D01*
X152900049Y-80190133D01*
X152903566Y-79970735D01*
X152909568Y-79649042D01*
X152915801Y-79376365D01*
X152922203Y-79154542D01*
X152928708Y-78985411D01*
X152935253Y-78870812D01*
X152941774Y-78812583D01*
X152948205Y-78812562D01*
X152952578Y-78834966D01*
G37*
G36*
X152835116Y-68753775D02*
G01*
X152839203Y-68854877D01*
X152842523Y-68994605D01*
X152845086Y-69175103D01*
X152846897Y-69398510D01*
X152847966Y-69666970D01*
X152848299Y-69982623D01*
X152847905Y-70347611D01*
X152846791Y-70764077D01*
X152844965Y-71234160D01*
X152842435Y-71760004D01*
X152839208Y-72343749D01*
X152837957Y-72555791D01*
X152835107Y-73020202D01*
X152832181Y-73473072D01*
X152829214Y-73909993D01*
X152826242Y-74326554D01*
X152823301Y-74718346D01*
X152820425Y-75080959D01*
X152817652Y-75409984D01*
X152815015Y-75701010D01*
X152812551Y-75949629D01*
X152810295Y-76151430D01*
X152808282Y-76302004D01*
X152806549Y-76396941D01*
X152806514Y-76398385D01*
X152804366Y-76510019D01*
X152801906Y-76675667D01*
X152799193Y-76889404D01*
X152796287Y-77145303D01*
X152793247Y-77437436D01*
X152790133Y-77759876D01*
X152787004Y-78106697D01*
X152783919Y-78471972D01*
X152780938Y-78849773D01*
X152778120Y-79234175D01*
X152775387Y-79599823D01*
X152772163Y-79986931D01*
X152768689Y-80365244D01*
X152765040Y-80728355D01*
X152761288Y-81069858D01*
X152757508Y-81383347D01*
X152753774Y-81662416D01*
X152750159Y-81900657D01*
X152746738Y-82091665D01*
X152743584Y-82229033D01*
X152743081Y-82247307D01*
X152737715Y-82458847D01*
X152734992Y-82618116D01*
X152735225Y-82732305D01*
X152738724Y-82808602D01*
X152745804Y-82854198D01*
X152756776Y-82876283D01*
X152771952Y-82882047D01*
X152793736Y-82879546D01*
X152833712Y-82857212D01*
X152839805Y-82842586D01*
X152858361Y-82768957D01*
X152867873Y-82720477D01*
X153182191Y-82720477D01*
X153182191Y-82882047D01*
X153328633Y-82882047D01*
X153370988Y-82880612D01*
X153458252Y-82867024D01*
X153507521Y-82842952D01*
X153510260Y-82838447D01*
X153523028Y-82781943D01*
X153533601Y-82674811D01*
X153541384Y-82524900D01*
X153545780Y-82340056D01*
X153546809Y-82274227D01*
X153551734Y-82096407D01*
X153560252Y-81911835D01*
X153572899Y-81715735D01*
X153590212Y-81503331D01*
X153612728Y-81269846D01*
X153640984Y-81010504D01*
X153675516Y-80720528D01*
X153716860Y-80395142D01*
X153765555Y-80029571D01*
X153822135Y-79619036D01*
X153887139Y-79158763D01*
X153961102Y-78643975D01*
X153998549Y-78385062D01*
X154057253Y-77979435D01*
X154108930Y-77623059D01*
X154154573Y-77309482D01*
X154195177Y-77032249D01*
X154231732Y-76784905D01*
X154265232Y-76560996D01*
X154296670Y-76354069D01*
X154327038Y-76157669D01*
X154357330Y-75965341D01*
X154388538Y-75770633D01*
X154421654Y-75567089D01*
X154457672Y-75348255D01*
X154497584Y-75107678D01*
X154542384Y-74838903D01*
X154593063Y-74535475D01*
X154603516Y-74472927D01*
X154677535Y-74031352D01*
X154742879Y-73644331D01*
X154800322Y-73307685D01*
X154850637Y-73017236D01*
X154894599Y-72768806D01*
X154932981Y-72558217D01*
X154966556Y-72381290D01*
X154996100Y-72233847D01*
X155022385Y-72111710D01*
X155046186Y-72010702D01*
X155068276Y-71926643D01*
X155089428Y-71855355D01*
X155132064Y-71698231D01*
X155148305Y-71574112D01*
X155133655Y-71498569D01*
X155088120Y-71473064D01*
X155056988Y-71478183D01*
X155003065Y-71516744D01*
X154950980Y-71597863D01*
X154897515Y-71727201D01*
X154839452Y-71910415D01*
X154821939Y-71973925D01*
X154799187Y-72065990D01*
X154775162Y-72174800D01*
X154749225Y-72304240D01*
X154720735Y-72458192D01*
X154689053Y-72640542D01*
X154653539Y-72855174D01*
X154613553Y-73105970D01*
X154568454Y-73396816D01*
X154517604Y-73731596D01*
X154460362Y-74114192D01*
X154396089Y-74548490D01*
X154324144Y-75038373D01*
X154275720Y-75368332D01*
X154225471Y-75708927D01*
X154175814Y-76043402D01*
X154125841Y-76377703D01*
X154074644Y-76717779D01*
X154021317Y-77069578D01*
X153964951Y-77439048D01*
X153904638Y-77832138D01*
X153839472Y-78254795D01*
X153768544Y-78712968D01*
X153690946Y-79212604D01*
X153605773Y-79759653D01*
X153512114Y-80360061D01*
X153498065Y-80450144D01*
X153427928Y-80902949D01*
X153367391Y-81299605D01*
X153316095Y-81642687D01*
X153273679Y-81934773D01*
X153239783Y-82178441D01*
X153214046Y-82376269D01*
X153196109Y-82530832D01*
X153185610Y-82644709D01*
X153182191Y-82720477D01*
X152867873Y-82720477D01*
X152883210Y-82642307D01*
X152913583Y-82467168D01*
X152948714Y-82248069D01*
X152987838Y-81989540D01*
X153030186Y-81696113D01*
X153035640Y-81657610D01*
X153059828Y-81488261D01*
X153091185Y-81270342D01*
X153128488Y-81012274D01*
X153170516Y-80722473D01*
X153216047Y-80409358D01*
X153263857Y-80081348D01*
X153312726Y-79746862D01*
X153361431Y-79414317D01*
X153423076Y-78993729D01*
X153483138Y-78583277D01*
X153536508Y-78217692D01*
X153584283Y-77889379D01*
X153627561Y-77590740D01*
X153667440Y-77314182D01*
X153705018Y-77052109D01*
X153741393Y-76796926D01*
X153777662Y-76541037D01*
X153814923Y-76276846D01*
X153826079Y-76197836D01*
X153860711Y-75954774D01*
X153901317Y-75672343D01*
X153946449Y-75360425D01*
X153994658Y-75028901D01*
X154044496Y-74687651D01*
X154094517Y-74346557D01*
X154143271Y-74015500D01*
X154189312Y-73704360D01*
X154231190Y-73423019D01*
X154267458Y-73181358D01*
X154296669Y-72989258D01*
X154332146Y-72772733D01*
X154375910Y-72532731D01*
X154423367Y-72294729D01*
X154472356Y-72068282D01*
X154520717Y-71862945D01*
X154566289Y-71688271D01*
X154606911Y-71553816D01*
X154640423Y-71469134D01*
X154647954Y-71455845D01*
X154705065Y-71380949D01*
X154778297Y-71308457D01*
X154778382Y-71308386D01*
X154836565Y-71264480D01*
X154891999Y-71241404D01*
X154965508Y-71234276D01*
X155077920Y-71238214D01*
X155080922Y-71238387D01*
X155254502Y-71266925D01*
X155389685Y-71333943D01*
X155495778Y-71446323D01*
X155562778Y-71574112D01*
X155582091Y-71610948D01*
X155598406Y-71651266D01*
X155615023Y-71696242D01*
X155629243Y-71742885D01*
X155640731Y-71793939D01*
X155649155Y-71852148D01*
X155654181Y-71920259D01*
X155655474Y-72001014D01*
X155652703Y-72097160D01*
X155645532Y-72211441D01*
X155633629Y-72346601D01*
X155616660Y-72505386D01*
X155594292Y-72690541D01*
X155566190Y-72904809D01*
X155532021Y-73150936D01*
X155491451Y-73431667D01*
X155444148Y-73749746D01*
X155389778Y-74107918D01*
X155328006Y-74508928D01*
X155258499Y-74955521D01*
X155180924Y-75450441D01*
X155094948Y-75996434D01*
X155000236Y-76596243D01*
X154896454Y-77252615D01*
X154807954Y-77814067D01*
X154684071Y-78607224D01*
X154570725Y-79342242D01*
X154467834Y-80019694D01*
X154375314Y-80640151D01*
X154293079Y-81204183D01*
X154221047Y-81712363D01*
X154159133Y-82165261D01*
X154107254Y-82563450D01*
X154065324Y-82907499D01*
X154047287Y-83062189D01*
X154018597Y-83308246D01*
X154123189Y-83522983D01*
X154125251Y-83527232D01*
X154162867Y-83612140D01*
X154194000Y-83701541D01*
X154219839Y-83803367D01*
X154241575Y-83925549D01*
X154242654Y-83934177D01*
X154260398Y-84076021D01*
X154264447Y-84120223D01*
X154277499Y-84262715D01*
X154294068Y-84493563D01*
X154311295Y-84776498D01*
X154331358Y-85124731D01*
X154151950Y-85140999D01*
X154087427Y-85147489D01*
X153961589Y-85169159D01*
X153874498Y-85207419D01*
X153814450Y-85272997D01*
X153769742Y-85376623D01*
X153728672Y-85529023D01*
X153690047Y-85704661D01*
X153668979Y-85845939D01*
X153667943Y-85954544D01*
X153686879Y-86042730D01*
X153693409Y-86056180D01*
X153725726Y-86122749D01*
X153734887Y-86138895D01*
X153759433Y-86202785D01*
X153772476Y-86284890D01*
X153773822Y-86393314D01*
X153763278Y-86536161D01*
X153740650Y-86721536D01*
X153705743Y-86957544D01*
X153688931Y-87100038D01*
X153674869Y-87304361D01*
X153666172Y-87546037D01*
X153663427Y-87813218D01*
X153663446Y-87831535D01*
X153660886Y-88089571D01*
X153652102Y-88297834D01*
X153635836Y-88465797D01*
X153610833Y-88602932D01*
X153575837Y-88718713D01*
X153529592Y-88822611D01*
X153525680Y-88831635D01*
X153504957Y-88899827D01*
X153474467Y-89020207D01*
X153435282Y-89187449D01*
X153388470Y-89396230D01*
X153335101Y-89641224D01*
X153276242Y-89917107D01*
X153212965Y-90218552D01*
X153146337Y-90540235D01*
X153077428Y-90876832D01*
X153007307Y-91223016D01*
X152937043Y-91573464D01*
X152867706Y-91922850D01*
X152800364Y-92265849D01*
X152736087Y-92597136D01*
X152675944Y-92911386D01*
X152621005Y-93203275D01*
X152572337Y-93467476D01*
X152531011Y-93698666D01*
X152498095Y-93891518D01*
X152474659Y-94040709D01*
X152461772Y-94140913D01*
X152448749Y-94266931D01*
X152434203Y-94393509D01*
X152421603Y-94488871D01*
X152412709Y-94538726D01*
X152405890Y-94551654D01*
X152389412Y-94562656D01*
X152357818Y-94571419D01*
X152305490Y-94578197D01*
X152226813Y-94583241D01*
X152116171Y-94586802D01*
X151967946Y-94589134D01*
X151776524Y-94590487D01*
X151536287Y-94591114D01*
X151241620Y-94591267D01*
X151213575Y-94591266D01*
X150924502Y-94591103D01*
X150689530Y-94590481D01*
X150503187Y-94589147D01*
X150360005Y-94586850D01*
X150254515Y-94583337D01*
X150181247Y-94578357D01*
X150134733Y-94571658D01*
X150109502Y-94562988D01*
X150100087Y-94552094D01*
X150101017Y-94538726D01*
X150101147Y-94538276D01*
X150118894Y-94468433D01*
X150143061Y-94361579D01*
X150171262Y-94229677D01*
X150201114Y-94084691D01*
X150230232Y-93938584D01*
X150256230Y-93803320D01*
X150276726Y-93690863D01*
X150289333Y-93613177D01*
X150291667Y-93582225D01*
X150269011Y-93593601D01*
X150204022Y-93636245D01*
X150103305Y-93705997D01*
X149973342Y-93798300D01*
X149820616Y-93908593D01*
X149651610Y-94032319D01*
X149494844Y-94146874D01*
X149341222Y-94257110D01*
X149210013Y-94349121D01*
X149107641Y-94418476D01*
X149040525Y-94460746D01*
X149015088Y-94471501D01*
X149019873Y-94437567D01*
X149040297Y-94358051D01*
X149073138Y-94245410D01*
X149115024Y-94111781D01*
X149155601Y-93982258D01*
X149187770Y-93871499D01*
X149207293Y-93794365D01*
X149210965Y-93762516D01*
X149204142Y-93766826D01*
X149169387Y-93809147D01*
X149111106Y-93889204D01*
X149035260Y-93998688D01*
X148947809Y-94129290D01*
X148933806Y-94150420D01*
X148829991Y-94300610D01*
X148736045Y-94425649D01*
X148658902Y-94516713D01*
X148605495Y-94564976D01*
X148594848Y-94571219D01*
X148546761Y-94592574D01*
X148484725Y-94606968D01*
X148397222Y-94615679D01*
X148272735Y-94619990D01*
X148099747Y-94621179D01*
X148008538Y-94621015D01*
X147867521Y-94619143D01*
X147772298Y-94614298D01*
X147713395Y-94605378D01*
X147681338Y-94591285D01*
X147666651Y-94570920D01*
X147667207Y-94527520D01*
X147720135Y-94476331D01*
X147773004Y-94436180D01*
X147861831Y-94356342D01*
X147973327Y-94248619D01*
X148098652Y-94122237D01*
X148228970Y-93986422D01*
X148355441Y-93850402D01*
X148469228Y-93723403D01*
X148561493Y-93614651D01*
X148623397Y-93533372D01*
X148638462Y-93510511D01*
X148708825Y-93388052D01*
X148776071Y-93249113D01*
X148833107Y-93110596D01*
X148872840Y-92989404D01*
X148888177Y-92902437D01*
X148901915Y-92856361D01*
X148936979Y-92861259D01*
X148985910Y-92916731D01*
X149003003Y-92940531D01*
X149043826Y-92967221D01*
X149103438Y-92950237D01*
X149106667Y-92948698D01*
X149167277Y-92909536D01*
X149252410Y-92843238D01*
X149344708Y-92763255D01*
X149378532Y-92731763D01*
X149466237Y-92640276D01*
X149530899Y-92549433D01*
X149575014Y-92449211D01*
X149601076Y-92329584D01*
X149611580Y-92180528D01*
X149609021Y-91992020D01*
X149595895Y-91754033D01*
X149594024Y-91725740D01*
X149578389Y-91491422D01*
X149565636Y-91306047D01*
X149554980Y-91159687D01*
X149545633Y-91042413D01*
X149536808Y-90944298D01*
X149527720Y-90855413D01*
X149517580Y-90765832D01*
X149497124Y-90621769D01*
X149464889Y-90501598D01*
X149415098Y-90428282D01*
X149338532Y-90394688D01*
X149225970Y-90393681D01*
X149068191Y-90418126D01*
X149004571Y-90428909D01*
X148930238Y-90437261D01*
X148895813Y-90434992D01*
X148911962Y-90419604D01*
X148972123Y-90382828D01*
X149066821Y-90330842D01*
X149185897Y-90269443D01*
X149294441Y-90213064D01*
X149395474Y-90156278D01*
X149464028Y-90112607D01*
X149489283Y-90088504D01*
X149473823Y-90061800D01*
X149423503Y-90024606D01*
X149357723Y-89989401D01*
X149442105Y-89916819D01*
X149513389Y-89870568D01*
X149604697Y-89853390D01*
X149607686Y-89853774D01*
X149663078Y-89877153D01*
X149707350Y-89933662D01*
X149741919Y-90028657D01*
X149768201Y-90167495D01*
X149787612Y-90355531D01*
X149801566Y-90598123D01*
X149809750Y-90785217D01*
X149826047Y-91136934D01*
X149841308Y-91433891D01*
X149855837Y-91679661D01*
X149869939Y-91877817D01*
X149883916Y-92031932D01*
X149898074Y-92145579D01*
X149912716Y-92222332D01*
X149928147Y-92265764D01*
X149944671Y-92279447D01*
X149962967Y-92277443D01*
X150035640Y-92247768D01*
X150138458Y-92181109D01*
X150273929Y-92075557D01*
X150444561Y-91929201D01*
X150652864Y-91740130D01*
X150685184Y-91710142D01*
X150823419Y-91580401D01*
X150946852Y-91462248D01*
X151048097Y-91362906D01*
X151119768Y-91289599D01*
X151154477Y-91249552D01*
X151166784Y-91222088D01*
X151180436Y-91161013D01*
X151191900Y-91065429D01*
X151201731Y-90928950D01*
X151210480Y-90745193D01*
X151218701Y-90507774D01*
X151222498Y-90374281D01*
X151227994Y-90076693D01*
X151226825Y-89832284D01*
X151219442Y-89668308D01*
X152729172Y-89668308D01*
X152735870Y-89770163D01*
X152752251Y-89819908D01*
X152769002Y-89831909D01*
X152824379Y-89857390D01*
X152891540Y-89880150D01*
X152948188Y-89893145D01*
X152972025Y-89889334D01*
X152974018Y-89869132D01*
X152981985Y-89794746D01*
X152995420Y-89671458D01*
X153013656Y-89505307D01*
X153036029Y-89302332D01*
X153061875Y-89068573D01*
X153090529Y-88810069D01*
X153121326Y-88532860D01*
X153143101Y-88336973D01*
X153173716Y-88061201D01*
X153202307Y-87803272D01*
X153228101Y-87570159D01*
X153250329Y-87368833D01*
X153268221Y-87206268D01*
X153281005Y-87089436D01*
X153287911Y-87025310D01*
X153297217Y-86939066D01*
X153312128Y-86804795D01*
X153329930Y-86647097D01*
X153348503Y-86484884D01*
X153349206Y-86478796D01*
X153370405Y-86290791D01*
X153383808Y-86152973D01*
X153388913Y-86056180D01*
X153385221Y-85991251D01*
X153372231Y-85949027D01*
X153349444Y-85920346D01*
X153316360Y-85896048D01*
X153315684Y-85895606D01*
X153257468Y-85865733D01*
X153223519Y-85863099D01*
X153210923Y-85895416D01*
X153190676Y-85985203D01*
X153164798Y-86127767D01*
X153133857Y-86319421D01*
X153098421Y-86556478D01*
X153059058Y-86835251D01*
X153016337Y-87152052D01*
X152970824Y-87503196D01*
X152964009Y-87556722D01*
X152930865Y-87816298D01*
X152923653Y-87872553D01*
X152897443Y-88076993D01*
X152865307Y-88326670D01*
X152836022Y-88553190D01*
X152811154Y-88744414D01*
X152792267Y-88888206D01*
X152764127Y-89121116D01*
X152743606Y-89336683D01*
X152731852Y-89521448D01*
X152729172Y-89668308D01*
X151219442Y-89668308D01*
X151218001Y-89636301D01*
X151200534Y-89483989D01*
X151173435Y-89370596D01*
X151135715Y-89291366D01*
X151086384Y-89241547D01*
X151024454Y-89216385D01*
X150948936Y-89211125D01*
X150879722Y-89217463D01*
X150773668Y-89245005D01*
X150665005Y-89298764D01*
X150545356Y-89384178D01*
X150406346Y-89506687D01*
X150239596Y-89671730D01*
X150170208Y-89742135D01*
X150065064Y-89845645D01*
X149979006Y-89926390D01*
X149919483Y-89977471D01*
X149893943Y-89991987D01*
X149892096Y-89989669D01*
X149875846Y-89945106D01*
X149860085Y-89870694D01*
X149857511Y-89856448D01*
X149851925Y-89827411D01*
X149851428Y-89802246D01*
X149861119Y-89775629D01*
X149886097Y-89742232D01*
X149931461Y-89696729D01*
X150002310Y-89633795D01*
X150103743Y-89548103D01*
X150240861Y-89434326D01*
X150418761Y-89287139D01*
X150581064Y-89146167D01*
X150797250Y-88928579D01*
X150965337Y-88714423D01*
X151091478Y-88496468D01*
X151185619Y-88301314D01*
X151194104Y-87744913D01*
X151380772Y-87744913D01*
X151380772Y-88916799D01*
X151469169Y-88916799D01*
X151552952Y-88905440D01*
X151625760Y-88862525D01*
X151683271Y-88780859D01*
X151730326Y-88653345D01*
X151771760Y-88472886D01*
X151788063Y-88378161D01*
X151809534Y-88208171D01*
X151823051Y-88036219D01*
X151828618Y-87872553D01*
X151826238Y-87727420D01*
X151815914Y-87611067D01*
X151797649Y-87533741D01*
X151771447Y-87505688D01*
X151762916Y-87513824D01*
X151734402Y-87565587D01*
X151694085Y-87654559D01*
X151647775Y-87768395D01*
X151545902Y-88031102D01*
X151537922Y-87197946D01*
X151535852Y-87012064D01*
X151531933Y-86786152D01*
X151526411Y-86613485D01*
X151518655Y-86490016D01*
X151508034Y-86411694D01*
X151493917Y-86374471D01*
X151475672Y-86374298D01*
X151452669Y-86407127D01*
X151424276Y-86468908D01*
X151418508Y-86484893D01*
X151408105Y-86530182D01*
X151399709Y-86596339D01*
X151393128Y-86688960D01*
X151388171Y-86813642D01*
X151384648Y-86975983D01*
X151382368Y-87181577D01*
X151381139Y-87436021D01*
X151380772Y-87744913D01*
X151194104Y-87744913D01*
X151200631Y-87316902D01*
X151200864Y-87301628D01*
X151205241Y-87027417D01*
X151209652Y-86807056D01*
X151214900Y-86634648D01*
X151221789Y-86504296D01*
X151231121Y-86410105D01*
X151243700Y-86346178D01*
X151260329Y-86306618D01*
X151281811Y-86285529D01*
X151308951Y-86277015D01*
X151342551Y-86275178D01*
X151378853Y-86257072D01*
X151424551Y-86205791D01*
X151439992Y-86178591D01*
X151452432Y-86135614D01*
X151454168Y-86074594D01*
X151445244Y-85981842D01*
X151425702Y-85843669D01*
X151368656Y-85518019D01*
X151343089Y-85415955D01*
X152757780Y-85415955D01*
X152758132Y-85498335D01*
X152775780Y-85588568D01*
X152822922Y-85642090D01*
X152909466Y-85667815D01*
X153045317Y-85674656D01*
X153127688Y-85676335D01*
X153225328Y-85682331D01*
X153287274Y-85691105D01*
X153303154Y-85694997D01*
X153345489Y-85698956D01*
X153380505Y-85686300D01*
X153410341Y-85650894D01*
X153437133Y-85586602D01*
X153463018Y-85487291D01*
X153490133Y-85346824D01*
X153520614Y-85159068D01*
X153556599Y-84917887D01*
X153575338Y-84790512D01*
X153604476Y-84595806D01*
X153630886Y-84423315D01*
X153653115Y-84282346D01*
X153669709Y-84182203D01*
X153679219Y-84132193D01*
X153681593Y-84120223D01*
X153664225Y-84047998D01*
X153591154Y-83990341D01*
X153465125Y-83949594D01*
X153427992Y-83943528D01*
X153311943Y-83953888D01*
X153220474Y-84016840D01*
X153148901Y-84135131D01*
X153098562Y-84258366D01*
X153031482Y-84438473D01*
X152964537Y-84633309D01*
X152930394Y-84740140D01*
X152901326Y-84831089D01*
X152845445Y-85020028D01*
X152800495Y-85188342D01*
X152770074Y-85324246D01*
X152757780Y-85415955D01*
X151343089Y-85415955D01*
X151222768Y-84935630D01*
X151023299Y-84376460D01*
X151011108Y-84350630D01*
X151350749Y-84350630D01*
X151354901Y-84369083D01*
X151376403Y-84435668D01*
X151412104Y-84536247D01*
X151457330Y-84657369D01*
X151481819Y-84721173D01*
X151531725Y-84847316D01*
X151565178Y-84924162D01*
X151584617Y-84957014D01*
X151592483Y-84951177D01*
X151598724Y-84857647D01*
X151599187Y-84740140D01*
X151594738Y-84615711D01*
X151586282Y-84501100D01*
X151574724Y-84413044D01*
X151560969Y-84368284D01*
X151552897Y-84360338D01*
X151499786Y-84335058D01*
X151432689Y-84323695D01*
X151375159Y-84328226D01*
X151350749Y-84350630D01*
X151011108Y-84350630D01*
X150789370Y-83880811D01*
X151080536Y-83880811D01*
X151097871Y-83890328D01*
X151160531Y-83904056D01*
X151253172Y-83916469D01*
X151317733Y-83923199D01*
X151451497Y-83937241D01*
X151566192Y-83949391D01*
X151577275Y-83950513D01*
X151675326Y-83952062D01*
X151719095Y-83934177D01*
X151707170Y-83898847D01*
X151638139Y-83848059D01*
X151620358Y-83837242D01*
X151509942Y-83744731D01*
X151455209Y-83638018D01*
X151452642Y-83510709D01*
X151455675Y-83491345D01*
X151462291Y-83426625D01*
X151451487Y-83406297D01*
X151418875Y-83418353D01*
X151365254Y-83457081D01*
X151302270Y-83517293D01*
X151292515Y-83528665D01*
X151244207Y-83594142D01*
X151188353Y-83679312D01*
X151135456Y-83766958D01*
X151096016Y-83839863D01*
X151080536Y-83880811D01*
X150789370Y-83880811D01*
X150768873Y-83837381D01*
X150458114Y-83315266D01*
X150089647Y-82806988D01*
X150070209Y-82782647D01*
X149956301Y-82646312D01*
X149829507Y-82503083D01*
X149698381Y-82361798D01*
X149571476Y-82231294D01*
X149457348Y-82120410D01*
X149364549Y-82037982D01*
X149301635Y-81992848D01*
X149249763Y-81968209D01*
X149223968Y-81970551D01*
X149219070Y-82009178D01*
X149228784Y-82071452D01*
X149255871Y-82152561D01*
X149265736Y-82173733D01*
X149315538Y-82267843D01*
X149389557Y-82397392D01*
X149481023Y-82551371D01*
X149583163Y-82718770D01*
X149689206Y-82888579D01*
X149792382Y-83049791D01*
X149885919Y-83191393D01*
X149963046Y-83302378D01*
X150007507Y-83364867D01*
X150278640Y-83801844D01*
X150509864Y-84276490D01*
X150698341Y-84780207D01*
X150841231Y-85304397D01*
X150935697Y-85840461D01*
X150978901Y-86379801D01*
X150982139Y-86510658D01*
X150982546Y-86667859D01*
X150977380Y-86765828D01*
X150966818Y-86804889D01*
X150951041Y-86785365D01*
X150930227Y-86707579D01*
X150904555Y-86571855D01*
X150874205Y-86378516D01*
X150839354Y-86127884D01*
X150777869Y-85795794D01*
X150644825Y-85364806D01*
X150453178Y-84942266D01*
X150203575Y-84529549D01*
X149896665Y-84128028D01*
X149824498Y-84045251D01*
X149716397Y-83924683D01*
X149582357Y-83777434D01*
X149430244Y-83612091D01*
X149267921Y-83437245D01*
X149103251Y-83261483D01*
X148915803Y-83060937D01*
X148742026Y-82870690D01*
X148603073Y-82712244D01*
X148494710Y-82580156D01*
X148412703Y-82468986D01*
X148352817Y-82373290D01*
X148310819Y-82287626D01*
X148282474Y-82206552D01*
X148269998Y-82140921D01*
X148257143Y-82024392D01*
X148247233Y-81880341D01*
X148241741Y-81726137D01*
X148235755Y-81565049D01*
X148214736Y-81350891D01*
X148175644Y-81151974D01*
X148114587Y-80958510D01*
X148027677Y-80760712D01*
X147911022Y-80548794D01*
X147760734Y-80312969D01*
X147572921Y-80043449D01*
X147380870Y-79776569D01*
X147217418Y-79551699D01*
X147080841Y-79367527D01*
X146967309Y-79219807D01*
X146872991Y-79104294D01*
X146794056Y-79016741D01*
X146726675Y-78952902D01*
X146667016Y-78908531D01*
X146611249Y-78879381D01*
X146555544Y-78861207D01*
X146496069Y-78849763D01*
X146484637Y-78848039D01*
X146391466Y-78834287D01*
X146266736Y-78816184D01*
X146134141Y-78797173D01*
X146092460Y-78790859D01*
X145987241Y-78771042D01*
X145913953Y-78751380D01*
X145886446Y-78735331D01*
X145907635Y-78726018D01*
X145977859Y-78717075D01*
X146085583Y-78711001D01*
X146218729Y-78708761D01*
X146330648Y-78708605D01*
X146437183Y-78706828D01*
X146500621Y-78701318D01*
X146530717Y-78689956D01*
X146537224Y-78670625D01*
X146529897Y-78641208D01*
X146450093Y-78388776D01*
X146365389Y-78127546D01*
X146288039Y-77896136D01*
X146219976Y-77700100D01*
X146163132Y-77544990D01*
X146119441Y-77436360D01*
X146090834Y-77379762D01*
X146043359Y-77322002D01*
X145969745Y-77265865D01*
X145873723Y-77230844D01*
X145742975Y-77212915D01*
X145565183Y-77208054D01*
X145196924Y-77217207D01*
X144837814Y-77243934D01*
X144510326Y-77287029D01*
X144223477Y-77345296D01*
X143986283Y-77417538D01*
X143863164Y-77471622D01*
X143711577Y-77555379D01*
X143569322Y-77650181D01*
X143452072Y-77745429D01*
X143375498Y-77830528D01*
X143324022Y-77916655D01*
X143250478Y-78065477D01*
X143175198Y-78242964D01*
X143100624Y-78440690D01*
X143029197Y-78650229D01*
X142963357Y-78863154D01*
X142905547Y-79071038D01*
X142858206Y-79265454D01*
X142823777Y-79437976D01*
X142815429Y-79500204D01*
X142804701Y-79580177D01*
X142803418Y-79683630D01*
X142822369Y-79739909D01*
X142836790Y-79747483D01*
X142871064Y-79745752D01*
X142926396Y-79727458D01*
X143007774Y-79690076D01*
X143120188Y-79631082D01*
X143268627Y-79547952D01*
X143458081Y-79438162D01*
X143693538Y-79299188D01*
X143831840Y-79217952D01*
X144069006Y-79084727D01*
X144273901Y-78980560D01*
X144457428Y-78901526D01*
X144630490Y-78843700D01*
X144803988Y-78803155D01*
X144988824Y-78775966D01*
X145195902Y-78758206D01*
X145268843Y-78753719D01*
X145361513Y-78750038D01*
X145407440Y-78753279D01*
X145415103Y-78764600D01*
X145392980Y-78785161D01*
X145378358Y-78794230D01*
X145306590Y-78826764D01*
X145200646Y-78866303D01*
X145077732Y-78906237D01*
X144845558Y-78985501D01*
X144617398Y-79082998D01*
X144422671Y-79187531D01*
X144274549Y-79292760D01*
X144264493Y-79301626D01*
X144181618Y-79385213D01*
X144086670Y-79494338D01*
X143998261Y-79607780D01*
X143857923Y-79775921D01*
X143664120Y-79939032D01*
X143431013Y-80067090D01*
X143289401Y-80130140D01*
X143409496Y-80182694D01*
X143478141Y-80207392D01*
X143594389Y-80241819D01*
X143737244Y-80279443D01*
X143889874Y-80315607D01*
X143945978Y-80328392D01*
X144373422Y-80442593D01*
X144802638Y-80585116D01*
X145221271Y-80750720D01*
X145616965Y-80934166D01*
X145977362Y-81130210D01*
X146290105Y-81333614D01*
X146409648Y-81422852D01*
X146585731Y-81562458D01*
X146772410Y-81718009D01*
X146959929Y-81880822D01*
X147138532Y-82042214D01*
X147298460Y-82193502D01*
X147429958Y-82326004D01*
X147523269Y-82431035D01*
X147527050Y-82435771D01*
X147605459Y-82540925D01*
X147701516Y-82679517D01*
X147803406Y-82834075D01*
X147899316Y-82987130D01*
X147945281Y-83062192D01*
X148104456Y-83310930D01*
X148244244Y-83509661D01*
X148367743Y-83662598D01*
X148478052Y-83773953D01*
X148537901Y-83840598D01*
X148619972Y-83953247D01*
X148718153Y-84102390D01*
X148827189Y-84279263D01*
X148941822Y-84475103D01*
X149056795Y-84681146D01*
X149166851Y-84888628D01*
X149266734Y-85088785D01*
X149272956Y-85101748D01*
X149350540Y-85265516D01*
X149442145Y-85462140D01*
X149545172Y-85685789D01*
X149657024Y-85930632D01*
X149775102Y-86190837D01*
X149896807Y-86460573D01*
X150019541Y-86734008D01*
X150140706Y-87005310D01*
X150257704Y-87268648D01*
X150367936Y-87518190D01*
X150468804Y-87748105D01*
X150557709Y-87952561D01*
X150632053Y-88125727D01*
X150689238Y-88261771D01*
X150726666Y-88354862D01*
X150741737Y-88399168D01*
X150742794Y-88406290D01*
X150739006Y-88510814D01*
X150708692Y-88626716D01*
X150698664Y-88651584D01*
X150649706Y-88745905D01*
X150580502Y-88841068D01*
X150485730Y-88941884D01*
X150360066Y-89053163D01*
X150198186Y-89179714D01*
X149994767Y-89326348D01*
X149744484Y-89497874D01*
X149688679Y-89535483D01*
X149506733Y-89658681D01*
X149367038Y-89755023D01*
X149263463Y-89829571D01*
X149189880Y-89887388D01*
X149140156Y-89933538D01*
X149108163Y-89973085D01*
X149087771Y-90011090D01*
X149072850Y-90052617D01*
X149022329Y-90159454D01*
X148916842Y-90265854D01*
X148863027Y-90294389D01*
X148757710Y-90339118D01*
X148609820Y-90396452D01*
X148426942Y-90463799D01*
X148216660Y-90538569D01*
X147986560Y-90618171D01*
X147744226Y-90700016D01*
X147497243Y-90781512D01*
X147253196Y-90860069D01*
X147019670Y-90933096D01*
X146804249Y-90998003D01*
X146614520Y-91052199D01*
X146597413Y-91056926D01*
X146429247Y-91106143D01*
X146314094Y-91145587D01*
X146253385Y-91174590D01*
X146248553Y-91192483D01*
X146301031Y-91198596D01*
X146335475Y-91192267D01*
X146422494Y-91171573D01*
X146554158Y-91138251D01*
X146723524Y-91094110D01*
X146923650Y-91040963D01*
X147147593Y-90980621D01*
X147388411Y-90914896D01*
X147612048Y-90853787D01*
X147833100Y-90794033D01*
X148029123Y-90741718D01*
X148193550Y-90698565D01*
X148319815Y-90666295D01*
X148401350Y-90646632D01*
X148431590Y-90641297D01*
X148432321Y-90645693D01*
X148416496Y-90686328D01*
X148379527Y-90752361D01*
X148324727Y-90859857D01*
X148260338Y-91041452D01*
X148211203Y-91248132D01*
X148182839Y-91460042D01*
X148182517Y-91464196D01*
X148171930Y-91599382D01*
X148161536Y-91730277D01*
X148153540Y-91829092D01*
X148151498Y-91867014D01*
X148160870Y-92042926D01*
X148195221Y-92248553D01*
X148250928Y-92465908D01*
X148324366Y-92677005D01*
X148426532Y-92931452D01*
X147196851Y-93314932D01*
X147013834Y-93372013D01*
X146653342Y-93484507D01*
X146344488Y-93581021D01*
X146083358Y-93662823D01*
X145866041Y-93731183D01*
X145688624Y-93787371D01*
X145547193Y-93832654D01*
X145437836Y-93868303D01*
X145356640Y-93895587D01*
X145299692Y-93915776D01*
X145263079Y-93930137D01*
X145242889Y-93939941D01*
X145235209Y-93946457D01*
X145236125Y-93950954D01*
X145243691Y-93950377D01*
X145298487Y-93937395D01*
X145399827Y-93910221D01*
X145540283Y-93871036D01*
X145712426Y-93822018D01*
X145908829Y-93765346D01*
X146122062Y-93703200D01*
X146344699Y-93637760D01*
X146569310Y-93571203D01*
X146788468Y-93505710D01*
X146994745Y-93443459D01*
X147180711Y-93386630D01*
X147338940Y-93337402D01*
X147462002Y-93297954D01*
X147471600Y-93294906D01*
X147518594Y-93285164D01*
X147522049Y-93295739D01*
X147508092Y-93306802D01*
X147446794Y-93350367D01*
X147346270Y-93419242D01*
X147213857Y-93508592D01*
X147056888Y-93613580D01*
X146882699Y-93729371D01*
X146698624Y-93851129D01*
X146512000Y-93974019D01*
X146330160Y-94093206D01*
X146160440Y-94203853D01*
X146010174Y-94301125D01*
X145886698Y-94380186D01*
X145797347Y-94436200D01*
X145749455Y-94464333D01*
X145736602Y-94470845D01*
X145667547Y-94504054D01*
X145600537Y-94531212D01*
X145528672Y-94553067D01*
X145445054Y-94570368D01*
X145342783Y-94583862D01*
X145214963Y-94594297D01*
X145054693Y-94602422D01*
X144855076Y-94608985D01*
X144609213Y-94614734D01*
X144310205Y-94620416D01*
X144180811Y-94622650D01*
X143883649Y-94627171D01*
X143577472Y-94631096D01*
X143276090Y-94634287D01*
X142993312Y-94636607D01*
X142742949Y-94637918D01*
X142538810Y-94638083D01*
X141848267Y-94636303D01*
X141655082Y-94263693D01*
X141588121Y-94137968D01*
X141503115Y-93991820D01*
X141415270Y-93860659D01*
X141318558Y-93738667D01*
X141206946Y-93620024D01*
X141074406Y-93498911D01*
X140914907Y-93369509D01*
X140722418Y-93225997D01*
X140490910Y-93062558D01*
X140214351Y-92873371D01*
X140092065Y-92789710D01*
X139972189Y-92705801D01*
X139880262Y-92639281D01*
X139823613Y-92595469D01*
X139809573Y-92579683D01*
X139809975Y-92579697D01*
X139848156Y-92593075D01*
X139928161Y-92628033D01*
X140038511Y-92679372D01*
X140167733Y-92741896D01*
X140195425Y-92755621D01*
X140703828Y-93042131D01*
X141175943Y-93376002D01*
X141609825Y-93755865D01*
X141791714Y-93932610D01*
X141883154Y-93804078D01*
X141904326Y-93772952D01*
X141960176Y-93687462D01*
X142040801Y-93561903D01*
X142142043Y-93402891D01*
X142259744Y-93217043D01*
X142389746Y-93010975D01*
X142527890Y-92791302D01*
X142670017Y-92564641D01*
X142811970Y-92337608D01*
X142949589Y-92116818D01*
X143078717Y-91908888D01*
X143195194Y-91720433D01*
X143294863Y-91558070D01*
X143319210Y-91517845D01*
X143388318Y-91401877D01*
X143481942Y-91243198D01*
X143596460Y-91048011D01*
X143728248Y-90822521D01*
X143873682Y-90572935D01*
X144029140Y-90305456D01*
X144190996Y-90026289D01*
X144355629Y-89741640D01*
X144447717Y-89582328D01*
X144608112Y-89305368D01*
X144762124Y-89040066D01*
X144906384Y-88792191D01*
X144996576Y-88637664D01*
X146607014Y-88637664D01*
X146608048Y-88641455D01*
X146632733Y-88679839D01*
X146679995Y-88739664D01*
X146752977Y-88826398D01*
X146954238Y-88563856D01*
X147021748Y-88475820D01*
X147098870Y-88375330D01*
X147157650Y-88298832D01*
X147188998Y-88258164D01*
X147190350Y-88256414D01*
X147205837Y-88227210D01*
X147174355Y-88233016D01*
X147142101Y-88250272D01*
X147072103Y-88294941D01*
X146979967Y-88357425D01*
X146877687Y-88429170D01*
X146777258Y-88501620D01*
X146690674Y-88566223D01*
X146629928Y-88614422D01*
X146607014Y-88637664D01*
X144996576Y-88637664D01*
X145037523Y-88567509D01*
X145152171Y-88371790D01*
X145246961Y-88210802D01*
X145318522Y-88090312D01*
X145363485Y-88016090D01*
X145387528Y-87978239D01*
X145491633Y-87828497D01*
X145608157Y-87678596D01*
X145728099Y-87538654D01*
X145842457Y-87418792D01*
X145942232Y-87329127D01*
X146018421Y-87279780D01*
X146043898Y-87270293D01*
X146144028Y-87262647D01*
X146225537Y-87310630D01*
X146288733Y-87414704D01*
X146333925Y-87575330D01*
X146361421Y-87792969D01*
X146381836Y-88061125D01*
X146537376Y-87595759D01*
X146548637Y-87561994D01*
X146618499Y-87350095D01*
X146694259Y-87116979D01*
X146767504Y-86888668D01*
X146829822Y-86691183D01*
X146833195Y-86680376D01*
X146889939Y-86504067D01*
X146935354Y-86376806D01*
X146973152Y-86290008D01*
X147007045Y-86235093D01*
X147040745Y-86203476D01*
X147047889Y-86198805D01*
X147095342Y-86173038D01*
X147117743Y-86187781D01*
X147132652Y-86252378D01*
X147135331Y-86276358D01*
X147130082Y-86343647D01*
X147107377Y-86437921D01*
X147064722Y-86568395D01*
X146999626Y-86744282D01*
X146950028Y-86878053D01*
X146887556Y-87057703D01*
X146829418Y-87236359D01*
X146778286Y-87404772D01*
X146736831Y-87553693D01*
X146707726Y-87673874D01*
X146693641Y-87756064D01*
X146697250Y-87791015D01*
X146719595Y-87777068D01*
X146767437Y-87720305D01*
X146833998Y-87629098D01*
X146913405Y-87512649D01*
X146999782Y-87380157D01*
X147087254Y-87240823D01*
X147169947Y-87103849D01*
X147241986Y-86978435D01*
X147297496Y-86873782D01*
X147330602Y-86799091D01*
X147332794Y-86792833D01*
X147362971Y-86692534D01*
X147379863Y-86593835D01*
X147385685Y-86476309D01*
X147382655Y-86319531D01*
X147372477Y-86170796D01*
X147341074Y-85996893D01*
X147288952Y-85877190D01*
X147214719Y-85809918D01*
X147116985Y-85793308D01*
X146994359Y-85825591D01*
X146926620Y-85866597D01*
X146856405Y-85947247D01*
X146795576Y-86067387D01*
X146742145Y-86232150D01*
X146694123Y-86446674D01*
X146649521Y-86716092D01*
X146627916Y-86853151D01*
X146605843Y-86973213D01*
X146586479Y-87059393D01*
X146572406Y-87098868D01*
X146563842Y-87090060D01*
X146555086Y-87033232D01*
X146549151Y-86935639D01*
X146546966Y-86807909D01*
X146546455Y-86740466D01*
X146540956Y-86601143D01*
X146529954Y-86508089D01*
X146514108Y-86468121D01*
X146510711Y-86467352D01*
X146471474Y-86488264D01*
X146401086Y-86545777D01*
X146307161Y-86633256D01*
X146197319Y-86744067D01*
X146162149Y-86780578D01*
X146065349Y-86878950D01*
X145988392Y-86953990D01*
X145938385Y-86998902D01*
X145922434Y-87006891D01*
X145937260Y-86979177D01*
X145980563Y-86906188D01*
X146048733Y-86794079D01*
X146138236Y-86648483D01*
X146245539Y-86475035D01*
X146367109Y-86279367D01*
X146499411Y-86067114D01*
X146638913Y-85843908D01*
X146782079Y-85615384D01*
X146925378Y-85387174D01*
X147065274Y-85164912D01*
X147198234Y-84954231D01*
X147320726Y-84760765D01*
X147429214Y-84590148D01*
X147520165Y-84448013D01*
X147590046Y-84339993D01*
X147635324Y-84271721D01*
X147652463Y-84248832D01*
X147649735Y-84266517D01*
X147628425Y-84327270D01*
X147586494Y-84433364D01*
X147522977Y-84587169D01*
X147436908Y-84791059D01*
X147327321Y-85047405D01*
X147320185Y-85064119D01*
X147268373Y-85200068D01*
X147249170Y-85303457D01*
X147265472Y-85392215D01*
X147320172Y-85484269D01*
X147416166Y-85597546D01*
X147437387Y-85620970D01*
X147497891Y-85688964D01*
X147544224Y-85746894D01*
X147582069Y-85805877D01*
X147617107Y-85877032D01*
X147655020Y-85971478D01*
X147701488Y-86100334D01*
X147762195Y-86274719D01*
X147773174Y-86306090D01*
X147832219Y-86467408D01*
X147891596Y-86619052D01*
X147944945Y-86745231D01*
X147985907Y-86830156D01*
X148017798Y-86891348D01*
X148063563Y-86992437D01*
X148090751Y-87070345D01*
X148112572Y-87160416D01*
X148003348Y-87055333D01*
X147894125Y-86950251D01*
X147929442Y-87040322D01*
X147945816Y-87104587D01*
X147959976Y-87212881D01*
X147965833Y-87332455D01*
X147965484Y-87365865D01*
X147954190Y-87483234D01*
X147924001Y-87601181D01*
X147870738Y-87728582D01*
X147790218Y-87874314D01*
X147678260Y-88047254D01*
X147551206Y-88227210D01*
X147530682Y-88256279D01*
X147430705Y-88396291D01*
X147296114Y-88591744D01*
X147174075Y-88776911D01*
X147068416Y-88945436D01*
X146982965Y-89090966D01*
X146921552Y-89207146D01*
X146888004Y-89287622D01*
X146886151Y-89326039D01*
X146894545Y-89327327D01*
X146933980Y-89301833D01*
X146988581Y-89245720D01*
X147072727Y-89145008D01*
X147173630Y-89019207D01*
X147270911Y-88890679D01*
X147371478Y-88749673D01*
X147482240Y-88586442D01*
X147610106Y-88391235D01*
X147761984Y-88154303D01*
X147858816Y-88003898D01*
X147967924Y-87838599D01*
X148065359Y-87695423D01*
X148146103Y-87581584D01*
X148205141Y-87504292D01*
X148237454Y-87470760D01*
X148266402Y-87460429D01*
X148323869Y-87475845D01*
X148363584Y-87538522D01*
X148378408Y-87639894D01*
X148362537Y-87709204D01*
X148306682Y-87828156D01*
X148211249Y-87989089D01*
X148076921Y-88190931D01*
X147904380Y-88432612D01*
X147694309Y-88713060D01*
X147625833Y-88804195D01*
X147500180Y-88977746D01*
X147378696Y-89152674D01*
X147272465Y-89312866D01*
X147192574Y-89442213D01*
X147138861Y-89533726D01*
X146986335Y-89780168D01*
X146843611Y-89987498D01*
X146701600Y-90168375D01*
X146551213Y-90335456D01*
X146503624Y-90386400D01*
X146432535Y-90468741D01*
X146387678Y-90529576D01*
X146377202Y-90558461D01*
X146403020Y-90557450D01*
X146478094Y-90535649D01*
X146594507Y-90494278D01*
X146745074Y-90436365D01*
X146922604Y-90364940D01*
X147119912Y-90283032D01*
X147329810Y-90193672D01*
X147545109Y-90099887D01*
X147758621Y-90004708D01*
X147963160Y-89911164D01*
X148151538Y-89822283D01*
X148316566Y-89741097D01*
X148428587Y-89684072D01*
X148580106Y-89602132D01*
X148685519Y-89531633D01*
X148749768Y-89463144D01*
X148777793Y-89387231D01*
X148774534Y-89294463D01*
X148744931Y-89175408D01*
X148693924Y-89020633D01*
X148666921Y-88943113D01*
X148604382Y-88771242D01*
X148539665Y-88601501D01*
X148483134Y-88461380D01*
X148461308Y-88408881D01*
X148421270Y-88307691D01*
X148395599Y-88235595D01*
X148389072Y-88205584D01*
X148399095Y-88203821D01*
X148431487Y-88231942D01*
X148483362Y-88303086D01*
X148556471Y-88419969D01*
X148652565Y-88585307D01*
X148773396Y-88801819D01*
X148857183Y-88952011D01*
X148940292Y-89096941D01*
X149011810Y-89217524D01*
X149066096Y-89304260D01*
X149097509Y-89347650D01*
X149139472Y-89376775D01*
X149204827Y-89375295D01*
X149264010Y-89322738D01*
X149308341Y-89224188D01*
X149321237Y-89173464D01*
X149346249Y-89063418D01*
X149377558Y-88917526D01*
X149412424Y-88749077D01*
X149448108Y-88571358D01*
X149481871Y-88397659D01*
X149510973Y-88241267D01*
X149517663Y-88204801D01*
X149527947Y-88158141D01*
X149535770Y-88149500D01*
X149542791Y-88184348D01*
X149550669Y-88268157D01*
X149561065Y-88406397D01*
X149571043Y-88598170D01*
X149568190Y-88820677D01*
X149545911Y-89041856D01*
X149502322Y-89290066D01*
X149500645Y-89298413D01*
X149482006Y-89401185D01*
X149471809Y-89477089D01*
X149472227Y-89510224D01*
X149474736Y-89510654D01*
X149509667Y-89489188D01*
X149576936Y-89435262D01*
X149667929Y-89356714D01*
X149774028Y-89261382D01*
X149886620Y-89157101D01*
X149997089Y-89051708D01*
X150096820Y-88953041D01*
X150177198Y-88868937D01*
X150195377Y-88848861D01*
X150309307Y-88708737D01*
X150379498Y-88586980D01*
X150411723Y-88470750D01*
X150411756Y-88347207D01*
X150395549Y-88284341D01*
X150353777Y-88167205D01*
X150286929Y-87997723D01*
X150195394Y-87776836D01*
X150079563Y-87505484D01*
X149939825Y-87184607D01*
X149776570Y-86815144D01*
X149638812Y-86505845D01*
X149450209Y-86085261D01*
X149281185Y-85712986D01*
X149129426Y-85384837D01*
X148992615Y-85096629D01*
X148868439Y-84844177D01*
X148754581Y-84623297D01*
X148648728Y-84429804D01*
X148548565Y-84259514D01*
X148451775Y-84108241D01*
X148356045Y-83971802D01*
X148259059Y-83846012D01*
X148158503Y-83726686D01*
X148052060Y-83609639D01*
X147937418Y-83490688D01*
X147885379Y-83435863D01*
X147784501Y-83312271D01*
X147693899Y-83170905D01*
X147600081Y-82991813D01*
X147546553Y-82883824D01*
X147497101Y-82792392D01*
X147447158Y-82715421D01*
X147387865Y-82642016D01*
X147310364Y-82561287D01*
X147205797Y-82462342D01*
X147065304Y-82334287D01*
X147048449Y-82319022D01*
X146728373Y-82031539D01*
X146449929Y-81786386D01*
X146212613Y-81583158D01*
X146015917Y-81421450D01*
X145859336Y-81300857D01*
X145742364Y-81220975D01*
X145664496Y-81181399D01*
X145625225Y-81181724D01*
X145638349Y-81198632D01*
X145688788Y-81247332D01*
X145768588Y-81319504D01*
X145868907Y-81406975D01*
X146145278Y-81657920D01*
X146475568Y-81989489D01*
X146814601Y-82361375D01*
X147154978Y-82765419D01*
X147489299Y-83193464D01*
X147779892Y-83579939D01*
X147636301Y-83647802D01*
X147592446Y-83670229D01*
X147509654Y-83723723D01*
X147424738Y-83795892D01*
X147331769Y-83893192D01*
X147224820Y-84022079D01*
X147097962Y-84189010D01*
X146945267Y-84400443D01*
X146668041Y-84796444D01*
X146211539Y-85475079D01*
X145757992Y-86183328D01*
X145303931Y-86926929D01*
X144845885Y-87711618D01*
X144380383Y-88543129D01*
X143903955Y-89427201D01*
X143784085Y-89653444D01*
X143569242Y-90057951D01*
X143378260Y-90415740D01*
X143208606Y-90731156D01*
X143057743Y-91008539D01*
X142923136Y-91252234D01*
X142802251Y-91466583D01*
X142692552Y-91655929D01*
X142591504Y-91824614D01*
X142496572Y-91976982D01*
X142405220Y-92117375D01*
X142314914Y-92250136D01*
X142223119Y-92379607D01*
X142127299Y-92510133D01*
X142024919Y-92646054D01*
X142022168Y-92649674D01*
X141937050Y-92763953D01*
X141867447Y-92861608D01*
X141820470Y-92932377D01*
X141803231Y-92965997D01*
X141803232Y-92966309D01*
X141822951Y-92987211D01*
X141873814Y-92971734D01*
X141944355Y-92925678D01*
X142023106Y-92854839D01*
X142043132Y-92831346D01*
X142103137Y-92747640D01*
X142188208Y-92618027D01*
X142295751Y-92446945D01*
X142423173Y-92238829D01*
X142567880Y-91998118D01*
X142727277Y-91729247D01*
X142898771Y-91436653D01*
X143079769Y-91124773D01*
X143267676Y-90798043D01*
X143459898Y-90460901D01*
X143653842Y-90117783D01*
X143846914Y-89773126D01*
X144036521Y-89431366D01*
X144220067Y-89096941D01*
X144474169Y-88633813D01*
X144750628Y-88137182D01*
X145008302Y-87683242D01*
X145250974Y-87265777D01*
X145482425Y-86878571D01*
X145706437Y-86515408D01*
X145926791Y-86170071D01*
X146147270Y-85836345D01*
X146371656Y-85508011D01*
X146603730Y-85178856D01*
X146654217Y-85109006D01*
X146753614Y-84974452D01*
X146864385Y-84827365D01*
X146980607Y-84675318D01*
X147096358Y-84525885D01*
X147205716Y-84386639D01*
X147302757Y-84265154D01*
X147381559Y-84169002D01*
X147436198Y-84105757D01*
X147460753Y-84082993D01*
X147469471Y-84101546D01*
X147448342Y-84163070D01*
X147395140Y-84268844D01*
X147309217Y-84420061D01*
X147189923Y-84617918D01*
X147036609Y-84863608D01*
X147008788Y-84907695D01*
X146576974Y-85601351D01*
X146122220Y-86348909D01*
X145645226Y-87149171D01*
X145146694Y-88000941D01*
X144627324Y-88903021D01*
X144087817Y-89854214D01*
X143528875Y-90853324D01*
X143520374Y-90868617D01*
X143351089Y-91172389D01*
X143204660Y-91433019D01*
X143075526Y-91659696D01*
X142958125Y-91861607D01*
X142846895Y-92047943D01*
X142736274Y-92227893D01*
X142620702Y-92410644D01*
X142494616Y-92605386D01*
X142352455Y-92821307D01*
X142188656Y-93067598D01*
X141755220Y-93717336D01*
X141591578Y-93487301D01*
X141555621Y-93438428D01*
X141434369Y-93293375D01*
X141285591Y-93142655D01*
X141102965Y-92980540D01*
X140880170Y-92801306D01*
X140610881Y-92599229D01*
X140504390Y-92521352D01*
X140370648Y-92423174D01*
X140275260Y-92352042D01*
X140212016Y-92302797D01*
X140174708Y-92270278D01*
X140157125Y-92249328D01*
X140153059Y-92234785D01*
X140156301Y-92221489D01*
X140181382Y-92226726D01*
X140251342Y-92259197D01*
X140359265Y-92315667D01*
X140498316Y-92392445D01*
X140661664Y-92485839D01*
X140842475Y-92592159D01*
X141013600Y-92693429D01*
X141178602Y-92789678D01*
X141319735Y-92870538D01*
X141430108Y-92932109D01*
X141502829Y-92970492D01*
X141531008Y-92981787D01*
X141533961Y-92976640D01*
X141519404Y-92936851D01*
X141461899Y-92865320D01*
X141360282Y-92760831D01*
X141213390Y-92622169D01*
X141020060Y-92448119D01*
X140916530Y-92356413D01*
X140777837Y-92233545D01*
X140652107Y-92122145D01*
X140550004Y-92031661D01*
X140482191Y-91971541D01*
X140347085Y-91851704D01*
X140467179Y-91921545D01*
X140474171Y-91925645D01*
X140550698Y-91972272D01*
X140661809Y-92041838D01*
X140793695Y-92125638D01*
X140932546Y-92214963D01*
X141140710Y-92347029D01*
X141319966Y-92452570D01*
X141464574Y-92525101D01*
X141581335Y-92566264D01*
X141677052Y-92577703D01*
X141758526Y-92561062D01*
X141832560Y-92517982D01*
X141905954Y-92450107D01*
X141943874Y-92405982D01*
X142022431Y-92300264D01*
X142108480Y-92171143D01*
X142189216Y-92037282D01*
X142215855Y-91990303D01*
X142278469Y-91879720D01*
X142365151Y-91726520D01*
X142472612Y-91536514D01*
X142597567Y-91315516D01*
X142736730Y-91069337D01*
X142886815Y-90803789D01*
X143044535Y-90524686D01*
X143206604Y-90237839D01*
X143362755Y-89961654D01*
X143575485Y-89585904D01*
X143803979Y-89182787D01*
X144040696Y-88765581D01*
X144278096Y-88347569D01*
X144508641Y-87942030D01*
X144724791Y-87562245D01*
X144919005Y-87221495D01*
X145038305Y-87012110D01*
X145190895Y-86743496D01*
X145333363Y-86491805D01*
X145462892Y-86262061D01*
X145576662Y-86059292D01*
X145671857Y-85888522D01*
X145745659Y-85754779D01*
X145795249Y-85663087D01*
X145817809Y-85618472D01*
X145819265Y-85614919D01*
X145843098Y-85520733D01*
X145841886Y-85437299D01*
X145815827Y-85372718D01*
X145760563Y-85266200D01*
X145680963Y-85125571D01*
X145581866Y-84958536D01*
X145468112Y-84772798D01*
X145344539Y-84576061D01*
X145215986Y-84376029D01*
X145087292Y-84180405D01*
X144963297Y-83996894D01*
X144848839Y-83833199D01*
X144748757Y-83697024D01*
X144707887Y-83643900D01*
X144301138Y-83166352D01*
X143854625Y-82727602D01*
X143373517Y-82331570D01*
X142862980Y-81982180D01*
X142328182Y-81683355D01*
X141774291Y-81439018D01*
X141666205Y-81397480D01*
X141538887Y-81348510D01*
X141436815Y-81309204D01*
X141375394Y-81285491D01*
X141347303Y-81273301D01*
X141299829Y-81238534D01*
X141304880Y-81211564D01*
X141363614Y-81200723D01*
X141374484Y-81201504D01*
X141446631Y-81216944D01*
X141560535Y-81249227D01*
X141705003Y-81294494D01*
X141868843Y-81348885D01*
X142040863Y-81408539D01*
X142209871Y-81469597D01*
X142364675Y-81528199D01*
X142494082Y-81580486D01*
X142586901Y-81622597D01*
X142688877Y-81676518D01*
X142861815Y-81774668D01*
X143052425Y-81888645D01*
X143242982Y-82007548D01*
X143415755Y-82120479D01*
X143553016Y-82216540D01*
X143859827Y-82454064D01*
X144180588Y-82732115D01*
X144474983Y-83024562D01*
X144753212Y-83342377D01*
X145025476Y-83696534D01*
X145301973Y-84098005D01*
X145336128Y-84149653D01*
X145458018Y-84330553D01*
X145588163Y-84519467D01*
X145713014Y-84696867D01*
X145819025Y-84843230D01*
X146059624Y-85168124D01*
X146167371Y-85073521D01*
X146193500Y-85048647D01*
X146269052Y-84965975D01*
X146365954Y-84850239D01*
X146478311Y-84709427D01*
X146600227Y-84551528D01*
X146725808Y-84384529D01*
X146849160Y-84216420D01*
X146964386Y-84055187D01*
X147065592Y-83908820D01*
X147146883Y-83785307D01*
X147202364Y-83692635D01*
X147226141Y-83638793D01*
X147233646Y-83559835D01*
X147219830Y-83443564D01*
X147175594Y-83313156D01*
X147098123Y-83163373D01*
X146984599Y-82988980D01*
X146832208Y-82784742D01*
X146638134Y-82545422D01*
X146595549Y-82495512D01*
X146465069Y-82350883D01*
X146306104Y-82183299D01*
X146127295Y-82001154D01*
X145937284Y-81812840D01*
X145744713Y-81626753D01*
X145558225Y-81451286D01*
X145386462Y-81294832D01*
X145238065Y-81165785D01*
X145121676Y-81072539D01*
X145041599Y-81014695D01*
X144675138Y-80791289D01*
X144284051Y-80618282D01*
X143865903Y-80495084D01*
X143418256Y-80421103D01*
X142938676Y-80395749D01*
X142424727Y-80418431D01*
X142385180Y-80421912D01*
X142231325Y-80435914D01*
X142097787Y-80448758D01*
X141997737Y-80459147D01*
X141944348Y-80465781D01*
X141931773Y-80467787D01*
X141857809Y-80478417D01*
X141748665Y-80493200D01*
X141623089Y-80509580D01*
X141542227Y-80520343D01*
X141087702Y-80598851D01*
X140677725Y-80704252D01*
X140302673Y-80840526D01*
X139952926Y-81011653D01*
X139618863Y-81221613D01*
X139290862Y-81474386D01*
X139236423Y-81521130D01*
X139103687Y-81641724D01*
X138974995Y-81766338D01*
X138871912Y-81874384D01*
X138779352Y-81984321D01*
X138778854Y-81984913D01*
X138689447Y-82103480D01*
X138613721Y-82215920D01*
X138557925Y-82312282D01*
X138528310Y-82382616D01*
X138531124Y-82416971D01*
X138540473Y-82418843D01*
X138598112Y-82412041D01*
X138692103Y-82390940D01*
X138807499Y-82358692D01*
X138949767Y-82317962D01*
X139291660Y-82239149D01*
X139627493Y-82187185D01*
X139945933Y-82163121D01*
X140235648Y-82168009D01*
X140485304Y-82202902D01*
X140690212Y-82260097D01*
X141006944Y-82396532D01*
X141300505Y-82582412D01*
X141564773Y-82812103D01*
X141793626Y-83079970D01*
X141980940Y-83380380D01*
X142120594Y-83707697D01*
X142127485Y-83728792D01*
X142188450Y-83999486D01*
X142212979Y-84304240D01*
X142201448Y-84630748D01*
X142154236Y-84966707D01*
X142071721Y-85299811D01*
X142040911Y-85392844D01*
X141953266Y-85605418D01*
X141835324Y-85834085D01*
X141683532Y-86084901D01*
X141494341Y-86363922D01*
X141264200Y-86677203D01*
X141197149Y-86766106D01*
X141070804Y-86935647D01*
X140954365Y-87094404D01*
X140854498Y-87233163D01*
X140777867Y-87342716D01*
X140731138Y-87413851D01*
X140716827Y-87438066D01*
X140659935Y-87554464D01*
X140634699Y-87655434D01*
X140643945Y-87742149D01*
X140690501Y-87815781D01*
X140777196Y-87877501D01*
X140906857Y-87928481D01*
X141082311Y-87969891D01*
X141306387Y-88002904D01*
X141581912Y-88028692D01*
X141911714Y-88048426D01*
X142298621Y-88063276D01*
X142474671Y-88069399D01*
X142687792Y-88079572D01*
X142844229Y-88091020D01*
X142942864Y-88103655D01*
X142982578Y-88117389D01*
X142983366Y-88118725D01*
X142971057Y-88157707D01*
X142914703Y-88225454D01*
X142818943Y-88316326D01*
X142556055Y-88554139D01*
X142278645Y-88822509D01*
X142040539Y-89075992D01*
X141997992Y-89126965D01*
X141834644Y-89322664D01*
X141653866Y-89570599D01*
X141491110Y-89827874D01*
X141415308Y-89953622D01*
X141302414Y-90129121D01*
X141182516Y-90299605D01*
X141046763Y-90476955D01*
X140886301Y-90673050D01*
X140692276Y-90899770D01*
X140630874Y-90970215D01*
X140517161Y-91098132D01*
X140428010Y-91192281D01*
X140353791Y-91261167D01*
X140284875Y-91313295D01*
X140211633Y-91357169D01*
X140124434Y-91401295D01*
X140065306Y-91429344D01*
X139959907Y-91473423D01*
X139864762Y-91499985D01*
X139756439Y-91514580D01*
X139611505Y-91522756D01*
X139586981Y-91523738D01*
X139501310Y-91526634D01*
X139427748Y-91526385D01*
X139357686Y-91520931D01*
X139282519Y-91508209D01*
X139193640Y-91486157D01*
X139082442Y-91452715D01*
X138940319Y-91405821D01*
X138758663Y-91343412D01*
X138528869Y-91263428D01*
X138204026Y-91156931D01*
X137751274Y-91034571D01*
X137314724Y-90950592D01*
X136879069Y-90902250D01*
X136428999Y-90886799D01*
X136263136Y-90887497D01*
X136107961Y-90890835D01*
X135987797Y-90898141D01*
X135889001Y-90910734D01*
X135797926Y-90929929D01*
X135700926Y-90957042D01*
X135598983Y-90989386D01*
X135508155Y-91024361D01*
X135466338Y-91051999D01*
X135475360Y-91073073D01*
X135537053Y-91088355D01*
X135653244Y-91098618D01*
X135825763Y-91104634D01*
X136056439Y-91107176D01*
X136178981Y-91108449D01*
X136756279Y-91137550D01*
X137296886Y-91205924D01*
X137809528Y-91315353D01*
X138302933Y-91467619D01*
X138785829Y-91664503D01*
X138882312Y-91711049D01*
X139004192Y-91773850D01*
X139136409Y-91844884D01*
X139268362Y-91918164D01*
X139389449Y-91987700D01*
X139489065Y-92047503D01*
X139556611Y-92091584D01*
X139581482Y-92113953D01*
X139580992Y-92114647D01*
X139549047Y-92108266D01*
X139477046Y-92084628D01*
X139378822Y-92048223D01*
X139334172Y-92031018D01*
X138836191Y-91848933D01*
X138356409Y-91691351D01*
X137902708Y-91560558D01*
X137482972Y-91458842D01*
X137105085Y-91388490D01*
X137043069Y-91379863D01*
X136864269Y-91361649D01*
X136663713Y-91348903D01*
X136449572Y-91341392D01*
X136230018Y-91338885D01*
X136013224Y-91341148D01*
X135807362Y-91347949D01*
X135620603Y-91359055D01*
X135461121Y-91374234D01*
X135337087Y-91393254D01*
X135256674Y-91415882D01*
X135228054Y-91441886D01*
X135230728Y-91450179D01*
X135254563Y-91462807D01*
X135309137Y-91470746D01*
X135401758Y-91474415D01*
X135539734Y-91474231D01*
X135730373Y-91470612D01*
X135817744Y-91469476D01*
X135965213Y-91471726D01*
X136094640Y-91478631D01*
X136195527Y-91489268D01*
X136257373Y-91502713D01*
X136269680Y-91518042D01*
X136268977Y-91518487D01*
X136232271Y-91527787D01*
X136150280Y-91544485D01*
X136035650Y-91566321D01*
X135901027Y-91591035D01*
X135759060Y-91616368D01*
X135622393Y-91640059D01*
X135503675Y-91659849D01*
X135415550Y-91673477D01*
X135370666Y-91678685D01*
X135367708Y-91678948D01*
X135348148Y-91704887D01*
X135373044Y-91719560D01*
X135442799Y-91734736D01*
X135541684Y-91746335D01*
X135693601Y-91770419D01*
X135934122Y-91854948D01*
X136013453Y-91894207D01*
X136090837Y-91942641D01*
X136111414Y-91976072D01*
X136074705Y-91995116D01*
X135980228Y-92000394D01*
X135827506Y-91992524D01*
X135721902Y-91986208D01*
X135572896Y-91984845D01*
X135454486Y-91993285D01*
X135376345Y-92010649D01*
X135348148Y-92036058D01*
X135348464Y-92038339D01*
X135381658Y-92067695D01*
X135463458Y-92108027D01*
X135585259Y-92155574D01*
X135738456Y-92206579D01*
X135741104Y-92207402D01*
X136022664Y-92322420D01*
X136285466Y-92482485D01*
X136516580Y-92678294D01*
X136703075Y-92900545D01*
X136727634Y-92938225D01*
X136784519Y-93031712D01*
X136859152Y-93159051D01*
X136947206Y-93312429D01*
X137044357Y-93484028D01*
X137146278Y-93666036D01*
X137248644Y-93850636D01*
X137347129Y-94030015D01*
X137437408Y-94196357D01*
X137515154Y-94341847D01*
X137576043Y-94458671D01*
X137615749Y-94539013D01*
X137629945Y-94575059D01*
X137628643Y-94580563D01*
X137595200Y-94593207D01*
X137533124Y-94588120D01*
X137464694Y-94568955D01*
X137412191Y-94539364D01*
X137396902Y-94520687D01*
X137350570Y-94453245D01*
X137280382Y-94344801D01*
X137190418Y-94201863D01*
X137084760Y-94030937D01*
X136967487Y-93838530D01*
X136842678Y-93631149D01*
X136766600Y-93504541D01*
X136642740Y-93300928D01*
X136527221Y-93114024D01*
X136424473Y-92950834D01*
X136338925Y-92818363D01*
X136275006Y-92723615D01*
X136237147Y-92673594D01*
X136219547Y-92655593D01*
X136123667Y-92576858D01*
X136023680Y-92516629D01*
X136003024Y-92507597D01*
X135913658Y-92478118D01*
X135828049Y-92461707D01*
X135763785Y-92460764D01*
X135738456Y-92477692D01*
X135738550Y-92478203D01*
X135754733Y-92511709D01*
X135796492Y-92591401D01*
X135860638Y-92711374D01*
X135943985Y-92865724D01*
X136043344Y-93048545D01*
X136155528Y-93253931D01*
X136277348Y-93475978D01*
X136284317Y-93488654D01*
X136406638Y-93711593D01*
X136519945Y-93918878D01*
X136620904Y-94104356D01*
X136706184Y-94261873D01*
X136772452Y-94385276D01*
X136816376Y-94468411D01*
X136834625Y-94505124D01*
X136836859Y-94527744D01*
X136804640Y-94568138D01*
X136734963Y-94597820D01*
X136642755Y-94614724D01*
X136542944Y-94616781D01*
X136450453Y-94601923D01*
X136380211Y-94568082D01*
X136357599Y-94548663D01*
X136325909Y-94515679D01*
X136294008Y-94472265D01*
X136258726Y-94411952D01*
X136216892Y-94328273D01*
X136165334Y-94214757D01*
X136100882Y-94064937D01*
X136020365Y-93872345D01*
X135920612Y-93630511D01*
X135856192Y-93473576D01*
X135768491Y-93259895D01*
X135698896Y-93092369D01*
X135644108Y-92965345D01*
X135600823Y-92873174D01*
X135565743Y-92810204D01*
X135535567Y-92770784D01*
X135506992Y-92749263D01*
X135476719Y-92739991D01*
X135441447Y-92737316D01*
X135397875Y-92735587D01*
X135307985Y-92721573D01*
X135186617Y-92677840D01*
X135038562Y-92598977D01*
X134822735Y-92471593D01*
X134833248Y-92202418D01*
X134835723Y-92104373D01*
X134828936Y-91968583D01*
X134802041Y-91877363D01*
X134748413Y-91821277D01*
X134661430Y-91790889D01*
X134534470Y-91776765D01*
X134475082Y-91771117D01*
X134351536Y-91749336D01*
X134230819Y-91717351D01*
X134127077Y-91679885D01*
X134054458Y-91641659D01*
X134027108Y-91607397D01*
X134030265Y-91593000D01*
X134057856Y-91534616D01*
X134104611Y-91458763D01*
X134144402Y-91391859D01*
X134163747Y-91316863D01*
X134132720Y-91271660D01*
X134050568Y-91253388D01*
X133913712Y-91252051D01*
X133771715Y-91267462D01*
X133617430Y-91304030D01*
X133430571Y-91365420D01*
X133147211Y-91466697D01*
X133234382Y-91373519D01*
X133321553Y-91280340D01*
X133231482Y-91298793D01*
X133155256Y-91315732D01*
X133077466Y-91335537D01*
X133053095Y-91340522D01*
X133023142Y-91330199D01*
X133000760Y-91285360D01*
X132977219Y-91193648D01*
X132963176Y-91133066D01*
X132899170Y-90889041D01*
X132833493Y-90687850D01*
X132768188Y-90535176D01*
X132705296Y-90436701D01*
X132664032Y-90395941D01*
X132533236Y-90306449D01*
X132372292Y-90234503D01*
X132202142Y-90190357D01*
X132079721Y-90170781D01*
X132254053Y-90009381D01*
X132328184Y-89937040D01*
X132430448Y-89813363D01*
X132483425Y-89704054D01*
X132490858Y-89602687D01*
X132488957Y-89590913D01*
X132472374Y-89552957D01*
X132430378Y-89536810D01*
X132345784Y-89534381D01*
X132273403Y-89544861D01*
X132148723Y-89580894D01*
X131997784Y-89637076D01*
X131834609Y-89707670D01*
X131673221Y-89786938D01*
X131527640Y-89869144D01*
X131494404Y-89888709D01*
X131437540Y-89916750D01*
X131415051Y-89919006D01*
X131431666Y-89865957D01*
X131495699Y-89781840D01*
X131609090Y-89673881D01*
X131773168Y-89540836D01*
X131989261Y-89381462D01*
X132150217Y-89265432D01*
X132276507Y-89170603D01*
X132367122Y-89096478D01*
X132429371Y-89036627D01*
X132470565Y-88984621D01*
X132498013Y-88934032D01*
X132521131Y-88870233D01*
X132533829Y-88746507D01*
X132502321Y-88612429D01*
X132424649Y-88455218D01*
X132373233Y-88379224D01*
X132240352Y-88246583D01*
X132062215Y-88135081D01*
X131834421Y-88042247D01*
X131552570Y-87965611D01*
X131533054Y-87961485D01*
X131399848Y-87941331D01*
X131233682Y-87926268D01*
X131043846Y-87916143D01*
X130839631Y-87910803D01*
X130630326Y-87910097D01*
X130425221Y-87913871D01*
X130233607Y-87921973D01*
X130064775Y-87934250D01*
X129928013Y-87950549D01*
X129832612Y-87970718D01*
X129787862Y-87994605D01*
X129785555Y-87999749D01*
X129776763Y-88053997D01*
X129770295Y-88151035D01*
X129766085Y-88279439D01*
X129764066Y-88427786D01*
X129764125Y-88514825D01*
X129764173Y-88584652D01*
X129766338Y-88738613D01*
X129770496Y-88878246D01*
X129776579Y-88992127D01*
X129784523Y-89068834D01*
X129794261Y-89096941D01*
X129800443Y-89095301D01*
X129835164Y-89060005D01*
X129874267Y-88993144D01*
X129884535Y-88972823D01*
X129920535Y-88918242D01*
X129946155Y-88903185D01*
X129950939Y-88911056D01*
X129963746Y-88966074D01*
X129976735Y-89060439D01*
X129987720Y-89179618D01*
X129991791Y-89240122D01*
X129998901Y-89354733D01*
X130007993Y-89438747D01*
X130025021Y-89491764D01*
X130055940Y-89513378D01*
X130106704Y-89503188D01*
X130183266Y-89460789D01*
X130291583Y-89385779D01*
X130437607Y-89277755D01*
X130627294Y-89136313D01*
X130746787Y-89047735D01*
X130903716Y-88931438D01*
X131041155Y-88829621D01*
X131151919Y-88747608D01*
X131228822Y-88690718D01*
X131264678Y-88664274D01*
X131277134Y-88655837D01*
X131287189Y-88657218D01*
X131263273Y-88691773D01*
X131211729Y-88752620D01*
X131138899Y-88832876D01*
X131051125Y-88925657D01*
X130954749Y-89024080D01*
X130856113Y-89121263D01*
X130761559Y-89210321D01*
X130630323Y-89334134D01*
X130451633Y-89521420D01*
X130316612Y-89692793D01*
X130219461Y-89855976D01*
X130154379Y-90018692D01*
X130141257Y-90066445D01*
X130118846Y-90178476D01*
X130102984Y-90298778D01*
X130094459Y-90413872D01*
X130094061Y-90510280D01*
X130102576Y-90574522D01*
X130120792Y-90593119D01*
X130124774Y-90590685D01*
X130164727Y-90557657D01*
X130239529Y-90491395D01*
X130342276Y-90398150D01*
X130466065Y-90284169D01*
X130603994Y-90155703D01*
X130628872Y-90132459D01*
X130875526Y-89908802D01*
X131089613Y-89728537D01*
X131275504Y-89588348D01*
X131437570Y-89484917D01*
X131580181Y-89414928D01*
X131600925Y-89407061D01*
X131627447Y-89401886D01*
X131628326Y-89415502D01*
X131599865Y-89452296D01*
X131538366Y-89516654D01*
X131440133Y-89612963D01*
X131301469Y-89745608D01*
X131187199Y-89855370D01*
X130996891Y-90045451D01*
X130830582Y-90224171D01*
X130674558Y-90407246D01*
X130515106Y-90610396D01*
X130338511Y-90849340D01*
X130283033Y-90927143D01*
X130198297Y-91055663D01*
X130148315Y-91152621D01*
X130130065Y-91227308D01*
X130140527Y-91289013D01*
X130176680Y-91347028D01*
X130189992Y-91363080D01*
X130212816Y-91381904D01*
X130237848Y-91378076D01*
X130273391Y-91345138D01*
X130327747Y-91276630D01*
X130409218Y-91166091D01*
X130495927Y-91052147D01*
X130749151Y-90760042D01*
X131028326Y-90488519D01*
X131319872Y-90250117D01*
X131610205Y-90057372D01*
X131619198Y-90052272D01*
X131649066Y-90040415D01*
X131644241Y-90057946D01*
X131602378Y-90107715D01*
X131521135Y-90192573D01*
X131398169Y-90315371D01*
X131250418Y-90466368D01*
X130981014Y-90778035D01*
X130764498Y-91087273D01*
X130596922Y-91400969D01*
X130474341Y-91726009D01*
X130392804Y-92069281D01*
X130384982Y-92123535D01*
X130375426Y-92268713D01*
X130377644Y-92420663D01*
X130390833Y-92557358D01*
X130414192Y-92656770D01*
X130417086Y-92663863D01*
X130438296Y-92692939D01*
X130466678Y-92691912D01*
X130505167Y-92656684D01*
X130556700Y-92583158D01*
X130624213Y-92467233D01*
X130710641Y-92304813D01*
X130818920Y-92091799D01*
X130909122Y-91912358D01*
X130985989Y-91761547D01*
X131042954Y-91654043D01*
X131083566Y-91584353D01*
X131111373Y-91546986D01*
X131129921Y-91536448D01*
X131142759Y-91547247D01*
X131153433Y-91573891D01*
X131154314Y-91576561D01*
X131177088Y-91641294D01*
X131191075Y-91673563D01*
X131199577Y-91673448D01*
X131247653Y-91655701D01*
X131322071Y-91620411D01*
X131361061Y-91601190D01*
X131421329Y-91575090D01*
X131445075Y-91570590D01*
X131445056Y-91570838D01*
X131432542Y-91603522D01*
X131400132Y-91679401D01*
X131352614Y-91787446D01*
X131294780Y-91916630D01*
X131231991Y-92061001D01*
X131116928Y-92364569D01*
X131037722Y-92637956D01*
X130995666Y-92876218D01*
X130992053Y-93074408D01*
X130992796Y-93075261D01*
X131013979Y-93051043D01*
X131060764Y-92984071D01*
X131128425Y-92881485D01*
X131212232Y-92750429D01*
X131307457Y-92598043D01*
X131370583Y-92496181D01*
X131479032Y-92322947D01*
X131560936Y-92195607D01*
X131619164Y-92110361D01*
X131656585Y-92063410D01*
X131676069Y-92050952D01*
X131680485Y-92069188D01*
X131672703Y-92114317D01*
X131654615Y-92189743D01*
X131635586Y-92260689D01*
X131629602Y-92283617D01*
X131631530Y-92297877D01*
X131649104Y-92295187D01*
X131688743Y-92271652D01*
X131756865Y-92223378D01*
X131859890Y-92146470D01*
X132004236Y-92037035D01*
X132041289Y-92009384D01*
X132167051Y-91921174D01*
X132302383Y-91833042D01*
X132437445Y-91750650D01*
X132562400Y-91679658D01*
X132667408Y-91625729D01*
X132742630Y-91594522D01*
X132778227Y-91591698D01*
X132778478Y-91593210D01*
X132760205Y-91627495D01*
X132712855Y-91698491D01*
X132642841Y-91796887D01*
X132556580Y-91913372D01*
X132370617Y-92172963D01*
X132192866Y-92458483D01*
X132055638Y-92730054D01*
X131953431Y-92997569D01*
X131907937Y-93144460D01*
X131876053Y-93265323D01*
X131866649Y-93335811D01*
X131880834Y-93355568D01*
X131919719Y-93324240D01*
X131984412Y-93241471D01*
X132076025Y-93106909D01*
X132195666Y-92920198D01*
X132337549Y-92703142D01*
X132556516Y-92402916D01*
X132766045Y-92159622D01*
X132965527Y-91973945D01*
X133154352Y-91846565D01*
X133317411Y-91759381D01*
X133255167Y-91861790D01*
X133186199Y-92014500D01*
X133168472Y-92170289D01*
X133208531Y-92314648D01*
X133306072Y-92444128D01*
X133337389Y-92474499D01*
X133373015Y-92518509D01*
X133371948Y-92554948D01*
X133338795Y-92606704D01*
X133330467Y-92619490D01*
X133291640Y-92686576D01*
X133232298Y-92794755D01*
X133157290Y-92934996D01*
X133071466Y-93098269D01*
X132979673Y-93275541D01*
X132884627Y-93462404D01*
X132801542Y-93631647D01*
X132742140Y-93761687D01*
X132703421Y-93859549D01*
X132682389Y-93932256D01*
X132676044Y-93986831D01*
X132676069Y-93995163D01*
X132680550Y-94076092D01*
X132694268Y-94120702D01*
X132719384Y-94126340D01*
X132758059Y-94090355D01*
X132812456Y-94010095D01*
X132884736Y-93882910D01*
X132977061Y-93706147D01*
X133091593Y-93477155D01*
X133092310Y-93475703D01*
X133201498Y-93262852D01*
X133297279Y-93095502D01*
X133386412Y-92962675D01*
X133475655Y-92853394D01*
X133541851Y-92784027D01*
X133639965Y-92691254D01*
X133737813Y-92607888D01*
X133824900Y-92542246D01*
X133890732Y-92502647D01*
X133924816Y-92497407D01*
X133919815Y-92516295D01*
X133888441Y-92576677D01*
X133834772Y-92667560D01*
X133765028Y-92778020D01*
X133716298Y-92854314D01*
X133640330Y-92978026D01*
X133577544Y-93085943D01*
X133538047Y-93161010D01*
X133530834Y-93177191D01*
X133478989Y-93329223D01*
X133436280Y-93514452D01*
X133407293Y-93709249D01*
X133396612Y-93889984D01*
X133398539Y-93986893D01*
X133409465Y-94063297D01*
X133435914Y-94118435D01*
X133484373Y-94173246D01*
X133546664Y-94226448D01*
X133608617Y-94254496D01*
X133672353Y-94251355D01*
X133742494Y-94213510D01*
X133823668Y-94137445D01*
X133920499Y-94019644D01*
X134037612Y-93856592D01*
X134179633Y-93644773D01*
X134271027Y-93508439D01*
X134366971Y-93371172D01*
X134450732Y-93257348D01*
X134515619Y-93176035D01*
X134554937Y-93136299D01*
X134627135Y-93088993D01*
X134564017Y-93247163D01*
X134523917Y-93348001D01*
X134443998Y-93552358D01*
X134383917Y-93712610D01*
X134341059Y-93836599D01*
X134312808Y-93932164D01*
X134296548Y-94007144D01*
X134289663Y-94069380D01*
X134288793Y-94109765D01*
X134296334Y-94186135D01*
X134314924Y-94221100D01*
X134315859Y-94221298D01*
X134344736Y-94198546D01*
X134396288Y-94133979D01*
X134463501Y-94037087D01*
X134539362Y-93917360D01*
X134613133Y-93800459D01*
X134682278Y-93701203D01*
X134732266Y-93641974D01*
X134758285Y-93629111D01*
X134759440Y-93630467D01*
X134771886Y-93676104D01*
X134779591Y-93762784D01*
X134780930Y-93872984D01*
X134779718Y-93953947D01*
X134782045Y-94075915D01*
X134793391Y-94143540D01*
X134816950Y-94156770D01*
X134855917Y-94115555D01*
X134913486Y-94019843D01*
X134992852Y-93869583D01*
X135169879Y-93525428D01*
X135158168Y-93817147D01*
X135156649Y-93852625D01*
X135147105Y-93992595D01*
X135130645Y-94097260D01*
X135102939Y-94187080D01*
X135059654Y-94282513D01*
X135053920Y-94293815D01*
X134950096Y-94448513D01*
X134817933Y-94555688D01*
X134645564Y-94625159D01*
X134637656Y-94626959D01*
X134583429Y-94633251D01*
X134489957Y-94638476D01*
X134354930Y-94642652D01*
X134176037Y-94645795D01*
X133950967Y-94647922D01*
X133677411Y-94649049D01*
X133353056Y-94649193D01*
X132975593Y-94648372D01*
X132542711Y-94646601D01*
X132052099Y-94643897D01*
X131868130Y-94642808D01*
X131439479Y-94640439D01*
X131065542Y-94638353D01*
X130742494Y-94636173D01*
X130466509Y-94633523D01*
X130233762Y-94630026D01*
X130040425Y-94625307D01*
X129882674Y-94618989D01*
X129756682Y-94610695D01*
X129658623Y-94600050D01*
X129584672Y-94586677D01*
X129531003Y-94570200D01*
X129493789Y-94550243D01*
X129469205Y-94526428D01*
X129453426Y-94498381D01*
X129442624Y-94465724D01*
X129432974Y-94428081D01*
X129420650Y-94385077D01*
X129403136Y-94328147D01*
X129364070Y-94188397D01*
X129316528Y-94006814D01*
X129263109Y-93794145D01*
X129206410Y-93561137D01*
X129149032Y-93318536D01*
X129093573Y-93077089D01*
X129042631Y-92847543D01*
X128998806Y-92640644D01*
X128970456Y-92501213D01*
X128878721Y-92027000D01*
X128800324Y-91579123D01*
X128731220Y-91133479D01*
X128667363Y-90665964D01*
X128665718Y-90653213D01*
X128640304Y-90463014D01*
X128615147Y-90286333D01*
X128592003Y-90134692D01*
X128572624Y-90019612D01*
X128558766Y-89952615D01*
X128511024Y-89809525D01*
X128422731Y-89648877D01*
X128296553Y-89510619D01*
X128201325Y-89439785D01*
X128576290Y-89439785D01*
X128583866Y-89524851D01*
X128600488Y-89639401D01*
X128627048Y-89788239D01*
X128664439Y-89976165D01*
X128713554Y-90207981D01*
X128775284Y-90488489D01*
X128850524Y-90822491D01*
X128861332Y-90870085D01*
X128906556Y-91069240D01*
X128961140Y-91309638D01*
X129022031Y-91577824D01*
X129086171Y-91860343D01*
X129150508Y-92143738D01*
X129211985Y-92414553D01*
X129229344Y-92490847D01*
X129304234Y-92815152D01*
X129368375Y-93084331D01*
X129421601Y-93297759D01*
X129463744Y-93454809D01*
X129494638Y-93554852D01*
X129514118Y-93597262D01*
X129522015Y-93581413D01*
X129521576Y-93576326D01*
X129512101Y-93523669D01*
X129491519Y-93422244D01*
X129461445Y-93279643D01*
X129423493Y-93103458D01*
X129379279Y-92901281D01*
X129330419Y-92680703D01*
X129263838Y-92376842D01*
X129189015Y-92017200D01*
X129127830Y-91696746D01*
X129078534Y-91404947D01*
X129039380Y-91131267D01*
X129008620Y-90865171D01*
X128984504Y-90596125D01*
X128984247Y-90592822D01*
X128970995Y-90390968D01*
X128961235Y-90178533D01*
X128955013Y-89965588D01*
X128952374Y-89762208D01*
X128953360Y-89578464D01*
X128958019Y-89424429D01*
X128966393Y-89310175D01*
X128978527Y-89245776D01*
X129005943Y-89188707D01*
X129088454Y-89062616D01*
X129211435Y-88907667D01*
X129370752Y-88729302D01*
X129408958Y-88688038D01*
X129483068Y-88605195D01*
X129534397Y-88543798D01*
X129553586Y-88514825D01*
X129548446Y-88511079D01*
X129505421Y-88523199D01*
X129428125Y-88558095D01*
X129327974Y-88609545D01*
X129216382Y-88671324D01*
X129104766Y-88737208D01*
X129004539Y-88800973D01*
X128927119Y-88856396D01*
X128854899Y-88918534D01*
X128723472Y-89063676D01*
X128628193Y-89216320D01*
X128579030Y-89361988D01*
X128576867Y-89379404D01*
X128576290Y-89439785D01*
X128201325Y-89439785D01*
X128121569Y-89380459D01*
X128051458Y-89331390D01*
X127969305Y-89263400D01*
X127918606Y-89208234D01*
X127917254Y-89206069D01*
X127893632Y-89139577D01*
X127867907Y-89017912D01*
X127840899Y-88845603D01*
X127813428Y-88627176D01*
X127811832Y-88613203D01*
X127778681Y-88316009D01*
X127753899Y-88071007D01*
X127737966Y-87871159D01*
X127731362Y-87709427D01*
X127734568Y-87578775D01*
X127748062Y-87472166D01*
X127772326Y-87382561D01*
X127806148Y-87306719D01*
X128682900Y-87306719D01*
X128710095Y-87340152D01*
X128796161Y-87383599D01*
X128941364Y-87436018D01*
X129199827Y-87520190D01*
X128963881Y-87737252D01*
X128900900Y-87796642D01*
X128824204Y-87877256D01*
X128791113Y-87928528D01*
X128803111Y-87950494D01*
X128861681Y-87943189D01*
X128968307Y-87906647D01*
X129124473Y-87840905D01*
X129331664Y-87745997D01*
X129444781Y-87696804D01*
X129673331Y-87620636D01*
X129919704Y-87569686D01*
X130191475Y-87543400D01*
X130496218Y-87541224D01*
X130841504Y-87562607D01*
X131234910Y-87606994D01*
X131313676Y-87617446D01*
X131538362Y-87647088D01*
X131712526Y-87669112D01*
X131843103Y-87683590D01*
X131937029Y-87690595D01*
X132001237Y-87690200D01*
X132042664Y-87682478D01*
X132068245Y-87667501D01*
X132084914Y-87645343D01*
X132099608Y-87616077D01*
X132117714Y-87560939D01*
X132127921Y-87441580D01*
X132117165Y-87326697D01*
X132604293Y-87326697D01*
X132663216Y-87441580D01*
X132705475Y-87523972D01*
X132736248Y-87587774D01*
X132805523Y-87795853D01*
X132820633Y-87998753D01*
X132783018Y-88209182D01*
X132762974Y-88289872D01*
X132748053Y-88398487D01*
X132744283Y-88529458D01*
X132750438Y-88701315D01*
X132757346Y-88841018D01*
X132765719Y-89034212D01*
X132773596Y-89238330D01*
X132779915Y-89427201D01*
X132786983Y-89590893D01*
X132807079Y-89808775D01*
X132841098Y-89986470D01*
X132892464Y-90135791D01*
X132964602Y-90268555D01*
X133060938Y-90396576D01*
X133106167Y-90454060D01*
X133210027Y-90614977D01*
X133289346Y-90778029D01*
X133290229Y-90780274D01*
X133339196Y-90894445D01*
X133389409Y-90995255D01*
X133430132Y-91061116D01*
X133434044Y-91066112D01*
X133457751Y-91094969D01*
X133482527Y-91113703D01*
X133518006Y-91122033D01*
X133573822Y-91119680D01*
X133659610Y-91106362D01*
X133785005Y-91081801D01*
X133959641Y-91045714D01*
X134126777Y-91017537D01*
X134305478Y-91009256D01*
X134440080Y-91034084D01*
X134534186Y-91092314D01*
X134552011Y-91118769D01*
X134580670Y-91205701D01*
X134599151Y-91327249D01*
X134599398Y-91330002D01*
X134610494Y-91420897D01*
X134622823Y-91455654D01*
X134637005Y-91433323D01*
X134653659Y-91352957D01*
X134673405Y-91213608D01*
X134678714Y-91181516D01*
X134718281Y-91049489D01*
X134777294Y-90928383D01*
X134786694Y-90913216D01*
X134850268Y-90795991D01*
X134900180Y-90669826D01*
X134936006Y-90536637D01*
X135055839Y-90536637D01*
X135064439Y-90665070D01*
X135082707Y-90722405D01*
X135102839Y-90747503D01*
X135110496Y-90741819D01*
X135145093Y-90697059D01*
X135198007Y-90617491D01*
X135261269Y-90514820D01*
X135269593Y-90500871D01*
X135355459Y-90357895D01*
X135448056Y-90204976D01*
X135528733Y-90072928D01*
X135530333Y-90070320D01*
X135607325Y-89931893D01*
X135685367Y-89771228D01*
X135747800Y-89622573D01*
X135783139Y-89523006D01*
X135816837Y-89398903D01*
X135832443Y-89277122D01*
X135835381Y-89126965D01*
X135834869Y-89093587D01*
X135829322Y-88965253D01*
X135819423Y-88855333D01*
X135806903Y-88784639D01*
X135780747Y-88697515D01*
X135684146Y-88819484D01*
X135633538Y-88888598D01*
X135531333Y-89057069D01*
X135430656Y-89257236D01*
X135335027Y-89478612D01*
X135247967Y-89710713D01*
X135172997Y-89943051D01*
X135113639Y-90165142D01*
X135073412Y-90366499D01*
X135055839Y-90536637D01*
X134936006Y-90536637D01*
X134939958Y-90521945D01*
X134973128Y-90339573D01*
X135003217Y-90109931D01*
X135014367Y-90017159D01*
X135057272Y-89709855D01*
X135108065Y-89407163D01*
X135164699Y-89118296D01*
X135225126Y-88852467D01*
X135287299Y-88618888D01*
X135349170Y-88426770D01*
X135408694Y-88285326D01*
X135416296Y-88270149D01*
X135455955Y-88167434D01*
X135461557Y-88075198D01*
X135431164Y-87974982D01*
X135362840Y-87848325D01*
X135294756Y-87726652D01*
X135236263Y-87584634D01*
X135206655Y-87439644D01*
X135198554Y-87265499D01*
X135200696Y-87179584D01*
X135210049Y-87079372D01*
X135229166Y-86973919D01*
X135260550Y-86854982D01*
X135306706Y-86714320D01*
X135370137Y-86543691D01*
X135453347Y-86334853D01*
X135558841Y-86079565D01*
X135678279Y-85796535D01*
X135908535Y-85269800D01*
X136131782Y-84787088D01*
X136353138Y-84338931D01*
X136577723Y-83915864D01*
X136810654Y-83508423D01*
X137057050Y-83107141D01*
X137322031Y-82702554D01*
X137610714Y-82285194D01*
X137683661Y-82180817D01*
X137749260Y-82084060D01*
X137793721Y-82015062D01*
X137810087Y-81984321D01*
X137787304Y-81970789D01*
X137719971Y-81950716D01*
X137623674Y-81929627D01*
X137494364Y-81897527D01*
X137248001Y-81799108D01*
X137007731Y-81657861D01*
X136790366Y-81482802D01*
X136759754Y-81453727D01*
X136689567Y-81384724D01*
X136624246Y-81315474D01*
X136560767Y-81241189D01*
X136496104Y-81157083D01*
X136427235Y-81058369D01*
X136351134Y-80940259D01*
X136264778Y-80797965D01*
X136165143Y-80626701D01*
X136049204Y-80421680D01*
X135913938Y-80178113D01*
X135756320Y-79891215D01*
X135573326Y-79556196D01*
X135519244Y-79457454D01*
X135428963Y-79294631D01*
X135350164Y-79155046D01*
X135287098Y-79046104D01*
X135244017Y-78975211D01*
X135225173Y-78949772D01*
X135221851Y-78953455D01*
X135204795Y-78999416D01*
X135178414Y-79089730D01*
X135145634Y-79213987D01*
X135109380Y-79361775D01*
X135107258Y-79370683D01*
X135057641Y-79564778D01*
X134995749Y-79787195D01*
X134929265Y-80011170D01*
X134865873Y-80209943D01*
X134842839Y-80279311D01*
X134785640Y-80458762D01*
X134738846Y-80621611D01*
X134701020Y-80777440D01*
X134670723Y-80935827D01*
X134646516Y-81106352D01*
X134626960Y-81298596D01*
X134610616Y-81522137D01*
X134596047Y-81786556D01*
X134586858Y-81989831D01*
X134581813Y-82101433D01*
X134577443Y-82178514D01*
X134566653Y-82368825D01*
X134560295Y-82436655D01*
X134543197Y-82619077D01*
X134509173Y-82862119D01*
X134501640Y-82901957D01*
X134462201Y-83110529D01*
X134399899Y-83376887D01*
X134319887Y-83673770D01*
X134300140Y-83740837D01*
X134219782Y-84013757D01*
X134213047Y-84036061D01*
X134162250Y-84208857D01*
X134104163Y-84412598D01*
X134045440Y-84623698D01*
X133992733Y-84818572D01*
X133861606Y-85241646D01*
X133686984Y-85657841D01*
X133537745Y-85924918D01*
X133474666Y-86037803D01*
X133220603Y-86389766D01*
X133218556Y-86392263D01*
X133145878Y-86463233D01*
X133047429Y-86537746D01*
X132937592Y-86607405D01*
X132830745Y-86663816D01*
X132741271Y-86698582D01*
X132683550Y-86703308D01*
X132654690Y-86701469D01*
X132653149Y-86736567D01*
X132674980Y-86781821D01*
X132691056Y-86815144D01*
X132728377Y-86923623D01*
X132724325Y-87065267D01*
X132670192Y-87209445D01*
X132604293Y-87326697D01*
X132117165Y-87326697D01*
X132115516Y-87309083D01*
X132083497Y-87187322D01*
X132034859Y-87100169D01*
X132025354Y-87090406D01*
X131928022Y-87026526D01*
X131781110Y-86968892D01*
X131593566Y-86918527D01*
X131374340Y-86876454D01*
X131132380Y-86843697D01*
X130876635Y-86821279D01*
X130616054Y-86810222D01*
X130359586Y-86811551D01*
X130116179Y-86826288D01*
X129894784Y-86855457D01*
X129797680Y-86874260D01*
X129608755Y-86918562D01*
X129416276Y-86972249D01*
X129229103Y-87032023D01*
X129056095Y-87094583D01*
X128906111Y-87156632D01*
X128788011Y-87214870D01*
X128710654Y-87265998D01*
X128682900Y-87306719D01*
X127806148Y-87306719D01*
X127807840Y-87302924D01*
X127855084Y-87226218D01*
X127914538Y-87145404D01*
X127953101Y-87095384D01*
X128018702Y-87007393D01*
X128058877Y-86941846D01*
X128081122Y-86881022D01*
X128092932Y-86807199D01*
X128094435Y-86789494D01*
X129043184Y-86789494D01*
X129065169Y-86806054D01*
X129136581Y-86811725D01*
X129248181Y-86804374D01*
X129390380Y-86784679D01*
X129553586Y-86753320D01*
X129862319Y-86699209D01*
X130295098Y-86658609D01*
X130744956Y-86652048D01*
X131193486Y-86679629D01*
X131622283Y-86741460D01*
X131646835Y-86746144D01*
X131752524Y-86765948D01*
X131829849Y-86779861D01*
X131863517Y-86785115D01*
X131863851Y-86781821D01*
X131839810Y-86749536D01*
X131789292Y-86693949D01*
X131768182Y-86672898D01*
X131699644Y-86618284D01*
X131617960Y-86576131D01*
X131515335Y-86545019D01*
X131383975Y-86523525D01*
X131216082Y-86510228D01*
X131003862Y-86503708D01*
X130739520Y-86502542D01*
X130736530Y-86502553D01*
X130504075Y-86504450D01*
X130318752Y-86508857D01*
X130167809Y-86516680D01*
X130038498Y-86528824D01*
X129918070Y-86546195D01*
X129793775Y-86569698D01*
X129784183Y-86571679D01*
X129594714Y-86613362D01*
X129419810Y-86656354D01*
X129268338Y-86698061D01*
X129149164Y-86735884D01*
X129071157Y-86767227D01*
X129043184Y-86789494D01*
X128094435Y-86789494D01*
X128101804Y-86702655D01*
X128112018Y-86599191D01*
X128128172Y-86481099D01*
X128135489Y-86443494D01*
X128598544Y-86443494D01*
X128645371Y-86454466D01*
X128662943Y-86453279D01*
X128744091Y-86440747D01*
X128866299Y-86416744D01*
X129017248Y-86384001D01*
X129184622Y-86345250D01*
X129356104Y-86303223D01*
X129519375Y-86260651D01*
X129579975Y-86245017D01*
X129719037Y-86214091D01*
X129843022Y-86192662D01*
X129930723Y-86184648D01*
X129946170Y-86184776D01*
X130061751Y-86192513D01*
X130174872Y-86209801D01*
X130271171Y-86233248D01*
X130336284Y-86259460D01*
X130355847Y-86285047D01*
X130339353Y-86297008D01*
X130273308Y-86318141D01*
X130168950Y-86340627D01*
X130039038Y-86361393D01*
X129945952Y-86375327D01*
X129836367Y-86395608D01*
X129761467Y-86414401D01*
X129733728Y-86428946D01*
X129736625Y-86438463D01*
X129771257Y-86449155D01*
X129800282Y-86447335D01*
X129883170Y-86444066D01*
X130010510Y-86439858D01*
X130173816Y-86434973D01*
X130364604Y-86429675D01*
X130574389Y-86424227D01*
X130780323Y-86418922D01*
X130975958Y-86412848D01*
X131129713Y-86405634D01*
X131251409Y-86395874D01*
X131350868Y-86382158D01*
X131437914Y-86363079D01*
X131522369Y-86337228D01*
X131614055Y-86303197D01*
X131722794Y-86259578D01*
X131748442Y-86247418D01*
X131770414Y-86221803D01*
X131747662Y-86191964D01*
X131675810Y-86153946D01*
X131550483Y-86103792D01*
X131489229Y-86079955D01*
X131381511Y-86030405D01*
X131331368Y-85993044D01*
X131338926Y-85968642D01*
X131404309Y-85957970D01*
X131527640Y-85961800D01*
X131631172Y-85970072D01*
X131748350Y-85980661D01*
X131833479Y-85989715D01*
X131843645Y-85990709D01*
X131919599Y-85989459D01*
X132011817Y-85978849D01*
X132101262Y-85962284D01*
X132168892Y-85943172D01*
X132195666Y-85924918D01*
X132195171Y-85921850D01*
X132180857Y-85880100D01*
X132152928Y-85810220D01*
X132133592Y-85773569D01*
X132045888Y-85675595D01*
X131914252Y-85581947D01*
X131750181Y-85499929D01*
X131565170Y-85436844D01*
X131515804Y-85424319D01*
X131382813Y-85393575D01*
X131215621Y-85357554D01*
X131030720Y-85319762D01*
X130844602Y-85283705D01*
X130785979Y-85272685D01*
X130473936Y-85213362D01*
X130213524Y-85162433D01*
X129998281Y-85118439D01*
X129821746Y-85079919D01*
X129677457Y-85045414D01*
X129558952Y-85013465D01*
X129459768Y-84982611D01*
X129373444Y-84951394D01*
X129245114Y-84903646D01*
X129145191Y-84875421D01*
X129063066Y-84868539D01*
X128979661Y-84881524D01*
X128875896Y-84912898D01*
X128771148Y-84951000D01*
X128697952Y-84989743D01*
X128662273Y-85032225D01*
X128652876Y-85087228D01*
X128654134Y-85104448D01*
X128695997Y-85188019D01*
X128797362Y-85271796D01*
X128958500Y-85356015D01*
X128965875Y-85359264D01*
X129042504Y-85391274D01*
X129121679Y-85420195D01*
X129209102Y-85447096D01*
X129310475Y-85473043D01*
X129431499Y-85499106D01*
X129577876Y-85526351D01*
X129755309Y-85555847D01*
X129969500Y-85588662D01*
X130226150Y-85625863D01*
X130530962Y-85668519D01*
X130889638Y-85717698D01*
X130913824Y-85721000D01*
X131071285Y-85743071D01*
X131181371Y-85760081D01*
X131254916Y-85774051D01*
X131302751Y-85787003D01*
X131335710Y-85800959D01*
X131367097Y-85822043D01*
X131370845Y-85850531D01*
X131319782Y-85871562D01*
X131216955Y-85884163D01*
X131065412Y-85887357D01*
X130966216Y-85885360D01*
X130809213Y-85880488D01*
X130621200Y-85873424D01*
X130417667Y-85864756D01*
X130214106Y-85855071D01*
X130200288Y-85854377D01*
X129851098Y-85838383D01*
X129550885Y-85827781D01*
X129301813Y-85822596D01*
X129106045Y-85822852D01*
X128965744Y-85828575D01*
X128883072Y-85839788D01*
X128860683Y-85846011D01*
X128823851Y-85863861D01*
X128813341Y-85895992D01*
X128828166Y-85956082D01*
X128867337Y-86057811D01*
X128887637Y-86128485D01*
X128877664Y-86198469D01*
X128823208Y-86261502D01*
X128717701Y-86329510D01*
X128659901Y-86364770D01*
X128604183Y-86412221D01*
X128598544Y-86443494D01*
X128135489Y-86443494D01*
X128144961Y-86394813D01*
X128150454Y-86367660D01*
X128161487Y-86270843D01*
X128169046Y-86143033D01*
X128171738Y-86004506D01*
X128168708Y-85861030D01*
X128155901Y-85732023D01*
X128128675Y-85610019D01*
X128082388Y-85467103D01*
X128065391Y-85418237D01*
X128025983Y-85287478D01*
X128013325Y-85186452D01*
X128029959Y-85095885D01*
X128078428Y-84996506D01*
X128161272Y-84869042D01*
X128211343Y-84793446D01*
X128256960Y-84712902D01*
X128287912Y-84633344D01*
X128308477Y-84539525D01*
X128322936Y-84416200D01*
X128335567Y-84248123D01*
X128355209Y-84059149D01*
X128368250Y-83998166D01*
X130099216Y-83998166D01*
X130111794Y-84090868D01*
X130140858Y-84129566D01*
X130184320Y-84112537D01*
X130240091Y-84038059D01*
X130261416Y-84006983D01*
X130337886Y-83924230D01*
X130427654Y-83852108D01*
X130446792Y-83839600D01*
X130504362Y-83806204D01*
X130561312Y-83785187D01*
X130632806Y-83773739D01*
X130734008Y-83769052D01*
X130880082Y-83768319D01*
X130968866Y-83767672D01*
X131095912Y-83762657D01*
X131175733Y-83753424D01*
X131205125Y-83740837D01*
X131180883Y-83725760D01*
X131099803Y-83709058D01*
X131022019Y-83697001D01*
X130899836Y-83678657D01*
X130805842Y-83665899D01*
X130719288Y-83656017D01*
X130619425Y-83646299D01*
X130538763Y-83638153D01*
X130439745Y-83626352D01*
X130375583Y-83616483D01*
X130363841Y-83615235D01*
X130291845Y-83630261D01*
X130210453Y-83671605D01*
X130157712Y-83710798D01*
X130124106Y-83754720D01*
X130107858Y-83818681D01*
X130100181Y-83922685D01*
X130099216Y-83998166D01*
X128368250Y-83998166D01*
X128391673Y-83888638D01*
X128451373Y-83718669D01*
X128541127Y-83525274D01*
X128617520Y-83357828D01*
X128707713Y-83119475D01*
X128776092Y-82896655D01*
X130159259Y-82896655D01*
X130169070Y-82977765D01*
X130244129Y-82896013D01*
X130271609Y-82868272D01*
X130393068Y-82786272D01*
X130545182Y-82741639D01*
X130734279Y-82733181D01*
X130966689Y-82759704D01*
X131059660Y-82773679D01*
X131202017Y-82791314D01*
X131339992Y-82805069D01*
X131407504Y-82811709D01*
X131553089Y-82829414D01*
X131718837Y-82852569D01*
X131880418Y-82877895D01*
X131927902Y-82885642D01*
X132076060Y-82906620D01*
X132182566Y-82916331D01*
X132243089Y-82914777D01*
X132253295Y-82901957D01*
X132208853Y-82877871D01*
X132190498Y-82871734D01*
X132112150Y-82851477D01*
X131991790Y-82824073D01*
X131841224Y-82791876D01*
X131672260Y-82757240D01*
X131496703Y-82722518D01*
X131326362Y-82690064D01*
X131173042Y-82662232D01*
X131048552Y-82641376D01*
X130964697Y-82629849D01*
X130906946Y-82623986D01*
X130762718Y-82609476D01*
X130627721Y-82596040D01*
X130518525Y-82590066D01*
X130361287Y-82605227D01*
X130248969Y-82651882D01*
X130185337Y-82728900D01*
X130163829Y-82808014D01*
X130159259Y-82896655D01*
X128776092Y-82896655D01*
X128782174Y-82876835D01*
X128831874Y-82656870D01*
X128841018Y-82574336D01*
X128848861Y-82441621D01*
X128854477Y-82274716D01*
X128857428Y-82086854D01*
X128857306Y-81932432D01*
X130266235Y-81932432D01*
X130266551Y-82023380D01*
X130280139Y-82102871D01*
X130304986Y-82146968D01*
X130308344Y-82147922D01*
X130353242Y-82137553D01*
X130433458Y-82105717D01*
X130534208Y-82058142D01*
X130660572Y-82000438D01*
X130802822Y-81951371D01*
X130953091Y-81918165D01*
X131116777Y-81901288D01*
X131299276Y-81901205D01*
X131505987Y-81918386D01*
X131742306Y-81953296D01*
X132013631Y-82006404D01*
X132325358Y-82078177D01*
X132682886Y-82169082D01*
X133091612Y-82279587D01*
X133263016Y-82326930D01*
X133441434Y-82376037D01*
X133573963Y-82411954D01*
X133667415Y-82436220D01*
X133728601Y-82450376D01*
X133764332Y-82455958D01*
X133781422Y-82454506D01*
X133786680Y-82447559D01*
X133786919Y-82436655D01*
X133785194Y-82434255D01*
X133744603Y-82415279D01*
X133656117Y-82383345D01*
X133527756Y-82340878D01*
X133367536Y-82290304D01*
X133183479Y-82234050D01*
X132983600Y-82174539D01*
X132775921Y-82114199D01*
X132568458Y-82055454D01*
X132369230Y-82000730D01*
X132186257Y-81952453D01*
X132034371Y-81914900D01*
X131811367Y-81864074D01*
X131580837Y-81815758D01*
X131352198Y-81771592D01*
X131148086Y-81735550D01*
X132285737Y-81735550D01*
X132285858Y-81737955D01*
X132296667Y-81757632D01*
X132329225Y-81780036D01*
X132389549Y-81807398D01*
X132483655Y-81841947D01*
X132617558Y-81885914D01*
X132797275Y-81941530D01*
X133028822Y-82011024D01*
X133206433Y-82063895D01*
X133393095Y-82119558D01*
X133554388Y-82167762D01*
X133682261Y-82206097D01*
X133768669Y-82232155D01*
X133805562Y-82243525D01*
X133812660Y-82244162D01*
X133845695Y-82221046D01*
X133871274Y-82178514D01*
X133870191Y-82145653D01*
X133855757Y-82140534D01*
X133791340Y-82120582D01*
X133682681Y-82087978D01*
X133537797Y-82045103D01*
X133364709Y-81994339D01*
X133171434Y-81938070D01*
X133049831Y-81902742D01*
X132858904Y-81847082D01*
X132688569Y-81797192D01*
X132548099Y-81755798D01*
X132446766Y-81725629D01*
X132393845Y-81709411D01*
X132353661Y-81696393D01*
X132304556Y-81684397D01*
X132287599Y-81696075D01*
X132285737Y-81735550D01*
X131148086Y-81735550D01*
X131134868Y-81733216D01*
X130938263Y-81702271D01*
X130771800Y-81680396D01*
X130644898Y-81669232D01*
X130566973Y-81670419D01*
X130443503Y-81701185D01*
X130339363Y-81763329D01*
X130280522Y-81855880D01*
X130266235Y-81932432D01*
X128857306Y-81932432D01*
X128857274Y-81891267D01*
X128856818Y-81833100D01*
X128857297Y-81664137D01*
X133521021Y-81664137D01*
X133524940Y-81736153D01*
X133539413Y-81784742D01*
X133565954Y-81824617D01*
X133583733Y-81840573D01*
X133645643Y-81877470D01*
X133730951Y-81917456D01*
X133824203Y-81954606D01*
X133909946Y-81983001D01*
X133972724Y-81996716D01*
X133997085Y-81989831D01*
X133996961Y-81989107D01*
X133981524Y-81954926D01*
X133944490Y-81880413D01*
X133891894Y-81777161D01*
X133829772Y-81656760D01*
X133764160Y-81530801D01*
X133701092Y-81410877D01*
X133646604Y-81308579D01*
X133606732Y-81235498D01*
X133587511Y-81203225D01*
X133580201Y-81197066D01*
X133566494Y-81206014D01*
X133554763Y-81252079D01*
X133543489Y-81342886D01*
X133533156Y-81462808D01*
X133531152Y-81486060D01*
X133526145Y-81553980D01*
X133521021Y-81664137D01*
X128857297Y-81664137D01*
X128857484Y-81598268D01*
X128862614Y-81417339D01*
X128872120Y-81292314D01*
X128885917Y-81225189D01*
X128904367Y-81196317D01*
X128967201Y-81125541D01*
X129063812Y-81030728D01*
X129164148Y-80939209D01*
X129888652Y-80939209D01*
X129890915Y-81004659D01*
X129909848Y-81064063D01*
X129951897Y-81135456D01*
X130023509Y-81236868D01*
X130047060Y-81269146D01*
X130112140Y-81355158D01*
X130160857Y-81414837D01*
X130184082Y-81436820D01*
X130210101Y-81433255D01*
X130305745Y-81406137D01*
X130397942Y-81364330D01*
X130458741Y-81319749D01*
X130480086Y-81285828D01*
X130494138Y-81190292D01*
X130464540Y-81077443D01*
X130395370Y-80958786D01*
X130290706Y-80845821D01*
X130225549Y-80799075D01*
X130135233Y-80750994D01*
X130043169Y-80713841D01*
X129966909Y-80694585D01*
X129924008Y-80700199D01*
X129917361Y-80718282D01*
X129905426Y-80782730D01*
X129894066Y-80874808D01*
X129888652Y-80939209D01*
X129164148Y-80939209D01*
X129185704Y-80919547D01*
X129324381Y-80799663D01*
X129471347Y-80678743D01*
X129618108Y-80564455D01*
X129704644Y-80506038D01*
X129859130Y-80440802D01*
X130011300Y-80431648D01*
X130169503Y-80477254D01*
X130190396Y-80486400D01*
X130296889Y-80526295D01*
X130372236Y-80534135D01*
X130434368Y-80508291D01*
X130468932Y-80476671D01*
X131325822Y-80476671D01*
X131335232Y-80539109D01*
X131363697Y-80638142D01*
X131406795Y-80762831D01*
X131460110Y-80902235D01*
X131519221Y-81045416D01*
X131579709Y-81181432D01*
X131584026Y-81190292D01*
X131637156Y-81299344D01*
X131687143Y-81388212D01*
X131725251Y-81437097D01*
X131774152Y-81464521D01*
X131858902Y-81487997D01*
X131948921Y-81496589D01*
X132023536Y-81488719D01*
X132062073Y-81462808D01*
X132060430Y-81417139D01*
X132029898Y-81328044D01*
X131973551Y-81210181D01*
X131952441Y-81172898D01*
X134163573Y-81172898D01*
X134185694Y-81193026D01*
X134247042Y-81202236D01*
X134313300Y-81180503D01*
X134358277Y-81133170D01*
X134367183Y-81106656D01*
X134391081Y-81024747D01*
X134426876Y-80896259D01*
X134472795Y-80727886D01*
X134527067Y-80526324D01*
X134587919Y-80298269D01*
X134653579Y-80050415D01*
X134722275Y-79789458D01*
X134792235Y-79522094D01*
X134861687Y-79255017D01*
X134928859Y-78994923D01*
X134991979Y-78748507D01*
X135049274Y-78522464D01*
X135105266Y-78288982D01*
X135145652Y-78091716D01*
X135165343Y-77950807D01*
X135164339Y-77866259D01*
X135142640Y-77838076D01*
X135137825Y-77845418D01*
X135116928Y-77900280D01*
X135082403Y-78003546D01*
X135036069Y-78149006D01*
X134979751Y-78330454D01*
X134915272Y-78541682D01*
X134844452Y-78776480D01*
X134769116Y-79028641D01*
X134691086Y-79291958D01*
X134612184Y-79560222D01*
X134534233Y-79827225D01*
X134459056Y-80086759D01*
X134388474Y-80332616D01*
X134324312Y-80558589D01*
X134268391Y-80758468D01*
X134222534Y-80926047D01*
X134188563Y-81055117D01*
X134168302Y-81139470D01*
X134163573Y-81172898D01*
X131952441Y-81172898D01*
X131896522Y-81074139D01*
X131803949Y-80930511D01*
X131779072Y-80895481D01*
X131697629Y-80792262D01*
X131606243Y-80688830D01*
X131514406Y-80594604D01*
X131431611Y-80519003D01*
X131367351Y-80471445D01*
X131331118Y-80461351D01*
X131325822Y-80476671D01*
X130468932Y-80476671D01*
X130501219Y-80447134D01*
X130534648Y-80414190D01*
X130626971Y-80334194D01*
X130724508Y-80260148D01*
X130818674Y-80202768D01*
X130909966Y-80173551D01*
X131026357Y-80166070D01*
X131117133Y-80170143D01*
X131198877Y-80187924D01*
X131287298Y-80226516D01*
X131403457Y-80293009D01*
X131431138Y-80309481D01*
X131532967Y-80365806D01*
X131615691Y-80405249D01*
X131663549Y-80420109D01*
X131663753Y-80420108D01*
X131710354Y-80400885D01*
X131784329Y-80350985D01*
X131869758Y-80281137D01*
X131975405Y-80194574D01*
X132144047Y-80091466D01*
X132309972Y-80039168D01*
X132479554Y-80038018D01*
X132659167Y-80088352D01*
X132855185Y-80190508D01*
X133073982Y-80344822D01*
X133118249Y-80378576D01*
X133212427Y-80445986D01*
X133286023Y-80492706D01*
X133326000Y-80510180D01*
X133342421Y-80506981D01*
X133369709Y-80487720D01*
X133400451Y-80447819D01*
X133436029Y-80383592D01*
X133477828Y-80291352D01*
X133527228Y-80167412D01*
X133585615Y-80008087D01*
X133654370Y-79809689D01*
X133734877Y-79568531D01*
X133828518Y-79280927D01*
X133936678Y-78943190D01*
X134060738Y-78551634D01*
X134366006Y-77584490D01*
X134297905Y-77463588D01*
X134266023Y-77410310D01*
X134204010Y-77311410D01*
X134121445Y-77182500D01*
X134025167Y-77034248D01*
X133922016Y-76877319D01*
X133835149Y-76744522D01*
X133734745Y-76587469D01*
X133646164Y-76445151D01*
X133576658Y-76329251D01*
X133533479Y-76251450D01*
X133524557Y-76233452D01*
X133419363Y-75959572D01*
X133359595Y-75658723D01*
X133343645Y-75323035D01*
X133343695Y-75207612D01*
X133339357Y-75144452D01*
X133486969Y-75144452D01*
X133489103Y-75191335D01*
X133528615Y-75280051D01*
X133548252Y-75310836D01*
X133612967Y-75386059D01*
X133693450Y-75459879D01*
X133761478Y-75513739D01*
X133796329Y-75535879D01*
X133801747Y-75524126D01*
X133786624Y-75480443D01*
X133779292Y-75460726D01*
X133759684Y-75388687D01*
X133771825Y-75354665D01*
X133818715Y-75346113D01*
X133861891Y-75336880D01*
X133851460Y-75308231D01*
X133785519Y-75260715D01*
X133664637Y-75194891D01*
X133608422Y-75167683D01*
X133525611Y-75137277D01*
X133486969Y-75144452D01*
X133339357Y-75144452D01*
X133332198Y-75040206D01*
X133300262Y-74902278D01*
X133241237Y-74777127D01*
X133206645Y-74728994D01*
X133523242Y-74728994D01*
X133548810Y-74837946D01*
X133595583Y-74951178D01*
X133655271Y-75044512D01*
X133669439Y-75060302D01*
X133734674Y-75114188D01*
X133790854Y-75135948D01*
X133818044Y-75133594D01*
X133828848Y-75117386D01*
X133812632Y-75074793D01*
X133767337Y-74993336D01*
X133747348Y-74958726D01*
X133662274Y-74814497D01*
X133600961Y-74717489D01*
X133559820Y-74662804D01*
X133535262Y-74645545D01*
X133523700Y-74660815D01*
X133523242Y-74728994D01*
X133206645Y-74728994D01*
X133148475Y-74648053D01*
X133015326Y-74498353D01*
X132969853Y-74449477D01*
X132869289Y-74338453D01*
X132780028Y-74236285D01*
X132717235Y-74160180D01*
X132615415Y-74017081D01*
X132504923Y-73825192D01*
X132409871Y-73611245D01*
X132328961Y-73369861D01*
X132273467Y-73146298D01*
X132447387Y-73146298D01*
X132451550Y-73184411D01*
X132451848Y-73185875D01*
X132492610Y-73329126D01*
X132556619Y-73488906D01*
X132636856Y-73652957D01*
X132726303Y-73809023D01*
X132817942Y-73944849D01*
X132904755Y-74048180D01*
X132979724Y-74106759D01*
X133030832Y-74124403D01*
X133115620Y-74144064D01*
X133212177Y-74160920D01*
X133302917Y-74172364D01*
X133370257Y-74175786D01*
X133396612Y-74168581D01*
X133396525Y-74168063D01*
X133370358Y-74144633D01*
X133306537Y-74100071D01*
X133218163Y-74043558D01*
X133150130Y-73998388D01*
X132957446Y-73833194D01*
X132771332Y-73615626D01*
X132588348Y-73341847D01*
X132549106Y-73277266D01*
X132492616Y-73188640D01*
X132459892Y-73146345D01*
X132447387Y-73146298D01*
X132273467Y-73146298D01*
X132260898Y-73095661D01*
X132204385Y-72783268D01*
X132163123Y-72465769D01*
X134420985Y-72465769D01*
X134421954Y-72686106D01*
X134424056Y-72886586D01*
X134427309Y-73059173D01*
X134431731Y-73195833D01*
X134437343Y-73288528D01*
X134444161Y-73329225D01*
X134444465Y-73329649D01*
X134451441Y-73308633D01*
X134459094Y-73235201D01*
X134467005Y-73116630D01*
X134474759Y-72960200D01*
X134481936Y-72773187D01*
X134488119Y-72562872D01*
X134488343Y-72554006D01*
X134497463Y-72214874D01*
X134506532Y-71925267D01*
X134516032Y-71674911D01*
X134526447Y-71453535D01*
X134538257Y-71250864D01*
X134551944Y-71056626D01*
X134567991Y-70860549D01*
X134581631Y-70735856D01*
X134618072Y-70550056D01*
X134677110Y-70386860D01*
X134765747Y-70232533D01*
X134890982Y-70073340D01*
X135059815Y-69895547D01*
X135090238Y-69865641D01*
X135251264Y-69715842D01*
X135425866Y-69565375D01*
X135606813Y-69419393D01*
X135786869Y-69283048D01*
X135958804Y-69161491D01*
X136115383Y-69059876D01*
X136249373Y-68983354D01*
X136353542Y-68937077D01*
X136420656Y-68926198D01*
X136437810Y-68937182D01*
X136488185Y-68991451D01*
X136560253Y-69083532D01*
X136647709Y-69205202D01*
X136744248Y-69348236D01*
X136786929Y-69413342D01*
X136984139Y-69714292D01*
X137151131Y-69969617D01*
X137290183Y-70183142D01*
X137403570Y-70358689D01*
X137493572Y-70500082D01*
X137562465Y-70611145D01*
X137612525Y-70695702D01*
X137646032Y-70757575D01*
X137665262Y-70800589D01*
X137672492Y-70828567D01*
X137669999Y-70845334D01*
X137660062Y-70854711D01*
X137644957Y-70860524D01*
X137632785Y-70851608D01*
X137588599Y-70800840D01*
X137517185Y-70710211D01*
X137422809Y-70585393D01*
X137309741Y-70432062D01*
X137182249Y-70255888D01*
X137044601Y-70062547D01*
X136969570Y-69956533D01*
X136820915Y-69748230D01*
X136701769Y-69584366D01*
X136609243Y-69461264D01*
X136540446Y-69375247D01*
X136492489Y-69322639D01*
X136462480Y-69299762D01*
X136447531Y-69302940D01*
X136443442Y-69327044D01*
X136438944Y-69407868D01*
X136435622Y-69539259D01*
X136433511Y-69715787D01*
X136432648Y-69932022D01*
X136433068Y-70182534D01*
X136434808Y-70461893D01*
X136437901Y-70764668D01*
X136442234Y-71099956D01*
X136447216Y-71411488D01*
X136452997Y-71672869D01*
X136460105Y-71889253D01*
X136469070Y-72065795D01*
X136480420Y-72207648D01*
X136494686Y-72319967D01*
X136512395Y-72407906D01*
X136534077Y-72476620D01*
X136560262Y-72531263D01*
X136591478Y-72576989D01*
X136628254Y-72618952D01*
X136644736Y-72636032D01*
X136694214Y-72682256D01*
X136748693Y-72721653D01*
X136818574Y-72759367D01*
X136914257Y-72800538D01*
X137046141Y-72850310D01*
X137224626Y-72913823D01*
X137422112Y-72986521D01*
X137660553Y-73086267D01*
X137847001Y-73180588D01*
X137979011Y-73268206D01*
X138054136Y-73347842D01*
X138077800Y-73393138D01*
X138099329Y-73464491D01*
X138105357Y-73549958D01*
X138097228Y-73630761D01*
X138094645Y-73656437D01*
X138065953Y-73790823D01*
X138018042Y-73960013D01*
X137949673Y-74170904D01*
X137859607Y-74430392D01*
X137831582Y-74513101D01*
X137738194Y-74885509D01*
X137703171Y-75244511D01*
X137726501Y-75589886D01*
X137808173Y-75921409D01*
X137948176Y-76238859D01*
X138084168Y-76488340D01*
X137954634Y-76470347D01*
X137778113Y-76443315D01*
X137437881Y-76373211D01*
X137130343Y-76280790D01*
X136847670Y-76161266D01*
X136582034Y-76009850D01*
X136325605Y-75821755D01*
X136070556Y-75592193D01*
X135809058Y-75316377D01*
X135533282Y-74989518D01*
X135366852Y-74782813D01*
X135196648Y-74569637D01*
X135058111Y-74392647D01*
X134947728Y-74246219D01*
X134867873Y-74133069D01*
X135956905Y-74133069D01*
X135984800Y-74210709D01*
X136063639Y-74275483D01*
X136162075Y-74316299D01*
X136327820Y-74343741D01*
X136518498Y-74341079D01*
X136719547Y-74309836D01*
X136916404Y-74251535D01*
X137094505Y-74167698D01*
X137149610Y-74131976D01*
X137260512Y-74039765D01*
X137358688Y-73933155D01*
X137437307Y-73822529D01*
X137489538Y-73718270D01*
X137508547Y-73630761D01*
X137487505Y-73570387D01*
X137476430Y-73560329D01*
X137380716Y-73508982D01*
X137243052Y-73472872D01*
X137077871Y-73454771D01*
X136899605Y-73457453D01*
X136882839Y-73458838D01*
X136616650Y-73506417D01*
X136388620Y-73599763D01*
X136196945Y-73739863D01*
X136039821Y-73927705D01*
X135979450Y-74035205D01*
X135956905Y-74133069D01*
X134867873Y-74133069D01*
X134861990Y-74124733D01*
X134797384Y-74022566D01*
X134750399Y-73934095D01*
X134717525Y-73853700D01*
X134695251Y-73775757D01*
X134680064Y-73694646D01*
X134668455Y-73604742D01*
X134663702Y-73565212D01*
X134646430Y-73458301D01*
X134628901Y-73410847D01*
X134610508Y-73422983D01*
X134590647Y-73494841D01*
X134568711Y-73626555D01*
X134558291Y-73700329D01*
X134547992Y-73796664D01*
X134549352Y-73875877D01*
X134566793Y-73948547D01*
X134604733Y-74025252D01*
X134667592Y-74116570D01*
X134708751Y-74168581D01*
X134759791Y-74233079D01*
X134885748Y-74385357D01*
X134997339Y-74522279D01*
X135138323Y-74700176D01*
X135279446Y-74882506D01*
X135402410Y-75045877D01*
X135578031Y-75271707D01*
X135902310Y-75628124D01*
X136247087Y-75930762D01*
X136617209Y-76182729D01*
X137017524Y-76387133D01*
X137452878Y-76547085D01*
X137928121Y-76665691D01*
X138029052Y-76686500D01*
X138142691Y-76711907D01*
X138223321Y-76732353D01*
X138257948Y-76744723D01*
X138256953Y-76750014D01*
X138215880Y-76754087D01*
X138132295Y-76750748D01*
X138017355Y-76741150D01*
X137882214Y-76726441D01*
X137738027Y-76707773D01*
X137595951Y-76686296D01*
X137467141Y-76663161D01*
X137451706Y-76660049D01*
X137039677Y-76547223D01*
X136646518Y-76382749D01*
X136279869Y-76171014D01*
X135947367Y-75916406D01*
X135656653Y-75623312D01*
X135612427Y-75569552D01*
X135520594Y-75450095D01*
X135412397Y-75302463D01*
X135297849Y-75140419D01*
X135186965Y-74977727D01*
X135085112Y-74829893D01*
X134956915Y-74657016D01*
X134836352Y-74508404D01*
X134728305Y-74389358D01*
X134637661Y-74305182D01*
X134569304Y-74261177D01*
X134528119Y-74262644D01*
X134525798Y-74266404D01*
X134518678Y-74318336D01*
X134518044Y-74420956D01*
X134523781Y-74566826D01*
X134535771Y-74748509D01*
X134547305Y-74918061D01*
X134556225Y-75117386D01*
X134563554Y-75281162D01*
X134564463Y-75336880D01*
X134569501Y-75645647D01*
X134564962Y-75991370D01*
X134549756Y-76298180D01*
X134529297Y-76576896D01*
X134670804Y-76824684D01*
X134711579Y-76894919D01*
X134800037Y-77034074D01*
X134878361Y-77130331D01*
X134956377Y-77192367D01*
X135043914Y-77228860D01*
X135150799Y-77248485D01*
X135307536Y-77276420D01*
X135428622Y-77327024D01*
X135505727Y-77406616D01*
X135546431Y-77523320D01*
X135558314Y-77685263D01*
X135558589Y-77721893D01*
X135563408Y-77793399D01*
X135578911Y-77856850D01*
X135611076Y-77926529D01*
X135625828Y-77950807D01*
X135665881Y-78016721D01*
X135749300Y-78141711D01*
X136055086Y-78621893D01*
X136425851Y-79295320D01*
X136758544Y-80012283D01*
X136802433Y-80114140D01*
X136875616Y-80272180D01*
X136942819Y-80394884D01*
X137013131Y-80496242D01*
X137095643Y-80590245D01*
X137199445Y-80690884D01*
X137418943Y-80859258D01*
X137676074Y-80997047D01*
X137947753Y-81091031D01*
X138010722Y-81105889D01*
X138345287Y-81151079D01*
X138672742Y-81137071D01*
X138996021Y-81063791D01*
X139078857Y-81034266D01*
X139201064Y-80979829D01*
X139303938Y-80921647D01*
X139374892Y-80867169D01*
X139401340Y-80823846D01*
X139401087Y-80821415D01*
X139384734Y-80775376D01*
X139345805Y-80685995D01*
X139288429Y-80562208D01*
X139216736Y-80412950D01*
X139134853Y-80247157D01*
X139055667Y-80087163D01*
X138961224Y-79892394D01*
X138872292Y-79705110D01*
X138796141Y-79540641D01*
X138740036Y-79414317D01*
X138720091Y-79366245D01*
X138668383Y-79233175D01*
X138607672Y-79068280D01*
X138540893Y-78880393D01*
X138470981Y-78678345D01*
X138400869Y-78470970D01*
X138333492Y-78267098D01*
X138286611Y-78121580D01*
X138417284Y-78121580D01*
X138417291Y-78132502D01*
X138428641Y-78189838D01*
X138451934Y-78284367D01*
X138484043Y-78402920D01*
X138610145Y-78811372D01*
X138792513Y-79300741D01*
X138997784Y-79755797D01*
X139220862Y-80164351D01*
X139265349Y-80237097D01*
X139325014Y-80331444D01*
X139368476Y-80396111D01*
X139388531Y-80420109D01*
X139385024Y-80406627D01*
X139359729Y-80348022D01*
X139314468Y-80251045D01*
X139253384Y-80124517D01*
X139180618Y-79977260D01*
X139137584Y-79890114D01*
X138824947Y-79193705D01*
X138543076Y-78447883D01*
X138542821Y-78447144D01*
X138497042Y-78317729D01*
X138458119Y-78213221D01*
X138430162Y-78144283D01*
X138417284Y-78121580D01*
X138286611Y-78121580D01*
X138271785Y-78075562D01*
X138218683Y-77905194D01*
X138177119Y-77764827D01*
X138150029Y-77663291D01*
X138140347Y-77609420D01*
X138142338Y-77578908D01*
X138168007Y-77475210D01*
X138213881Y-77373938D01*
X138267954Y-77303844D01*
X138280844Y-77294253D01*
X138307517Y-77290676D01*
X138331451Y-77325620D01*
X138361398Y-77408927D01*
X138377049Y-77459989D01*
X138410358Y-77577362D01*
X138448766Y-77720176D01*
X138486723Y-77868099D01*
X138493413Y-77894668D01*
X138604526Y-78288915D01*
X138738585Y-78692318D01*
X138889040Y-79087597D01*
X139049347Y-79457475D01*
X139212956Y-79784672D01*
X139229960Y-79815472D01*
X139318096Y-79963937D01*
X139417642Y-80117306D01*
X139520373Y-80264163D01*
X139618062Y-80393090D01*
X139640968Y-80420109D01*
X139702486Y-80492672D01*
X139765418Y-80551491D01*
X139777473Y-80559343D01*
X139882172Y-80595131D01*
X139994352Y-80591150D01*
X140087506Y-80547709D01*
X140092263Y-80542925D01*
X140129160Y-80492618D01*
X140190282Y-80398825D01*
X140251906Y-80300014D01*
X140805456Y-80300014D01*
X140906530Y-80296504D01*
X141026155Y-80286382D01*
X141203284Y-80262186D01*
X141435077Y-80224203D01*
X141436963Y-80223868D01*
X141512819Y-80196378D01*
X141560499Y-80154648D01*
X141571491Y-80122362D01*
X141589886Y-80042524D01*
X141610693Y-79933581D01*
X141631590Y-79810205D01*
X141650251Y-79687068D01*
X141664355Y-79578844D01*
X141671575Y-79500204D01*
X141669590Y-79465822D01*
X141661083Y-79463500D01*
X141607293Y-79472162D01*
X141518416Y-79497389D01*
X141408812Y-79534189D01*
X141292840Y-79577571D01*
X141184856Y-79622542D01*
X141099220Y-79664111D01*
X140980759Y-79739377D01*
X140890792Y-79832507D01*
X140840091Y-79948800D01*
X140817862Y-80105184D01*
X140805456Y-80300014D01*
X140251906Y-80300014D01*
X140271435Y-80268701D01*
X140368424Y-80109404D01*
X140477057Y-79928088D01*
X140593139Y-79731910D01*
X140712476Y-79528026D01*
X140830875Y-79323592D01*
X140944142Y-79125764D01*
X141048083Y-78941698D01*
X141138503Y-78778550D01*
X141211210Y-78643475D01*
X141262010Y-78543631D01*
X141308619Y-78450428D01*
X141384380Y-78321882D01*
X141459646Y-78232401D01*
X141545363Y-78170208D01*
X141652477Y-78123525D01*
X141687407Y-78110210D01*
X141779068Y-78066852D01*
X141843194Y-78024933D01*
X141846488Y-78021772D01*
X141886024Y-77975144D01*
X141952778Y-77889046D01*
X142040464Y-77771864D01*
X142142792Y-77631984D01*
X142253475Y-77477792D01*
X142301321Y-77410073D01*
X143414364Y-77410073D01*
X143425110Y-77429067D01*
X143437886Y-77437311D01*
X143462310Y-77435925D01*
X143498488Y-77414115D01*
X143551910Y-77366870D01*
X143628068Y-77289178D01*
X143732450Y-77176026D01*
X143796591Y-77104673D01*
X144127699Y-77104673D01*
X144147245Y-77118134D01*
X144203320Y-77100886D01*
X144288422Y-77053542D01*
X144305957Y-77041310D01*
X144375759Y-76975875D01*
X144440789Y-76893447D01*
X144491697Y-76808963D01*
X144519136Y-76737357D01*
X144513755Y-76693564D01*
X144493794Y-76693740D01*
X144439834Y-76732194D01*
X144360653Y-76810531D01*
X144261638Y-76923280D01*
X144148175Y-77064967D01*
X144127699Y-77104673D01*
X143796591Y-77104673D01*
X143870545Y-77022403D01*
X143895919Y-76993914D01*
X144013899Y-76859128D01*
X144114208Y-76740761D01*
X144191152Y-76645802D01*
X144239035Y-76581241D01*
X144252162Y-76554067D01*
X144250026Y-76553700D01*
X144216170Y-76576039D01*
X144148279Y-76633967D01*
X144052986Y-76721429D01*
X144015985Y-76756797D01*
X143936924Y-76832369D01*
X143806726Y-76960731D01*
X143700169Y-77067713D01*
X143582056Y-77188414D01*
X143499123Y-77277228D01*
X143446666Y-77339926D01*
X143419981Y-77382284D01*
X143414364Y-77410073D01*
X142301321Y-77410073D01*
X142333049Y-77365166D01*
X142743016Y-76757638D01*
X143104727Y-76171204D01*
X143421891Y-75599246D01*
X143698213Y-75035149D01*
X143937402Y-74472296D01*
X143959106Y-74417424D01*
X144015872Y-74277217D01*
X144065061Y-74160317D01*
X144102010Y-74077636D01*
X144122059Y-74040085D01*
X144135754Y-74029281D01*
X144133385Y-74055097D01*
X144131866Y-74059633D01*
X144107789Y-74138248D01*
X144073902Y-74257167D01*
X144032527Y-74407456D01*
X143985985Y-74580185D01*
X143936599Y-74766420D01*
X143886690Y-74957230D01*
X143838582Y-75143683D01*
X143794595Y-75316847D01*
X143757051Y-75467789D01*
X143728274Y-75587577D01*
X143710584Y-75667280D01*
X143706304Y-75697965D01*
X143712099Y-75699410D01*
X143760962Y-75689484D01*
X143846270Y-75661693D01*
X143954016Y-75620420D01*
X143992402Y-75604961D01*
X144092519Y-75566488D01*
X144164275Y-75541677D01*
X144194166Y-75535314D01*
X144191335Y-75540768D01*
X144157622Y-75581478D01*
X144090774Y-75656415D01*
X143996576Y-75759239D01*
X143880810Y-75883609D01*
X143749259Y-76023182D01*
X143722479Y-76051490D01*
X143575536Y-76208710D01*
X143432379Y-76364766D01*
X143302485Y-76509146D01*
X143195330Y-76631338D01*
X143120390Y-76720828D01*
X143052877Y-76808842D01*
X142966475Y-76930082D01*
X142883502Y-77054531D01*
X142810355Y-77171850D01*
X142753435Y-77271699D01*
X142719141Y-77343741D01*
X142713871Y-77377636D01*
X142719121Y-77376864D01*
X142759403Y-77348825D01*
X142831613Y-77288622D01*
X142927623Y-77203202D01*
X142950929Y-77181564D01*
X143269167Y-77181564D01*
X143282019Y-77233223D01*
X143300134Y-77249097D01*
X143336164Y-77267626D01*
X143353364Y-77255498D01*
X143404312Y-77206796D01*
X143478902Y-77129460D01*
X143567933Y-77032808D01*
X143630274Y-76962278D01*
X143711274Y-76861704D01*
X143751746Y-76794598D01*
X143754503Y-76756797D01*
X143750680Y-76751024D01*
X143716207Y-76730877D01*
X143655531Y-76749098D01*
X143623722Y-76765192D01*
X143525389Y-76832708D01*
X143432241Y-76919154D01*
X143352804Y-77013479D01*
X143295604Y-77104633D01*
X143269167Y-77181564D01*
X142950929Y-77181564D01*
X143039306Y-77099512D01*
X143174279Y-76971852D01*
X143331660Y-76823059D01*
X143484729Y-76678396D01*
X143613838Y-76556436D01*
X143677255Y-76495447D01*
X143804418Y-76362196D01*
X143893625Y-76248054D01*
X143953341Y-76142707D01*
X143969847Y-76108960D01*
X144068809Y-75962297D01*
X144216002Y-75813980D01*
X144224515Y-75806491D01*
X144344746Y-75695081D01*
X144421235Y-75608042D01*
X144459105Y-75535832D01*
X144463480Y-75468907D01*
X144439482Y-75397726D01*
X144433616Y-75385212D01*
X144413711Y-75331246D01*
X144409588Y-75276740D01*
X144421999Y-75202784D01*
X144451695Y-75090465D01*
X144457567Y-75068783D01*
X144499412Y-74840393D01*
X144512987Y-74596847D01*
X144499191Y-74355618D01*
X144458921Y-74134183D01*
X144393076Y-73950014D01*
X144385922Y-73935711D01*
X144333062Y-73840972D01*
X144272156Y-73745058D01*
X144212609Y-73661326D01*
X144163830Y-73603136D01*
X144135224Y-73583844D01*
X144134094Y-73584628D01*
X144110136Y-73618549D01*
X144060454Y-73698144D01*
X143988448Y-73817672D01*
X143897518Y-73971394D01*
X143791060Y-74153570D01*
X143672476Y-74358460D01*
X143545163Y-74580324D01*
X143412758Y-74811114D01*
X143271273Y-75054825D01*
X143155721Y-75249784D01*
X143064615Y-75398245D01*
X142996469Y-75502457D01*
X142949797Y-75564672D01*
X142923115Y-75587143D01*
X142914935Y-75572119D01*
X142923772Y-75521852D01*
X142934716Y-75492047D01*
X142969737Y-75410978D01*
X143024549Y-75290448D01*
X143095322Y-75138732D01*
X143178226Y-74964108D01*
X143269431Y-74774853D01*
X143340664Y-74627251D01*
X143483851Y-74323064D01*
X143601707Y-74059035D01*
X143697167Y-73826732D01*
X143773171Y-73617723D01*
X143832654Y-73423579D01*
X143878554Y-73235865D01*
X143913807Y-73046152D01*
X143941353Y-72846008D01*
X143950427Y-72775938D01*
X143970005Y-72660178D01*
X143989540Y-72586139D01*
X144006926Y-72562909D01*
X144014263Y-72569195D01*
X144043393Y-72619130D01*
X144082604Y-72706889D01*
X144125532Y-72818747D01*
X144143076Y-72866606D01*
X144183478Y-72967802D01*
X144216345Y-73038027D01*
X144235851Y-73064317D01*
X144236321Y-73064306D01*
X144259525Y-73034495D01*
X144278899Y-72952119D01*
X144294393Y-72824407D01*
X144305959Y-72658587D01*
X144313547Y-72461887D01*
X144317107Y-72241537D01*
X144316590Y-72004764D01*
X144311947Y-71758797D01*
X144303128Y-71510864D01*
X144290085Y-71268194D01*
X144272767Y-71038015D01*
X144251125Y-70827556D01*
X144234241Y-70697190D01*
X144199127Y-70459638D01*
X144156190Y-70197653D01*
X144108022Y-69925232D01*
X144057213Y-69656372D01*
X144006354Y-69405069D01*
X143958037Y-69185322D01*
X143914853Y-69011125D01*
X143887838Y-68913091D01*
X143790595Y-68590845D01*
X143693421Y-68321422D01*
X143593158Y-68099259D01*
X143486649Y-67918793D01*
X143370735Y-67774460D01*
X143242261Y-67660696D01*
X143098067Y-67571939D01*
X143042099Y-67542186D01*
X142950159Y-67485288D01*
X142867132Y-67419389D01*
X142788215Y-67337957D01*
X142708606Y-67234460D01*
X142623500Y-67102364D01*
X142528093Y-66935138D01*
X142417584Y-66726250D01*
X142287167Y-66469166D01*
X142244940Y-66385046D01*
X142153210Y-66204583D01*
X142079833Y-66065791D01*
X142019190Y-65959789D01*
X141965657Y-65877696D01*
X141913613Y-65810629D01*
X141857436Y-65749706D01*
X141791505Y-65686045D01*
X141759757Y-65657176D01*
X141571037Y-65517744D01*
X141361199Y-65417277D01*
X141122557Y-65353598D01*
X140847419Y-65324527D01*
X140528098Y-65327882D01*
X140153833Y-65369234D01*
X139752369Y-65464898D01*
X139363869Y-65614658D01*
X138983321Y-65820485D01*
X138605713Y-66084351D01*
X138588788Y-66097645D01*
X138431309Y-66231615D01*
X138251003Y-66399864D01*
X138059787Y-66590228D01*
X137869581Y-66790538D01*
X137692304Y-66988630D01*
X137539874Y-67172336D01*
X137477539Y-67248908D01*
X137399815Y-67337169D01*
X137339284Y-67397468D01*
X137305419Y-67419809D01*
X137297140Y-67419626D01*
X137282490Y-67414273D01*
X137284480Y-67394886D01*
X137307567Y-67352679D01*
X137356208Y-67278869D01*
X137434858Y-67164671D01*
X137576981Y-66959313D01*
X137696255Y-66786164D01*
X137786980Y-66653032D01*
X137852146Y-66555186D01*
X137894742Y-66487892D01*
X137917758Y-66446419D01*
X137924183Y-66426033D01*
X137917008Y-66422002D01*
X137899222Y-66429593D01*
X137849811Y-66462888D01*
X137756617Y-66542603D01*
X137644644Y-66651072D01*
X137524267Y-66777305D01*
X137405866Y-66910310D01*
X137299818Y-67039096D01*
X137216500Y-67152672D01*
X137216021Y-67153389D01*
X137153050Y-67253574D01*
X137070199Y-67394151D01*
X136974827Y-67562159D01*
X136874294Y-67744637D01*
X136775957Y-67928622D01*
X136718739Y-68036888D01*
X136590598Y-68271616D01*
X136475403Y-68466003D01*
X136364602Y-68630230D01*
X136249640Y-68774474D01*
X136121964Y-68908915D01*
X135973018Y-69043732D01*
X135794251Y-69189103D01*
X135577106Y-69355208D01*
X135419726Y-69476477D01*
X135210104Y-69647774D01*
X135023664Y-69811721D01*
X134867214Y-69961996D01*
X134747558Y-70092279D01*
X134671503Y-70196250D01*
X134570661Y-70408205D01*
X134495376Y-70667791D01*
X134449609Y-70972625D01*
X134444353Y-71042406D01*
X134437914Y-71176745D01*
X134432478Y-71347476D01*
X134428063Y-71546564D01*
X134424687Y-71765973D01*
X134422370Y-71997667D01*
X134421130Y-72233611D01*
X134420985Y-72465769D01*
X132163123Y-72465769D01*
X132158124Y-72427301D01*
X132120819Y-72022383D01*
X132091175Y-71563135D01*
X132084475Y-71449744D01*
X132071606Y-71259166D01*
X132056531Y-71057340D01*
X132041296Y-70872591D01*
X132024110Y-70593226D01*
X132028760Y-70284642D01*
X132064933Y-70004037D01*
X132135638Y-69736967D01*
X132243883Y-69468986D01*
X132392679Y-69185648D01*
X132403283Y-69167030D01*
X132463107Y-69058678D01*
X132542201Y-68911719D01*
X132634155Y-68738233D01*
X132732556Y-68550299D01*
X132830989Y-68359998D01*
X132918009Y-68191317D01*
X133027826Y-67981858D01*
X133120810Y-67810498D01*
X133202641Y-67667793D01*
X133278999Y-67544301D01*
X133355565Y-67430583D01*
X133438019Y-67317194D01*
X133532041Y-67194695D01*
X133711060Y-66978870D01*
X134077041Y-66600899D01*
X134497547Y-66237383D01*
X134969685Y-65890545D01*
X135490560Y-65562607D01*
X136057275Y-65255792D01*
X136093701Y-65237571D01*
X136284095Y-65145490D01*
X136452077Y-65071945D01*
X136611332Y-65012769D01*
X136775547Y-64963796D01*
X136958405Y-64920860D01*
X137173591Y-64879795D01*
X137434791Y-64836433D01*
X137610818Y-64808820D01*
X137810837Y-64778546D01*
X137970549Y-64755700D01*
X138087237Y-64740540D01*
X138158182Y-64733326D01*
X138180667Y-64734318D01*
X138151973Y-64743776D01*
X138069384Y-64761958D01*
X137930181Y-64789125D01*
X137564385Y-64865429D01*
X137071360Y-64996088D01*
X136634331Y-65148226D01*
X136253314Y-65321834D01*
X135928326Y-65516904D01*
X135659383Y-65733425D01*
X135446502Y-65971390D01*
X135289699Y-66230789D01*
X135274248Y-66263889D01*
X135195850Y-66455528D01*
X135133670Y-66647779D01*
X135092701Y-66823337D01*
X135077936Y-66964894D01*
X135091825Y-67076585D01*
X135158502Y-67225306D01*
X135275072Y-67348361D01*
X135337761Y-67391787D01*
X135402342Y-67419542D01*
X135483514Y-67432001D01*
X135602944Y-67434884D01*
X135610449Y-67434876D01*
X135683635Y-67433148D01*
X135751170Y-67426232D01*
X135820237Y-67410984D01*
X135898023Y-67384262D01*
X135991712Y-67342925D01*
X136108488Y-67283830D01*
X136255536Y-67203835D01*
X136440041Y-67099798D01*
X136669189Y-66968577D01*
X136714281Y-66942821D01*
X136878392Y-66850659D01*
X137076197Y-66741341D01*
X137293094Y-66622856D01*
X137514484Y-66503193D01*
X137725768Y-66390344D01*
X137833767Y-66332498D01*
X138024455Y-66227673D01*
X138202531Y-66126559D01*
X138357800Y-66035094D01*
X138480063Y-65959218D01*
X138559127Y-65904872D01*
X138576506Y-65891675D01*
X138764718Y-65764243D01*
X138987042Y-65635550D01*
X139221658Y-65517469D01*
X139446744Y-65421875D01*
X139577066Y-65375446D01*
X139814609Y-65306762D01*
X140061030Y-65258164D01*
X140333032Y-65226695D01*
X140647321Y-65209399D01*
X140749186Y-65205779D01*
X140905057Y-65199101D01*
X141034689Y-65192139D01*
X141126820Y-65185528D01*
X141170187Y-65179903D01*
X141181204Y-65169798D01*
X141169291Y-65130117D01*
X141122607Y-65071869D01*
X141051008Y-65004859D01*
X140964353Y-64938893D01*
X140872498Y-64883776D01*
X140860676Y-64877846D01*
X140642066Y-64791927D01*
X140376019Y-64724206D01*
X140072007Y-64675522D01*
X139739502Y-64646718D01*
X139387978Y-64638633D01*
X139026907Y-64652107D01*
X138665761Y-64687982D01*
X138552262Y-64701360D01*
X138448179Y-64710633D01*
X138380536Y-64713231D01*
X138357126Y-64708582D01*
X138391311Y-64697962D01*
X138483995Y-64681343D01*
X138635486Y-64658675D01*
X138846091Y-64629909D01*
X139116115Y-64594995D01*
X139502633Y-64555858D01*
X139900365Y-64542275D01*
X140257223Y-64563616D01*
X140578702Y-64621762D01*
X140870300Y-64718598D01*
X141137514Y-64856004D01*
X141385839Y-65035863D01*
X141620772Y-65260058D01*
X141847810Y-65530470D01*
X141921149Y-65625567D01*
X142032286Y-65768204D01*
X142165895Y-65938610D01*
X142314007Y-66126650D01*
X142468655Y-66322187D01*
X142621871Y-66515087D01*
X142810618Y-66753481D01*
X143028592Y-67033311D01*
X143212628Y-67275760D01*
X143365949Y-67485255D01*
X143491778Y-67666225D01*
X143593338Y-67823096D01*
X143673853Y-67960298D01*
X143758993Y-68135957D01*
X143853867Y-68376659D01*
X143948988Y-68660788D01*
X144042158Y-68979773D01*
X144131177Y-69325042D01*
X144213846Y-69688024D01*
X144287966Y-70060147D01*
X144351338Y-70432840D01*
X144401763Y-70797532D01*
X144403259Y-70810065D01*
X144428736Y-71077705D01*
X144447104Y-71379472D01*
X144458181Y-71699764D01*
X144461783Y-72022980D01*
X144457728Y-72333518D01*
X144445831Y-72615776D01*
X144425910Y-72854151D01*
X144413707Y-72963280D01*
X144391870Y-73177062D01*
X144379233Y-73345160D01*
X144376214Y-73477167D01*
X144383231Y-73582674D01*
X144400702Y-73671275D01*
X144429044Y-73752561D01*
X144468676Y-73836125D01*
X144570788Y-74052345D01*
X144654453Y-74290261D01*
X144701070Y-74523576D01*
X144705354Y-74596847D01*
X144715524Y-74770777D01*
X144715568Y-74791676D01*
X144719406Y-74933274D01*
X144731907Y-75058382D01*
X144756539Y-75181123D01*
X144796771Y-75315620D01*
X144856070Y-75475996D01*
X144937905Y-75676374D01*
X144959776Y-75730006D01*
X145003416Y-75846782D01*
X145033767Y-75942050D01*
X145045279Y-75999128D01*
X145047232Y-76041107D01*
X145053290Y-76066542D01*
X145080003Y-76056979D01*
X145147727Y-76030174D01*
X145240938Y-75992195D01*
X145292241Y-75972659D01*
X145499070Y-75924578D01*
X145698084Y-75925073D01*
X145876058Y-75974511D01*
X145934330Y-76007402D01*
X146039898Y-76110292D01*
X146127992Y-76263790D01*
X146201294Y-76472000D01*
X146217462Y-76524155D01*
X146227919Y-76554067D01*
X146261516Y-76650175D01*
X146294020Y-76737357D01*
X146323671Y-76816885D01*
X146400265Y-77015288D01*
X146487637Y-77236385D01*
X146582124Y-77471180D01*
X146680063Y-77710675D01*
X146777793Y-77945872D01*
X146871651Y-78167773D01*
X146957975Y-78367381D01*
X147033103Y-78535697D01*
X147093373Y-78663726D01*
X147165718Y-78818537D01*
X147234881Y-78980906D01*
X147291643Y-79128716D01*
X147328189Y-79242695D01*
X147363071Y-79364158D01*
X147453276Y-79609182D01*
X147570673Y-79848885D01*
X147718979Y-80088002D01*
X147901913Y-80331266D01*
X148123192Y-80583411D01*
X148386534Y-80849171D01*
X148695656Y-81133279D01*
X149054277Y-81440469D01*
X149320542Y-81666336D01*
X149555505Y-81875758D01*
X149769852Y-82079705D01*
X149974391Y-82289250D01*
X150179928Y-82515463D01*
X150397271Y-82769419D01*
X150637229Y-83062189D01*
X150678486Y-83113115D01*
X150794923Y-83254543D01*
X150897688Y-83376057D01*
X150980872Y-83470871D01*
X151038568Y-83532200D01*
X151064867Y-83553261D01*
X151066460Y-83552840D01*
X151096914Y-83520082D01*
X151143855Y-83444411D01*
X151201612Y-83337572D01*
X151264515Y-83211311D01*
X151326892Y-83077372D01*
X151383074Y-82947500D01*
X151427389Y-82833442D01*
X151454166Y-82746941D01*
X151457846Y-82724613D01*
X151465530Y-82633763D01*
X151472919Y-82486124D01*
X151479995Y-82283919D01*
X151486740Y-82029368D01*
X151493136Y-81724695D01*
X151499166Y-81372121D01*
X151504812Y-80973867D01*
X151510055Y-80532156D01*
X151514878Y-80049210D01*
X151519263Y-79527249D01*
X151523193Y-78968497D01*
X151526649Y-78375175D01*
X151529614Y-77749505D01*
X151532070Y-77093708D01*
X151533999Y-76410007D01*
X151535384Y-75700624D01*
X151536205Y-74967779D01*
X151536447Y-74213696D01*
X151536090Y-73440596D01*
X151535118Y-72650701D01*
X151534542Y-72237566D01*
X151534087Y-71637074D01*
X151534186Y-71095387D01*
X151534842Y-70611747D01*
X151536062Y-70185396D01*
X151537850Y-69815577D01*
X151540211Y-69501531D01*
X151543150Y-69242501D01*
X151546672Y-69037729D01*
X151550783Y-68886457D01*
X151555486Y-68787928D01*
X151560787Y-68741384D01*
X151575626Y-68698949D01*
X151711033Y-68698949D01*
X151715633Y-68750460D01*
X151735307Y-68799289D01*
X151778203Y-68853815D01*
X151852464Y-68924319D01*
X151966233Y-69021080D01*
X152056304Y-69095995D01*
X152063802Y-76446882D01*
X152063999Y-76638992D01*
X152064815Y-77411310D01*
X152065623Y-78126315D01*
X152066440Y-78786217D01*
X152067284Y-79393225D01*
X152068172Y-79949550D01*
X152069122Y-80457400D01*
X152070152Y-80918986D01*
X152071278Y-81336517D01*
X152072517Y-81712203D01*
X152073889Y-82048253D01*
X152075409Y-82346877D01*
X152077095Y-82610285D01*
X152078965Y-82840687D01*
X152081037Y-83040291D01*
X152083326Y-83211308D01*
X152085852Y-83355947D01*
X152088632Y-83476419D01*
X152091682Y-83574931D01*
X152095020Y-83653696D01*
X152098665Y-83714921D01*
X152102632Y-83760816D01*
X152106940Y-83793592D01*
X152111606Y-83815458D01*
X152116647Y-83828623D01*
X152122082Y-83835298D01*
X152154758Y-83856762D01*
X152189643Y-83870924D01*
X152199219Y-83869378D01*
X152265923Y-83846100D01*
X152335490Y-83809030D01*
X152377751Y-83773755D01*
X152380359Y-83756079D01*
X152383924Y-83682883D01*
X152387149Y-83557533D01*
X152390038Y-83384519D01*
X152392593Y-83168507D01*
X152892833Y-83168507D01*
X152898348Y-83222656D01*
X152922321Y-83312270D01*
X152960288Y-83420167D01*
X152968542Y-83441079D01*
X153009472Y-83538361D01*
X153042464Y-83606784D01*
X153061018Y-83632638D01*
X153124842Y-83607184D01*
X153195499Y-83536263D01*
X153262435Y-83433298D01*
X153316954Y-83311739D01*
X153350363Y-83185039D01*
X153370007Y-83062189D01*
X153218006Y-83062189D01*
X153181459Y-83062791D01*
X153042920Y-83078560D01*
X152943872Y-83113473D01*
X152893870Y-83164515D01*
X152892833Y-83168507D01*
X152392593Y-83168507D01*
X152392595Y-83168329D01*
X152394823Y-82913449D01*
X152396726Y-82624369D01*
X152398308Y-82305576D01*
X152399571Y-81961558D01*
X152400520Y-81596803D01*
X152401159Y-81215799D01*
X152401490Y-80823034D01*
X152401517Y-80422996D01*
X152401244Y-80020174D01*
X152400675Y-79619054D01*
X152399813Y-79224126D01*
X152398661Y-78839876D01*
X152397224Y-78470793D01*
X152395504Y-78121365D01*
X152393506Y-77796081D01*
X152391233Y-77499427D01*
X152388688Y-77235892D01*
X152385875Y-77009963D01*
X152382798Y-76826130D01*
X152379459Y-76688880D01*
X152375864Y-76602700D01*
X152372015Y-76572079D01*
X152370392Y-76563975D01*
X152367254Y-76505005D01*
X152364231Y-76392745D01*
X152361332Y-76231684D01*
X152358570Y-76026313D01*
X152355954Y-75781123D01*
X152353497Y-75500603D01*
X152351209Y-75189246D01*
X152349100Y-74851540D01*
X152347183Y-74491977D01*
X152345468Y-74115046D01*
X152343966Y-73725239D01*
X152342687Y-73327045D01*
X152341644Y-72924956D01*
X152340846Y-72523461D01*
X152340305Y-72127051D01*
X152340032Y-71740217D01*
X152340038Y-71367448D01*
X152340334Y-71013236D01*
X152340930Y-70682071D01*
X152341839Y-70378443D01*
X152343069Y-70106842D01*
X152344634Y-69871760D01*
X152346543Y-69677686D01*
X152348808Y-69529112D01*
X152351440Y-69430526D01*
X152354449Y-69386421D01*
X152362104Y-69338151D01*
X152369255Y-69253128D01*
X152374331Y-69226986D01*
X152422828Y-69145169D01*
X152519611Y-69042963D01*
X152579613Y-68983502D01*
X152684457Y-68843928D01*
X152730798Y-68712310D01*
X152718436Y-68589535D01*
X152647173Y-68476488D01*
X152604186Y-68436957D01*
X152468136Y-68363246D01*
X152307359Y-68331392D01*
X152136595Y-68343063D01*
X151970588Y-68399927D01*
X151957260Y-68406784D01*
X151823999Y-68495959D01*
X151740157Y-68595382D01*
X151711033Y-68698949D01*
X151575626Y-68698949D01*
X151583966Y-68675099D01*
X151669034Y-68526883D01*
X151787462Y-68391869D01*
X151922600Y-68290792D01*
X151939207Y-68281943D01*
X152088849Y-68230486D01*
X152255469Y-68212220D01*
X152417055Y-68227622D01*
X152551592Y-68277169D01*
X152645575Y-68349378D01*
X152753644Y-68489457D01*
X152825971Y-68662882D01*
X152830256Y-68689159D01*
X152831997Y-68712310D01*
X152835116Y-68753775D01*
G37*
%TO.C,C69*%
D13*
X126140000Y-77097836D02*
X126140000Y-76882164D01*
X126860000Y-77097836D02*
X126860000Y-76882164D01*
%TO.C,R69*%
X121469480Y-68473641D02*
X121469480Y-68166359D01*
X122229480Y-68473641D02*
X122229480Y-68166359D01*
%TO.C,J5*%
X168155000Y-72130000D02*
X168155000Y-73180000D01*
X168155000Y-73180000D02*
X167165000Y-73180000D01*
X168155000Y-82350000D02*
X168155000Y-81300000D01*
X170655000Y-72130000D02*
X168155000Y-72130000D01*
X170655000Y-82350000D02*
X168155000Y-82350000D01*
X172625000Y-73300000D02*
X172625000Y-81180000D01*
%TO.C,Q1*%
X159420673Y-87119651D02*
X159456029Y-87155006D01*
X160247988Y-87946966D02*
X160799531Y-88498509D01*
X160495476Y-86044848D02*
X159420673Y-87119651D01*
X161202582Y-86751955D02*
X160495476Y-86044848D01*
X161591491Y-89290468D02*
X161626846Y-89325824D01*
X161626846Y-89325824D02*
X162701649Y-88251021D01*
X162701649Y-88251021D02*
X161994542Y-87543915D01*
X160410623Y-88873275D02*
X160007572Y-88809636D01*
X160346983Y-88470225D01*
X160410623Y-88873275D01*
G36*
X160410623Y-88873275D02*
G01*
X160007572Y-88809636D01*
X160346983Y-88470225D01*
X160410623Y-88873275D01*
G37*
%TO.C,R71*%
X118290000Y-68473641D02*
X118290000Y-68166359D01*
X119050000Y-68473641D02*
X119050000Y-68166359D01*
%TO.C,TP4*%
X130580000Y-69470000D02*
X130580000Y-70870000D01*
X130580000Y-70870000D02*
X131980000Y-70870000D01*
X131980000Y-69470000D02*
X130580000Y-69470000D01*
X131980000Y-70870000D02*
X131980000Y-69470000D01*
%TO.C,BZ1*%
D15*
X146024517Y-87344214D02*
X149135786Y-90455483D01*
X148075480Y-86990307D02*
X149489693Y-88404520D01*
X148075480Y-88404520D02*
X148075480Y-86990307D01*
X149065076Y-81333806D02*
X145953806Y-84445076D01*
X149489693Y-88404520D02*
X148075480Y-88404520D01*
X152034924Y-81475227D02*
X155004773Y-84445076D01*
X155075483Y-87485635D02*
X152105635Y-90455483D01*
%TO.C,J4*%
D16*
X108922500Y-82957500D02*
X108922500Y-71247500D01*
X112072500Y-83877500D02*
X113672500Y-83877500D01*
X121592500Y-83877500D02*
X125072500Y-83877500D01*
X125072500Y-70027500D02*
X111142500Y-70027500D01*
X125072500Y-71807500D02*
X125072500Y-70027500D01*
X125072500Y-83877500D02*
X125072500Y-83497500D01*
D12*
X126672500Y-74177500D02*
G75*
G02*
X126472500Y-74177500I-100000J0D01*
G01*
X126472500Y-74177500D02*
G75*
G02*
X126672500Y-74177500I100000J0D01*
G01*
%TO.C,R70*%
D13*
X119349480Y-68473641D02*
X119349480Y-68166359D01*
X120109480Y-68473641D02*
X120109480Y-68166359D01*
%TO.C,R72*%
X122529480Y-68473641D02*
X122529480Y-68166359D01*
X123289480Y-68473641D02*
X123289480Y-68166359D01*
%TO.C,C35*%
X127487836Y-66640000D02*
X127272164Y-66640000D01*
X127487836Y-67360000D02*
X127272164Y-67360000D01*
%TD*%
M02*
