%TF.GenerationSoftware,KiCad,Pcbnew,10.0.1*%
%TF.CreationDate,2026-05-21T12:18:26+02:00*%
%TF.ProjectId,Aero-Zero,4165726f-2d5a-4657-926f-2e6b69636164,rev?*%
%TF.SameCoordinates,Original*%
%TF.FileFunction,Copper,L2,Inr*%
%TF.FilePolarity,Positive*%
%FSLAX46Y46*%
G04 Gerber Fmt 4.6, Leading zero omitted, Abs format (unit mm)*
G04 Created by KiCad (PCBNEW 10.0.1) date 2026-05-21 12:18:26*
%MOMM*%
%LPD*%
G01*
G04 APERTURE LIST*
%TA.AperFunction,ComponentPad*%
%ADD10C,3.000000*%
%TD*%
%TA.AperFunction,ComponentPad*%
%ADD11O,1.000000X2.100000*%
%TD*%
%TA.AperFunction,ComponentPad*%
%ADD12O,1.000000X1.600000*%
%TD*%
%TA.AperFunction,ComponentPad*%
%ADD13C,1.508000*%
%TD*%
%TA.AperFunction,ComponentPad*%
%ADD14R,1.700000X1.700000*%
%TD*%
%TA.AperFunction,ComponentPad*%
%ADD15C,1.700000*%
%TD*%
%TA.AperFunction,ViaPad*%
%ADD16C,0.600000*%
%TD*%
%TA.AperFunction,ViaPad*%
%ADD17C,0.800000*%
%TD*%
%TA.AperFunction,ViaPad*%
%ADD18C,1.000000*%
%TD*%
G04 APERTURE END LIST*
D10*
%TO.N,/VBAT*%
%TO.C,TP1*%
X169180000Y-70510000D03*
%TD*%
D11*
%TO.N,GND*%
%TO.C,J9*%
X137390000Y-89590000D03*
D12*
X137390000Y-93770000D03*
D11*
X146030000Y-89590000D03*
D12*
X146030000Y-93770000D03*
%TD*%
D13*
%TO.N,/+5V*%
%TO.C,U3*%
X164950000Y-64460000D03*
X162410000Y-64460000D03*
%TO.N,GND*%
X159870000Y-64460000D03*
%TO.N,/RPI_TX*%
X157330000Y-64460000D03*
%TO.N,GND*%
X154790000Y-67000000D03*
%TO.N,/RPI_RX*%
X154790000Y-64460000D03*
%TO.N,GND*%
X149710000Y-64460000D03*
%TO.N,/BOOT0*%
X147170000Y-67000000D03*
%TO.N,GND*%
X134470000Y-67000000D03*
%TO.N,/NRST*%
X129390000Y-67000000D03*
%TD*%
D10*
%TO.N,GND*%
%TO.C,TP2*%
X169120000Y-84290000D03*
%TD*%
D14*
%TO.N,/MCU_TX_to_ELRS_RX*%
%TO.C,J7*%
X123560000Y-87260000D03*
D15*
%TO.N,/MCU_RX_to_ELRS_TX*%
X121020000Y-87260000D03*
%TO.N,/+5V*%
X118480000Y-87260000D03*
%TO.N,GND*%
X115940000Y-87260000D03*
%TD*%
D16*
%TO.N,/+3V3*%
X136284619Y-73672386D03*
X135884619Y-72304619D03*
X128280000Y-69088000D03*
X124660000Y-67230000D03*
X118410000Y-85540000D03*
X130660000Y-71500000D03*
%TO.N,GND*%
X158040000Y-87310000D03*
X122850000Y-85540000D03*
X126438527Y-88260000D03*
X127454265Y-71265735D03*
X135010408Y-76398318D03*
X164960000Y-89810000D03*
X159840000Y-83580000D03*
X129290000Y-94400000D03*
X115150000Y-77550000D03*
X123469608Y-74260392D03*
X158850000Y-73330000D03*
X110600000Y-81910000D03*
X143150000Y-64880000D03*
X135790000Y-86030000D03*
X132540000Y-72340000D03*
X122813235Y-72866765D03*
X116560000Y-65300000D03*
X121920735Y-83127500D03*
D17*
X165367909Y-69979999D03*
D16*
X115970000Y-90100000D03*
X144474265Y-76534265D03*
X163060000Y-68810000D03*
X123140000Y-66070000D03*
X133330000Y-77690000D03*
X147580735Y-76810735D03*
X118072500Y-75410000D03*
X132380000Y-79950000D03*
X141407892Y-82974951D03*
X157860000Y-69600000D03*
X153930000Y-73680000D03*
X135850000Y-89130000D03*
X134140000Y-59940000D03*
X141500000Y-91400000D03*
X154820000Y-79380000D03*
X126330735Y-83079265D03*
X126670000Y-79690000D03*
X110970000Y-72730000D03*
X127350000Y-76820000D03*
X144217055Y-83480000D03*
X123881535Y-67850000D03*
X143210000Y-70710000D03*
X130190000Y-89020000D03*
X138960000Y-75440000D03*
X127320000Y-66040000D03*
X148560000Y-89520000D03*
X118840000Y-73230000D03*
X160220000Y-74810000D03*
X151130000Y-61680000D03*
X149250000Y-82730000D03*
X140230000Y-60970000D03*
X146360000Y-87500000D03*
X145940000Y-72010000D03*
X125640000Y-71240000D03*
X142830000Y-74860000D03*
X137730000Y-87090000D03*
X140840000Y-77240000D03*
X145216571Y-79166273D03*
X166290000Y-66550000D03*
X140169388Y-69470000D03*
X166330000Y-79530000D03*
X139840000Y-73720000D03*
%TO.N,/3V3_SENSOR*%
X130480000Y-72650000D03*
X126650000Y-72650000D03*
X123724312Y-69050000D03*
D18*
%TO.N,/VBAT*%
X166090000Y-74740000D03*
D16*
%TO.N,/5V_USB*%
X146400000Y-81380000D03*
X139560000Y-87158527D03*
%TO.N,/+5V*%
X150920000Y-68737500D03*
X152060000Y-79340000D03*
X131970000Y-66800000D03*
%TO.N,/LED1*%
X135120000Y-91080000D03*
X137748467Y-85720000D03*
%TO.N,/VBAT{slash}ADC*%
X128450000Y-80177500D03*
X164660000Y-80830000D03*
%TO.N,/SPI1_MISO*%
X130190000Y-84340000D03*
X139512892Y-78962892D03*
%TO.N,/GYRO_INT*%
X140810000Y-80230000D03*
X133038645Y-83790000D03*
%TO.N,/GYRO_CS*%
X139120000Y-76730000D03*
X128833981Y-83997489D03*
%TO.N,/SPI1_SCK*%
X128888503Y-84795628D03*
X138715510Y-77420211D03*
%TO.N,/SPI1_MOSI*%
X138229998Y-78178701D03*
X131649469Y-83729469D03*
%TO.N,/MCU_TX_to_LIDAR_RX*%
X115810000Y-82077500D03*
X123030000Y-82080000D03*
%TO.N,/MCU_RX_to_LIDAR_TX*%
X119150000Y-84790000D03*
X115500000Y-83970000D03*
%TO.N,/LED_STRIP*%
X139240000Y-67454000D03*
%TO.N,/I2C1_SDA*%
X129345000Y-82470000D03*
X115170000Y-69810000D03*
X126700000Y-70440000D03*
%TO.N,/I2C1_SCL*%
X127380000Y-69650000D03*
X116039265Y-69830735D03*
%TO.N,/MCU_TX_to_GPS_RX*%
X115830000Y-73810000D03*
X132466960Y-85731569D03*
%TO.N,/MCU_RX_to_GPS_TX*%
X115470000Y-74810000D03*
X131500000Y-88820000D03*
%TO.N,/BOOT0*%
X130373061Y-68800000D03*
X128365787Y-72050000D03*
%TO.N,/LED3*%
X144680000Y-66050000D03*
X151310000Y-82950000D03*
%TO.N,/NRST*%
X129390000Y-68750000D03*
X128130000Y-79330000D03*
%TO.N,/RPI_TX*%
X152080000Y-74140000D03*
X138480577Y-82675139D03*
%TO.N,/RPI_RX*%
X137860000Y-83180000D03*
X147553579Y-75980735D03*
%TO.N,/CURR*%
X164515000Y-82745000D03*
X128420000Y-82670000D03*
%TO.N,/M3*%
X126430000Y-84080000D03*
%TO.N,/M4*%
X126700000Y-85200000D03*
%TO.N,/ESC_RX*%
X164790000Y-83890000D03*
X131930000Y-89690000D03*
%TO.N,/M1*%
X134812059Y-83136470D03*
%TO.N,/M2*%
X134440000Y-85120000D03*
%TO.N,/BUZZER*%
X147130000Y-84080000D03*
X138140000Y-84080000D03*
%TO.N,/SDIO_D0*%
X129945000Y-80800000D03*
%TO.N,/SDIO_D1*%
X131129265Y-81150735D03*
%TO.N,/MCU_TX_to_VTX_RX*%
X138317566Y-80760000D03*
%TO.N,/MCU_RX_to_VTX_TX*%
X137793526Y-80154999D03*
%TO.N,/SWDIO*%
X135060508Y-77196748D03*
%TO.N,/SWCLK*%
X134814239Y-74294239D03*
%TO.N,/SDIO_D2*%
X133345000Y-73925000D03*
%TO.N,/SDIO_D3*%
X132480000Y-74110000D03*
%TO.N,/SDIO_CLK*%
X130310000Y-78580000D03*
%TO.N,/SDIO_CMD*%
X131620000Y-74390000D03*
%TD*%
%TA.AperFunction,Conductor*%
%TO.N,GND*%
G36*
X157994034Y-57767889D02*
G01*
X158088299Y-57808515D01*
X158098298Y-57813368D01*
X158454361Y-58006381D01*
X158463879Y-58012108D01*
X158514301Y-58045618D01*
X158801159Y-58236261D01*
X158810146Y-58242833D01*
X159125974Y-58496346D01*
X159134335Y-58503699D01*
X159407174Y-58766260D01*
X159426136Y-58784507D01*
X159433804Y-58792580D01*
X159699241Y-59098434D01*
X159706154Y-59107162D01*
X159943090Y-59435595D01*
X159949192Y-59444908D01*
X160155708Y-59793267D01*
X160160950Y-59803089D01*
X160335391Y-60168573D01*
X160339731Y-60178827D01*
X160480680Y-60558479D01*
X160484083Y-60569081D01*
X160590410Y-60959849D01*
X160592848Y-60970712D01*
X160663697Y-61369453D01*
X160665150Y-61380492D01*
X160699944Y-61783958D01*
X160700402Y-61795082D01*
X160699054Y-62150349D01*
X160699046Y-62151413D01*
X160698919Y-62161614D01*
X160698252Y-62164108D01*
X160698252Y-62215574D01*
X160698243Y-62216302D01*
X160698212Y-62216402D01*
X160698105Y-62220807D01*
X160695635Y-62271446D01*
X160698252Y-62283540D01*
X160698252Y-62295892D01*
X160712138Y-62347718D01*
X160712777Y-62350671D01*
X160712782Y-62350688D01*
X160723506Y-62400248D01*
X160723509Y-62400256D01*
X160729162Y-62411251D01*
X160732360Y-62423186D01*
X160759202Y-62469678D01*
X160783764Y-62517451D01*
X160792072Y-62526611D01*
X160798252Y-62537314D01*
X160836209Y-62575271D01*
X160872302Y-62615063D01*
X160882698Y-62621760D01*
X160891438Y-62630500D01*
X160937934Y-62657344D01*
X160983087Y-62686433D01*
X160994859Y-62690210D01*
X161005566Y-62696392D01*
X161057426Y-62710287D01*
X161060291Y-62711206D01*
X161060292Y-62711207D01*
X161081838Y-62718121D01*
X161108566Y-62726698D01*
X161108569Y-62726699D01*
X161120921Y-62727301D01*
X161132860Y-62730500D01*
X161186549Y-62730500D01*
X161240197Y-62733115D01*
X161244100Y-62732793D01*
X161265544Y-62730500D01*
X170254108Y-62730500D01*
X170316249Y-62730500D01*
X170323736Y-62730726D01*
X170341161Y-62731780D01*
X170613796Y-62748271D01*
X170628657Y-62750075D01*
X170902241Y-62800212D01*
X170910797Y-62801780D01*
X170925334Y-62805363D01*
X171199182Y-62890698D01*
X171213163Y-62896000D01*
X171474734Y-63013724D01*
X171487987Y-63020680D01*
X171733458Y-63169071D01*
X171745776Y-63177573D01*
X171971573Y-63354474D01*
X171982781Y-63364404D01*
X172185595Y-63567218D01*
X172195525Y-63578426D01*
X172372141Y-63803859D01*
X172372422Y-63804217D01*
X172380928Y-63816541D01*
X172529319Y-64062012D01*
X172536277Y-64075269D01*
X172584129Y-64181590D01*
X172603030Y-64223588D01*
X172653994Y-64336823D01*
X172659304Y-64350825D01*
X172744635Y-64624664D01*
X172748219Y-64639202D01*
X172799923Y-64921340D01*
X172801728Y-64936205D01*
X172819274Y-65226263D01*
X172819500Y-65233750D01*
X172819521Y-89164108D01*
X172819521Y-89226259D01*
X172819296Y-89233729D01*
X172801833Y-89523096D01*
X172800037Y-89537925D01*
X172748578Y-89819418D01*
X172745011Y-89833924D01*
X172660080Y-90107174D01*
X172654795Y-90121146D01*
X172537618Y-90382205D01*
X172530691Y-90395440D01*
X172382973Y-90640513D01*
X172374505Y-90652819D01*
X172198389Y-90878351D01*
X172188502Y-90889550D01*
X171986543Y-91092267D01*
X171975382Y-91102195D01*
X171750512Y-91279156D01*
X171738237Y-91287671D01*
X171493722Y-91436304D01*
X171480514Y-91443280D01*
X171219891Y-91561438D01*
X171205939Y-91566775D01*
X170933008Y-91652732D01*
X170918515Y-91656353D01*
X170637226Y-91708865D01*
X170622404Y-91710717D01*
X170365215Y-91727206D01*
X170333393Y-91729246D01*
X170325462Y-91729500D01*
X161253532Y-91729500D01*
X161241452Y-91726886D01*
X161187808Y-91729500D01*
X161134105Y-91729500D01*
X161130252Y-91730007D01*
X161113657Y-91732604D01*
X161109820Y-91733300D01*
X161061549Y-91748789D01*
X161061548Y-91748788D01*
X161058647Y-91749718D01*
X161006814Y-91763608D01*
X160996115Y-91769784D01*
X160984346Y-91773561D01*
X160984340Y-91773564D01*
X160941726Y-91801015D01*
X160941725Y-91801014D01*
X160939154Y-91802670D01*
X160892686Y-91829500D01*
X160883948Y-91838236D01*
X160873559Y-91844930D01*
X160873555Y-91844933D01*
X160839489Y-91882488D01*
X160839488Y-91882487D01*
X160837439Y-91884745D01*
X160799500Y-91922686D01*
X160793322Y-91933383D01*
X160785017Y-91942541D01*
X160761835Y-91987628D01*
X160761834Y-91987627D01*
X160760442Y-91990333D01*
X160733608Y-92036814D01*
X160730408Y-92048750D01*
X160724760Y-92059738D01*
X160724757Y-92059748D01*
X160714038Y-92109279D01*
X160712620Y-92115140D01*
X160699500Y-92164108D01*
X160699500Y-92176468D01*
X160696886Y-92188548D01*
X160699500Y-92242185D01*
X160699500Y-92297741D01*
X160700302Y-92309649D01*
X160701653Y-92664859D01*
X160701196Y-92675980D01*
X160666420Y-93079423D01*
X160664967Y-93090457D01*
X160594159Y-93489145D01*
X160591723Y-93500006D01*
X160485448Y-93890748D01*
X160482048Y-93901346D01*
X160341168Y-94280974D01*
X160336832Y-94291223D01*
X160162475Y-94656704D01*
X160157236Y-94666525D01*
X159950813Y-95014890D01*
X159944717Y-95024199D01*
X159911039Y-95070908D01*
X159855864Y-95113774D01*
X159810185Y-95122387D01*
X121775229Y-95038874D01*
X121708233Y-95019042D01*
X121668822Y-94978084D01*
X121483844Y-94665899D01*
X121478606Y-94656080D01*
X121304301Y-94290702D01*
X121299964Y-94280451D01*
X121282888Y-94234436D01*
X121229544Y-94090684D01*
X121159124Y-93900917D01*
X121155724Y-93890319D01*
X121049483Y-93499686D01*
X121047047Y-93488826D01*
X121032915Y-93409253D01*
X120976258Y-93090228D01*
X120974808Y-93079203D01*
X120954346Y-92841789D01*
X120940046Y-92675872D01*
X120939590Y-92664756D01*
X120940756Y-92358711D01*
X123719500Y-92358711D01*
X123719500Y-92601288D01*
X123751161Y-92841785D01*
X123813947Y-93076104D01*
X123906773Y-93300205D01*
X123906776Y-93300212D01*
X124028064Y-93510289D01*
X124028066Y-93510292D01*
X124028067Y-93510293D01*
X124175733Y-93702736D01*
X124175739Y-93702743D01*
X124347256Y-93874260D01*
X124347263Y-93874266D01*
X124382555Y-93901346D01*
X124539711Y-94021936D01*
X124749788Y-94143224D01*
X124973900Y-94236054D01*
X125208211Y-94298838D01*
X125388586Y-94322584D01*
X125448711Y-94330500D01*
X125448712Y-94330500D01*
X125691289Y-94330500D01*
X125739388Y-94324167D01*
X125931789Y-94298838D01*
X126166100Y-94236054D01*
X126390212Y-94143224D01*
X126600289Y-94021936D01*
X126792738Y-93874265D01*
X126964265Y-93702738D01*
X127111936Y-93510289D01*
X127233224Y-93300212D01*
X127326054Y-93076100D01*
X127388838Y-92841789D01*
X127420500Y-92601288D01*
X127420500Y-92358712D01*
X127420500Y-92358711D01*
X154219500Y-92358711D01*
X154219500Y-92601288D01*
X154251161Y-92841785D01*
X154313947Y-93076104D01*
X154406773Y-93300205D01*
X154406776Y-93300212D01*
X154528064Y-93510289D01*
X154528066Y-93510292D01*
X154528067Y-93510293D01*
X154675733Y-93702736D01*
X154675739Y-93702743D01*
X154847256Y-93874260D01*
X154847263Y-93874266D01*
X154882555Y-93901346D01*
X155039711Y-94021936D01*
X155249788Y-94143224D01*
X155473900Y-94236054D01*
X155708211Y-94298838D01*
X155888586Y-94322584D01*
X155948711Y-94330500D01*
X155948712Y-94330500D01*
X156191289Y-94330500D01*
X156239388Y-94324167D01*
X156431789Y-94298838D01*
X156666100Y-94236054D01*
X156890212Y-94143224D01*
X157100289Y-94021936D01*
X157292738Y-93874265D01*
X157464265Y-93702738D01*
X157611936Y-93510289D01*
X157733224Y-93300212D01*
X157826054Y-93076100D01*
X157888838Y-92841789D01*
X157920500Y-92601288D01*
X157920500Y-92358712D01*
X157919903Y-92354181D01*
X157903776Y-92231676D01*
X157888838Y-92118211D01*
X157826054Y-91883900D01*
X157733224Y-91659788D01*
X157611936Y-91449711D01*
X157464265Y-91257262D01*
X157464260Y-91257256D01*
X157292743Y-91085739D01*
X157292736Y-91085733D01*
X157100293Y-90938067D01*
X157100292Y-90938066D01*
X157100289Y-90938064D01*
X156890212Y-90816776D01*
X156890205Y-90816773D01*
X156666104Y-90723947D01*
X156431785Y-90661161D01*
X156191289Y-90629500D01*
X156191288Y-90629500D01*
X155948712Y-90629500D01*
X155948711Y-90629500D01*
X155708214Y-90661161D01*
X155473895Y-90723947D01*
X155249794Y-90816773D01*
X155249785Y-90816777D01*
X155039706Y-90938067D01*
X154847263Y-91085733D01*
X154847256Y-91085739D01*
X154675739Y-91257256D01*
X154675733Y-91257263D01*
X154528067Y-91449706D01*
X154406777Y-91659785D01*
X154406773Y-91659794D01*
X154313947Y-91883895D01*
X154251161Y-92118214D01*
X154219500Y-92358711D01*
X127420500Y-92358711D01*
X127419903Y-92354181D01*
X127403776Y-92231676D01*
X127388838Y-92118211D01*
X127326054Y-91883900D01*
X127233224Y-91659788D01*
X127111936Y-91449711D01*
X126964265Y-91257262D01*
X126964260Y-91257256D01*
X126792743Y-91085739D01*
X126792736Y-91085733D01*
X126699392Y-91014108D01*
X134619500Y-91014108D01*
X134619500Y-91145891D01*
X134653608Y-91273187D01*
X134679343Y-91317760D01*
X134719500Y-91387314D01*
X134812686Y-91480500D01*
X134926814Y-91546392D01*
X135054108Y-91580500D01*
X135054110Y-91580500D01*
X135185890Y-91580500D01*
X135185892Y-91580500D01*
X135313186Y-91546392D01*
X135427314Y-91480500D01*
X135520500Y-91387314D01*
X135586392Y-91273186D01*
X135620500Y-91145892D01*
X135620500Y-91014108D01*
X135586392Y-90886814D01*
X135520500Y-90772686D01*
X135427314Y-90679500D01*
X135340712Y-90629500D01*
X135313187Y-90613608D01*
X135249539Y-90596554D01*
X135185892Y-90579500D01*
X135054108Y-90579500D01*
X134926812Y-90613608D01*
X134812686Y-90679500D01*
X134812683Y-90679502D01*
X134719502Y-90772683D01*
X134719500Y-90772686D01*
X134653608Y-90886812D01*
X134619500Y-91014108D01*
X126699392Y-91014108D01*
X126600293Y-90938067D01*
X126600292Y-90938066D01*
X126600289Y-90938064D01*
X126390212Y-90816776D01*
X126390205Y-90816773D01*
X126166104Y-90723947D01*
X125931785Y-90661161D01*
X125691289Y-90629500D01*
X125691288Y-90629500D01*
X125448712Y-90629500D01*
X125448711Y-90629500D01*
X125208214Y-90661161D01*
X124973895Y-90723947D01*
X124749794Y-90816773D01*
X124749785Y-90816777D01*
X124539706Y-90938067D01*
X124347263Y-91085733D01*
X124347256Y-91085739D01*
X124175739Y-91257256D01*
X124175733Y-91257263D01*
X124028067Y-91449706D01*
X123906777Y-91659785D01*
X123906773Y-91659794D01*
X123813947Y-91883895D01*
X123751161Y-92118214D01*
X123719500Y-92358711D01*
X120940756Y-92358711D01*
X120940773Y-92354181D01*
X120940942Y-92309677D01*
X120941748Y-92297748D01*
X120941748Y-92245209D01*
X120941895Y-92239170D01*
X120944363Y-92188554D01*
X120944043Y-92184670D01*
X120942262Y-92168015D01*
X120941748Y-92164113D01*
X120941748Y-92164108D01*
X120927849Y-92112236D01*
X120916492Y-92059750D01*
X120910840Y-92048756D01*
X120907640Y-92036814D01*
X120880788Y-91990305D01*
X120856235Y-91942549D01*
X120847928Y-91933391D01*
X120841748Y-91922686D01*
X120805914Y-91886852D01*
X120801756Y-91882487D01*
X120767697Y-91844937D01*
X120767693Y-91844934D01*
X120767692Y-91844933D01*
X120757300Y-91838238D01*
X120748562Y-91829500D01*
X120702055Y-91802649D01*
X120668622Y-91781111D01*
X120656908Y-91773564D01*
X120653414Y-91771913D01*
X120638018Y-91765091D01*
X120634437Y-91763608D01*
X120585474Y-91750489D01*
X120585474Y-91750488D01*
X120582550Y-91749704D01*
X120531430Y-91733301D01*
X120519078Y-91732698D01*
X120509033Y-91730007D01*
X120507141Y-91729500D01*
X120507140Y-91729500D01*
X120456472Y-91729500D01*
X120450434Y-91729353D01*
X120399801Y-91726884D01*
X120395898Y-91727206D01*
X120374455Y-91729500D01*
X111323751Y-91729500D01*
X111316264Y-91729274D01*
X111026205Y-91711728D01*
X111011340Y-91709923D01*
X110729202Y-91658219D01*
X110714664Y-91654635D01*
X110440825Y-91569304D01*
X110426827Y-91563995D01*
X110241302Y-91480497D01*
X110165269Y-91446277D01*
X110152012Y-91439319D01*
X109906541Y-91290928D01*
X109894217Y-91282422D01*
X109890048Y-91279156D01*
X109668426Y-91105525D01*
X109657218Y-91095595D01*
X109454404Y-90892781D01*
X109444474Y-90881573D01*
X109393709Y-90816777D01*
X109267573Y-90655776D01*
X109259071Y-90643458D01*
X109110680Y-90397987D01*
X109103722Y-90384730D01*
X109090567Y-90355500D01*
X108986000Y-90123163D01*
X108980698Y-90109182D01*
X108895363Y-89835334D01*
X108891780Y-89820797D01*
X108879886Y-89755892D01*
X108840075Y-89538657D01*
X108838271Y-89523794D01*
X108829735Y-89382683D01*
X108820726Y-89233729D01*
X108820500Y-89226249D01*
X108820500Y-88602070D01*
X110194500Y-88602070D01*
X110194500Y-88857929D01*
X110234526Y-89110640D01*
X110313588Y-89353972D01*
X110313589Y-89353975D01*
X110383363Y-89490912D01*
X110400117Y-89523794D01*
X110429750Y-89581950D01*
X110580132Y-89788935D01*
X110580136Y-89788940D01*
X110761059Y-89969863D01*
X110761064Y-89969867D01*
X110927099Y-90090497D01*
X110968053Y-90120252D01*
X111105920Y-90190499D01*
X111196024Y-90236410D01*
X111196027Y-90236411D01*
X111317693Y-90275942D01*
X111439361Y-90315474D01*
X111692070Y-90355500D01*
X111692071Y-90355500D01*
X111947929Y-90355500D01*
X111947930Y-90355500D01*
X112200639Y-90315474D01*
X112443975Y-90236410D01*
X112671947Y-90120252D01*
X112878942Y-89969862D01*
X113059862Y-89788942D01*
X113210252Y-89581947D01*
X113326410Y-89353975D01*
X113405474Y-89110639D01*
X113445500Y-88857930D01*
X113445500Y-88754108D01*
X130999500Y-88754108D01*
X130999500Y-88885891D01*
X131033608Y-89013187D01*
X131037009Y-89019077D01*
X131099500Y-89127314D01*
X131192686Y-89220500D01*
X131306814Y-89286392D01*
X131391720Y-89309142D01*
X131451378Y-89345506D01*
X131481908Y-89408352D01*
X131473614Y-89477728D01*
X131467014Y-89490912D01*
X131463610Y-89496806D01*
X131463609Y-89496811D01*
X131463609Y-89496812D01*
X131463608Y-89496814D01*
X131440797Y-89581947D01*
X131429500Y-89624108D01*
X131429500Y-89755891D01*
X131463608Y-89883187D01*
X131496554Y-89940250D01*
X131529500Y-89997314D01*
X131622686Y-90090500D01*
X131736814Y-90156392D01*
X131864108Y-90190500D01*
X131864110Y-90190500D01*
X131995890Y-90190500D01*
X131995892Y-90190500D01*
X132123186Y-90156392D01*
X132237314Y-90090500D01*
X132313580Y-90014234D01*
X138244500Y-90014234D01*
X138244500Y-90165766D01*
X138263429Y-90236410D01*
X138283719Y-90312136D01*
X138308756Y-90355500D01*
X138359485Y-90443365D01*
X138466635Y-90550515D01*
X138597865Y-90626281D01*
X138744234Y-90665500D01*
X138744236Y-90665500D01*
X138895764Y-90665500D01*
X138895766Y-90665500D01*
X139042135Y-90626281D01*
X139173365Y-90550515D01*
X139280515Y-90443365D01*
X139356281Y-90312135D01*
X139395500Y-90165766D01*
X139395500Y-90014234D01*
X144024500Y-90014234D01*
X144024500Y-90165766D01*
X144043429Y-90236410D01*
X144063719Y-90312136D01*
X144088756Y-90355500D01*
X144139485Y-90443365D01*
X144246635Y-90550515D01*
X144377865Y-90626281D01*
X144524234Y-90665500D01*
X144524236Y-90665500D01*
X144675764Y-90665500D01*
X144675766Y-90665500D01*
X144822135Y-90626281D01*
X144953365Y-90550515D01*
X145060515Y-90443365D01*
X145136281Y-90312135D01*
X145175500Y-90165766D01*
X145175500Y-90014234D01*
X145136281Y-89867865D01*
X145060515Y-89736635D01*
X144953365Y-89629485D01*
X144887750Y-89591602D01*
X144822136Y-89553719D01*
X144707847Y-89523096D01*
X144675766Y-89514500D01*
X144524234Y-89514500D01*
X144377863Y-89553719D01*
X144246635Y-89629485D01*
X144246632Y-89629487D01*
X144139487Y-89736632D01*
X144139485Y-89736635D01*
X144063719Y-89867863D01*
X144043290Y-89944107D01*
X144024500Y-90014234D01*
X139395500Y-90014234D01*
X139356281Y-89867865D01*
X139280515Y-89736635D01*
X139173365Y-89629485D01*
X139107750Y-89591602D01*
X139042136Y-89553719D01*
X138927847Y-89523096D01*
X138895766Y-89514500D01*
X138744234Y-89514500D01*
X138597863Y-89553719D01*
X138466635Y-89629485D01*
X138466632Y-89629487D01*
X138359487Y-89736632D01*
X138359485Y-89736635D01*
X138283719Y-89867863D01*
X138263290Y-89944107D01*
X138244500Y-90014234D01*
X132313580Y-90014234D01*
X132330500Y-89997314D01*
X132396392Y-89883186D01*
X132430500Y-89755892D01*
X132430500Y-89624108D01*
X132396392Y-89496814D01*
X132396387Y-89496806D01*
X132345318Y-89408352D01*
X132330500Y-89382686D01*
X132237314Y-89289500D01*
X132123186Y-89223608D01*
X132038279Y-89200857D01*
X131978620Y-89164493D01*
X131948091Y-89101646D01*
X131956386Y-89032270D01*
X131962984Y-89019087D01*
X131966392Y-89013186D01*
X132000500Y-88885892D01*
X132000500Y-88754108D01*
X131966392Y-88626814D01*
X131952106Y-88602070D01*
X168194500Y-88602070D01*
X168194500Y-88857929D01*
X168234526Y-89110640D01*
X168313588Y-89353972D01*
X168313589Y-89353975D01*
X168383363Y-89490912D01*
X168400117Y-89523794D01*
X168429750Y-89581950D01*
X168580132Y-89788935D01*
X168580136Y-89788940D01*
X168761059Y-89969863D01*
X168761064Y-89969867D01*
X168927099Y-90090497D01*
X168968053Y-90120252D01*
X169105920Y-90190499D01*
X169196024Y-90236410D01*
X169196027Y-90236411D01*
X169317693Y-90275942D01*
X169439361Y-90315474D01*
X169692070Y-90355500D01*
X169692071Y-90355500D01*
X169947929Y-90355500D01*
X169947930Y-90355500D01*
X170200639Y-90315474D01*
X170443975Y-90236410D01*
X170671947Y-90120252D01*
X170878942Y-89969862D01*
X171059862Y-89788942D01*
X171210252Y-89581947D01*
X171326410Y-89353975D01*
X171405474Y-89110639D01*
X171445500Y-88857930D01*
X171445500Y-88602070D01*
X171405474Y-88349361D01*
X171353120Y-88188230D01*
X171326411Y-88106027D01*
X171326410Y-88106024D01*
X171255853Y-87967550D01*
X171210252Y-87878053D01*
X171122737Y-87757598D01*
X171059867Y-87671064D01*
X171059863Y-87671059D01*
X170878940Y-87490136D01*
X170878935Y-87490132D01*
X170671950Y-87339750D01*
X170671949Y-87339749D01*
X170671947Y-87339748D01*
X170598910Y-87302533D01*
X170443975Y-87223589D01*
X170443972Y-87223588D01*
X170200640Y-87144526D01*
X170074284Y-87124513D01*
X169947930Y-87104500D01*
X169692070Y-87104500D01*
X169607833Y-87117842D01*
X169439359Y-87144526D01*
X169196027Y-87223588D01*
X169196024Y-87223589D01*
X168968049Y-87339750D01*
X168761064Y-87490132D01*
X168761059Y-87490136D01*
X168580136Y-87671059D01*
X168580132Y-87671064D01*
X168429750Y-87878049D01*
X168313589Y-88106024D01*
X168313588Y-88106027D01*
X168234526Y-88349359D01*
X168194500Y-88602070D01*
X131952106Y-88602070D01*
X131900500Y-88512686D01*
X131807314Y-88419500D01*
X131730704Y-88375269D01*
X131693187Y-88353608D01*
X131629539Y-88336554D01*
X131565892Y-88319500D01*
X131434108Y-88319500D01*
X131306812Y-88353608D01*
X131192686Y-88419500D01*
X131192683Y-88419502D01*
X131099502Y-88512683D01*
X131099500Y-88512686D01*
X131033608Y-88626812D01*
X130999500Y-88754108D01*
X113445500Y-88754108D01*
X113445500Y-88602070D01*
X113431091Y-88511095D01*
X113405474Y-88349360D01*
X113326411Y-88106027D01*
X113326410Y-88106024D01*
X113255853Y-87967550D01*
X113210252Y-87878053D01*
X113122737Y-87757598D01*
X113059867Y-87671064D01*
X113059863Y-87671059D01*
X112878940Y-87490136D01*
X112878935Y-87490132D01*
X112671950Y-87339750D01*
X112671949Y-87339749D01*
X112671947Y-87339748D01*
X112511676Y-87258085D01*
X112443975Y-87223589D01*
X112443972Y-87223588D01*
X112229038Y-87153753D01*
X114590000Y-87153753D01*
X114590000Y-87366246D01*
X114623242Y-87576127D01*
X114623242Y-87576130D01*
X114688904Y-87778217D01*
X114785375Y-87967550D01*
X114824728Y-88021716D01*
X115457037Y-87389408D01*
X115474075Y-87452993D01*
X115539901Y-87567007D01*
X115632993Y-87660099D01*
X115747007Y-87725925D01*
X115810590Y-87742962D01*
X115178282Y-88375269D01*
X115178282Y-88375270D01*
X115232449Y-88414624D01*
X115421782Y-88511095D01*
X115623870Y-88576757D01*
X115833754Y-88610000D01*
X116046246Y-88610000D01*
X116256127Y-88576757D01*
X116256130Y-88576757D01*
X116458217Y-88511095D01*
X116647554Y-88414622D01*
X116701716Y-88375270D01*
X116701717Y-88375270D01*
X116069408Y-87742962D01*
X116132993Y-87725925D01*
X116247007Y-87660099D01*
X116340099Y-87567007D01*
X116405925Y-87452993D01*
X116422962Y-87389408D01*
X117055270Y-88021717D01*
X117055270Y-88021716D01*
X117094622Y-87967554D01*
X117191095Y-87778217D01*
X117248343Y-87602026D01*
X117287780Y-87544351D01*
X117352139Y-87517152D01*
X117420985Y-87529066D01*
X117472461Y-87576310D01*
X117480835Y-87592891D01*
X117549058Y-87757596D01*
X117664024Y-87929657D01*
X117810342Y-88075975D01*
X117810345Y-88075977D01*
X117982402Y-88190941D01*
X118173580Y-88270130D01*
X118318052Y-88298867D01*
X118376530Y-88310499D01*
X118376534Y-88310500D01*
X118376535Y-88310500D01*
X118583466Y-88310500D01*
X118583467Y-88310499D01*
X118786420Y-88270130D01*
X118977598Y-88190941D01*
X119149655Y-88075977D01*
X119295977Y-87929655D01*
X119410941Y-87757598D01*
X119490130Y-87566420D01*
X119530500Y-87363465D01*
X119530500Y-87156535D01*
X119530499Y-87156530D01*
X119969500Y-87156530D01*
X119969500Y-87363469D01*
X120009868Y-87566412D01*
X120009870Y-87566420D01*
X120089058Y-87757596D01*
X120204024Y-87929657D01*
X120350342Y-88075975D01*
X120350345Y-88075977D01*
X120522402Y-88190941D01*
X120713580Y-88270130D01*
X120858052Y-88298867D01*
X120916530Y-88310499D01*
X120916534Y-88310500D01*
X120916535Y-88310500D01*
X121123466Y-88310500D01*
X121123467Y-88310499D01*
X121326420Y-88270130D01*
X121517598Y-88190941D01*
X121689655Y-88075977D01*
X121835977Y-87929655D01*
X121950941Y-87757598D01*
X122030130Y-87566420D01*
X122070500Y-87363465D01*
X122070500Y-87156535D01*
X122030130Y-86953580D01*
X121950941Y-86762402D01*
X121835977Y-86590345D01*
X121835975Y-86590342D01*
X121689657Y-86444024D01*
X121609173Y-86390247D01*
X122509500Y-86390247D01*
X122509500Y-88129752D01*
X122521131Y-88188229D01*
X122521132Y-88188230D01*
X122565447Y-88254552D01*
X122631769Y-88298867D01*
X122631770Y-88298868D01*
X122690247Y-88310499D01*
X122690250Y-88310500D01*
X122690252Y-88310500D01*
X124429750Y-88310500D01*
X124429751Y-88310499D01*
X124444568Y-88307552D01*
X124488229Y-88298868D01*
X124488229Y-88298867D01*
X124488231Y-88298867D01*
X124554552Y-88254552D01*
X124598867Y-88188231D01*
X124598867Y-88188229D01*
X124598868Y-88188229D01*
X124610499Y-88129752D01*
X124610500Y-88129750D01*
X124610500Y-87092635D01*
X139059500Y-87092635D01*
X139059500Y-87224418D01*
X139093608Y-87351714D01*
X139126554Y-87408777D01*
X139159500Y-87465841D01*
X139252686Y-87559027D01*
X139366814Y-87624919D01*
X139494108Y-87659027D01*
X139494110Y-87659027D01*
X139625890Y-87659027D01*
X139625892Y-87659027D01*
X139753186Y-87624919D01*
X139867314Y-87559027D01*
X139960500Y-87465841D01*
X140026392Y-87351713D01*
X140060500Y-87224419D01*
X140060500Y-87092635D01*
X140026392Y-86965341D01*
X139960500Y-86851213D01*
X139867314Y-86758027D01*
X139810250Y-86725081D01*
X139753187Y-86692135D01*
X139689539Y-86675081D01*
X139625892Y-86658027D01*
X139494108Y-86658027D01*
X139366812Y-86692135D01*
X139252686Y-86758027D01*
X139252683Y-86758029D01*
X139159502Y-86851210D01*
X139159500Y-86851213D01*
X139093608Y-86965339D01*
X139059500Y-87092635D01*
X124610500Y-87092635D01*
X124610500Y-86390249D01*
X124610499Y-86390247D01*
X124598868Y-86331770D01*
X124598867Y-86331769D01*
X124554552Y-86265447D01*
X124488230Y-86221132D01*
X124488229Y-86221131D01*
X124429752Y-86209500D01*
X124429748Y-86209500D01*
X122690252Y-86209500D01*
X122690247Y-86209500D01*
X122631770Y-86221131D01*
X122631769Y-86221132D01*
X122565447Y-86265447D01*
X122521132Y-86331769D01*
X122521131Y-86331770D01*
X122509500Y-86390247D01*
X121609173Y-86390247D01*
X121521655Y-86331770D01*
X121517598Y-86329059D01*
X121326420Y-86249870D01*
X121326412Y-86249868D01*
X121123469Y-86209500D01*
X121123465Y-86209500D01*
X120916535Y-86209500D01*
X120916530Y-86209500D01*
X120713587Y-86249868D01*
X120713579Y-86249870D01*
X120522403Y-86329058D01*
X120350342Y-86444024D01*
X120204024Y-86590342D01*
X120089058Y-86762403D01*
X120009870Y-86953579D01*
X120009868Y-86953587D01*
X119969500Y-87156530D01*
X119530499Y-87156530D01*
X119490130Y-86953580D01*
X119410941Y-86762402D01*
X119295977Y-86590345D01*
X119295975Y-86590342D01*
X119149657Y-86444024D01*
X118981655Y-86331770D01*
X118977598Y-86329059D01*
X118786420Y-86249870D01*
X118786412Y-86249868D01*
X118659614Y-86224646D01*
X118597703Y-86192261D01*
X118563129Y-86131545D01*
X118566868Y-86061776D01*
X118607735Y-86005104D01*
X118621805Y-85995642D01*
X118717314Y-85940500D01*
X118810500Y-85847314D01*
X118876392Y-85733186D01*
X118910500Y-85605892D01*
X118910500Y-85474108D01*
X118899655Y-85433633D01*
X118901318Y-85363787D01*
X118940480Y-85305924D01*
X119004708Y-85278420D01*
X119051522Y-85281768D01*
X119084108Y-85290500D01*
X119084110Y-85290500D01*
X119215890Y-85290500D01*
X119215892Y-85290500D01*
X119343186Y-85256392D01*
X119457314Y-85190500D01*
X119550500Y-85097314D01*
X119616392Y-84983186D01*
X119650500Y-84855892D01*
X119650500Y-84724108D01*
X119616392Y-84596814D01*
X119550500Y-84482686D01*
X119457314Y-84389500D01*
X119370291Y-84339257D01*
X119343187Y-84323608D01*
X119279539Y-84306554D01*
X119215892Y-84289500D01*
X119084108Y-84289500D01*
X118956812Y-84323608D01*
X118842686Y-84389500D01*
X118842683Y-84389502D01*
X118749502Y-84482683D01*
X118749500Y-84482686D01*
X118683608Y-84596812D01*
X118649500Y-84724108D01*
X118649500Y-84855893D01*
X118660344Y-84896364D01*
X118658681Y-84966214D01*
X118619518Y-85024076D01*
X118555289Y-85051579D01*
X118508477Y-85048231D01*
X118475892Y-85039500D01*
X118344108Y-85039500D01*
X118216812Y-85073608D01*
X118102686Y-85139500D01*
X118102683Y-85139502D01*
X118009502Y-85232683D01*
X118009500Y-85232686D01*
X117943608Y-85346812D01*
X117909500Y-85474108D01*
X117909500Y-85605891D01*
X117943608Y-85733187D01*
X117974037Y-85785890D01*
X118009500Y-85847314D01*
X118102686Y-85940500D01*
X118198195Y-85995642D01*
X118216812Y-86006391D01*
X118222233Y-86008636D01*
X118276639Y-86052474D01*
X118298708Y-86118767D01*
X118281432Y-86186467D01*
X118230298Y-86234081D01*
X118198980Y-86244817D01*
X118173584Y-86249868D01*
X118173579Y-86249870D01*
X117982403Y-86329058D01*
X117810342Y-86444024D01*
X117664024Y-86590342D01*
X117549057Y-86762403D01*
X117480835Y-86927108D01*
X117436994Y-86981511D01*
X117370700Y-87003576D01*
X117303000Y-86986297D01*
X117255390Y-86935159D01*
X117248343Y-86917973D01*
X117191095Y-86741782D01*
X117094624Y-86552449D01*
X117055270Y-86498282D01*
X117055269Y-86498282D01*
X116422962Y-87130590D01*
X116405925Y-87067007D01*
X116340099Y-86952993D01*
X116247007Y-86859901D01*
X116132993Y-86794075D01*
X116069409Y-86777037D01*
X116701716Y-86144728D01*
X116647550Y-86105375D01*
X116458217Y-86008904D01*
X116256129Y-85943242D01*
X116046246Y-85910000D01*
X115833754Y-85910000D01*
X115623872Y-85943242D01*
X115623869Y-85943242D01*
X115421782Y-86008904D01*
X115232439Y-86105380D01*
X115178282Y-86144727D01*
X115178282Y-86144728D01*
X115810591Y-86777037D01*
X115747007Y-86794075D01*
X115632993Y-86859901D01*
X115539901Y-86952993D01*
X115474075Y-87067007D01*
X115457037Y-87130591D01*
X114824728Y-86498282D01*
X114824727Y-86498282D01*
X114785380Y-86552439D01*
X114688904Y-86741782D01*
X114623242Y-86943869D01*
X114623242Y-86943872D01*
X114590000Y-87153753D01*
X112229038Y-87153753D01*
X112200640Y-87144526D01*
X112074284Y-87124513D01*
X111947930Y-87104500D01*
X111692070Y-87104500D01*
X111607833Y-87117842D01*
X111439359Y-87144526D01*
X111196027Y-87223588D01*
X111196024Y-87223589D01*
X110968049Y-87339750D01*
X110761064Y-87490132D01*
X110761059Y-87490136D01*
X110580136Y-87671059D01*
X110580132Y-87671064D01*
X110429750Y-87878049D01*
X110313589Y-88106024D01*
X110313588Y-88106027D01*
X110234526Y-88349359D01*
X110194500Y-88602070D01*
X108820500Y-88602070D01*
X108820500Y-83904108D01*
X114999500Y-83904108D01*
X114999500Y-84035892D01*
X115006865Y-84063379D01*
X115033608Y-84163187D01*
X115049479Y-84190675D01*
X115099500Y-84277314D01*
X115192686Y-84370500D01*
X115306814Y-84436392D01*
X115434108Y-84470500D01*
X115434110Y-84470500D01*
X115565890Y-84470500D01*
X115565892Y-84470500D01*
X115693186Y-84436392D01*
X115807314Y-84370500D01*
X115900500Y-84277314D01*
X115966392Y-84163186D01*
X116000500Y-84035892D01*
X116000500Y-84014108D01*
X125929500Y-84014108D01*
X125929500Y-84145892D01*
X125946554Y-84209539D01*
X125963608Y-84273187D01*
X125981862Y-84304803D01*
X126029500Y-84387314D01*
X126122686Y-84480500D01*
X126236814Y-84546392D01*
X126353948Y-84577777D01*
X126413608Y-84614142D01*
X126444137Y-84676989D01*
X126435842Y-84746364D01*
X126397347Y-84795923D01*
X126392686Y-84799499D01*
X126299502Y-84892683D01*
X126299500Y-84892686D01*
X126233608Y-85006812D01*
X126220935Y-85054110D01*
X126199500Y-85134108D01*
X126199500Y-85265892D01*
X126212172Y-85313186D01*
X126233608Y-85393187D01*
X126253311Y-85427313D01*
X126299500Y-85507314D01*
X126392686Y-85600500D01*
X126485538Y-85654108D01*
X126505575Y-85665677D01*
X126506814Y-85666392D01*
X126634108Y-85700500D01*
X126634110Y-85700500D01*
X126765890Y-85700500D01*
X126765892Y-85700500D01*
X126893186Y-85666392D01*
X126894424Y-85665677D01*
X131966460Y-85665677D01*
X131966460Y-85797461D01*
X131983514Y-85861108D01*
X132000568Y-85924756D01*
X132033514Y-85981819D01*
X132066460Y-86038883D01*
X132159646Y-86132069D01*
X132273774Y-86197961D01*
X132401068Y-86232069D01*
X132401070Y-86232069D01*
X132532850Y-86232069D01*
X132532852Y-86232069D01*
X132660146Y-86197961D01*
X132774274Y-86132069D01*
X132867460Y-86038883D01*
X132933352Y-85924755D01*
X132967460Y-85797461D01*
X132967460Y-85665677D01*
X132964360Y-85654108D01*
X137247967Y-85654108D01*
X137247967Y-85785892D01*
X137251067Y-85797460D01*
X137282075Y-85913187D01*
X137297845Y-85940501D01*
X137347967Y-86027314D01*
X137441153Y-86120500D01*
X137555281Y-86186392D01*
X137682575Y-86220500D01*
X137682577Y-86220500D01*
X137814357Y-86220500D01*
X137814359Y-86220500D01*
X137941653Y-86186392D01*
X138055781Y-86120500D01*
X138148967Y-86027314D01*
X138214859Y-85913186D01*
X138248967Y-85785892D01*
X138248967Y-85654108D01*
X138214859Y-85526814D01*
X138148967Y-85412686D01*
X138055781Y-85319500D01*
X137984629Y-85278420D01*
X137941654Y-85253608D01*
X137863559Y-85232683D01*
X137814359Y-85219500D01*
X137682575Y-85219500D01*
X137555279Y-85253608D01*
X137441153Y-85319500D01*
X137441150Y-85319502D01*
X137347969Y-85412683D01*
X137347967Y-85412686D01*
X137282075Y-85526812D01*
X137260886Y-85605892D01*
X137247967Y-85654108D01*
X132964360Y-85654108D01*
X132933352Y-85538383D01*
X132926671Y-85526812D01*
X132915414Y-85507313D01*
X132867460Y-85424255D01*
X132774274Y-85331069D01*
X132704005Y-85290499D01*
X132660147Y-85265177D01*
X132596499Y-85248123D01*
X132532852Y-85231069D01*
X132401068Y-85231069D01*
X132273772Y-85265177D01*
X132159646Y-85331069D01*
X132159643Y-85331071D01*
X132066462Y-85424252D01*
X132066460Y-85424255D01*
X132000568Y-85538381D01*
X131982479Y-85605891D01*
X131966460Y-85665677D01*
X126894424Y-85665677D01*
X127007314Y-85600500D01*
X127100500Y-85507314D01*
X127166392Y-85393186D01*
X127200500Y-85265892D01*
X127200500Y-85134108D01*
X127166392Y-85006814D01*
X127100500Y-84892686D01*
X127007314Y-84799500D01*
X126893186Y-84733608D01*
X126776051Y-84702222D01*
X126716391Y-84665857D01*
X126685862Y-84603010D01*
X126694157Y-84533634D01*
X126732662Y-84484068D01*
X126737302Y-84480506D01*
X126737314Y-84480500D01*
X126830500Y-84387314D01*
X126896392Y-84273186D01*
X126930500Y-84145892D01*
X126930500Y-84014108D01*
X126908391Y-83931597D01*
X128333481Y-83931597D01*
X128333481Y-84063380D01*
X128367589Y-84190676D01*
X128390275Y-84229968D01*
X128433481Y-84304803D01*
X128433483Y-84304805D01*
X128467935Y-84339257D01*
X128501420Y-84400580D01*
X128496436Y-84470272D01*
X128487642Y-84488937D01*
X128422111Y-84602440D01*
X128388003Y-84729736D01*
X128388003Y-84861519D01*
X128422111Y-84988815D01*
X128451375Y-85039500D01*
X128488003Y-85102942D01*
X128581189Y-85196128D01*
X128695317Y-85262020D01*
X128822611Y-85296128D01*
X128822613Y-85296128D01*
X128954393Y-85296128D01*
X128954395Y-85296128D01*
X129081689Y-85262020D01*
X129195817Y-85196128D01*
X129289003Y-85102942D01*
X129317197Y-85054108D01*
X133939500Y-85054108D01*
X133939500Y-85185892D01*
X133952038Y-85232686D01*
X133973608Y-85313187D01*
X133983934Y-85331071D01*
X134039500Y-85427314D01*
X134132686Y-85520500D01*
X134231521Y-85577563D01*
X134246810Y-85586390D01*
X134246814Y-85586392D01*
X134374108Y-85620500D01*
X134374110Y-85620500D01*
X134505890Y-85620500D01*
X134505892Y-85620500D01*
X134633186Y-85586392D01*
X134747314Y-85520500D01*
X134840500Y-85427314D01*
X134906392Y-85313186D01*
X134940500Y-85185892D01*
X134940500Y-85054108D01*
X134906392Y-84926814D01*
X134840500Y-84812686D01*
X134747314Y-84719500D01*
X134654402Y-84665857D01*
X134633187Y-84653608D01*
X134569539Y-84636554D01*
X134505892Y-84619500D01*
X134374108Y-84619500D01*
X134246812Y-84653608D01*
X134132686Y-84719500D01*
X134132683Y-84719502D01*
X134039502Y-84812683D01*
X134039500Y-84812686D01*
X133973608Y-84926812D01*
X133963051Y-84966214D01*
X133939500Y-85054108D01*
X129317197Y-85054108D01*
X129354895Y-84988814D01*
X129389003Y-84861520D01*
X129389003Y-84729736D01*
X129354895Y-84602442D01*
X129289003Y-84488314D01*
X129281183Y-84480494D01*
X129254547Y-84453857D01*
X129241200Y-84429414D01*
X129225049Y-84406733D01*
X129224689Y-84399176D01*
X129221062Y-84392534D01*
X129223049Y-84364752D01*
X129221725Y-84336942D01*
X129225760Y-84326861D01*
X129226048Y-84322842D01*
X129234837Y-84304185D01*
X129252202Y-84274108D01*
X129689500Y-84274108D01*
X129689500Y-84405892D01*
X129702352Y-84453857D01*
X129723608Y-84533187D01*
X129749353Y-84577777D01*
X129789500Y-84647314D01*
X129882686Y-84740500D01*
X129996814Y-84806392D01*
X130124108Y-84840500D01*
X130124110Y-84840500D01*
X130255890Y-84840500D01*
X130255892Y-84840500D01*
X130383186Y-84806392D01*
X130497314Y-84740500D01*
X130590500Y-84647314D01*
X130656392Y-84533186D01*
X130690500Y-84405892D01*
X130690500Y-84274108D01*
X130656392Y-84146814D01*
X130590500Y-84032686D01*
X130497314Y-83939500D01*
X130436013Y-83904108D01*
X130383187Y-83873608D01*
X130317061Y-83855890D01*
X130255892Y-83839500D01*
X130124108Y-83839500D01*
X129996812Y-83873608D01*
X129882686Y-83939500D01*
X129882683Y-83939502D01*
X129789502Y-84032683D01*
X129789500Y-84032686D01*
X129723608Y-84146812D01*
X129701327Y-84229968D01*
X129689500Y-84274108D01*
X129252202Y-84274108D01*
X129300373Y-84190675D01*
X129334481Y-84063381D01*
X129334481Y-83931597D01*
X129300373Y-83804303D01*
X129234481Y-83690175D01*
X129207883Y-83663577D01*
X131148969Y-83663577D01*
X131148969Y-83795361D01*
X131151365Y-83804302D01*
X131183077Y-83922656D01*
X131202076Y-83955563D01*
X131248969Y-84036783D01*
X131342155Y-84129969D01*
X131440990Y-84187032D01*
X131447300Y-84190675D01*
X131456283Y-84195861D01*
X131583577Y-84229969D01*
X131583579Y-84229969D01*
X131715359Y-84229969D01*
X131715361Y-84229969D01*
X131842655Y-84195861D01*
X131956783Y-84129969D01*
X132049969Y-84036783D01*
X132115861Y-83922655D01*
X132149969Y-83795361D01*
X132149969Y-83724108D01*
X132538145Y-83724108D01*
X132538145Y-83855892D01*
X132551064Y-83904108D01*
X132572253Y-83983187D01*
X132590106Y-84014108D01*
X132638145Y-84097314D01*
X132731331Y-84190500D01*
X132845459Y-84256392D01*
X132972753Y-84290500D01*
X132972755Y-84290500D01*
X133104535Y-84290500D01*
X133104537Y-84290500D01*
X133231831Y-84256392D01*
X133345959Y-84190500D01*
X133439145Y-84097314D01*
X133505037Y-83983186D01*
X133539145Y-83855892D01*
X133539145Y-83724108D01*
X133505037Y-83596814D01*
X133439145Y-83482686D01*
X133345959Y-83389500D01*
X133278409Y-83350500D01*
X133231832Y-83323608D01*
X133168184Y-83306554D01*
X133104537Y-83289500D01*
X132972753Y-83289500D01*
X132845457Y-83323608D01*
X132731331Y-83389500D01*
X132731328Y-83389502D01*
X132638147Y-83482683D01*
X132638145Y-83482686D01*
X132572253Y-83596812D01*
X132547238Y-83690172D01*
X132538145Y-83724108D01*
X132149969Y-83724108D01*
X132149969Y-83663577D01*
X132115861Y-83536283D01*
X132049969Y-83422155D01*
X131956783Y-83328969D01*
X131888421Y-83289500D01*
X131842656Y-83263077D01*
X131777052Y-83245499D01*
X131715361Y-83228969D01*
X131583577Y-83228969D01*
X131456281Y-83263077D01*
X131342155Y-83328969D01*
X131342152Y-83328971D01*
X131248971Y-83422152D01*
X131248969Y-83422155D01*
X131183077Y-83536281D01*
X131156098Y-83636970D01*
X131148969Y-83663577D01*
X129207883Y-83663577D01*
X129141295Y-83596989D01*
X129080679Y-83561992D01*
X129027168Y-83531097D01*
X128963520Y-83514043D01*
X128899873Y-83496989D01*
X128768089Y-83496989D01*
X128640793Y-83531097D01*
X128526667Y-83596989D01*
X128526664Y-83596991D01*
X128433483Y-83690172D01*
X128433481Y-83690175D01*
X128367589Y-83804301D01*
X128333481Y-83931597D01*
X126908391Y-83931597D01*
X126896392Y-83886814D01*
X126830500Y-83772686D01*
X126737314Y-83679500D01*
X126663650Y-83636970D01*
X126623187Y-83613608D01*
X126507782Y-83582686D01*
X126495892Y-83579500D01*
X126364108Y-83579500D01*
X126236812Y-83613608D01*
X126122686Y-83679500D01*
X126122683Y-83679502D01*
X126029502Y-83772683D01*
X126029500Y-83772686D01*
X125963608Y-83886812D01*
X125951608Y-83931599D01*
X125929500Y-84014108D01*
X116000500Y-84014108D01*
X116000500Y-83904108D01*
X115966392Y-83776814D01*
X115900500Y-83662686D01*
X115807314Y-83569500D01*
X115740798Y-83531097D01*
X115693187Y-83503608D01*
X115615092Y-83482683D01*
X115565892Y-83469500D01*
X115434108Y-83469500D01*
X115306812Y-83503608D01*
X115192686Y-83569500D01*
X115192683Y-83569502D01*
X115099502Y-83662683D01*
X115099500Y-83662686D01*
X115033608Y-83776812D01*
X115012419Y-83855892D01*
X114999500Y-83904108D01*
X108820500Y-83904108D01*
X108820500Y-82604108D01*
X127919500Y-82604108D01*
X127919500Y-82735892D01*
X127931185Y-82779500D01*
X127953608Y-82863187D01*
X127980784Y-82910256D01*
X128019500Y-82977314D01*
X128112686Y-83070500D01*
X128226814Y-83136392D01*
X128354108Y-83170500D01*
X128354110Y-83170500D01*
X128485890Y-83170500D01*
X128485892Y-83170500D01*
X128613186Y-83136392D01*
X128727179Y-83070578D01*
X134311559Y-83070578D01*
X134311559Y-83202362D01*
X134323223Y-83245892D01*
X134345667Y-83329657D01*
X134357701Y-83350500D01*
X134411559Y-83443784D01*
X134504745Y-83536970D01*
X134603580Y-83594033D01*
X134608397Y-83596814D01*
X134618873Y-83602862D01*
X134746167Y-83636970D01*
X134746169Y-83636970D01*
X134877949Y-83636970D01*
X134877951Y-83636970D01*
X135005245Y-83602862D01*
X135119373Y-83536970D01*
X135212559Y-83443784D01*
X135278451Y-83329656D01*
X135312559Y-83202362D01*
X135312559Y-83114108D01*
X137359500Y-83114108D01*
X137359500Y-83245892D01*
X137371185Y-83289500D01*
X137393608Y-83373187D01*
X137401668Y-83387147D01*
X137459500Y-83487314D01*
X137552686Y-83580500D01*
X137610031Y-83613608D01*
X137668627Y-83647439D01*
X137716843Y-83698006D01*
X137730065Y-83766613D01*
X137714015Y-83816825D01*
X137673608Y-83886811D01*
X137647785Y-83983186D01*
X137639500Y-84014108D01*
X137639500Y-84145892D01*
X137656554Y-84209539D01*
X137673608Y-84273187D01*
X137691862Y-84304803D01*
X137739500Y-84387314D01*
X137832686Y-84480500D01*
X137946814Y-84546392D01*
X138074108Y-84580500D01*
X138074110Y-84580500D01*
X138205890Y-84580500D01*
X138205892Y-84580500D01*
X138333186Y-84546392D01*
X138447314Y-84480500D01*
X138540500Y-84387314D01*
X138606392Y-84273186D01*
X138640500Y-84145892D01*
X138640500Y-84014108D01*
X146629500Y-84014108D01*
X146629500Y-84145892D01*
X146646554Y-84209539D01*
X146663608Y-84273187D01*
X146681862Y-84304803D01*
X146729500Y-84387314D01*
X146822686Y-84480500D01*
X146936814Y-84546392D01*
X147064108Y-84580500D01*
X147064110Y-84580500D01*
X147195890Y-84580500D01*
X147195892Y-84580500D01*
X147323186Y-84546392D01*
X147437314Y-84480500D01*
X147530500Y-84387314D01*
X147596392Y-84273186D01*
X147630500Y-84145892D01*
X147630500Y-84014108D01*
X147596392Y-83886814D01*
X147588767Y-83873608D01*
X147578539Y-83855892D01*
X147530500Y-83772686D01*
X147437314Y-83679500D01*
X147363650Y-83636970D01*
X147323187Y-83613608D01*
X147207782Y-83582686D01*
X147195892Y-83579500D01*
X147064108Y-83579500D01*
X146936812Y-83613608D01*
X146822686Y-83679500D01*
X146822683Y-83679502D01*
X146729502Y-83772683D01*
X146729500Y-83772686D01*
X146663608Y-83886812D01*
X146651608Y-83931599D01*
X146629500Y-84014108D01*
X138640500Y-84014108D01*
X138606392Y-83886814D01*
X138598767Y-83873608D01*
X138588539Y-83855892D01*
X138540500Y-83772686D01*
X138447314Y-83679500D01*
X138333186Y-83613608D01*
X138331371Y-83612560D01*
X138283156Y-83561992D01*
X138269934Y-83493385D01*
X138278027Y-83459659D01*
X138281395Y-83451121D01*
X138326392Y-83373186D01*
X138356529Y-83260710D01*
X138359128Y-83254125D01*
X138376414Y-83231917D01*
X138391063Y-83207885D01*
X138397588Y-83204715D01*
X138402045Y-83198990D01*
X138428596Y-83189652D01*
X138453910Y-83177356D01*
X138466567Y-83176299D01*
X138467958Y-83175810D01*
X138469120Y-83176085D01*
X138474473Y-83175639D01*
X138546467Y-83175639D01*
X138546469Y-83175639D01*
X138673763Y-83141531D01*
X138787891Y-83075639D01*
X138881077Y-82982453D01*
X138937857Y-82884108D01*
X150809500Y-82884108D01*
X150809500Y-83015892D01*
X150825508Y-83075636D01*
X150843608Y-83143187D01*
X150870435Y-83189652D01*
X150909500Y-83257314D01*
X151002686Y-83350500D01*
X151116814Y-83416392D01*
X151244108Y-83450500D01*
X151244110Y-83450500D01*
X151375890Y-83450500D01*
X151375892Y-83450500D01*
X151503186Y-83416392D01*
X151617314Y-83350500D01*
X151710500Y-83257314D01*
X151776392Y-83143186D01*
X151810500Y-83015892D01*
X151810500Y-82884108D01*
X151776392Y-82756814D01*
X151776391Y-82756812D01*
X151776391Y-82756811D01*
X151762633Y-82732983D01*
X151762632Y-82732981D01*
X151751447Y-82713608D01*
X151731528Y-82679108D01*
X164014500Y-82679108D01*
X164014500Y-82810892D01*
X164031554Y-82874539D01*
X164048608Y-82938187D01*
X164071200Y-82977316D01*
X164114500Y-83052314D01*
X164207686Y-83145500D01*
X164321814Y-83211392D01*
X164449108Y-83245500D01*
X164449116Y-83245500D01*
X164457168Y-83246561D01*
X164456757Y-83249677D01*
X164509571Y-83265185D01*
X164555326Y-83317989D01*
X164565270Y-83387147D01*
X164536245Y-83450703D01*
X164504534Y-83476885D01*
X164486474Y-83487313D01*
X164482686Y-83489500D01*
X164482683Y-83489502D01*
X164389502Y-83582683D01*
X164389500Y-83582686D01*
X164323608Y-83696812D01*
X164289500Y-83824108D01*
X164289500Y-83955891D01*
X164323608Y-84083187D01*
X164350618Y-84129968D01*
X164389500Y-84197314D01*
X164482686Y-84290500D01*
X164596814Y-84356392D01*
X164724108Y-84390500D01*
X164724110Y-84390500D01*
X164855890Y-84390500D01*
X164855892Y-84390500D01*
X164983186Y-84356392D01*
X165097314Y-84290500D01*
X165190500Y-84197314D01*
X165256392Y-84083186D01*
X165290500Y-83955892D01*
X165290500Y-83824108D01*
X165256392Y-83696814D01*
X165190500Y-83582686D01*
X165097314Y-83489500D01*
X165029764Y-83450500D01*
X164983187Y-83423608D01*
X164919539Y-83406554D01*
X164855892Y-83389500D01*
X164855891Y-83389500D01*
X164847832Y-83388439D01*
X164848242Y-83385322D01*
X164795429Y-83369815D01*
X164749674Y-83317011D01*
X164739730Y-83247853D01*
X164768755Y-83184297D01*
X164800465Y-83158114D01*
X164822314Y-83145500D01*
X164915500Y-83052314D01*
X164981392Y-82938186D01*
X165015500Y-82810892D01*
X165015500Y-82679108D01*
X164981392Y-82551814D01*
X164978260Y-82546390D01*
X164944892Y-82488595D01*
X164915500Y-82437686D01*
X164822314Y-82344500D01*
X164729965Y-82291182D01*
X164708187Y-82278608D01*
X164644539Y-82261554D01*
X164580892Y-82244500D01*
X164449108Y-82244500D01*
X164321812Y-82278608D01*
X164207686Y-82344500D01*
X164207683Y-82344502D01*
X164114502Y-82437683D01*
X164114500Y-82437686D01*
X164048608Y-82551812D01*
X164034596Y-82604108D01*
X164014500Y-82679108D01*
X151731528Y-82679108D01*
X151710500Y-82642686D01*
X151617314Y-82549500D01*
X151560250Y-82516554D01*
X151503187Y-82483608D01*
X151439539Y-82466554D01*
X151375892Y-82449500D01*
X151244108Y-82449500D01*
X151116812Y-82483608D01*
X151002686Y-82549500D01*
X151002683Y-82549502D01*
X150909502Y-82642683D01*
X150909500Y-82642686D01*
X150843608Y-82756812D01*
X150818956Y-82848816D01*
X150809500Y-82884108D01*
X138937857Y-82884108D01*
X138946969Y-82868325D01*
X138981077Y-82741031D01*
X138981077Y-82609247D01*
X138946969Y-82481953D01*
X138946128Y-82480497D01*
X138921411Y-82437686D01*
X138881077Y-82367825D01*
X138787891Y-82274639D01*
X138710133Y-82229745D01*
X138673764Y-82208747D01*
X138610116Y-82191693D01*
X138546469Y-82174639D01*
X138414685Y-82174639D01*
X138287389Y-82208747D01*
X138173263Y-82274639D01*
X138173260Y-82274641D01*
X138080079Y-82367822D01*
X138080077Y-82367825D01*
X138015026Y-82480497D01*
X138014185Y-82481953D01*
X137995467Y-82551812D01*
X137985879Y-82587594D01*
X137949514Y-82647254D01*
X137886667Y-82677783D01*
X137866104Y-82679500D01*
X137794108Y-82679500D01*
X137666812Y-82713608D01*
X137552686Y-82779500D01*
X137552683Y-82779502D01*
X137459502Y-82872683D01*
X137459500Y-82872686D01*
X137393608Y-82986812D01*
X137359500Y-83114108D01*
X135312559Y-83114108D01*
X135312559Y-83070578D01*
X135278451Y-82943284D01*
X135212559Y-82829156D01*
X135119373Y-82735970D01*
X135046710Y-82694018D01*
X135005246Y-82670078D01*
X134920064Y-82647254D01*
X134877951Y-82635970D01*
X134746167Y-82635970D01*
X134618871Y-82670078D01*
X134504745Y-82735970D01*
X134504742Y-82735972D01*
X134411561Y-82829153D01*
X134411559Y-82829156D01*
X134345667Y-82943282D01*
X134334003Y-82986814D01*
X134311559Y-83070578D01*
X128727179Y-83070578D01*
X128727314Y-83070500D01*
X128820500Y-82977314D01*
X128859216Y-82910255D01*
X128909782Y-82862040D01*
X128978389Y-82848816D01*
X129029265Y-82868830D01*
X129030648Y-82866436D01*
X129037684Y-82870498D01*
X129037686Y-82870500D01*
X129151814Y-82936392D01*
X129279108Y-82970500D01*
X129279110Y-82970500D01*
X129410890Y-82970500D01*
X129410892Y-82970500D01*
X129538186Y-82936392D01*
X129652314Y-82870500D01*
X129745500Y-82777314D01*
X129811392Y-82663186D01*
X129845500Y-82535892D01*
X129845500Y-82404108D01*
X129811392Y-82276814D01*
X129810137Y-82274641D01*
X129792735Y-82244500D01*
X129745500Y-82162686D01*
X129652314Y-82069500D01*
X129595250Y-82036554D01*
X129538187Y-82003608D01*
X129474539Y-81986554D01*
X129410892Y-81969500D01*
X129279108Y-81969500D01*
X129151812Y-82003608D01*
X129037686Y-82069500D01*
X129037683Y-82069502D01*
X128944502Y-82162683D01*
X128944496Y-82162692D01*
X128905782Y-82229745D01*
X128855215Y-82277960D01*
X128786608Y-82291182D01*
X128735733Y-82271171D01*
X128734352Y-82273564D01*
X128727315Y-82269501D01*
X128727314Y-82269500D01*
X128672684Y-82237959D01*
X128613187Y-82203608D01*
X128549539Y-82186554D01*
X128485892Y-82169500D01*
X128354108Y-82169500D01*
X128226812Y-82203608D01*
X128112686Y-82269500D01*
X128112683Y-82269502D01*
X128019502Y-82362683D01*
X128019500Y-82362686D01*
X127953608Y-82476812D01*
X127925826Y-82580499D01*
X127919500Y-82604108D01*
X108820500Y-82604108D01*
X108820500Y-82011608D01*
X115309500Y-82011608D01*
X115309500Y-82143392D01*
X115316496Y-82169500D01*
X115343608Y-82270687D01*
X115355441Y-82291182D01*
X115409500Y-82384814D01*
X115502686Y-82478000D01*
X115616814Y-82543892D01*
X115744108Y-82578000D01*
X115744110Y-82578000D01*
X115875890Y-82578000D01*
X115875892Y-82578000D01*
X116003186Y-82543892D01*
X116117314Y-82478000D01*
X116210500Y-82384814D01*
X116276392Y-82270686D01*
X116310500Y-82143392D01*
X116310500Y-82014108D01*
X122529500Y-82014108D01*
X122529500Y-82145891D01*
X122563608Y-82273187D01*
X122566364Y-82277960D01*
X122629500Y-82387314D01*
X122722686Y-82480500D01*
X122818624Y-82535890D01*
X122836810Y-82546390D01*
X122836814Y-82546392D01*
X122964108Y-82580500D01*
X122964110Y-82580500D01*
X123095890Y-82580500D01*
X123095892Y-82580500D01*
X123223186Y-82546392D01*
X123337314Y-82480500D01*
X123430500Y-82387314D01*
X123496392Y-82273186D01*
X123530500Y-82145892D01*
X123530500Y-82014108D01*
X123496392Y-81886814D01*
X123494947Y-81884312D01*
X123473054Y-81846392D01*
X123430500Y-81772686D01*
X123337314Y-81679500D01*
X123280250Y-81646554D01*
X123223187Y-81613608D01*
X123159539Y-81596554D01*
X123095892Y-81579500D01*
X122964108Y-81579500D01*
X122836812Y-81613608D01*
X122722686Y-81679500D01*
X122722683Y-81679502D01*
X122629502Y-81772683D01*
X122629500Y-81772686D01*
X122563608Y-81886812D01*
X122529500Y-82014108D01*
X116310500Y-82014108D01*
X116310500Y-82011608D01*
X116276392Y-81884314D01*
X116274189Y-81880499D01*
X116267563Y-81869021D01*
X116210500Y-81770186D01*
X116117314Y-81677000D01*
X116060250Y-81644054D01*
X116003187Y-81611108D01*
X115939539Y-81594054D01*
X115875892Y-81577000D01*
X115744108Y-81577000D01*
X115616812Y-81611108D01*
X115502686Y-81677000D01*
X115502683Y-81677002D01*
X115409502Y-81770183D01*
X115409500Y-81770186D01*
X115343608Y-81884312D01*
X115342938Y-81886814D01*
X115309500Y-82011608D01*
X108820500Y-82011608D01*
X108820500Y-80734108D01*
X129444500Y-80734108D01*
X129444500Y-80865892D01*
X129457285Y-80913608D01*
X129478608Y-80993187D01*
X129495929Y-81023187D01*
X129544500Y-81107314D01*
X129637686Y-81200500D01*
X129751814Y-81266392D01*
X129879108Y-81300500D01*
X129879110Y-81300500D01*
X130010890Y-81300500D01*
X130010892Y-81300500D01*
X130138186Y-81266392D01*
X130252314Y-81200500D01*
X130345500Y-81107314D01*
X130358474Y-81084843D01*
X130628765Y-81084843D01*
X130628765Y-81216627D01*
X130632482Y-81230499D01*
X130662873Y-81343922D01*
X130695819Y-81400985D01*
X130728765Y-81458049D01*
X130821951Y-81551235D01*
X130936079Y-81617127D01*
X131063373Y-81651235D01*
X131063375Y-81651235D01*
X131195155Y-81651235D01*
X131195157Y-81651235D01*
X131322451Y-81617127D01*
X131436579Y-81551235D01*
X131529765Y-81458049D01*
X131595657Y-81343921D01*
X131603645Y-81314108D01*
X145899500Y-81314108D01*
X145899500Y-81445892D01*
X145902758Y-81458051D01*
X145933608Y-81573187D01*
X145937253Y-81579500D01*
X145999500Y-81687314D01*
X146092686Y-81780500D01*
X146206814Y-81846392D01*
X146334108Y-81880500D01*
X146334110Y-81880500D01*
X146465890Y-81880500D01*
X146465892Y-81880500D01*
X146593186Y-81846392D01*
X146707314Y-81780500D01*
X146800500Y-81687314D01*
X146866392Y-81573186D01*
X146900500Y-81445892D01*
X146900500Y-81314108D01*
X146866392Y-81186814D01*
X146800500Y-81072686D01*
X146707314Y-80979500D01*
X146650250Y-80946554D01*
X146593187Y-80913608D01*
X146527061Y-80895890D01*
X146465892Y-80879500D01*
X146334108Y-80879500D01*
X146206812Y-80913608D01*
X146092686Y-80979500D01*
X146092683Y-80979502D01*
X145999502Y-81072683D01*
X145999500Y-81072686D01*
X145933608Y-81186812D01*
X145912285Y-81266392D01*
X145899500Y-81314108D01*
X131603645Y-81314108D01*
X131629765Y-81216627D01*
X131629765Y-81084843D01*
X131595657Y-80957549D01*
X131529765Y-80843421D01*
X131436579Y-80750235D01*
X131379515Y-80717289D01*
X131322452Y-80684343D01*
X131258804Y-80667289D01*
X131195157Y-80650235D01*
X131063373Y-80650235D01*
X130936077Y-80684343D01*
X130821951Y-80750235D01*
X130821948Y-80750237D01*
X130728767Y-80843418D01*
X130728765Y-80843421D01*
X130683801Y-80921299D01*
X130683799Y-80921302D01*
X130662873Y-80957549D01*
X130628765Y-81084843D01*
X130358474Y-81084843D01*
X130411392Y-80993186D01*
X130445500Y-80865892D01*
X130445500Y-80734108D01*
X130411392Y-80606814D01*
X130345500Y-80492686D01*
X130252314Y-80399500D01*
X130163436Y-80348186D01*
X130138187Y-80333608D01*
X130074539Y-80316554D01*
X130010892Y-80299500D01*
X129879108Y-80299500D01*
X129751812Y-80333608D01*
X129637686Y-80399500D01*
X129637683Y-80399502D01*
X129544502Y-80492683D01*
X129544500Y-80492686D01*
X129478608Y-80606812D01*
X129468673Y-80643891D01*
X129444500Y-80734108D01*
X108820500Y-80734108D01*
X108820500Y-79264108D01*
X127629500Y-79264108D01*
X127629500Y-79395892D01*
X127638447Y-79429283D01*
X127663608Y-79523187D01*
X127669382Y-79533187D01*
X127729500Y-79637314D01*
X127822686Y-79730500D01*
X127903230Y-79777002D01*
X127943853Y-79800456D01*
X127942399Y-79802973D01*
X127985904Y-79838032D01*
X128007970Y-79904326D01*
X127991438Y-79970750D01*
X127983609Y-79984310D01*
X127983609Y-79984311D01*
X127983609Y-79984312D01*
X127983608Y-79984314D01*
X127949500Y-80111608D01*
X127949500Y-80243392D01*
X127963567Y-80295890D01*
X127983608Y-80370687D01*
X128016554Y-80427750D01*
X128049500Y-80484814D01*
X128142686Y-80578000D01*
X128241521Y-80635063D01*
X128256810Y-80643890D01*
X128256814Y-80643892D01*
X128384108Y-80678000D01*
X128384110Y-80678000D01*
X128515890Y-80678000D01*
X128515892Y-80678000D01*
X128643186Y-80643892D01*
X128757314Y-80578000D01*
X128850500Y-80484814D01*
X128916392Y-80370686D01*
X128950500Y-80243392D01*
X128950500Y-80111608D01*
X128944471Y-80089107D01*
X137293026Y-80089107D01*
X137293026Y-80220890D01*
X137327134Y-80348186D01*
X137356761Y-80399500D01*
X137393026Y-80462313D01*
X137486212Y-80555499D01*
X137600340Y-80621391D01*
X137725161Y-80654836D01*
X137784819Y-80691200D01*
X137815349Y-80754046D01*
X137817066Y-80774610D01*
X137817066Y-80825891D01*
X137851174Y-80953187D01*
X137884120Y-81010250D01*
X137917066Y-81067314D01*
X138010252Y-81160500D01*
X138124380Y-81226392D01*
X138251674Y-81260500D01*
X138251676Y-81260500D01*
X138383456Y-81260500D01*
X138383458Y-81260500D01*
X138510752Y-81226392D01*
X138624880Y-81160500D01*
X138718066Y-81067314D01*
X138783958Y-80953186D01*
X138818066Y-80825892D01*
X138818066Y-80764108D01*
X164159500Y-80764108D01*
X164159500Y-80895891D01*
X164193608Y-81023187D01*
X164222185Y-81072683D01*
X164259500Y-81137314D01*
X164352686Y-81230500D01*
X164466814Y-81296392D01*
X164594108Y-81330500D01*
X164594110Y-81330500D01*
X164725890Y-81330500D01*
X164725892Y-81330500D01*
X164853186Y-81296392D01*
X164967314Y-81230500D01*
X165060500Y-81137314D01*
X165126392Y-81023186D01*
X165160500Y-80895892D01*
X165160500Y-80764108D01*
X165126392Y-80636814D01*
X165060500Y-80522686D01*
X164967314Y-80429500D01*
X164910250Y-80396554D01*
X164853187Y-80363608D01*
X164741223Y-80333608D01*
X164725892Y-80329500D01*
X164594108Y-80329500D01*
X164466812Y-80363608D01*
X164352686Y-80429500D01*
X164352683Y-80429502D01*
X164259502Y-80522683D01*
X164259500Y-80522686D01*
X164193608Y-80636812D01*
X164159500Y-80764108D01*
X138818066Y-80764108D01*
X138818066Y-80694108D01*
X138783958Y-80566814D01*
X138718066Y-80452686D01*
X138624880Y-80359500D01*
X138510752Y-80293608D01*
X138444126Y-80275755D01*
X138385933Y-80260163D01*
X138326272Y-80223798D01*
X138297277Y-80164108D01*
X140309500Y-80164108D01*
X140309500Y-80295891D01*
X140343608Y-80423187D01*
X140360638Y-80452683D01*
X140409500Y-80537314D01*
X140502686Y-80630500D01*
X140616814Y-80696392D01*
X140744108Y-80730500D01*
X140744110Y-80730500D01*
X140875890Y-80730500D01*
X140875892Y-80730500D01*
X141003186Y-80696392D01*
X141117314Y-80630500D01*
X141210500Y-80537314D01*
X141276392Y-80423186D01*
X141310500Y-80295892D01*
X141310500Y-80164108D01*
X141276392Y-80036814D01*
X141210500Y-79922686D01*
X141117314Y-79829500D01*
X141059969Y-79796392D01*
X141003187Y-79763608D01*
X140916941Y-79740499D01*
X140875892Y-79729500D01*
X140744108Y-79729500D01*
X140616812Y-79763608D01*
X140502686Y-79829500D01*
X140502683Y-79829502D01*
X140409502Y-79922683D01*
X140409500Y-79922686D01*
X140343608Y-80036812D01*
X140309500Y-80164108D01*
X138297277Y-80164108D01*
X138295743Y-80160951D01*
X138294026Y-80140388D01*
X138294026Y-80089109D01*
X138294026Y-80089107D01*
X138259918Y-79961813D01*
X138194026Y-79847685D01*
X138100840Y-79754499D01*
X138018646Y-79707044D01*
X137986713Y-79688607D01*
X137915194Y-79669444D01*
X137859418Y-79654499D01*
X137727634Y-79654499D01*
X137600338Y-79688607D01*
X137486212Y-79754499D01*
X137486209Y-79754501D01*
X137393028Y-79847682D01*
X137393026Y-79847685D01*
X137327134Y-79961811D01*
X137293026Y-80089107D01*
X128944471Y-80089107D01*
X128916392Y-79984314D01*
X128850500Y-79870186D01*
X128757314Y-79777000D01*
X128643186Y-79711108D01*
X128643185Y-79711107D01*
X128636147Y-79707044D01*
X128637598Y-79704530D01*
X128594078Y-79669444D01*
X128572028Y-79603145D01*
X128588565Y-79536743D01*
X128596390Y-79523189D01*
X128596392Y-79523186D01*
X128630500Y-79395892D01*
X128630500Y-79264108D01*
X128596392Y-79136814D01*
X128530500Y-79022686D01*
X128437314Y-78929500D01*
X128380250Y-78896554D01*
X128323187Y-78863608D01*
X128259539Y-78846554D01*
X128195892Y-78829500D01*
X128064108Y-78829500D01*
X127936812Y-78863608D01*
X127822686Y-78929500D01*
X127822683Y-78929502D01*
X127729502Y-79022683D01*
X127729500Y-79022686D01*
X127663608Y-79136812D01*
X127645611Y-79203980D01*
X127629500Y-79264108D01*
X108820500Y-79264108D01*
X108820500Y-78514108D01*
X129809500Y-78514108D01*
X129809500Y-78645892D01*
X129818425Y-78679200D01*
X129843608Y-78773187D01*
X129874604Y-78826872D01*
X129909500Y-78887314D01*
X130002686Y-78980500D01*
X130116814Y-79046392D01*
X130244108Y-79080500D01*
X130244110Y-79080500D01*
X130375890Y-79080500D01*
X130375892Y-79080500D01*
X130503186Y-79046392D01*
X130617314Y-78980500D01*
X130700814Y-78897000D01*
X139012392Y-78897000D01*
X139012392Y-79028783D01*
X139046500Y-79156079D01*
X139074156Y-79203980D01*
X139112392Y-79270206D01*
X139205578Y-79363392D01*
X139319706Y-79429284D01*
X139447000Y-79463392D01*
X139447002Y-79463392D01*
X139578782Y-79463392D01*
X139578784Y-79463392D01*
X139706078Y-79429284D01*
X139820206Y-79363392D01*
X139909490Y-79274108D01*
X151559500Y-79274108D01*
X151559500Y-79405891D01*
X151593608Y-79533187D01*
X151626554Y-79590250D01*
X151659500Y-79647314D01*
X151752686Y-79740500D01*
X151849494Y-79796392D01*
X151856532Y-79800456D01*
X151866814Y-79806392D01*
X151994108Y-79840500D01*
X151994110Y-79840500D01*
X152125890Y-79840500D01*
X152125892Y-79840500D01*
X152253186Y-79806392D01*
X152367314Y-79740500D01*
X152460500Y-79647314D01*
X152526392Y-79533186D01*
X152560500Y-79405892D01*
X152560500Y-79274108D01*
X152526392Y-79146814D01*
X152520618Y-79136814D01*
X152488105Y-79080500D01*
X152460500Y-79032686D01*
X152367314Y-78939500D01*
X152310250Y-78906554D01*
X152253187Y-78873608D01*
X152189539Y-78856554D01*
X152125892Y-78839500D01*
X151994108Y-78839500D01*
X151866812Y-78873608D01*
X151752686Y-78939500D01*
X151752683Y-78939502D01*
X151659502Y-79032683D01*
X151659500Y-79032686D01*
X151593608Y-79146812D01*
X151559500Y-79274108D01*
X139909490Y-79274108D01*
X139913392Y-79270206D01*
X139979284Y-79156078D01*
X140013392Y-79028784D01*
X140013392Y-78897000D01*
X139979284Y-78769706D01*
X139913392Y-78655578D01*
X139820206Y-78562392D01*
X139763142Y-78529446D01*
X139706079Y-78496500D01*
X139642431Y-78479446D01*
X139578784Y-78462392D01*
X139447000Y-78462392D01*
X139319704Y-78496500D01*
X139205578Y-78562392D01*
X139205575Y-78562394D01*
X139112394Y-78655575D01*
X139112392Y-78655578D01*
X139046500Y-78769704D01*
X139012392Y-78897000D01*
X130700814Y-78897000D01*
X130710500Y-78887314D01*
X130728721Y-78855752D01*
X130745396Y-78826873D01*
X130745396Y-78826872D01*
X130776391Y-78773187D01*
X130776392Y-78773186D01*
X130810500Y-78645892D01*
X130810500Y-78514108D01*
X130776392Y-78386814D01*
X130710500Y-78272686D01*
X130617314Y-78179500D01*
X130560250Y-78146554D01*
X130503187Y-78113608D01*
X130500205Y-78112809D01*
X137729498Y-78112809D01*
X137729498Y-78244593D01*
X137746552Y-78308240D01*
X137763606Y-78371888D01*
X137772223Y-78386812D01*
X137829498Y-78486015D01*
X137922684Y-78579201D01*
X138036812Y-78645093D01*
X138164106Y-78679201D01*
X138164108Y-78679201D01*
X138295888Y-78679201D01*
X138295890Y-78679201D01*
X138423184Y-78645093D01*
X138537312Y-78579201D01*
X138630498Y-78486015D01*
X138696390Y-78371887D01*
X138730498Y-78244593D01*
X138730498Y-78112809D01*
X138717976Y-78066076D01*
X138719639Y-77996230D01*
X138758801Y-77938368D01*
X138805655Y-77914212D01*
X138908696Y-77886603D01*
X139022824Y-77820711D01*
X139116010Y-77727525D01*
X139181902Y-77613397D01*
X139216010Y-77486103D01*
X139216010Y-77354319D01*
X139215132Y-77351042D01*
X139215200Y-77348171D01*
X139214949Y-77346263D01*
X139215246Y-77346223D01*
X139216791Y-77281197D01*
X139255950Y-77223332D01*
X139302813Y-77199171D01*
X139313186Y-77196392D01*
X139427314Y-77130500D01*
X139520500Y-77037314D01*
X139586392Y-76923186D01*
X139620500Y-76795892D01*
X139620500Y-76664108D01*
X139586392Y-76536814D01*
X139520500Y-76422686D01*
X139427314Y-76329500D01*
X139370250Y-76296554D01*
X139313187Y-76263608D01*
X139249539Y-76246554D01*
X139185892Y-76229500D01*
X139054108Y-76229500D01*
X138926812Y-76263608D01*
X138812686Y-76329500D01*
X138812683Y-76329502D01*
X138719502Y-76422683D01*
X138719500Y-76422686D01*
X138653608Y-76536812D01*
X138619500Y-76664108D01*
X138619500Y-76795892D01*
X138619595Y-76796248D01*
X138620379Y-76799171D01*
X138620310Y-76802045D01*
X138620561Y-76803948D01*
X138620264Y-76803987D01*
X138618716Y-76869020D01*
X138579554Y-76926883D01*
X138532703Y-76951037D01*
X138522326Y-76953817D01*
X138522324Y-76953818D01*
X138408196Y-77019711D01*
X138408193Y-77019713D01*
X138315012Y-77112894D01*
X138315010Y-77112897D01*
X138249118Y-77227023D01*
X138215010Y-77354319D01*
X138215010Y-77486102D01*
X138227531Y-77532832D01*
X138225868Y-77602682D01*
X138186705Y-77660544D01*
X138139850Y-77684700D01*
X138098286Y-77695837D01*
X138036812Y-77712309D01*
X138036810Y-77712309D01*
X138036810Y-77712310D01*
X137922684Y-77778201D01*
X137922681Y-77778203D01*
X137829500Y-77871384D01*
X137829498Y-77871387D01*
X137763606Y-77985513D01*
X137742019Y-78066080D01*
X137729498Y-78112809D01*
X130500205Y-78112809D01*
X130439539Y-78096554D01*
X130375892Y-78079500D01*
X130244108Y-78079500D01*
X130116812Y-78113608D01*
X130002686Y-78179500D01*
X130002683Y-78179502D01*
X129909502Y-78272683D01*
X129909500Y-78272686D01*
X129843608Y-78386812D01*
X129823357Y-78462392D01*
X129809500Y-78514108D01*
X108820500Y-78514108D01*
X108820500Y-77130856D01*
X134560008Y-77130856D01*
X134560008Y-77262639D01*
X134594116Y-77389935D01*
X134627062Y-77446998D01*
X134660008Y-77504062D01*
X134753194Y-77597248D01*
X134852029Y-77654311D01*
X134862825Y-77660544D01*
X134867322Y-77663140D01*
X134994616Y-77697248D01*
X134994618Y-77697248D01*
X135126398Y-77697248D01*
X135126400Y-77697248D01*
X135253694Y-77663140D01*
X135367822Y-77597248D01*
X135461008Y-77504062D01*
X135526900Y-77389934D01*
X135561008Y-77262640D01*
X135561008Y-77130856D01*
X135526900Y-77003562D01*
X135461008Y-76889434D01*
X135367822Y-76796248D01*
X135310758Y-76763302D01*
X135253695Y-76730356D01*
X135190047Y-76713302D01*
X135126400Y-76696248D01*
X134994616Y-76696248D01*
X134867320Y-76730356D01*
X134753194Y-76796248D01*
X134753191Y-76796250D01*
X134660010Y-76889431D01*
X134660008Y-76889434D01*
X134594116Y-77003560D01*
X134560008Y-77130856D01*
X108820500Y-77130856D01*
X108820500Y-75914843D01*
X147053079Y-75914843D01*
X147053079Y-76046626D01*
X147087187Y-76173922D01*
X147119276Y-76229500D01*
X147153079Y-76288049D01*
X147246265Y-76381235D01*
X147360393Y-76447127D01*
X147487687Y-76481235D01*
X147487689Y-76481235D01*
X147619469Y-76481235D01*
X147619471Y-76481235D01*
X147746765Y-76447127D01*
X147860893Y-76381235D01*
X147954079Y-76288049D01*
X148019971Y-76173921D01*
X148054079Y-76046627D01*
X148054079Y-75914843D01*
X148019971Y-75787549D01*
X147954079Y-75673421D01*
X147860893Y-75580235D01*
X147803829Y-75547289D01*
X147746766Y-75514343D01*
X147683118Y-75497289D01*
X147619471Y-75480235D01*
X147487687Y-75480235D01*
X147360391Y-75514343D01*
X147246265Y-75580235D01*
X147246262Y-75580237D01*
X147153081Y-75673418D01*
X147153079Y-75673421D01*
X147087187Y-75787547D01*
X147053079Y-75914843D01*
X108820500Y-75914843D01*
X108820500Y-74744108D01*
X114969500Y-74744108D01*
X114969500Y-74875891D01*
X115003608Y-75003187D01*
X115036554Y-75060250D01*
X115069500Y-75117314D01*
X115162686Y-75210500D01*
X115276814Y-75276392D01*
X115404108Y-75310500D01*
X115404110Y-75310500D01*
X115535890Y-75310500D01*
X115535892Y-75310500D01*
X115663186Y-75276392D01*
X115777314Y-75210500D01*
X115870500Y-75117314D01*
X115936392Y-75003186D01*
X115970500Y-74875892D01*
X115970500Y-74744108D01*
X115936392Y-74616814D01*
X115870500Y-74502686D01*
X115870495Y-74502681D01*
X115865553Y-74496240D01*
X115868369Y-74494078D01*
X115842676Y-74447024D01*
X115847660Y-74377332D01*
X115887504Y-74324108D01*
X131119500Y-74324108D01*
X131119500Y-74455892D01*
X131132038Y-74502686D01*
X131153608Y-74583187D01*
X131173022Y-74616812D01*
X131219500Y-74697314D01*
X131312686Y-74790500D01*
X131426814Y-74856392D01*
X131554108Y-74890500D01*
X131554110Y-74890500D01*
X131685890Y-74890500D01*
X131685892Y-74890500D01*
X131813186Y-74856392D01*
X131895280Y-74808995D01*
X165389499Y-74808995D01*
X165416418Y-74944322D01*
X165416421Y-74944332D01*
X165469221Y-75071804D01*
X165469228Y-75071817D01*
X165545885Y-75186541D01*
X165545888Y-75186545D01*
X165643454Y-75284111D01*
X165643458Y-75284114D01*
X165758182Y-75360771D01*
X165758195Y-75360778D01*
X165885667Y-75413578D01*
X165885672Y-75413580D01*
X165885676Y-75413580D01*
X165885677Y-75413581D01*
X166021004Y-75440500D01*
X166021007Y-75440500D01*
X166158995Y-75440500D01*
X166250041Y-75422389D01*
X166294328Y-75413580D01*
X166421811Y-75360775D01*
X166536542Y-75284114D01*
X166634114Y-75186542D01*
X166710775Y-75071811D01*
X166763580Y-74944328D01*
X166790500Y-74808993D01*
X166790500Y-74671007D01*
X166790500Y-74671004D01*
X166763581Y-74535677D01*
X166763580Y-74535676D01*
X166763580Y-74535672D01*
X166763578Y-74535667D01*
X166710778Y-74408195D01*
X166710771Y-74408182D01*
X166634114Y-74293458D01*
X166634111Y-74293454D01*
X166536545Y-74195888D01*
X166536541Y-74195885D01*
X166421817Y-74119228D01*
X166421804Y-74119221D01*
X166294332Y-74066421D01*
X166294322Y-74066418D01*
X166158995Y-74039500D01*
X166158993Y-74039500D01*
X166021007Y-74039500D01*
X166021005Y-74039500D01*
X165885677Y-74066418D01*
X165885667Y-74066421D01*
X165758195Y-74119221D01*
X165758182Y-74119228D01*
X165643458Y-74195885D01*
X165643454Y-74195888D01*
X165545888Y-74293454D01*
X165545885Y-74293458D01*
X165469228Y-74408182D01*
X165469221Y-74408195D01*
X165416421Y-74535667D01*
X165416418Y-74535677D01*
X165389500Y-74671004D01*
X165389500Y-74671007D01*
X165389500Y-74808993D01*
X165389500Y-74808995D01*
X165389499Y-74808995D01*
X131895280Y-74808995D01*
X131927314Y-74790500D01*
X132020500Y-74697314D01*
X132077440Y-74598690D01*
X132128006Y-74550477D01*
X132196613Y-74537253D01*
X132246825Y-74553304D01*
X132286814Y-74576392D01*
X132414108Y-74610500D01*
X132414110Y-74610500D01*
X132545890Y-74610500D01*
X132545892Y-74610500D01*
X132673186Y-74576392D01*
X132787314Y-74510500D01*
X132880500Y-74417314D01*
X132897553Y-74387776D01*
X132948120Y-74339562D01*
X133016727Y-74326338D01*
X133066939Y-74342389D01*
X133127461Y-74377332D01*
X133145552Y-74387777D01*
X133151814Y-74391392D01*
X133279108Y-74425500D01*
X133279110Y-74425500D01*
X133410890Y-74425500D01*
X133410892Y-74425500D01*
X133538186Y-74391392D01*
X133652314Y-74325500D01*
X133745500Y-74232314D01*
X133747790Y-74228347D01*
X134313739Y-74228347D01*
X134313739Y-74360130D01*
X134347847Y-74487426D01*
X134361169Y-74510500D01*
X134413739Y-74601553D01*
X134506925Y-74694739D01*
X134621053Y-74760631D01*
X134748347Y-74794739D01*
X134748349Y-74794739D01*
X134880129Y-74794739D01*
X134880131Y-74794739D01*
X135007425Y-74760631D01*
X135121553Y-74694739D01*
X135214739Y-74601553D01*
X135280631Y-74487425D01*
X135314739Y-74360131D01*
X135314739Y-74228347D01*
X135280631Y-74101053D01*
X135214739Y-73986925D01*
X135121553Y-73893739D01*
X135061571Y-73859108D01*
X135007426Y-73827847D01*
X134913522Y-73802686D01*
X134880131Y-73793739D01*
X134748347Y-73793739D01*
X134621051Y-73827847D01*
X134506925Y-73893739D01*
X134506922Y-73893741D01*
X134413741Y-73986922D01*
X134413739Y-73986925D01*
X134347847Y-74101051D01*
X134313739Y-74228347D01*
X133747790Y-74228347D01*
X133811392Y-74118186D01*
X133845500Y-73990892D01*
X133845500Y-73859108D01*
X133811392Y-73731814D01*
X133745500Y-73617686D01*
X133734308Y-73606494D01*
X135784119Y-73606494D01*
X135784119Y-73738278D01*
X135784447Y-73739502D01*
X135818227Y-73865573D01*
X135824185Y-73875892D01*
X135884119Y-73979700D01*
X135977305Y-74072886D01*
X136091433Y-74138778D01*
X136218727Y-74172886D01*
X136218729Y-74172886D01*
X136350509Y-74172886D01*
X136350511Y-74172886D01*
X136477805Y-74138778D01*
X136589816Y-74074108D01*
X151579500Y-74074108D01*
X151579500Y-74205892D01*
X151596554Y-74269539D01*
X151613608Y-74333187D01*
X151639096Y-74377332D01*
X151679500Y-74447314D01*
X151772686Y-74540500D01*
X151846622Y-74583187D01*
X151886810Y-74606390D01*
X151886814Y-74606392D01*
X152014108Y-74640500D01*
X152014110Y-74640500D01*
X152145890Y-74640500D01*
X152145892Y-74640500D01*
X152273186Y-74606392D01*
X152387314Y-74540500D01*
X152480500Y-74447314D01*
X152546392Y-74333186D01*
X152580500Y-74205892D01*
X152580500Y-74074108D01*
X152546392Y-73946814D01*
X152480500Y-73832686D01*
X152387314Y-73739500D01*
X152330250Y-73706554D01*
X152273187Y-73673608D01*
X152174722Y-73647225D01*
X152145892Y-73639500D01*
X152014108Y-73639500D01*
X151886812Y-73673608D01*
X151772686Y-73739500D01*
X151772683Y-73739502D01*
X151679502Y-73832683D01*
X151679500Y-73832686D01*
X151613608Y-73946812D01*
X151581560Y-74066420D01*
X151579500Y-74074108D01*
X136589816Y-74074108D01*
X136591933Y-74072886D01*
X136685119Y-73979700D01*
X136751011Y-73865572D01*
X136785119Y-73738278D01*
X136785119Y-73606494D01*
X136751011Y-73479200D01*
X136685119Y-73365072D01*
X136591933Y-73271886D01*
X136534869Y-73238940D01*
X136477806Y-73205994D01*
X136414158Y-73188940D01*
X136350511Y-73171886D01*
X136218727Y-73171886D01*
X136091431Y-73205994D01*
X135977305Y-73271886D01*
X135977302Y-73271888D01*
X135884121Y-73365069D01*
X135884119Y-73365072D01*
X135818227Y-73479198D01*
X135811934Y-73502686D01*
X135784119Y-73606494D01*
X133734308Y-73606494D01*
X133652314Y-73524500D01*
X133595250Y-73491554D01*
X133538187Y-73458608D01*
X133474539Y-73441554D01*
X133410892Y-73424500D01*
X133279108Y-73424500D01*
X133151812Y-73458608D01*
X133037686Y-73524500D01*
X133037683Y-73524502D01*
X132944502Y-73617683D01*
X132944495Y-73617692D01*
X132927444Y-73647225D01*
X132876876Y-73695439D01*
X132808268Y-73708660D01*
X132758059Y-73692609D01*
X132673189Y-73643609D01*
X132673186Y-73643608D01*
X132545892Y-73609500D01*
X132414108Y-73609500D01*
X132286812Y-73643608D01*
X132172686Y-73709500D01*
X132172683Y-73709502D01*
X132079502Y-73802683D01*
X132079500Y-73802686D01*
X132022560Y-73901308D01*
X131971992Y-73949523D01*
X131903385Y-73962745D01*
X131853173Y-73946694D01*
X131813189Y-73923609D01*
X131813186Y-73923608D01*
X131685892Y-73889500D01*
X131554108Y-73889500D01*
X131426812Y-73923608D01*
X131312686Y-73989500D01*
X131312683Y-73989502D01*
X131219502Y-74082683D01*
X131219500Y-74082686D01*
X131153608Y-74196812D01*
X131126335Y-74298600D01*
X131119500Y-74324108D01*
X115887504Y-74324108D01*
X115889532Y-74321399D01*
X115931745Y-74300893D01*
X116023186Y-74276392D01*
X116137314Y-74210500D01*
X116230500Y-74117314D01*
X116296392Y-74003186D01*
X116330500Y-73875892D01*
X116330500Y-73744108D01*
X116296392Y-73616814D01*
X116230500Y-73502686D01*
X116137314Y-73409500D01*
X116060363Y-73365072D01*
X116023187Y-73343608D01*
X115959539Y-73326554D01*
X115895892Y-73309500D01*
X115764108Y-73309500D01*
X115636812Y-73343608D01*
X115522686Y-73409500D01*
X115522683Y-73409502D01*
X115429502Y-73502683D01*
X115429500Y-73502686D01*
X115363608Y-73616812D01*
X115329500Y-73744108D01*
X115329500Y-73875891D01*
X115363608Y-74003187D01*
X115384574Y-74039500D01*
X115429500Y-74117314D01*
X115429502Y-74117316D01*
X115434447Y-74123760D01*
X115431629Y-74125921D01*
X115457323Y-74172975D01*
X115452339Y-74242667D01*
X115410467Y-74298600D01*
X115368252Y-74319107D01*
X115276814Y-74343608D01*
X115276812Y-74343608D01*
X115276812Y-74343609D01*
X115162686Y-74409500D01*
X115162683Y-74409502D01*
X115069502Y-74502683D01*
X115069500Y-74502686D01*
X115003608Y-74616812D01*
X114969500Y-74744108D01*
X108820500Y-74744108D01*
X108820500Y-72584108D01*
X126149500Y-72584108D01*
X126149500Y-72715891D01*
X126183608Y-72843187D01*
X126216554Y-72900250D01*
X126249500Y-72957314D01*
X126342686Y-73050500D01*
X126456814Y-73116392D01*
X126584108Y-73150500D01*
X126584110Y-73150500D01*
X126715890Y-73150500D01*
X126715892Y-73150500D01*
X126843186Y-73116392D01*
X126957314Y-73050500D01*
X127050500Y-72957314D01*
X127116392Y-72843186D01*
X127150500Y-72715892D01*
X127150500Y-72584108D01*
X129979500Y-72584108D01*
X129979500Y-72715891D01*
X130013608Y-72843187D01*
X130046554Y-72900250D01*
X130079500Y-72957314D01*
X130172686Y-73050500D01*
X130286814Y-73116392D01*
X130414108Y-73150500D01*
X130414110Y-73150500D01*
X130545890Y-73150500D01*
X130545892Y-73150500D01*
X130673186Y-73116392D01*
X130787314Y-73050500D01*
X130880500Y-72957314D01*
X130946392Y-72843186D01*
X130980500Y-72715892D01*
X130980500Y-72584108D01*
X130946392Y-72456814D01*
X130880500Y-72342686D01*
X130787314Y-72249500D01*
X130768655Y-72238727D01*
X135384119Y-72238727D01*
X135384119Y-72370510D01*
X135418227Y-72497806D01*
X135428958Y-72516392D01*
X135484119Y-72611933D01*
X135577305Y-72705119D01*
X135691433Y-72771011D01*
X135818727Y-72805119D01*
X135818729Y-72805119D01*
X135950509Y-72805119D01*
X135950511Y-72805119D01*
X136077805Y-72771011D01*
X136191933Y-72705119D01*
X136285119Y-72611933D01*
X136351011Y-72497805D01*
X136385119Y-72370511D01*
X136385119Y-72238727D01*
X136351011Y-72111433D01*
X136285119Y-71997305D01*
X136191933Y-71904119D01*
X136109999Y-71856814D01*
X136077806Y-71838227D01*
X135962442Y-71807316D01*
X135950511Y-71804119D01*
X135818727Y-71804119D01*
X135691431Y-71838227D01*
X135577305Y-71904119D01*
X135577302Y-71904121D01*
X135484121Y-71997302D01*
X135484119Y-71997305D01*
X135418227Y-72111431D01*
X135384119Y-72238727D01*
X130768655Y-72238727D01*
X130724242Y-72213085D01*
X130716783Y-72207082D01*
X130702082Y-72185937D01*
X130684313Y-72167301D01*
X130682467Y-72157723D01*
X130676899Y-72149714D01*
X130675963Y-72123978D01*
X130671091Y-72098694D01*
X130674716Y-72089638D01*
X130674362Y-72079891D01*
X130687487Y-72057738D01*
X130697059Y-72033829D01*
X130705005Y-72028170D01*
X130709977Y-72019780D01*
X130732993Y-72008240D01*
X130753974Y-71993301D01*
X130762413Y-71990714D01*
X130853186Y-71966392D01*
X130967314Y-71900500D01*
X131060500Y-71807314D01*
X131126392Y-71693186D01*
X131160500Y-71565892D01*
X131160500Y-71434108D01*
X131126392Y-71306814D01*
X131060500Y-71192686D01*
X130967314Y-71099500D01*
X130910250Y-71066554D01*
X130853187Y-71033608D01*
X130789539Y-71016554D01*
X130725892Y-70999500D01*
X130594108Y-70999500D01*
X130466812Y-71033608D01*
X130352686Y-71099500D01*
X130352683Y-71099502D01*
X130259502Y-71192683D01*
X130259500Y-71192686D01*
X130193608Y-71306812D01*
X130159500Y-71434108D01*
X130159500Y-71565891D01*
X130193608Y-71693187D01*
X130222185Y-71742683D01*
X130259500Y-71807314D01*
X130352686Y-71900500D01*
X130407471Y-71932130D01*
X130455686Y-71982698D01*
X130468908Y-72051305D01*
X130442940Y-72116169D01*
X130386026Y-72156697D01*
X130377568Y-72159290D01*
X130286814Y-72183608D01*
X130286812Y-72183608D01*
X130286812Y-72183609D01*
X130172686Y-72249500D01*
X130172683Y-72249502D01*
X130079502Y-72342683D01*
X130079500Y-72342686D01*
X130013608Y-72456812D01*
X129979500Y-72584108D01*
X127150500Y-72584108D01*
X127116392Y-72456814D01*
X127050500Y-72342686D01*
X126957314Y-72249500D01*
X126883844Y-72207082D01*
X126843187Y-72183608D01*
X126779539Y-72166554D01*
X126715892Y-72149500D01*
X126584108Y-72149500D01*
X126456812Y-72183608D01*
X126342686Y-72249500D01*
X126342683Y-72249502D01*
X126249502Y-72342683D01*
X126249500Y-72342686D01*
X126183608Y-72456812D01*
X126149500Y-72584108D01*
X108820500Y-72584108D01*
X108820500Y-71984108D01*
X127865287Y-71984108D01*
X127865287Y-72115892D01*
X127876916Y-72159292D01*
X127899395Y-72243187D01*
X127932341Y-72300250D01*
X127965287Y-72357314D01*
X128058473Y-72450500D01*
X128140409Y-72497806D01*
X128172597Y-72516390D01*
X128172601Y-72516392D01*
X128299895Y-72550500D01*
X128299897Y-72550500D01*
X128431677Y-72550500D01*
X128431679Y-72550500D01*
X128558973Y-72516392D01*
X128673101Y-72450500D01*
X128766287Y-72357314D01*
X128832179Y-72243186D01*
X128866287Y-72115892D01*
X128866287Y-71984108D01*
X128832179Y-71856814D01*
X128766287Y-71742686D01*
X128673101Y-71649500D01*
X128616037Y-71616554D01*
X128558974Y-71583608D01*
X128492848Y-71565890D01*
X128431679Y-71549500D01*
X128299895Y-71549500D01*
X128172599Y-71583608D01*
X128058473Y-71649500D01*
X128058470Y-71649502D01*
X127965289Y-71742683D01*
X127965287Y-71742686D01*
X127899395Y-71856812D01*
X127880603Y-71926947D01*
X127865287Y-71984108D01*
X108820500Y-71984108D01*
X108820500Y-70374108D01*
X126199500Y-70374108D01*
X126199500Y-70505891D01*
X126233608Y-70633187D01*
X126266554Y-70690250D01*
X126299500Y-70747314D01*
X126392686Y-70840500D01*
X126506814Y-70906392D01*
X126634108Y-70940500D01*
X126634110Y-70940500D01*
X126765890Y-70940500D01*
X126765892Y-70940500D01*
X126893186Y-70906392D01*
X127007314Y-70840500D01*
X127100500Y-70747314D01*
X127166392Y-70633186D01*
X127200500Y-70505892D01*
X127200500Y-70398549D01*
X167479500Y-70398549D01*
X167479500Y-70621450D01*
X167479501Y-70621466D01*
X167508594Y-70842452D01*
X167508595Y-70842457D01*
X167508596Y-70842463D01*
X167525726Y-70906392D01*
X167566290Y-71057780D01*
X167566293Y-71057790D01*
X167583571Y-71099502D01*
X167651595Y-71263726D01*
X167763052Y-71456774D01*
X167763057Y-71456780D01*
X167763058Y-71456782D01*
X167898751Y-71633622D01*
X167898757Y-71633629D01*
X168056370Y-71791242D01*
X168056377Y-71791248D01*
X168117602Y-71838227D01*
X168233226Y-71926948D01*
X168426274Y-72038405D01*
X168472948Y-72057738D01*
X168613344Y-72115892D01*
X168632219Y-72123710D01*
X168847537Y-72181404D01*
X169068543Y-72210500D01*
X169068550Y-72210500D01*
X169291450Y-72210500D01*
X169291457Y-72210500D01*
X169512463Y-72181404D01*
X169727781Y-72123710D01*
X169933726Y-72038405D01*
X170126774Y-71926948D01*
X170303624Y-71791247D01*
X170461247Y-71633624D01*
X170596948Y-71456774D01*
X170708405Y-71263726D01*
X170793710Y-71057781D01*
X170851404Y-70842463D01*
X170880500Y-70621457D01*
X170880500Y-70398543D01*
X170851404Y-70177537D01*
X170793710Y-69962219D01*
X170784104Y-69939029D01*
X170708406Y-69756277D01*
X170708405Y-69756274D01*
X170596948Y-69563226D01*
X170539607Y-69488497D01*
X170461248Y-69386377D01*
X170461242Y-69386370D01*
X170303629Y-69228757D01*
X170303622Y-69228751D01*
X170126782Y-69093058D01*
X170126780Y-69093057D01*
X170126774Y-69093052D01*
X169933726Y-68981595D01*
X169933722Y-68981593D01*
X169727790Y-68896293D01*
X169727783Y-68896291D01*
X169727781Y-68896290D01*
X169512463Y-68838596D01*
X169512457Y-68838595D01*
X169512452Y-68838594D01*
X169291466Y-68809501D01*
X169291463Y-68809500D01*
X169291457Y-68809500D01*
X169068543Y-68809500D01*
X169068537Y-68809500D01*
X169068533Y-68809501D01*
X168847547Y-68838594D01*
X168847540Y-68838595D01*
X168847537Y-68838596D01*
X168714041Y-68874366D01*
X168632219Y-68896290D01*
X168632209Y-68896293D01*
X168426277Y-68981593D01*
X168426273Y-68981595D01*
X168233226Y-69093052D01*
X168233217Y-69093058D01*
X168056377Y-69228751D01*
X168056370Y-69228757D01*
X167898757Y-69386370D01*
X167898751Y-69386377D01*
X167763058Y-69563217D01*
X167763052Y-69563226D01*
X167651595Y-69756273D01*
X167651593Y-69756277D01*
X167566293Y-69962209D01*
X167566290Y-69962219D01*
X167508597Y-70177534D01*
X167508594Y-70177547D01*
X167479501Y-70398533D01*
X167479500Y-70398549D01*
X127200500Y-70398549D01*
X127200500Y-70374108D01*
X127181022Y-70301415D01*
X127180143Y-70296697D01*
X127183211Y-70266533D01*
X127183933Y-70236225D01*
X127186712Y-70232118D01*
X127187214Y-70227186D01*
X127206099Y-70203472D01*
X127223095Y-70178362D01*
X127227653Y-70176409D01*
X127230742Y-70172532D01*
X127259454Y-70162792D01*
X127287324Y-70150858D01*
X127294508Y-70150901D01*
X127296909Y-70150087D01*
X127300318Y-70150936D01*
X127305981Y-70150970D01*
X127305981Y-70150500D01*
X127445890Y-70150500D01*
X127445892Y-70150500D01*
X127573186Y-70116392D01*
X127687314Y-70050500D01*
X127780500Y-69957314D01*
X127846392Y-69843186D01*
X127880500Y-69715892D01*
X127880500Y-69650051D01*
X127900185Y-69583012D01*
X127952989Y-69537257D01*
X128022147Y-69527313D01*
X128066499Y-69542663D01*
X128086814Y-69554392D01*
X128214108Y-69588500D01*
X128214110Y-69588500D01*
X128345890Y-69588500D01*
X128345892Y-69588500D01*
X128473186Y-69554392D01*
X128587314Y-69488500D01*
X128680500Y-69395314D01*
X128746392Y-69281186D01*
X128780500Y-69153892D01*
X128780500Y-69147676D01*
X128800185Y-69080637D01*
X128852989Y-69034882D01*
X128922147Y-69024938D01*
X128985703Y-69053963D01*
X128992181Y-69059995D01*
X129082686Y-69150500D01*
X129196814Y-69216392D01*
X129324108Y-69250500D01*
X129324110Y-69250500D01*
X129455890Y-69250500D01*
X129455892Y-69250500D01*
X129583186Y-69216392D01*
X129697314Y-69150500D01*
X129773355Y-69074458D01*
X129834674Y-69040976D01*
X129904366Y-69045960D01*
X129960300Y-69087831D01*
X129968419Y-69100140D01*
X129972561Y-69107314D01*
X130065747Y-69200500D01*
X130179875Y-69266392D01*
X130307169Y-69300500D01*
X130307171Y-69300500D01*
X130438951Y-69300500D01*
X130438953Y-69300500D01*
X130566247Y-69266392D01*
X130680375Y-69200500D01*
X130773561Y-69107314D01*
X130839453Y-68993186D01*
X130873561Y-68865892D01*
X130873561Y-68734108D01*
X130856814Y-68671608D01*
X150419500Y-68671608D01*
X150419500Y-68803392D01*
X150428932Y-68838594D01*
X150453608Y-68930687D01*
X150482999Y-68981593D01*
X150519500Y-69044814D01*
X150612686Y-69138000D01*
X150726814Y-69203892D01*
X150854108Y-69238000D01*
X150854110Y-69238000D01*
X150985890Y-69238000D01*
X150985892Y-69238000D01*
X151113186Y-69203892D01*
X151227314Y-69138000D01*
X151320500Y-69044814D01*
X151386392Y-68930686D01*
X151420500Y-68803392D01*
X151420500Y-68671608D01*
X151386392Y-68544314D01*
X151320500Y-68430186D01*
X151227314Y-68337000D01*
X151134837Y-68283608D01*
X151113187Y-68271108D01*
X151032543Y-68249500D01*
X150985892Y-68237000D01*
X150854108Y-68237000D01*
X150726812Y-68271108D01*
X150612686Y-68337000D01*
X150612683Y-68337002D01*
X150519502Y-68430183D01*
X150519500Y-68430186D01*
X150453608Y-68544312D01*
X150443079Y-68583608D01*
X150419500Y-68671608D01*
X130856814Y-68671608D01*
X130839453Y-68606814D01*
X130773561Y-68492686D01*
X130680375Y-68399500D01*
X130623311Y-68366554D01*
X130566248Y-68333608D01*
X130502600Y-68316554D01*
X130438953Y-68299500D01*
X130307169Y-68299500D01*
X130179873Y-68333608D01*
X130065747Y-68399500D01*
X129989708Y-68475539D01*
X129928384Y-68509023D01*
X129858693Y-68504039D01*
X129802759Y-68462167D01*
X129794643Y-68449863D01*
X129790500Y-68442686D01*
X129697314Y-68349500D01*
X129610712Y-68299500D01*
X129583187Y-68283608D01*
X129472686Y-68254000D01*
X129455892Y-68249500D01*
X129324108Y-68249500D01*
X129196812Y-68283608D01*
X129082686Y-68349500D01*
X129082683Y-68349502D01*
X128989502Y-68442683D01*
X128989500Y-68442686D01*
X128923608Y-68556812D01*
X128889500Y-68684108D01*
X128889500Y-68690324D01*
X128869815Y-68757363D01*
X128817011Y-68803118D01*
X128747853Y-68813062D01*
X128684297Y-68784037D01*
X128677819Y-68778005D01*
X128587316Y-68687502D01*
X128587314Y-68687500D01*
X128521496Y-68649500D01*
X128473187Y-68621608D01*
X128409539Y-68604554D01*
X128345892Y-68587500D01*
X128214108Y-68587500D01*
X128086812Y-68621608D01*
X127972686Y-68687500D01*
X127972683Y-68687502D01*
X127879502Y-68780683D01*
X127879500Y-68780686D01*
X127813608Y-68894812D01*
X127779500Y-69022108D01*
X127779500Y-69087948D01*
X127759815Y-69154987D01*
X127707011Y-69200742D01*
X127637853Y-69210686D01*
X127593502Y-69195336D01*
X127573191Y-69183610D01*
X127573188Y-69183609D01*
X127573187Y-69183608D01*
X127573186Y-69183608D01*
X127445892Y-69149500D01*
X127314108Y-69149500D01*
X127186812Y-69183608D01*
X127072686Y-69249500D01*
X127072683Y-69249502D01*
X126979502Y-69342683D01*
X126979500Y-69342686D01*
X126913608Y-69456812D01*
X126879500Y-69584108D01*
X126879500Y-69715893D01*
X126897729Y-69783926D01*
X126896066Y-69853775D01*
X126856903Y-69911638D01*
X126792674Y-69939141D01*
X126774019Y-69939029D01*
X126774019Y-69939500D01*
X126634108Y-69939500D01*
X126506812Y-69973608D01*
X126392686Y-70039500D01*
X126392683Y-70039502D01*
X126299502Y-70132683D01*
X126299500Y-70132686D01*
X126233608Y-70246812D01*
X126199500Y-70374108D01*
X108820500Y-70374108D01*
X108820500Y-69744108D01*
X114669500Y-69744108D01*
X114669500Y-69875892D01*
X114675056Y-69896626D01*
X114703608Y-70003187D01*
X114715579Y-70023921D01*
X114769500Y-70117314D01*
X114862686Y-70210500D01*
X114976814Y-70276392D01*
X115104108Y-70310500D01*
X115104110Y-70310500D01*
X115235890Y-70310500D01*
X115235892Y-70310500D01*
X115363186Y-70276392D01*
X115477314Y-70210500D01*
X115506584Y-70181230D01*
X115567907Y-70147745D01*
X115637599Y-70152729D01*
X115681946Y-70181230D01*
X115731951Y-70231235D01*
X115846079Y-70297127D01*
X115973373Y-70331235D01*
X115973375Y-70331235D01*
X116105155Y-70331235D01*
X116105157Y-70331235D01*
X116232451Y-70297127D01*
X116346579Y-70231235D01*
X116439765Y-70138049D01*
X116505657Y-70023921D01*
X116539765Y-69896627D01*
X116539765Y-69764843D01*
X116505657Y-69637549D01*
X116439765Y-69523421D01*
X116346579Y-69430235D01*
X116286094Y-69395314D01*
X116232452Y-69364343D01*
X116151614Y-69342683D01*
X116105157Y-69330235D01*
X115973373Y-69330235D01*
X115846077Y-69364343D01*
X115731951Y-69430235D01*
X115702678Y-69459507D01*
X115641354Y-69492990D01*
X115571662Y-69488004D01*
X115527318Y-69459504D01*
X115477316Y-69409502D01*
X115477314Y-69409500D01*
X115386929Y-69357316D01*
X115363187Y-69343608D01*
X115299539Y-69326554D01*
X115235892Y-69309500D01*
X115104108Y-69309500D01*
X114976812Y-69343608D01*
X114862686Y-69409500D01*
X114862683Y-69409502D01*
X114769502Y-69502683D01*
X114769500Y-69502686D01*
X114703608Y-69616812D01*
X114698052Y-69637549D01*
X114669500Y-69744108D01*
X108820500Y-69744108D01*
X108820500Y-68984108D01*
X123223812Y-68984108D01*
X123223812Y-69115892D01*
X123233994Y-69153891D01*
X123257920Y-69243187D01*
X123271317Y-69266391D01*
X123323812Y-69357314D01*
X123416998Y-69450500D01*
X123531126Y-69516392D01*
X123658420Y-69550500D01*
X123658422Y-69550500D01*
X123790202Y-69550500D01*
X123790204Y-69550500D01*
X123917498Y-69516392D01*
X124031626Y-69450500D01*
X124124812Y-69357314D01*
X124190704Y-69243186D01*
X124224812Y-69115892D01*
X124224812Y-68984108D01*
X124190704Y-68856814D01*
X124124812Y-68742686D01*
X124031626Y-68649500D01*
X123957692Y-68606814D01*
X123917499Y-68583608D01*
X123817500Y-68556814D01*
X123790204Y-68549500D01*
X123658420Y-68549500D01*
X123531124Y-68583608D01*
X123416998Y-68649500D01*
X123416995Y-68649502D01*
X123323814Y-68742683D01*
X123323812Y-68742686D01*
X123257920Y-68856812D01*
X123238126Y-68930686D01*
X123223812Y-68984108D01*
X108820500Y-68984108D01*
X108820500Y-65602070D01*
X110194500Y-65602070D01*
X110194500Y-65857929D01*
X110234526Y-66110640D01*
X110313588Y-66353972D01*
X110313589Y-66353975D01*
X110384267Y-66492686D01*
X110413724Y-66550499D01*
X110429750Y-66581950D01*
X110580132Y-66788935D01*
X110580136Y-66788940D01*
X110761059Y-66969863D01*
X110761064Y-66969867D01*
X110931934Y-67094010D01*
X110968053Y-67120252D01*
X111110815Y-67192993D01*
X111196024Y-67236410D01*
X111196027Y-67236411D01*
X111271127Y-67260812D01*
X111439361Y-67315474D01*
X111692070Y-67355500D01*
X111692071Y-67355500D01*
X111947929Y-67355500D01*
X111947930Y-67355500D01*
X112200639Y-67315474D01*
X112443975Y-67236410D01*
X112585875Y-67164108D01*
X124159500Y-67164108D01*
X124159500Y-67295892D01*
X124160735Y-67300500D01*
X124193608Y-67423187D01*
X124210312Y-67452118D01*
X124259500Y-67537314D01*
X124352686Y-67630500D01*
X124466814Y-67696392D01*
X124594108Y-67730500D01*
X124594110Y-67730500D01*
X124725890Y-67730500D01*
X124725892Y-67730500D01*
X124853186Y-67696392D01*
X124967314Y-67630500D01*
X125060500Y-67537314D01*
X125126392Y-67423186D01*
X125160500Y-67295892D01*
X125160500Y-67164108D01*
X125126392Y-67036814D01*
X125060500Y-66922686D01*
X125043799Y-66905985D01*
X128435500Y-66905985D01*
X128435500Y-67094014D01*
X128472179Y-67278409D01*
X128472182Y-67278421D01*
X128544129Y-67452118D01*
X128544136Y-67452131D01*
X128648591Y-67608457D01*
X128648594Y-67608461D01*
X128781538Y-67741405D01*
X128781542Y-67741408D01*
X128937868Y-67845863D01*
X128937881Y-67845870D01*
X129111578Y-67917817D01*
X129111583Y-67917819D01*
X129295985Y-67954499D01*
X129295988Y-67954500D01*
X129295990Y-67954500D01*
X129484012Y-67954500D01*
X129484013Y-67954499D01*
X129668417Y-67917819D01*
X129702275Y-67903794D01*
X129748324Y-67884721D01*
X129842118Y-67845870D01*
X129842118Y-67845869D01*
X129842125Y-67845867D01*
X129998458Y-67741408D01*
X130131408Y-67608458D01*
X130235867Y-67452125D01*
X130247854Y-67423187D01*
X130281622Y-67341662D01*
X130307819Y-67278417D01*
X130344500Y-67094010D01*
X130344500Y-66905990D01*
X130344500Y-66905987D01*
X130313506Y-66750173D01*
X130313505Y-66750172D01*
X130310310Y-66734108D01*
X131469500Y-66734108D01*
X131469500Y-66865891D01*
X131503608Y-66993187D01*
X131528797Y-67036814D01*
X131569500Y-67107314D01*
X131662686Y-67200500D01*
X131776814Y-67266392D01*
X131904108Y-67300500D01*
X131904110Y-67300500D01*
X132035890Y-67300500D01*
X132035892Y-67300500D01*
X132163186Y-67266392D01*
X132277314Y-67200500D01*
X132370500Y-67107314D01*
X132436392Y-66993186D01*
X132461012Y-66901302D01*
X133216000Y-66901302D01*
X133216000Y-67098697D01*
X133246876Y-67293646D01*
X133307873Y-67481373D01*
X133397483Y-67657239D01*
X133423457Y-67692988D01*
X133423457Y-67692989D01*
X133987037Y-67129409D01*
X134004075Y-67192993D01*
X134069901Y-67307007D01*
X134162993Y-67400099D01*
X134277007Y-67465925D01*
X134340590Y-67482962D01*
X133777009Y-68046541D01*
X133777010Y-68046542D01*
X133812755Y-68072512D01*
X133812768Y-68072520D01*
X133988626Y-68162126D01*
X134176353Y-68223123D01*
X134371303Y-68254000D01*
X134568697Y-68254000D01*
X134763646Y-68223123D01*
X134951373Y-68162126D01*
X135127241Y-68072516D01*
X135162988Y-68046543D01*
X135162988Y-68046541D01*
X134599410Y-67482962D01*
X134662993Y-67465925D01*
X134777007Y-67400099D01*
X134870099Y-67307007D01*
X134935925Y-67192993D01*
X134952962Y-67129409D01*
X135516541Y-67692988D01*
X135516543Y-67692988D01*
X135542516Y-67657241D01*
X135632126Y-67481373D01*
X135662430Y-67388108D01*
X138739500Y-67388108D01*
X138739500Y-67519891D01*
X138773608Y-67647187D01*
X138779412Y-67657239D01*
X138839500Y-67761314D01*
X138932686Y-67854500D01*
X139046814Y-67920392D01*
X139174108Y-67954500D01*
X139174110Y-67954500D01*
X139305890Y-67954500D01*
X139305892Y-67954500D01*
X139433186Y-67920392D01*
X139547314Y-67854500D01*
X139640500Y-67761314D01*
X139706392Y-67647186D01*
X139740500Y-67519892D01*
X139740500Y-67388108D01*
X139706392Y-67260814D01*
X139640500Y-67146686D01*
X139547314Y-67053500D01*
X139506816Y-67030118D01*
X139467268Y-67007285D01*
X139467267Y-67007285D01*
X139433187Y-66987608D01*
X139366956Y-66969862D01*
X139305892Y-66953500D01*
X139174108Y-66953500D01*
X139046812Y-66987608D01*
X138932686Y-67053500D01*
X138932683Y-67053502D01*
X138839502Y-67146683D01*
X138839500Y-67146686D01*
X138773608Y-67260812D01*
X138739500Y-67388108D01*
X135662430Y-67388108D01*
X135677522Y-67341662D01*
X135677522Y-67341661D01*
X135693122Y-67293650D01*
X135693122Y-67293647D01*
X135724000Y-67098697D01*
X135724000Y-66905985D01*
X146215500Y-66905985D01*
X146215500Y-67094014D01*
X146252179Y-67278409D01*
X146252182Y-67278421D01*
X146324129Y-67452118D01*
X146324136Y-67452131D01*
X146428591Y-67608457D01*
X146428594Y-67608461D01*
X146561538Y-67741405D01*
X146561542Y-67741408D01*
X146717868Y-67845863D01*
X146717881Y-67845870D01*
X146891578Y-67917817D01*
X146891583Y-67917819D01*
X147075985Y-67954499D01*
X147075988Y-67954500D01*
X147075990Y-67954500D01*
X147264012Y-67954500D01*
X147264013Y-67954499D01*
X147448417Y-67917819D01*
X147482275Y-67903794D01*
X147528324Y-67884721D01*
X147622118Y-67845870D01*
X147622118Y-67845869D01*
X147622125Y-67845867D01*
X147778458Y-67741408D01*
X147911408Y-67608458D01*
X148015867Y-67452125D01*
X148027854Y-67423187D01*
X148061622Y-67341662D01*
X148087819Y-67278417D01*
X148124500Y-67094010D01*
X148124500Y-66905990D01*
X148124500Y-66905987D01*
X148124499Y-66905986D01*
X148123567Y-66901302D01*
X153536000Y-66901302D01*
X153536000Y-67098697D01*
X153566876Y-67293646D01*
X153627873Y-67481373D01*
X153717483Y-67657239D01*
X153743457Y-67692988D01*
X153743457Y-67692989D01*
X154307037Y-67129409D01*
X154324075Y-67192993D01*
X154389901Y-67307007D01*
X154482993Y-67400099D01*
X154597007Y-67465925D01*
X154660590Y-67482962D01*
X154097009Y-68046541D01*
X154097010Y-68046542D01*
X154132755Y-68072512D01*
X154132768Y-68072520D01*
X154308626Y-68162126D01*
X154496353Y-68223123D01*
X154691303Y-68254000D01*
X154888697Y-68254000D01*
X155083646Y-68223123D01*
X155271373Y-68162126D01*
X155447241Y-68072516D01*
X155482988Y-68046543D01*
X155482988Y-68046541D01*
X154919410Y-67482962D01*
X154982993Y-67465925D01*
X155097007Y-67400099D01*
X155190099Y-67307007D01*
X155255925Y-67192993D01*
X155272962Y-67129409D01*
X155836541Y-67692988D01*
X155836543Y-67692988D01*
X155862516Y-67657241D01*
X155952126Y-67481373D01*
X156013123Y-67293646D01*
X156044000Y-67098697D01*
X156044000Y-66901302D01*
X156013123Y-66706353D01*
X155952126Y-66518626D01*
X155862520Y-66342768D01*
X155862512Y-66342755D01*
X155836542Y-66307010D01*
X155836541Y-66307009D01*
X155272962Y-66870589D01*
X155255925Y-66807007D01*
X155190099Y-66692993D01*
X155097007Y-66599901D01*
X154982993Y-66534075D01*
X154919409Y-66517037D01*
X155482989Y-65953457D01*
X155447239Y-65927483D01*
X155271373Y-65837873D01*
X155083646Y-65776876D01*
X154888697Y-65746000D01*
X154691303Y-65746000D01*
X154496353Y-65776876D01*
X154308626Y-65837873D01*
X154132762Y-65927482D01*
X154132760Y-65927483D01*
X154097010Y-65953456D01*
X154097010Y-65953457D01*
X154660591Y-66517037D01*
X154597007Y-66534075D01*
X154482993Y-66599901D01*
X154389901Y-66692993D01*
X154324075Y-66807007D01*
X154307037Y-66870590D01*
X153743457Y-66307010D01*
X153743456Y-66307010D01*
X153717483Y-66342760D01*
X153717482Y-66342762D01*
X153627873Y-66518626D01*
X153566876Y-66706353D01*
X153536000Y-66901302D01*
X148123567Y-66901302D01*
X148116524Y-66865891D01*
X148087819Y-66721583D01*
X148075977Y-66692993D01*
X148015870Y-66547881D01*
X148015863Y-66547868D01*
X147911408Y-66391542D01*
X147911405Y-66391538D01*
X147778461Y-66258594D01*
X147778457Y-66258591D01*
X147622131Y-66154136D01*
X147622118Y-66154129D01*
X147528319Y-66115277D01*
X147448421Y-66082182D01*
X147448409Y-66082179D01*
X147264013Y-66045500D01*
X147264010Y-66045500D01*
X147075990Y-66045500D01*
X147075987Y-66045500D01*
X146891590Y-66082179D01*
X146891578Y-66082182D01*
X146717881Y-66154129D01*
X146717868Y-66154136D01*
X146561542Y-66258591D01*
X146561538Y-66258594D01*
X146428594Y-66391538D01*
X146428591Y-66391542D01*
X146324136Y-66547868D01*
X146324129Y-66547881D01*
X146252182Y-66721578D01*
X146252179Y-66721590D01*
X146215500Y-66905985D01*
X135724000Y-66905985D01*
X135724000Y-66901302D01*
X135693123Y-66706353D01*
X135632126Y-66518626D01*
X135542520Y-66342768D01*
X135542512Y-66342755D01*
X135516542Y-66307010D01*
X135516541Y-66307009D01*
X134952962Y-66870589D01*
X134935925Y-66807007D01*
X134870099Y-66692993D01*
X134777007Y-66599901D01*
X134662993Y-66534075D01*
X134599409Y-66517037D01*
X135132338Y-65984108D01*
X144179500Y-65984108D01*
X144179500Y-66115892D01*
X144189747Y-66154133D01*
X144213608Y-66243187D01*
X144246121Y-66299500D01*
X144279500Y-66357314D01*
X144372686Y-66450500D01*
X144486814Y-66516392D01*
X144614108Y-66550500D01*
X144614110Y-66550500D01*
X144745890Y-66550500D01*
X144745892Y-66550500D01*
X144873186Y-66516392D01*
X144987314Y-66450500D01*
X145080500Y-66357314D01*
X145146392Y-66243186D01*
X145180500Y-66115892D01*
X145180500Y-65984108D01*
X145146392Y-65856814D01*
X145080500Y-65742686D01*
X144987314Y-65649500D01*
X144905163Y-65602070D01*
X144873187Y-65583608D01*
X144865720Y-65581607D01*
X144745892Y-65549500D01*
X144614108Y-65549500D01*
X144486812Y-65583608D01*
X144372686Y-65649500D01*
X144372683Y-65649502D01*
X144279502Y-65742683D01*
X144279500Y-65742686D01*
X144213608Y-65856812D01*
X144179500Y-65984108D01*
X135132338Y-65984108D01*
X135162988Y-65953458D01*
X135162988Y-65953457D01*
X135127239Y-65927483D01*
X134951373Y-65837873D01*
X134763646Y-65776876D01*
X134568697Y-65746000D01*
X134371303Y-65746000D01*
X134176353Y-65776876D01*
X133988626Y-65837873D01*
X133812762Y-65927482D01*
X133812760Y-65927483D01*
X133777010Y-65953456D01*
X133777010Y-65953457D01*
X134340591Y-66517037D01*
X134277007Y-66534075D01*
X134162993Y-66599901D01*
X134069901Y-66692993D01*
X134004075Y-66807007D01*
X133987037Y-66870590D01*
X133423457Y-66307010D01*
X133423456Y-66307010D01*
X133397483Y-66342760D01*
X133397482Y-66342762D01*
X133307873Y-66518626D01*
X133246876Y-66706353D01*
X133216000Y-66901302D01*
X132461012Y-66901302D01*
X132470500Y-66865892D01*
X132470500Y-66734108D01*
X132436392Y-66606814D01*
X132370500Y-66492686D01*
X132277314Y-66399500D01*
X132220250Y-66366554D01*
X132163187Y-66333608D01*
X132099539Y-66316554D01*
X132035892Y-66299500D01*
X131904108Y-66299500D01*
X131776812Y-66333608D01*
X131662686Y-66399500D01*
X131662683Y-66399502D01*
X131569502Y-66492683D01*
X131569500Y-66492686D01*
X131503608Y-66606812D01*
X131469500Y-66734108D01*
X130310310Y-66734108D01*
X130307819Y-66721583D01*
X130295977Y-66692993D01*
X130235870Y-66547881D01*
X130235863Y-66547868D01*
X130131408Y-66391542D01*
X130131405Y-66391538D01*
X129998461Y-66258594D01*
X129998457Y-66258591D01*
X129842131Y-66154136D01*
X129842118Y-66154129D01*
X129748319Y-66115277D01*
X129668421Y-66082182D01*
X129668409Y-66082179D01*
X129484013Y-66045500D01*
X129484010Y-66045500D01*
X129295990Y-66045500D01*
X129295987Y-66045500D01*
X129111590Y-66082179D01*
X129111578Y-66082182D01*
X128937881Y-66154129D01*
X128937868Y-66154136D01*
X128781542Y-66258591D01*
X128781538Y-66258594D01*
X128648594Y-66391538D01*
X128648591Y-66391542D01*
X128544136Y-66547868D01*
X128544129Y-66547881D01*
X128472182Y-66721578D01*
X128472179Y-66721590D01*
X128435500Y-66905985D01*
X125043799Y-66905985D01*
X124967314Y-66829500D01*
X124897054Y-66788935D01*
X124853187Y-66763608D01*
X124789539Y-66746554D01*
X124725892Y-66729500D01*
X124594108Y-66729500D01*
X124466812Y-66763608D01*
X124352686Y-66829500D01*
X124352683Y-66829502D01*
X124259502Y-66922683D01*
X124259500Y-66922686D01*
X124193608Y-67036812D01*
X124174718Y-67107313D01*
X124159500Y-67164108D01*
X112585875Y-67164108D01*
X112671947Y-67120252D01*
X112710544Y-67092209D01*
X112760848Y-67055663D01*
X112878935Y-66969867D01*
X112878933Y-66969867D01*
X112878942Y-66969862D01*
X113059862Y-66788942D01*
X113210252Y-66581947D01*
X113326410Y-66353975D01*
X113405474Y-66110639D01*
X113445500Y-65857930D01*
X113445500Y-65602070D01*
X113405474Y-65349361D01*
X113345282Y-65164108D01*
X113326411Y-65106027D01*
X113326410Y-65106024D01*
X113239957Y-64936353D01*
X113210252Y-64878053D01*
X113129573Y-64767007D01*
X113059867Y-64671064D01*
X113059863Y-64671059D01*
X112878940Y-64490136D01*
X112878935Y-64490132D01*
X112832994Y-64456754D01*
X112701614Y-64361302D01*
X148456000Y-64361302D01*
X148456000Y-64558697D01*
X148486876Y-64753646D01*
X148547873Y-64941373D01*
X148637483Y-65117239D01*
X148663457Y-65152988D01*
X148663457Y-65152989D01*
X149227037Y-64589409D01*
X149244075Y-64652993D01*
X149309901Y-64767007D01*
X149402993Y-64860099D01*
X149517007Y-64925925D01*
X149580590Y-64942962D01*
X149017009Y-65506541D01*
X149017010Y-65506542D01*
X149052755Y-65532512D01*
X149052768Y-65532520D01*
X149228626Y-65622126D01*
X149416353Y-65683123D01*
X149611303Y-65714000D01*
X149808697Y-65714000D01*
X150003646Y-65683123D01*
X150191373Y-65622126D01*
X150367241Y-65532516D01*
X150402988Y-65506543D01*
X150402988Y-65506541D01*
X149839410Y-64942962D01*
X149902993Y-64925925D01*
X150017007Y-64860099D01*
X150110099Y-64767007D01*
X150175925Y-64652993D01*
X150192962Y-64589409D01*
X150756541Y-65152988D01*
X150756543Y-65152988D01*
X150782516Y-65117241D01*
X150872126Y-64941373D01*
X150933123Y-64753646D01*
X150964000Y-64558697D01*
X150964000Y-64365985D01*
X153835500Y-64365985D01*
X153835500Y-64554014D01*
X153872179Y-64738409D01*
X153872182Y-64738421D01*
X153944129Y-64912118D01*
X153944136Y-64912131D01*
X154048591Y-65068457D01*
X154048594Y-65068461D01*
X154181538Y-65201405D01*
X154181542Y-65201408D01*
X154337868Y-65305863D01*
X154337881Y-65305870D01*
X154442874Y-65349359D01*
X154511583Y-65377819D01*
X154695985Y-65414499D01*
X154695988Y-65414500D01*
X154695990Y-65414500D01*
X154884012Y-65414500D01*
X154884013Y-65414499D01*
X155068417Y-65377819D01*
X155202766Y-65322169D01*
X155242118Y-65305870D01*
X155242118Y-65305869D01*
X155242125Y-65305867D01*
X155398458Y-65201408D01*
X155531408Y-65068458D01*
X155635867Y-64912125D01*
X155707819Y-64738417D01*
X155744500Y-64554010D01*
X155744500Y-64365990D01*
X155744500Y-64365987D01*
X155744499Y-64365985D01*
X155739886Y-64342794D01*
X155707819Y-64181583D01*
X155692470Y-64144526D01*
X155635870Y-64007881D01*
X155635864Y-64007870D01*
X155627790Y-63995787D01*
X155606910Y-63929110D01*
X155625393Y-63861729D01*
X155677370Y-63815038D01*
X155746340Y-63803859D01*
X155746886Y-63803929D01*
X155903276Y-63824518D01*
X155948711Y-63830500D01*
X155948712Y-63830500D01*
X156191289Y-63830500D01*
X156220701Y-63826627D01*
X156370996Y-63806841D01*
X156440029Y-63817606D01*
X156492285Y-63863986D01*
X156511170Y-63931255D01*
X156490689Y-63998056D01*
X156490285Y-63998665D01*
X156484138Y-64007865D01*
X156484129Y-64007881D01*
X156412182Y-64181578D01*
X156412179Y-64181590D01*
X156375500Y-64365985D01*
X156375500Y-64554014D01*
X156412179Y-64738409D01*
X156412182Y-64738421D01*
X156484129Y-64912118D01*
X156484136Y-64912131D01*
X156588591Y-65068457D01*
X156588594Y-65068461D01*
X156721538Y-65201405D01*
X156721542Y-65201408D01*
X156877868Y-65305863D01*
X156877881Y-65305870D01*
X156982874Y-65349359D01*
X157051583Y-65377819D01*
X157235985Y-65414499D01*
X157235988Y-65414500D01*
X157235990Y-65414500D01*
X157424012Y-65414500D01*
X157424013Y-65414499D01*
X157608417Y-65377819D01*
X157642275Y-65363794D01*
X157688324Y-65344721D01*
X157782118Y-65305870D01*
X157782118Y-65305869D01*
X157782125Y-65305867D01*
X157938458Y-65201408D01*
X158071408Y-65068458D01*
X158175867Y-64912125D01*
X158247819Y-64738417D01*
X158284500Y-64554010D01*
X158284500Y-64365990D01*
X158284500Y-64365987D01*
X158284499Y-64365986D01*
X158283567Y-64361302D01*
X158616000Y-64361302D01*
X158616000Y-64558697D01*
X158646876Y-64753646D01*
X158707873Y-64941373D01*
X158797483Y-65117239D01*
X158823457Y-65152988D01*
X158823457Y-65152989D01*
X159387037Y-64589409D01*
X159404075Y-64652993D01*
X159469901Y-64767007D01*
X159562993Y-64860099D01*
X159677007Y-64925925D01*
X159740590Y-64942962D01*
X159177009Y-65506541D01*
X159177010Y-65506542D01*
X159212755Y-65532512D01*
X159212768Y-65532520D01*
X159388626Y-65622126D01*
X159576353Y-65683123D01*
X159771303Y-65714000D01*
X159968697Y-65714000D01*
X160163646Y-65683123D01*
X160351373Y-65622126D01*
X160390735Y-65602070D01*
X168194500Y-65602070D01*
X168194500Y-65857929D01*
X168234526Y-66110640D01*
X168313588Y-66353972D01*
X168313589Y-66353975D01*
X168384267Y-66492686D01*
X168413724Y-66550499D01*
X168429750Y-66581950D01*
X168580132Y-66788935D01*
X168580136Y-66788940D01*
X168761059Y-66969863D01*
X168761064Y-66969867D01*
X168931934Y-67094010D01*
X168968053Y-67120252D01*
X169110815Y-67192993D01*
X169196024Y-67236410D01*
X169196027Y-67236411D01*
X169271127Y-67260812D01*
X169439361Y-67315474D01*
X169692070Y-67355500D01*
X169692071Y-67355500D01*
X169947929Y-67355500D01*
X169947930Y-67355500D01*
X170200639Y-67315474D01*
X170443975Y-67236410D01*
X170671947Y-67120252D01*
X170878942Y-66969862D01*
X171059862Y-66788942D01*
X171210252Y-66581947D01*
X171326410Y-66353975D01*
X171405474Y-66110639D01*
X171445500Y-65857930D01*
X171445500Y-65602070D01*
X171405474Y-65349361D01*
X171345282Y-65164108D01*
X171326411Y-65106027D01*
X171326410Y-65106024D01*
X171239957Y-64936353D01*
X171210252Y-64878053D01*
X171129573Y-64767007D01*
X171059867Y-64671064D01*
X171059863Y-64671059D01*
X170878940Y-64490136D01*
X170878935Y-64490132D01*
X170671950Y-64339750D01*
X170671949Y-64339749D01*
X170671947Y-64339748D01*
X170598910Y-64302533D01*
X170443975Y-64223589D01*
X170443972Y-64223588D01*
X170200640Y-64144526D01*
X170074284Y-64124513D01*
X169947930Y-64104500D01*
X169692070Y-64104500D01*
X169607833Y-64117842D01*
X169439359Y-64144526D01*
X169196027Y-64223588D01*
X169196024Y-64223589D01*
X168968049Y-64339750D01*
X168761064Y-64490132D01*
X168761059Y-64490136D01*
X168580136Y-64671059D01*
X168580132Y-64671064D01*
X168429750Y-64878049D01*
X168313589Y-65106024D01*
X168313588Y-65106027D01*
X168234526Y-65349359D01*
X168194500Y-65602070D01*
X160390735Y-65602070D01*
X160527241Y-65532516D01*
X160562988Y-65506543D01*
X160562988Y-65506541D01*
X159999410Y-64942962D01*
X160062993Y-64925925D01*
X160177007Y-64860099D01*
X160270099Y-64767007D01*
X160335925Y-64652993D01*
X160352962Y-64589409D01*
X160916541Y-65152988D01*
X160916543Y-65152988D01*
X160942516Y-65117241D01*
X161032126Y-64941373D01*
X161093123Y-64753646D01*
X161124000Y-64558697D01*
X161124000Y-64365985D01*
X161455500Y-64365985D01*
X161455500Y-64554014D01*
X161492179Y-64738409D01*
X161492182Y-64738421D01*
X161564129Y-64912118D01*
X161564136Y-64912131D01*
X161668591Y-65068457D01*
X161668594Y-65068461D01*
X161801538Y-65201405D01*
X161801542Y-65201408D01*
X161957868Y-65305863D01*
X161957881Y-65305870D01*
X162062874Y-65349359D01*
X162131583Y-65377819D01*
X162315985Y-65414499D01*
X162315988Y-65414500D01*
X162315990Y-65414500D01*
X162504012Y-65414500D01*
X162504013Y-65414499D01*
X162688417Y-65377819D01*
X162822766Y-65322169D01*
X162862118Y-65305870D01*
X162862118Y-65305869D01*
X162862125Y-65305867D01*
X163018458Y-65201408D01*
X163151408Y-65068458D01*
X163255867Y-64912125D01*
X163327819Y-64738417D01*
X163364500Y-64554010D01*
X163364500Y-64365990D01*
X163364500Y-64365987D01*
X163364499Y-64365985D01*
X163995500Y-64365985D01*
X163995500Y-64554014D01*
X164032179Y-64738409D01*
X164032182Y-64738421D01*
X164104129Y-64912118D01*
X164104136Y-64912131D01*
X164208591Y-65068457D01*
X164208594Y-65068461D01*
X164341538Y-65201405D01*
X164341542Y-65201408D01*
X164497868Y-65305863D01*
X164497881Y-65305870D01*
X164602874Y-65349359D01*
X164671583Y-65377819D01*
X164855985Y-65414499D01*
X164855988Y-65414500D01*
X164855990Y-65414500D01*
X165044012Y-65414500D01*
X165044013Y-65414499D01*
X165228417Y-65377819D01*
X165362766Y-65322169D01*
X165402118Y-65305870D01*
X165402118Y-65305869D01*
X165402125Y-65305867D01*
X165558458Y-65201408D01*
X165691408Y-65068458D01*
X165795867Y-64912125D01*
X165867819Y-64738417D01*
X165904500Y-64554010D01*
X165904500Y-64365990D01*
X165904500Y-64365987D01*
X165904499Y-64365985D01*
X165899886Y-64342794D01*
X165867819Y-64181583D01*
X165852470Y-64144526D01*
X165795870Y-64007881D01*
X165795863Y-64007868D01*
X165691408Y-63851542D01*
X165691405Y-63851538D01*
X165558461Y-63718594D01*
X165558457Y-63718591D01*
X165402131Y-63614136D01*
X165402118Y-63614129D01*
X165228421Y-63542182D01*
X165228409Y-63542179D01*
X165044013Y-63505500D01*
X165044010Y-63505500D01*
X164855990Y-63505500D01*
X164855987Y-63505500D01*
X164671590Y-63542179D01*
X164671578Y-63542182D01*
X164497881Y-63614129D01*
X164497868Y-63614136D01*
X164341542Y-63718591D01*
X164341538Y-63718594D01*
X164208594Y-63851538D01*
X164208591Y-63851542D01*
X164104136Y-64007868D01*
X164104129Y-64007881D01*
X164032182Y-64181578D01*
X164032179Y-64181590D01*
X163995500Y-64365985D01*
X163364499Y-64365985D01*
X163359886Y-64342794D01*
X163327819Y-64181583D01*
X163312470Y-64144526D01*
X163255870Y-64007881D01*
X163255863Y-64007868D01*
X163151408Y-63851542D01*
X163151405Y-63851538D01*
X163018461Y-63718594D01*
X163018457Y-63718591D01*
X162862131Y-63614136D01*
X162862118Y-63614129D01*
X162688421Y-63542182D01*
X162688409Y-63542179D01*
X162504013Y-63505500D01*
X162504010Y-63505500D01*
X162315990Y-63505500D01*
X162315987Y-63505500D01*
X162131590Y-63542179D01*
X162131578Y-63542182D01*
X161957881Y-63614129D01*
X161957868Y-63614136D01*
X161801542Y-63718591D01*
X161801538Y-63718594D01*
X161668594Y-63851538D01*
X161668591Y-63851542D01*
X161564136Y-64007868D01*
X161564129Y-64007881D01*
X161492182Y-64181578D01*
X161492179Y-64181590D01*
X161455500Y-64365985D01*
X161124000Y-64365985D01*
X161124000Y-64361302D01*
X161093123Y-64166353D01*
X161032126Y-63978626D01*
X160942520Y-63802768D01*
X160942512Y-63802755D01*
X160916542Y-63767010D01*
X160916541Y-63767009D01*
X160352962Y-64330589D01*
X160335925Y-64267007D01*
X160270099Y-64152993D01*
X160177007Y-64059901D01*
X160062993Y-63994075D01*
X159999409Y-63977037D01*
X160562989Y-63413457D01*
X160527239Y-63387483D01*
X160351373Y-63297873D01*
X160163646Y-63236876D01*
X159968697Y-63206000D01*
X159771303Y-63206000D01*
X159576353Y-63236876D01*
X159388626Y-63297873D01*
X159212762Y-63387482D01*
X159212760Y-63387483D01*
X159177010Y-63413456D01*
X159177010Y-63413457D01*
X159740591Y-63977037D01*
X159677007Y-63994075D01*
X159562993Y-64059901D01*
X159469901Y-64152993D01*
X159404075Y-64267007D01*
X159387037Y-64330590D01*
X158823457Y-63767010D01*
X158823456Y-63767010D01*
X158797483Y-63802760D01*
X158797482Y-63802762D01*
X158707873Y-63978626D01*
X158646876Y-64166353D01*
X158616000Y-64361302D01*
X158283567Y-64361302D01*
X158281483Y-64350825D01*
X158247819Y-64181583D01*
X158232470Y-64144526D01*
X158175870Y-64007881D01*
X158175863Y-64007868D01*
X158071408Y-63851542D01*
X158071405Y-63851538D01*
X157938461Y-63718594D01*
X157938457Y-63718591D01*
X157782131Y-63614136D01*
X157782118Y-63614129D01*
X157688319Y-63575277D01*
X157608421Y-63542182D01*
X157608411Y-63542179D01*
X157432585Y-63507205D01*
X157370674Y-63474820D01*
X157336100Y-63414104D01*
X157339840Y-63344335D01*
X157369094Y-63297908D01*
X157464265Y-63202738D01*
X157611936Y-63010289D01*
X157733224Y-62800212D01*
X157826054Y-62576100D01*
X157888838Y-62341789D01*
X157920500Y-62101288D01*
X157920500Y-61858712D01*
X157888838Y-61618211D01*
X157826054Y-61383900D01*
X157824226Y-61379488D01*
X157733226Y-61159794D01*
X157733224Y-61159788D01*
X157611936Y-60949711D01*
X157464265Y-60757262D01*
X157464260Y-60757256D01*
X157292743Y-60585739D01*
X157292736Y-60585733D01*
X157100293Y-60438067D01*
X157100292Y-60438066D01*
X157100289Y-60438064D01*
X156890212Y-60316776D01*
X156890205Y-60316773D01*
X156666104Y-60223947D01*
X156431785Y-60161161D01*
X156191289Y-60129500D01*
X156191288Y-60129500D01*
X155948712Y-60129500D01*
X155948711Y-60129500D01*
X155708214Y-60161161D01*
X155473895Y-60223947D01*
X155249794Y-60316773D01*
X155249785Y-60316777D01*
X155039706Y-60438067D01*
X154847263Y-60585733D01*
X154847256Y-60585739D01*
X154675739Y-60757256D01*
X154675733Y-60757263D01*
X154528067Y-60949706D01*
X154406777Y-61159785D01*
X154406773Y-61159794D01*
X154313947Y-61383895D01*
X154251161Y-61618214D01*
X154219500Y-61858711D01*
X154219500Y-62101288D01*
X154251161Y-62341785D01*
X154313947Y-62576104D01*
X154406773Y-62800205D01*
X154406777Y-62800214D01*
X154409921Y-62805660D01*
X154528064Y-63010289D01*
X154528066Y-63010292D01*
X154528067Y-63010293D01*
X154675733Y-63202736D01*
X154675739Y-63202743D01*
X154767779Y-63294783D01*
X154801264Y-63356106D01*
X154796280Y-63425798D01*
X154754408Y-63481731D01*
X154701557Y-63502266D01*
X154701964Y-63504311D01*
X154511590Y-63542179D01*
X154511578Y-63542182D01*
X154337881Y-63614129D01*
X154337868Y-63614136D01*
X154181542Y-63718591D01*
X154181538Y-63718594D01*
X154048594Y-63851538D01*
X154048591Y-63851542D01*
X153944136Y-64007868D01*
X153944129Y-64007881D01*
X153872182Y-64181578D01*
X153872179Y-64181590D01*
X153835500Y-64365985D01*
X150964000Y-64365985D01*
X150964000Y-64361302D01*
X150933123Y-64166353D01*
X150872126Y-63978626D01*
X150782520Y-63802768D01*
X150782512Y-63802755D01*
X150756542Y-63767010D01*
X150756541Y-63767009D01*
X150192962Y-64330589D01*
X150175925Y-64267007D01*
X150110099Y-64152993D01*
X150017007Y-64059901D01*
X149902993Y-63994075D01*
X149839409Y-63977037D01*
X150402989Y-63413457D01*
X150367239Y-63387483D01*
X150191373Y-63297873D01*
X150003646Y-63236876D01*
X149808697Y-63206000D01*
X149611303Y-63206000D01*
X149416353Y-63236876D01*
X149228626Y-63297873D01*
X149052762Y-63387482D01*
X149052760Y-63387483D01*
X149017010Y-63413456D01*
X149017010Y-63413457D01*
X149580591Y-63977037D01*
X149517007Y-63994075D01*
X149402993Y-64059901D01*
X149309901Y-64152993D01*
X149244075Y-64267007D01*
X149227037Y-64330590D01*
X148663457Y-63767010D01*
X148663456Y-63767010D01*
X148637483Y-63802760D01*
X148637482Y-63802762D01*
X148547873Y-63978626D01*
X148486876Y-64166353D01*
X148456000Y-64361302D01*
X112701614Y-64361302D01*
X112671950Y-64339750D01*
X112671949Y-64339749D01*
X112671947Y-64339748D01*
X112598910Y-64302533D01*
X112443975Y-64223589D01*
X112443972Y-64223588D01*
X112200640Y-64144526D01*
X112074284Y-64124513D01*
X111947930Y-64104500D01*
X111692070Y-64104500D01*
X111607833Y-64117842D01*
X111439359Y-64144526D01*
X111196027Y-64223588D01*
X111196024Y-64223589D01*
X110968049Y-64339750D01*
X110761064Y-64490132D01*
X110761059Y-64490136D01*
X110580136Y-64671059D01*
X110580132Y-64671064D01*
X110429750Y-64878049D01*
X110313589Y-65106024D01*
X110313588Y-65106027D01*
X110234526Y-65349359D01*
X110194500Y-65602070D01*
X108820500Y-65602070D01*
X108820500Y-65313823D01*
X108820500Y-65305039D01*
X108820717Y-65304223D01*
X108820508Y-65241660D01*
X108820521Y-65241613D01*
X108820710Y-65234603D01*
X108837362Y-64943851D01*
X108839125Y-64928954D01*
X108839168Y-64928719D01*
X108890105Y-64646063D01*
X108893654Y-64631490D01*
X108916123Y-64558697D01*
X108978429Y-64356834D01*
X108983713Y-64342794D01*
X109017601Y-64267007D01*
X109101046Y-64080385D01*
X109107983Y-64067093D01*
X109256167Y-63820755D01*
X109264640Y-63808426D01*
X109441499Y-63581786D01*
X109451410Y-63570559D01*
X109654334Y-63366957D01*
X109665537Y-63357001D01*
X109891576Y-63179395D01*
X109903896Y-63170868D01*
X110149732Y-63021868D01*
X110162981Y-63014896D01*
X110425027Y-62896676D01*
X110439020Y-62891357D01*
X110713420Y-62805657D01*
X110727970Y-62802064D01*
X111010692Y-62750141D01*
X111025568Y-62748331D01*
X111316255Y-62730709D01*
X111323737Y-62730483D01*
X111385892Y-62730483D01*
X111385928Y-62730473D01*
X120373157Y-62729185D01*
X120393855Y-62731402D01*
X120398407Y-62731777D01*
X120398418Y-62731780D01*
X120449185Y-62729318D01*
X120455123Y-62729173D01*
X120505964Y-62729167D01*
X120517804Y-62725992D01*
X120530048Y-62725399D01*
X120581282Y-62708973D01*
X120633253Y-62695040D01*
X120633256Y-62695037D01*
X120637469Y-62693292D01*
X120651397Y-62687123D01*
X120655535Y-62685168D01*
X120655541Y-62685167D01*
X120700780Y-62656039D01*
X120747371Y-62629132D01*
X120756034Y-62620464D01*
X120761094Y-62617207D01*
X120766345Y-62613827D01*
X120802504Y-62573982D01*
X120840544Y-62535933D01*
X120846672Y-62525315D01*
X120854910Y-62516238D01*
X120879524Y-62468394D01*
X120906420Y-62421795D01*
X120909590Y-62409955D01*
X120915199Y-62399054D01*
X120926595Y-62346453D01*
X120940509Y-62294496D01*
X120940507Y-62282243D01*
X120943104Y-62270258D01*
X120940640Y-62219470D01*
X120940505Y-62214992D01*
X120940496Y-62214304D01*
X120940490Y-62162712D01*
X120939845Y-62160310D01*
X120939724Y-62150194D01*
X120939774Y-62150012D01*
X120939716Y-62149149D01*
X120938686Y-61858711D01*
X123719500Y-61858711D01*
X123719500Y-62101288D01*
X123751161Y-62341785D01*
X123813947Y-62576104D01*
X123906773Y-62800205D01*
X123906777Y-62800214D01*
X123909921Y-62805660D01*
X124028064Y-63010289D01*
X124028066Y-63010292D01*
X124028067Y-63010293D01*
X124175733Y-63202736D01*
X124175739Y-63202743D01*
X124347256Y-63374260D01*
X124347263Y-63374266D01*
X124426132Y-63434784D01*
X124539711Y-63521936D01*
X124749788Y-63643224D01*
X124973900Y-63736054D01*
X125208211Y-63798838D01*
X125350771Y-63817606D01*
X125448711Y-63830500D01*
X125448712Y-63830500D01*
X125691289Y-63830500D01*
X125739388Y-63824167D01*
X125931789Y-63798838D01*
X126166100Y-63736054D01*
X126390212Y-63643224D01*
X126600289Y-63521936D01*
X126792738Y-63374265D01*
X126792743Y-63374260D01*
X126793969Y-63373035D01*
X126964260Y-63202743D01*
X126964265Y-63202738D01*
X127111936Y-63010289D01*
X127233224Y-62800212D01*
X127326054Y-62576100D01*
X127388838Y-62341789D01*
X127420500Y-62101288D01*
X127420500Y-61858712D01*
X127388838Y-61618211D01*
X127326054Y-61383900D01*
X127324226Y-61379488D01*
X127233226Y-61159794D01*
X127233224Y-61159788D01*
X127111936Y-60949711D01*
X126964265Y-60757262D01*
X126964260Y-60757256D01*
X126792743Y-60585739D01*
X126792736Y-60585733D01*
X126600293Y-60438067D01*
X126600292Y-60438066D01*
X126600289Y-60438064D01*
X126390212Y-60316776D01*
X126390205Y-60316773D01*
X126166104Y-60223947D01*
X125931785Y-60161161D01*
X125691289Y-60129500D01*
X125691288Y-60129500D01*
X125448712Y-60129500D01*
X125448711Y-60129500D01*
X125208214Y-60161161D01*
X124973895Y-60223947D01*
X124749794Y-60316773D01*
X124749785Y-60316777D01*
X124539706Y-60438067D01*
X124347263Y-60585733D01*
X124347256Y-60585739D01*
X124175739Y-60757256D01*
X124175733Y-60757263D01*
X124028067Y-60949706D01*
X123906777Y-61159785D01*
X123906773Y-61159794D01*
X123813947Y-61383895D01*
X123751161Y-61618214D01*
X123719500Y-61858711D01*
X120938686Y-61858711D01*
X120938456Y-61793972D01*
X120938915Y-61782886D01*
X120973787Y-61379478D01*
X120975241Y-61368455D01*
X121046136Y-60969828D01*
X121048574Y-60958970D01*
X121154930Y-60568277D01*
X121158317Y-60557725D01*
X121299275Y-60178137D01*
X121303603Y-60167911D01*
X121478026Y-59802488D01*
X121483258Y-59792686D01*
X121689739Y-59444376D01*
X121695821Y-59435094D01*
X121932702Y-59106696D01*
X121939580Y-59098010D01*
X122204955Y-58792166D01*
X122212597Y-58784119D01*
X122504324Y-58503301D01*
X122512655Y-58495972D01*
X122828378Y-58242445D01*
X122837336Y-58235891D01*
X123123496Y-58045617D01*
X123190218Y-58024890D01*
X123191153Y-58024879D01*
X127890310Y-57988761D01*
X127957496Y-58007929D01*
X127959242Y-58009054D01*
X128278333Y-58218253D01*
X128287342Y-58224756D01*
X128343747Y-58269451D01*
X128604689Y-58476222D01*
X128613092Y-58483518D01*
X128629861Y-58499452D01*
X128743874Y-58607787D01*
X128906600Y-58762408D01*
X128914313Y-58770425D01*
X129103165Y-58985247D01*
X129157587Y-59047152D01*
X129159199Y-59049023D01*
X129166330Y-59057468D01*
X129175109Y-59072681D01*
X129201303Y-59098885D01*
X129204665Y-59102867D01*
X129204834Y-59103251D01*
X129206633Y-59105258D01*
X129226563Y-59130093D01*
X129226565Y-59130095D01*
X129241132Y-59140777D01*
X129241133Y-59140777D01*
X129248790Y-59146392D01*
X129268276Y-59165886D01*
X129301704Y-59185194D01*
X129332836Y-59208024D01*
X129349673Y-59214572D01*
X129366744Y-59222763D01*
X129382391Y-59231801D01*
X129397102Y-59235745D01*
X129413145Y-59240048D01*
X129425979Y-59244251D01*
X129437706Y-59248812D01*
X129455657Y-59255794D01*
X129455655Y-59255794D01*
X129462177Y-59256508D01*
X129483056Y-59258795D01*
X129509678Y-59265935D01*
X129548286Y-59265942D01*
X129586658Y-59270147D01*
X129604515Y-59267399D01*
X129623381Y-59265957D01*
X152024101Y-59270491D01*
X152051690Y-59274710D01*
X152089729Y-59270505D01*
X152127938Y-59270512D01*
X152127984Y-59270513D01*
X152127984Y-59270512D01*
X152127987Y-59270513D01*
X152145854Y-59265729D01*
X152164280Y-59262264D01*
X152182677Y-59260231D01*
X152218327Y-59246326D01*
X152255288Y-59236431D01*
X152279453Y-59222485D01*
X152305453Y-59212345D01*
X152336294Y-59189683D01*
X152369429Y-59170562D01*
X152389160Y-59150838D01*
X152411651Y-59134313D01*
X152431306Y-59109771D01*
X152433240Y-59107418D01*
X152436661Y-59103355D01*
X152462634Y-59077395D01*
X152471587Y-59061892D01*
X152478645Y-59053514D01*
X152479161Y-59053172D01*
X152480272Y-59051622D01*
X152723634Y-58774275D01*
X152731319Y-58766273D01*
X153024669Y-58487037D01*
X153033054Y-58479744D01*
X153350280Y-58227939D01*
X153359258Y-58221448D01*
X153697803Y-57999105D01*
X153707337Y-57993440D01*
X154064444Y-57802372D01*
X154074439Y-57797587D01*
X154075834Y-57796995D01*
X154123340Y-57787135D01*
X157944010Y-57757769D01*
X157994034Y-57767889D01*
G37*
%TD.AperFunction*%
%TD*%
M02*
