%TF.GenerationSoftware,KiCad,Pcbnew,10.0.1*%
%TF.CreationDate,2026-06-14T11:07:34+02:00*%
%TF.ProjectId,Aero-Zero,4165726f-2d5a-4657-926f-2e6b69636164,rev?*%
%TF.SameCoordinates,Original*%
%TF.FileFunction,Copper,L4,Bot*%
%TF.FilePolarity,Positive*%
%FSLAX46Y46*%
G04 Gerber Fmt 4.6, Leading zero omitted, Abs format (unit mm)*
G04 Created by KiCad (PCBNEW 10.0.1) date 2026-06-14 11:07:34*
%MOMM*%
%LPD*%
G01*
G04 APERTURE LIST*
G04 Aperture macros list*
%AMRoundRect*
0 Rectangle with rounded corners*
0 $1 Rounding radius*
0 $2 $3 $4 $5 $6 $7 $8 $9 X,Y pos of 4 corners*
0 Add a 4 corners polygon primitive as box body*
4,1,4,$2,$3,$4,$5,$6,$7,$8,$9,$2,$3,0*
0 Add four circle primitives for the rounded corners*
1,1,$1+$1,$2,$3*
1,1,$1+$1,$4,$5*
1,1,$1+$1,$6,$7*
1,1,$1+$1,$8,$9*
0 Add four rect primitives between the rounded corners*
20,1,$1+$1,$2,$3,$4,$5,0*
20,1,$1+$1,$4,$5,$6,$7,0*
20,1,$1+$1,$6,$7,$8,$9,0*
20,1,$1+$1,$8,$9,$2,$3,0*%
%AMRotRect*
0 Rectangle, with rotation*
0 The origin of the aperture is its center*
0 $1 length*
0 $2 width*
0 $3 Rotation angle, in degrees counterclockwise*
0 Add horizontal line*
21,1,$1,$2,0,0,$3*%
G04 Aperture macros list end*
%TA.AperFunction,ComponentPad*%
%ADD10C,3.000000*%
%TD*%
%TA.AperFunction,ComponentPad*%
%ADD11O,1.000000X2.100000*%
%TD*%
%TA.AperFunction,ComponentPad*%
%ADD12O,1.000000X1.600000*%
%TD*%
%TA.AperFunction,ComponentPad*%
%ADD13C,1.508000*%
%TD*%
%TA.AperFunction,ComponentPad*%
%ADD14R,1.700000X1.700000*%
%TD*%
%TA.AperFunction,ComponentPad*%
%ADD15C,1.700000*%
%TD*%
%TA.AperFunction,SMDPad,CuDef*%
%ADD16RoundRect,0.135000X-0.135000X-0.185000X0.135000X-0.185000X0.135000X0.185000X-0.135000X0.185000X0*%
%TD*%
%TA.AperFunction,SMDPad,CuDef*%
%ADD17RoundRect,0.135000X-0.185000X0.135000X-0.185000X-0.135000X0.185000X-0.135000X0.185000X0.135000X0*%
%TD*%
%TA.AperFunction,SMDPad,CuDef*%
%ADD18RoundRect,0.225000X0.250000X-0.225000X0.250000X0.225000X-0.250000X0.225000X-0.250000X-0.225000X0*%
%TD*%
%TA.AperFunction,SMDPad,CuDef*%
%ADD19R,1.000000X1.000000*%
%TD*%
%TA.AperFunction,SMDPad,CuDef*%
%ADD20RoundRect,0.225000X-0.424264X-0.106066X-0.106066X-0.424264X0.424264X0.106066X0.106066X0.424264X0*%
%TD*%
%TA.AperFunction,SMDPad,CuDef*%
%ADD21R,1.000000X0.750000*%
%TD*%
%TA.AperFunction,SMDPad,CuDef*%
%ADD22RoundRect,0.150000X0.625000X-0.150000X0.625000X0.150000X-0.625000X0.150000X-0.625000X-0.150000X0*%
%TD*%
%TA.AperFunction,SMDPad,CuDef*%
%ADD23RoundRect,0.250000X0.650000X-0.350000X0.650000X0.350000X-0.650000X0.350000X-0.650000X-0.350000X0*%
%TD*%
%TA.AperFunction,SMDPad,CuDef*%
%ADD24RoundRect,0.135000X0.185000X-0.135000X0.185000X0.135000X-0.185000X0.135000X-0.185000X-0.135000X0*%
%TD*%
%TA.AperFunction,SMDPad,CuDef*%
%ADD25RoundRect,0.140000X0.170000X-0.140000X0.170000X0.140000X-0.170000X0.140000X-0.170000X-0.140000X0*%
%TD*%
%TA.AperFunction,SMDPad,CuDef*%
%ADD26RoundRect,0.150000X-0.625000X0.150000X-0.625000X-0.150000X0.625000X-0.150000X0.625000X0.150000X0*%
%TD*%
%TA.AperFunction,SMDPad,CuDef*%
%ADD27RoundRect,0.250000X-0.650000X0.350000X-0.650000X-0.350000X0.650000X-0.350000X0.650000X0.350000X0*%
%TD*%
%TA.AperFunction,SMDPad,CuDef*%
%ADD28RoundRect,0.150000X-0.309359X-0.521491X0.521491X0.309359X0.309359X0.521491X-0.521491X-0.309359X0*%
%TD*%
%TA.AperFunction,SMDPad,CuDef*%
%ADD29RotRect,2.400000X2.400000X315.000000*%
%TD*%
%TA.AperFunction,SMDPad,CuDef*%
%ADD30R,1.200000X0.700000*%
%TD*%
%TA.AperFunction,SMDPad,CuDef*%
%ADD31R,1.200000X1.000000*%
%TD*%
%TA.AperFunction,SMDPad,CuDef*%
%ADD32R,2.800000X1.000000*%
%TD*%
%TA.AperFunction,SMDPad,CuDef*%
%ADD33R,1.900000X1.300000*%
%TD*%
%TA.AperFunction,SMDPad,CuDef*%
%ADD34R,0.800000X1.000000*%
%TD*%
%TA.AperFunction,SMDPad,CuDef*%
%ADD35RoundRect,0.140000X0.140000X0.170000X-0.140000X0.170000X-0.140000X-0.170000X0.140000X-0.170000X0*%
%TD*%
%TA.AperFunction,ViaPad*%
%ADD36C,0.600000*%
%TD*%
%TA.AperFunction,ViaPad*%
%ADD37C,0.800000*%
%TD*%
%TA.AperFunction,ViaPad*%
%ADD38C,1.000000*%
%TD*%
%TA.AperFunction,Conductor*%
%ADD39C,0.300000*%
%TD*%
%TA.AperFunction,Conductor*%
%ADD40C,0.200000*%
%TD*%
%TA.AperFunction,Conductor*%
%ADD41C,0.800000*%
%TD*%
%TA.AperFunction,Conductor*%
%ADD42C,0.500000*%
%TD*%
G04 APERTURE END LIST*
D10*
%TO.P,TP1,1,1_1*%
%TO.N,/VBAT*%
X169180000Y-70510000D03*
%TD*%
D11*
%TO.P,J9,SH,SHIELD_SH*%
%TO.N,GND*%
X137390000Y-89590000D03*
D12*
X137390000Y-93770000D03*
D11*
X146030000Y-89590000D03*
D12*
X146030000Y-93770000D03*
%TD*%
D13*
%TO.P,U3,2,5V_2_2*%
%TO.N,/+5V*%
X164950000Y-64460000D03*
%TO.P,U3,4,5V_4_4*%
X162410000Y-64460000D03*
%TO.P,U3,6,GND_6_6*%
%TO.N,GND*%
X159870000Y-64460000D03*
%TO.P,U3,8,GPIO14/TXD0_8*%
%TO.N,/RPI_TX*%
X157330000Y-64460000D03*
%TO.P,U3,9,GND_9_9*%
%TO.N,GND*%
X154790000Y-67000000D03*
%TO.P,U3,10,GPIO15/RXD0_10*%
%TO.N,/RPI_RX*%
X154790000Y-64460000D03*
%TO.P,U3,14,GND_14_14*%
%TO.N,GND*%
X149710000Y-64460000D03*
%TO.P,U3,15,GPIO22/GPIO_GEN3_15*%
%TO.N,/BOOT0*%
X147170000Y-67000000D03*
%TO.P,U3,25,GND_25_25*%
%TO.N,GND*%
X134470000Y-67000000D03*
%TO.P,U3,29,GPIO5_29*%
%TO.N,/NRST*%
X129390000Y-67000000D03*
%TD*%
D10*
%TO.P,TP2,1,1_1*%
%TO.N,GND*%
X169120000Y-84290000D03*
%TD*%
D14*
%TO.P,J7,1,Pin_1_1*%
%TO.N,/MCU_TX_to_ELRS_RX*%
X123560000Y-87260000D03*
D15*
%TO.P,J7,2,Pin_2_2*%
%TO.N,/MCU_RX_to_ELRS_TX*%
X121020000Y-87260000D03*
%TO.P,J7,3,Pin_3_3*%
%TO.N,/+5V*%
X118480000Y-87260000D03*
%TO.P,J7,4,Pin_4_4*%
%TO.N,GND*%
X115940000Y-87260000D03*
%TD*%
D16*
%TO.P,R68,1*%
%TO.N,/CARD_DETECT*%
X114120000Y-85280000D03*
%TO.P,R68,2*%
%TO.N,/+3V3*%
X115140000Y-85280000D03*
%TD*%
D17*
%TO.P,R2,1*%
%TO.N,/+3V3*%
X131280000Y-78020000D03*
%TO.P,R2,2*%
%TO.N,/NRST*%
X131280000Y-79040000D03*
%TD*%
D18*
%TO.P,C68,1*%
%TO.N,/+3V3*%
X128570000Y-77470000D03*
%TO.P,C68,2*%
%TO.N,GND*%
X128570000Y-75920000D03*
%TD*%
D19*
%TO.P,TP3,1,1_1*%
%TO.N,/SWDIO*%
X133330000Y-70170000D03*
%TD*%
D20*
%TO.P,D4,1,K_1*%
%TO.N,/+5V*%
X153853274Y-80323274D03*
%TO.P,D4,2,A_2*%
%TO.N,Net-(BZ1--)*%
X156186726Y-82656726D03*
%TD*%
D21*
%TO.P,Flash1,1,1_1*%
%TO.N,/+3V3*%
X140700000Y-63775000D03*
X146700000Y-63775000D03*
%TO.P,Flash1,2,2_2*%
%TO.N,/BOOT0*%
X140700000Y-60025000D03*
X146700000Y-60025000D03*
%TD*%
D22*
%TO.P,J1,1,Pin_1_1*%
%TO.N,/VBAT*%
X164095000Y-73510000D03*
%TO.P,J1,2,Pin_2_2*%
%TO.N,GND*%
X164095000Y-72510000D03*
%TO.P,J1,3,Pin_3_3*%
%TO.N,/MCU_TX_to_VTX_RX*%
X164095000Y-71510000D03*
%TO.P,J1,4,Pin_4_4*%
%TO.N,/MCU_RX_to_VTX_TX*%
X164095000Y-70510000D03*
D23*
%TO.P,J1,MP,MountPin_MP*%
%TO.N,GND*%
X160220000Y-74810000D03*
X160220000Y-69210000D03*
%TD*%
D24*
%TO.P,R53,1*%
%TO.N,/SDIO_CMD*%
X120790000Y-68830000D03*
%TO.P,R53,2*%
%TO.N,/+3V3*%
X120790000Y-67810000D03*
%TD*%
D21*
%TO.P,Reset2,1,1_1*%
%TO.N,GND*%
X138460000Y-60035000D03*
X132460000Y-60035000D03*
%TO.P,Reset2,2,2_2*%
%TO.N,/NRST*%
X138460000Y-63785000D03*
X132460000Y-63785000D03*
%TD*%
D16*
%TO.P,R6,1*%
%TO.N,/BUZZER*%
X156300000Y-88430000D03*
%TO.P,R6,2*%
%TO.N,Net-(Q1-B)*%
X157320000Y-88430000D03*
%TD*%
D25*
%TO.P,C69,1*%
%TO.N,/+3V3*%
X126500000Y-77470000D03*
%TO.P,C69,2*%
%TO.N,GND*%
X126500000Y-76510000D03*
%TD*%
D24*
%TO.P,R69,1*%
%TO.N,/SDIO_D3*%
X121849480Y-68830000D03*
%TO.P,R69,2*%
%TO.N,/+3V3*%
X121849480Y-67810000D03*
%TD*%
D26*
%TO.P,J5,1,Pin_1_1*%
%TO.N,GND*%
X167940000Y-73740000D03*
%TO.P,J5,2,Pin_2_2*%
%TO.N,/VBAT*%
X167940000Y-74740000D03*
%TO.P,J5,3,Pin_3_3*%
%TO.N,/M1*%
X167940000Y-75740000D03*
%TO.P,J5,4,Pin_4_4*%
%TO.N,/M2*%
X167940000Y-76740000D03*
%TO.P,J5,5,Pin_5_5*%
%TO.N,/M3*%
X167940000Y-77740000D03*
%TO.P,J5,6,Pin_6_6*%
%TO.N,/M4*%
X167940000Y-78740000D03*
%TO.P,J5,7,Pin_7_7*%
%TO.N,/CURR*%
X167940000Y-79740000D03*
%TO.P,J5,8,Pin_8_8*%
%TO.N,/ESC_RX*%
X167940000Y-80740000D03*
D27*
%TO.P,J5,MP,MountPin_MP*%
%TO.N,GND*%
X171815000Y-72440000D03*
X171815000Y-82040000D03*
%TD*%
D28*
%TO.P,Q1,1,B_1*%
%TO.N,Net-(Q1-B)*%
X161070000Y-89020000D03*
%TO.P,Q1,2,E_2*%
%TO.N,GND*%
X159726497Y-87676497D03*
%TO.P,Q1,3,C_3*%
%TO.N,Net-(BZ1--)*%
X161724074Y-87022423D03*
%TD*%
D24*
%TO.P,R71,1*%
%TO.N,/SDIO_D1*%
X118670000Y-68830000D03*
%TO.P,R71,2*%
%TO.N,/+3V3*%
X118670000Y-67810000D03*
%TD*%
D19*
%TO.P,TP4,1,1_1*%
%TO.N,/SWCLK*%
X131280000Y-70170000D03*
%TD*%
D29*
%TO.P,BZ1,1,+_1*%
%TO.N,/+5V*%
X150550000Y-80838831D03*
%TO.P,BZ1,2,-_2*%
%TO.N,Net-(BZ1--)*%
X155641169Y-85930000D03*
%TO.P,BZ1,3*%
%TO.N,N/C*%
X150550000Y-91020462D03*
%TO.P,BZ1,4*%
X145458831Y-85930000D03*
%TD*%
D30*
%TO.P,J4,1,DAT2_1*%
%TO.N,/SDIO_D2*%
X124972500Y-74177500D03*
%TO.P,J4,2,CD/DAT3_2*%
%TO.N,/SDIO_D3*%
X124972500Y-75277500D03*
%TO.P,J4,3,CMD_3*%
%TO.N,/SDIO_CMD*%
X124972500Y-76377500D03*
%TO.P,J4,4,VDD_4*%
%TO.N,/+3V3*%
X124972500Y-77477500D03*
%TO.P,J4,5,CLK_5*%
%TO.N,/SDIO_CLK*%
X124972500Y-78577500D03*
%TO.P,J4,6,VSS_6*%
%TO.N,GND*%
X124972500Y-79677500D03*
%TO.P,J4,7,DAT0_7*%
%TO.N,/SDIO_D0*%
X124972500Y-80777500D03*
%TO.P,J4,8,DAT1_8*%
%TO.N,/SDIO_D1*%
X124972500Y-81877500D03*
D31*
%TO.P,J4,P1,SHIELD_P1*%
%TO.N,GND*%
X120672500Y-83777500D03*
D32*
%TO.P,J4,P2,SHIELD_P2*%
X110322500Y-83777500D03*
D33*
%TO.P,J4,P3,SHIELD_P3*%
X109872500Y-70277500D03*
D31*
%TO.P,J4,P4,SHIELD_P4*%
X124972500Y-72627500D03*
D34*
%TO.P,J4,SWA,A_SWA*%
%TO.N,/CARD_DETECT*%
X114472500Y-83777500D03*
D30*
%TO.P,J4,SWB,B_SWB*%
%TO.N,GND*%
X124972500Y-82827500D03*
%TD*%
D24*
%TO.P,R70,1*%
%TO.N,/SDIO_D0*%
X119729480Y-68830000D03*
%TO.P,R70,2*%
%TO.N,/+3V3*%
X119729480Y-67810000D03*
%TD*%
%TO.P,R72,1*%
%TO.N,/SDIO_D2*%
X122909480Y-68830000D03*
%TO.P,R72,2*%
%TO.N,/+3V3*%
X122909480Y-67810000D03*
%TD*%
D35*
%TO.P,C35,1*%
%TO.N,/NRST*%
X127860000Y-67000000D03*
%TO.P,C35,2*%
%TO.N,GND*%
X126900000Y-67000000D03*
%TD*%
D36*
%TO.N,/+3V3*%
X136284619Y-73672386D03*
X135884619Y-72304619D03*
X128280000Y-69088000D03*
X124660000Y-67230000D03*
X118410000Y-85540000D03*
X130660000Y-71500000D03*
%TO.N,GND*%
X158220000Y-88140000D03*
X122850000Y-85540000D03*
X126438527Y-88260000D03*
X127747892Y-71432108D03*
X161250000Y-83030000D03*
X135010408Y-76398318D03*
X164960000Y-89810000D03*
X145950000Y-65090000D03*
X159840000Y-83580000D03*
X120390000Y-85390000D03*
X129290000Y-94400000D03*
X158790000Y-86820000D03*
X115150000Y-77550000D03*
X123750000Y-74677500D03*
X158850000Y-73330000D03*
X110600000Y-81910000D03*
X143150000Y-64880000D03*
X135790000Y-86030000D03*
X132540000Y-72340000D03*
X121250000Y-72811572D03*
X116560000Y-65300000D03*
X121920735Y-83127500D03*
D37*
X165367909Y-69979999D03*
D36*
X115970000Y-90100000D03*
X144474265Y-76534265D03*
X163060000Y-68810000D03*
X123140000Y-66070000D03*
X164350000Y-79630000D03*
X133330000Y-77690000D03*
X147580735Y-76810735D03*
X118072500Y-75410000D03*
X132380000Y-79950000D03*
X140580000Y-67440000D03*
X140800000Y-76880000D03*
X141407892Y-82974951D03*
X157860000Y-69600000D03*
X157520000Y-83190000D03*
X153930000Y-73680000D03*
X135850000Y-89130000D03*
X134140000Y-59940000D03*
X141500000Y-91400000D03*
X154820000Y-79380000D03*
X126330735Y-83079265D03*
X126670000Y-79690000D03*
X110970000Y-72730000D03*
X127350000Y-76820000D03*
X144217055Y-83480000D03*
X123881535Y-67850000D03*
X143210000Y-70710000D03*
X130190000Y-89020000D03*
X138960000Y-75440000D03*
X127320000Y-66040000D03*
X148560000Y-89520000D03*
X122812059Y-73807942D03*
X160220000Y-74810000D03*
X151130000Y-61680000D03*
X149250000Y-82730000D03*
X140230000Y-60970000D03*
X146360000Y-87500000D03*
X145940000Y-72010000D03*
X158420000Y-75100000D03*
X125390000Y-71290000D03*
X142830000Y-74860000D03*
X137730000Y-87090000D03*
X140820000Y-77580000D03*
X145216571Y-79166273D03*
X166290000Y-66550000D03*
X140169388Y-69470000D03*
X166330000Y-79530000D03*
X139840000Y-73720000D03*
D38*
%TO.N,/VBAT*%
X166090000Y-74740000D03*
D36*
%TO.N,/5V_USB*%
X146400000Y-81380000D03*
X139560000Y-87158527D03*
%TO.N,/+5V*%
X150920000Y-68737500D03*
X152060000Y-79340000D03*
X131970000Y-66800000D03*
%TO.N,/LED1*%
X135120000Y-91080000D03*
X137748467Y-85720000D03*
%TO.N,/3V3_SENSOR*%
X130480000Y-72650000D03*
X126650000Y-72650000D03*
X123724312Y-69050000D03*
%TO.N,/I2C1_SDA*%
X115170000Y-69810000D03*
X127080000Y-70440000D03*
%TO.N,/I2C1_SCL*%
X127380000Y-69650000D03*
X116039265Y-69830735D03*
%TO.N,/VBAT{slash}ADC*%
X128450000Y-80177500D03*
X164660000Y-80830000D03*
%TO.N,/MCU_TX_to_LIDAR_RX*%
X115810000Y-82077500D03*
X123030000Y-82080000D03*
%TO.N,/MCU_RX_to_LIDAR_TX*%
X119150000Y-84790000D03*
X115500000Y-83970000D03*
%TO.N,/SPI1_MISO*%
X130190000Y-84340000D03*
X139305782Y-79170002D03*
%TO.N,/ICM_INT*%
X140810000Y-80230000D03*
X133038645Y-83790000D03*
%TO.N,/ICM_CS*%
X138690000Y-76730000D03*
X128833981Y-83997489D03*
%TO.N,/SPI1_SCK*%
X128888503Y-84795628D03*
X138260000Y-77420211D03*
%TO.N,/SPI1_MOSI*%
X137827238Y-78178701D03*
X131649469Y-83729469D03*
%TO.N,/LED_STRIP*%
X139240000Y-67454000D03*
%TO.N,/MCU_TX_to_GPS_RX*%
X115830000Y-73810000D03*
X132466960Y-85731569D03*
%TO.N,/MCU_RX_to_GPS_TX*%
X115470000Y-74810000D03*
X131500000Y-88820000D03*
%TO.N,/BOOT0*%
X130373061Y-68800000D03*
X128365787Y-72050000D03*
%TO.N,/LED3*%
X144680000Y-66050000D03*
X151310000Y-82950000D03*
%TO.N,/NRST*%
X129390000Y-68750000D03*
X128130000Y-79330000D03*
%TO.N,/RPI_TX*%
X152080000Y-74140000D03*
X138480577Y-82675139D03*
%TO.N,/RPI_RX*%
X137860000Y-83180000D03*
X147553579Y-75980735D03*
%TO.N,/CURR*%
X164515000Y-82745000D03*
X128420000Y-82670000D03*
%TO.N,/M3*%
X126430000Y-84080000D03*
%TO.N,/M4*%
X126700000Y-85200000D03*
%TO.N,/ESC_RX*%
X164790000Y-83890000D03*
X131930000Y-89690000D03*
%TO.N,/M1*%
X134812059Y-83136470D03*
%TO.N,/M2*%
X134440000Y-85120000D03*
%TO.N,/BUZZER*%
X147130000Y-84080000D03*
X138140000Y-84080000D03*
%TO.N,/SDIO_D0*%
X129945000Y-80800000D03*
%TO.N,/SDIO_D1*%
X131129265Y-81150735D03*
%TO.N,/MCU_TX_to_VTX_RX*%
X138317566Y-80760000D03*
%TO.N,/MCU_RX_to_VTX_TX*%
X137793526Y-80154999D03*
%TO.N,/SWDIO*%
X135060508Y-77196748D03*
%TO.N,/SWCLK*%
X134814239Y-74294239D03*
%TO.N,/SDIO_D2*%
X133345000Y-73925000D03*
%TO.N,/SDIO_D3*%
X132480000Y-74110000D03*
%TO.N,/SDIO_CLK*%
X130310000Y-78580000D03*
%TO.N,/SDIO_CMD*%
X131620000Y-74390000D03*
%TD*%
%TO.N,/+3V3*%
D39*
X131577807Y-76602193D02*
X131280000Y-76900000D01*
D40*
X140700000Y-63775000D02*
X140700000Y-63765000D01*
X115920000Y-85280000D02*
X115140000Y-85280000D01*
D39*
X128580000Y-77480000D02*
X128570000Y-77470000D01*
X131280000Y-76900000D02*
X130710000Y-77470000D01*
D40*
X118398242Y-85528242D02*
X118410000Y-85540000D01*
X123549480Y-68450000D02*
X122909480Y-67810000D01*
X139722716Y-62787716D02*
X129102284Y-62787716D01*
X128280000Y-69088000D02*
X127642000Y-68450000D01*
D39*
X128570000Y-77470000D02*
X130710000Y-77470000D01*
X126500000Y-77470000D02*
X124980000Y-77470000D01*
D40*
X140730000Y-63795000D02*
X146730000Y-63795000D01*
D39*
X131280000Y-78020000D02*
X131280000Y-76900000D01*
D40*
X115920000Y-85280000D02*
X116168242Y-85528242D01*
D39*
X131587045Y-76602193D02*
X131577807Y-76602193D01*
D40*
X140700000Y-63765000D02*
X139722716Y-62787716D01*
D39*
X131587045Y-76602193D02*
X135884619Y-72304619D01*
D40*
X122909480Y-67810000D02*
X118670000Y-67810000D01*
X116168242Y-85528242D02*
X118398242Y-85528242D01*
X129102284Y-62787716D02*
X124660000Y-67230000D01*
X127642000Y-68450000D02*
X123549480Y-68450000D01*
D39*
X126500000Y-77470000D02*
X128570000Y-77470000D01*
%TO.N,GND*%
D40*
X127040000Y-76510000D02*
X127350000Y-76820000D01*
X125390000Y-71290000D02*
X125390000Y-71490000D01*
X126670000Y-79690000D02*
X126757500Y-79777500D01*
X128330000Y-75920000D02*
X128570000Y-75920000D01*
X127350000Y-76820000D02*
X127430000Y-76820000D01*
X126500000Y-76510000D02*
X127040000Y-76510000D01*
X125390000Y-71490000D02*
X124972500Y-71907500D01*
X124972500Y-71907500D02*
X124972500Y-72627500D01*
X127430000Y-76820000D02*
X128330000Y-75920000D01*
%TO.N,/VBAT*%
D41*
X164095000Y-73510000D02*
X164860000Y-73510000D01*
X167940000Y-74740000D02*
X166090000Y-74740000D01*
X164860000Y-73510000D02*
X166090000Y-74740000D01*
%TO.N,/5V_USB*%
D42*
X139560000Y-87030000D02*
X145210000Y-81380000D01*
X145210000Y-81380000D02*
X146400000Y-81380000D01*
X139560000Y-87158527D02*
X139560000Y-87030000D01*
%TO.N,/+5V*%
X150920000Y-68737500D02*
X150902500Y-68720000D01*
X150550000Y-80838831D02*
X150561169Y-80838831D01*
X150902500Y-68720000D02*
X140230000Y-68720000D01*
X133890000Y-68720000D02*
X131970000Y-66800000D01*
X151065557Y-80323274D02*
X150550000Y-80838831D01*
X150561169Y-80838831D02*
X152060000Y-79340000D01*
X140230000Y-68720000D02*
X133890000Y-68720000D01*
X153853274Y-80323274D02*
X151065557Y-80323274D01*
%TO.N,/3V3_SENSOR*%
D40*
X127990000Y-72650000D02*
X130480000Y-72650000D01*
X126650000Y-72650000D02*
X127990000Y-72650000D01*
X124390000Y-69050000D02*
X127990000Y-72650000D01*
X123724312Y-69050000D02*
X124390000Y-69050000D01*
%TO.N,/SPI1_MISO*%
X131887467Y-84340000D02*
X130190000Y-84340000D01*
X136774621Y-79170002D02*
X132249469Y-83695155D01*
X132249469Y-83977998D02*
X131887467Y-84340000D01*
X139305782Y-79170002D02*
X136774621Y-79170002D01*
X132249469Y-83695155D02*
X132249469Y-83977998D01*
%TO.N,/ICM_INT*%
X133310000Y-83790000D02*
X135024861Y-82075139D01*
X133038645Y-83790000D02*
X133310000Y-83790000D01*
X135024861Y-82075139D02*
X138964861Y-82075139D01*
X138964861Y-82075139D02*
X140810000Y-80230000D01*
%TO.N,/ICM_CS*%
X130614314Y-83340000D02*
X137224314Y-76730000D01*
X128833981Y-83997489D02*
X129116825Y-83997489D01*
X129774315Y-83340000D02*
X130614314Y-83340000D01*
X138690000Y-76730000D02*
X137224314Y-76730000D01*
X129116825Y-83997489D02*
X129774315Y-83340000D01*
%TO.N,/SPI1_SCK*%
X138260000Y-77420211D02*
X137099789Y-77420211D01*
X129940000Y-83740000D02*
X128888503Y-84791497D01*
X130780000Y-83740000D02*
X129940000Y-83740000D01*
X128888503Y-84791497D02*
X128888503Y-84795628D01*
X137099789Y-77420211D02*
X130780000Y-83740000D01*
%TO.N,/SPI1_MOSI*%
X137827238Y-78178701D02*
X137200236Y-78178701D01*
X137200236Y-78178701D02*
X131649469Y-83729469D01*
%TO.N,/BOOT0*%
X147500000Y-66670000D02*
X147170000Y-67000000D01*
X128365787Y-72050000D02*
X128365787Y-71864213D01*
X146600000Y-60045000D02*
X146730000Y-60045000D01*
X128365787Y-71864213D02*
X130373061Y-69856939D01*
X146700000Y-60025000D02*
X147500000Y-60825000D01*
X130373061Y-69856939D02*
X130373061Y-68800000D01*
X147500000Y-60825000D02*
X147500000Y-66670000D01*
X140730000Y-60045000D02*
X146600000Y-60045000D01*
%TO.N,/NRST*%
X130990000Y-79330000D02*
X128130000Y-79330000D01*
X129390000Y-67000000D02*
X129390000Y-65850000D01*
X132460000Y-63785000D02*
X138460000Y-63785000D01*
X129390000Y-65850000D02*
X131455000Y-63785000D01*
X127860000Y-67000000D02*
X129390000Y-67000000D01*
X129390000Y-67000000D02*
X129390000Y-68750000D01*
X131280000Y-79040000D02*
X130990000Y-79330000D01*
X131455000Y-63785000D02*
X132460000Y-63785000D01*
%TO.N,/RPI_TX*%
X139453489Y-82675139D02*
X147988628Y-74140000D01*
X138480577Y-82675139D02*
X139453489Y-82675139D01*
X147988628Y-74140000D02*
X152080000Y-74140000D01*
%TO.N,/RPI_RX*%
X140254314Y-83280000D02*
X137960000Y-83280000D01*
X147553579Y-75980735D02*
X140254314Y-83280000D01*
X137960000Y-83280000D02*
X137860000Y-83180000D01*
%TO.N,/CURR*%
X167520000Y-79740000D02*
X167940000Y-79740000D01*
X164515000Y-82745000D02*
X167520000Y-79740000D01*
%TO.N,/M3*%
X126700000Y-84080000D02*
X126430000Y-84080000D01*
X164293363Y-77740000D02*
X164290011Y-77736648D01*
X130440000Y-87820000D02*
X126700000Y-84080000D01*
X167940000Y-77740000D02*
X164293363Y-77740000D01*
X140808527Y-87820000D02*
X130440000Y-87820000D01*
X164290011Y-77736648D02*
X154630000Y-77736648D01*
X154630000Y-77736648D02*
X150891881Y-77736648D01*
X150891881Y-77736648D02*
X140808527Y-87820000D01*
%TO.N,/M4*%
X140974213Y-88220000D02*
X150454214Y-78740000D01*
X129720000Y-88220000D02*
X140965686Y-88220000D01*
X140965686Y-88220000D02*
X140974213Y-88220000D01*
X126700000Y-85200000D02*
X129720000Y-88220000D01*
X140965686Y-88219999D02*
X140965686Y-88220000D01*
X150454214Y-78740000D02*
X167940000Y-78740000D01*
%TO.N,/ESC_RX*%
X134480000Y-92240000D02*
X146800000Y-92240000D01*
X160898528Y-90040000D02*
X164790000Y-86148528D01*
X131930000Y-89690000D02*
X134480000Y-92240000D01*
X155954482Y-89023406D02*
X156971076Y-90040000D01*
X156971076Y-90040000D02*
X160898528Y-90040000D01*
X150016594Y-89023406D02*
X155954482Y-89023406D01*
X164790000Y-83890000D02*
X167940000Y-80740000D01*
X164790000Y-86148528D02*
X164790000Y-83890000D01*
X146800000Y-92240000D02*
X150016594Y-89023406D01*
%TO.N,/M1*%
X136355589Y-84680000D02*
X134812059Y-83136470D01*
X149500000Y-75740000D02*
X140560000Y-84680000D01*
X140560000Y-84680000D02*
X136355589Y-84680000D01*
X167940000Y-75740000D02*
X149500000Y-75740000D01*
%TO.N,/M2*%
X167940000Y-76740000D02*
X164193588Y-76740000D01*
X154440000Y-76740000D02*
X164183990Y-76740000D01*
X149070000Y-76740000D02*
X154440000Y-76740000D01*
X140690000Y-85120000D02*
X149070000Y-76740000D01*
X134440000Y-85120000D02*
X140690000Y-85120000D01*
%TO.N,/BUZZER*%
X151480000Y-88430000D02*
X147130000Y-84080000D01*
X156220000Y-88430000D02*
X151480000Y-88430000D01*
%TO.N,/SDIO_D0*%
X122646814Y-79786128D02*
X122646814Y-75622599D01*
X123638186Y-80777500D02*
X122646814Y-79786128D01*
X122646814Y-75622599D02*
X119729480Y-72705265D01*
X119729480Y-72705265D02*
X119729480Y-68830000D01*
X124972500Y-80777500D02*
X123638186Y-80777500D01*
X129945000Y-80780000D02*
X129942500Y-80777500D01*
X129945000Y-80800000D02*
X129945000Y-80780000D01*
X129942500Y-80777500D02*
X124972500Y-80777500D01*
%TO.N,/SDIO_D1*%
X124972500Y-81877500D02*
X124172500Y-81877500D01*
X119080000Y-72630000D02*
X118670000Y-72220000D01*
X124980000Y-81870000D02*
X124972500Y-81877500D01*
X130410000Y-81870000D02*
X124980000Y-81870000D01*
X122246814Y-75788285D02*
X119088529Y-72630000D01*
X119088529Y-72630000D02*
X119080000Y-72630000D01*
X124172500Y-81877500D02*
X122246814Y-79951814D01*
X118670000Y-72220000D02*
X118670000Y-68830000D01*
X131129265Y-81150735D02*
X130410000Y-81870000D01*
X122246814Y-79951814D02*
X122246814Y-75788285D01*
%TO.N,/MCU_TX_to_VTX_RX*%
X139310000Y-80760000D02*
X148560000Y-71510000D01*
X138317566Y-80760000D02*
X139310000Y-80760000D01*
X148560000Y-71510000D02*
X164095000Y-71510000D01*
%TO.N,/MCU_RX_to_VTX_TX*%
X137793527Y-80155000D02*
X138020000Y-80155000D01*
X137793526Y-80154999D02*
X137793527Y-80155000D01*
X139554312Y-79770002D02*
X148814314Y-70510000D01*
X148814314Y-70510000D02*
X164095000Y-70510000D01*
X139160000Y-80160000D02*
X139549998Y-79770002D01*
X138034436Y-80159436D02*
X138035000Y-80160000D01*
X138024436Y-80159436D02*
X138034436Y-80159436D01*
X138020000Y-80155000D02*
X138024436Y-80159436D01*
X139549998Y-79770002D02*
X139554312Y-79770002D01*
X138035000Y-80160000D02*
X139160000Y-80160000D01*
%TO.N,/SWDIO*%
X136884619Y-71890405D02*
X136884619Y-75372637D01*
X136884619Y-75372637D02*
X135060508Y-77196748D01*
X135164214Y-70170000D02*
X136884619Y-71890405D01*
X133330000Y-70170000D02*
X135164214Y-70170000D01*
%TO.N,/SWCLK*%
X132690000Y-71580000D02*
X131280000Y-70170000D01*
X134814239Y-74294239D02*
X136484619Y-72623859D01*
X136484619Y-72056090D02*
X136008529Y-71580000D01*
X136484619Y-72623859D02*
X136484619Y-72056090D01*
X136008529Y-71580000D02*
X132690000Y-71580000D01*
%TO.N,/SDIO_D2*%
X133345000Y-73925000D02*
X132810000Y-73390000D01*
X122909480Y-72114480D02*
X122909480Y-68830000D01*
X126774314Y-73390000D02*
X125986814Y-74177500D01*
X132810000Y-73390000D02*
X126774314Y-73390000D01*
X125986814Y-74177500D02*
X124972500Y-74177500D01*
X124972500Y-74177500D02*
X122909480Y-72114480D01*
%TO.N,/SDIO_D3*%
X121850000Y-68830520D02*
X121849480Y-68830000D01*
X124972500Y-75277500D02*
X123433087Y-75277500D01*
X125452500Y-75277500D02*
X124972500Y-75277500D01*
X126940000Y-73790000D02*
X125452500Y-75277500D01*
X132160000Y-73790000D02*
X126940000Y-73790000D01*
X132480000Y-74110000D02*
X132160000Y-73790000D01*
X121850000Y-73694413D02*
X121850000Y-68830520D01*
X123433087Y-75277500D02*
X121850000Y-73694413D01*
%TO.N,/SDIO_CLK*%
X124972500Y-78577500D02*
X130307500Y-78577500D01*
%TO.N,/SDIO_CMD*%
X131620000Y-74390000D02*
X131500000Y-74270000D01*
X120650000Y-73060099D02*
X120650000Y-68970000D01*
X131500000Y-74270000D02*
X127360000Y-74270000D01*
X123967401Y-76377500D02*
X120650000Y-73060099D01*
X124972500Y-76377500D02*
X123967401Y-76377500D01*
X127360000Y-74270000D02*
X125252500Y-76377500D01*
X125252500Y-76377500D02*
X124972500Y-76377500D01*
X120650000Y-68970000D02*
X120790000Y-68830000D01*
%TO.N,/CARD_DETECT*%
X114472500Y-84927500D02*
X114120000Y-85280000D01*
X114472500Y-83777500D02*
X114472500Y-84927500D01*
X114470000Y-83780000D02*
X114472500Y-83777500D01*
%TO.N,Net-(BZ1--)*%
D42*
X156186726Y-82656726D02*
X156186726Y-85384443D01*
X160631651Y-85930000D02*
X161724074Y-87022423D01*
X155641169Y-85930000D02*
X160631651Y-85930000D01*
X156186726Y-85384443D02*
X155641169Y-85930000D01*
%TO.N,Net-(Q1-B)*%
D40*
X160450000Y-89640000D02*
X158450000Y-89640000D01*
X161070000Y-89020000D02*
X160450000Y-89640000D01*
X158450000Y-89640000D02*
X157330000Y-88520000D01*
%TD*%
%TA.AperFunction,Conductor*%
%TO.N,GND*%
G36*
X166963127Y-79114185D02*
G01*
X166983769Y-79130819D01*
X167005269Y-79152319D01*
X167038754Y-79213642D01*
X167033770Y-79283334D01*
X167005269Y-79327681D01*
X166983678Y-79349271D01*
X166983675Y-79349276D01*
X166925500Y-79463447D01*
X166910500Y-79558160D01*
X166910500Y-79796799D01*
X166890815Y-79863838D01*
X166874181Y-79884480D01*
X164604480Y-82154181D01*
X164543157Y-82187666D01*
X164516799Y-82190500D01*
X164441999Y-82190500D01*
X164300971Y-82228288D01*
X164300968Y-82228289D01*
X164174532Y-82301286D01*
X164174527Y-82301290D01*
X164071290Y-82404527D01*
X164071286Y-82404532D01*
X163998289Y-82530968D01*
X163998288Y-82530971D01*
X163960500Y-82671999D01*
X163960500Y-82818001D01*
X163995650Y-82949181D01*
X163998288Y-82959028D01*
X163998289Y-82959031D01*
X164071286Y-83085467D01*
X164071288Y-83085470D01*
X164071289Y-83085471D01*
X164174529Y-83188711D01*
X164174530Y-83188712D01*
X164174532Y-83188713D01*
X164219642Y-83214757D01*
X164300971Y-83261712D01*
X164356250Y-83276524D01*
X164415910Y-83312887D01*
X164446440Y-83375734D01*
X164438146Y-83445110D01*
X164411839Y-83483979D01*
X164346286Y-83549532D01*
X164273289Y-83675968D01*
X164273288Y-83675971D01*
X164235500Y-83816999D01*
X164235500Y-83963001D01*
X164268059Y-84084512D01*
X164273288Y-84104028D01*
X164273289Y-84104031D01*
X164346286Y-84230467D01*
X164346290Y-84230472D01*
X164399181Y-84283363D01*
X164432666Y-84344686D01*
X164435500Y-84371044D01*
X164435500Y-85950326D01*
X164415815Y-86017365D01*
X164399181Y-86038007D01*
X162032725Y-88404463D01*
X161971402Y-88437948D01*
X161901710Y-88432964D01*
X161857363Y-88404463D01*
X161642875Y-88189975D01*
X161642874Y-88189974D01*
X161565288Y-88133604D01*
X161565287Y-88133603D01*
X161559314Y-88129264D01*
X161516649Y-88073933D01*
X161510670Y-88004320D01*
X161543276Y-87942525D01*
X161593883Y-87911015D01*
X161600644Y-87908819D01*
X161678229Y-87852449D01*
X162554100Y-86976578D01*
X162610470Y-86898993D01*
X162650065Y-86777130D01*
X162650065Y-86648998D01*
X162610470Y-86527135D01*
X162554100Y-86449549D01*
X162296948Y-86192397D01*
X162219362Y-86136027D01*
X162188896Y-86126128D01*
X162097502Y-86096432D01*
X162097499Y-86096432D01*
X161969367Y-86096432D01*
X161969363Y-86096432D01*
X161847504Y-86136027D01*
X161847501Y-86136028D01*
X161769909Y-86192404D01*
X161769480Y-86192771D01*
X161769283Y-86192858D01*
X161765979Y-86195260D01*
X161765474Y-86194565D01*
X161705717Y-86221336D01*
X161636632Y-86210893D01*
X161601276Y-86186155D01*
X161308184Y-85893063D01*
X160941421Y-85526299D01*
X160863949Y-85481571D01*
X160863948Y-85481570D01*
X160826386Y-85459883D01*
X160826385Y-85459882D01*
X160815863Y-85457062D01*
X160698070Y-85425500D01*
X160698067Y-85425500D01*
X157245005Y-85425500D01*
X157177966Y-85405815D01*
X157157324Y-85389181D01*
X156727545Y-84959402D01*
X156694060Y-84898079D01*
X156691226Y-84871721D01*
X156691226Y-83199902D01*
X156710911Y-83132863D01*
X156727545Y-83112221D01*
X156982474Y-82857292D01*
X156982479Y-82857287D01*
X157018519Y-82812563D01*
X157075798Y-82687140D01*
X157095420Y-82550660D01*
X157075798Y-82414180D01*
X157074338Y-82410984D01*
X157050057Y-82357815D01*
X157018519Y-82288757D01*
X157006505Y-82273849D01*
X156982481Y-82244035D01*
X156982474Y-82244027D01*
X156599424Y-81860977D01*
X156599416Y-81860970D01*
X156554695Y-81824933D01*
X156554693Y-81824932D01*
X156429274Y-81767654D01*
X156429270Y-81767653D01*
X156292792Y-81748032D01*
X156156313Y-81767653D01*
X156156309Y-81767654D01*
X156030890Y-81824932D01*
X156030888Y-81824933D01*
X155986167Y-81860970D01*
X155986159Y-81860977D01*
X155390977Y-82456159D01*
X155390970Y-82456167D01*
X155354933Y-82500888D01*
X155354932Y-82500890D01*
X155297654Y-82626309D01*
X155297653Y-82626313D01*
X155278032Y-82762792D01*
X155297653Y-82899270D01*
X155297654Y-82899274D01*
X155354932Y-83024693D01*
X155354933Y-83024695D01*
X155390970Y-83069416D01*
X155390977Y-83069424D01*
X155645907Y-83324353D01*
X155679392Y-83385676D01*
X155682226Y-83412034D01*
X155682226Y-83863526D01*
X155662541Y-83930565D01*
X155609737Y-83976320D01*
X155582419Y-83985143D01*
X155541867Y-83993209D01*
X155478932Y-84035261D01*
X155478929Y-84035264D01*
X153746432Y-85767762D01*
X153746429Y-85767765D01*
X153704378Y-85830700D01*
X153704377Y-85830701D01*
X153684627Y-85929997D01*
X153684627Y-85930002D01*
X153704378Y-86029300D01*
X153704378Y-86029301D01*
X153746430Y-86092236D01*
X153746433Y-86092239D01*
X155478931Y-87824736D01*
X155478939Y-87824742D01*
X155514342Y-87848398D01*
X155559148Y-87902010D01*
X155567855Y-87971335D01*
X155537701Y-88034362D01*
X155478258Y-88071082D01*
X155445452Y-88075500D01*
X151678201Y-88075500D01*
X151611162Y-88055815D01*
X151590520Y-88039181D01*
X147720819Y-84169480D01*
X147687334Y-84108157D01*
X147684500Y-84081799D01*
X147684500Y-84007001D01*
X147684500Y-84006999D01*
X147646712Y-83865971D01*
X147600759Y-83786377D01*
X147573713Y-83739532D01*
X147573709Y-83739527D01*
X147470472Y-83636290D01*
X147470467Y-83636286D01*
X147344031Y-83563289D01*
X147344030Y-83563288D01*
X147344029Y-83563288D01*
X147203001Y-83525500D01*
X147056999Y-83525500D01*
X146915971Y-83563288D01*
X146915968Y-83563289D01*
X146789532Y-83636286D01*
X146789527Y-83636290D01*
X146686290Y-83739527D01*
X146686286Y-83739532D01*
X146613289Y-83865968D01*
X146613288Y-83865971D01*
X146575500Y-84006999D01*
X146575500Y-84153001D01*
X146602298Y-84253011D01*
X146613288Y-84294028D01*
X146613289Y-84294031D01*
X146686286Y-84420467D01*
X146686288Y-84420470D01*
X146686289Y-84420471D01*
X146789529Y-84523711D01*
X146789530Y-84523712D01*
X146789532Y-84523713D01*
X146852750Y-84560211D01*
X146915971Y-84596712D01*
X147056999Y-84634500D01*
X147131799Y-84634500D01*
X147198838Y-84654185D01*
X147219480Y-84670819D01*
X151005886Y-88457225D01*
X151039371Y-88518548D01*
X151034387Y-88588240D01*
X150992515Y-88644173D01*
X150927051Y-88668590D01*
X150918205Y-88668906D01*
X149969923Y-88668906D01*
X149909815Y-88685012D01*
X149879761Y-88693065D01*
X149844071Y-88713671D01*
X149798927Y-88739734D01*
X149798924Y-88739736D01*
X146689480Y-91849181D01*
X146628157Y-91882666D01*
X146601799Y-91885500D01*
X134678201Y-91885500D01*
X134611162Y-91865815D01*
X134590520Y-91849181D01*
X133748338Y-91006999D01*
X134565500Y-91006999D01*
X134565500Y-91153001D01*
X134601585Y-91287671D01*
X134603288Y-91294028D01*
X134603289Y-91294031D01*
X134676286Y-91420467D01*
X134676288Y-91420470D01*
X134676289Y-91420471D01*
X134779529Y-91523711D01*
X134905971Y-91596712D01*
X135046999Y-91634500D01*
X135047001Y-91634500D01*
X135192999Y-91634500D01*
X135193001Y-91634500D01*
X135334029Y-91596712D01*
X135460471Y-91523711D01*
X135563711Y-91420471D01*
X135636712Y-91294029D01*
X135674500Y-91153001D01*
X135674500Y-91006999D01*
X135636712Y-90865971D01*
X135563711Y-90739529D01*
X135460471Y-90636289D01*
X135460470Y-90636288D01*
X135460467Y-90636286D01*
X135334031Y-90563289D01*
X135334030Y-90563288D01*
X135334029Y-90563288D01*
X135193001Y-90525500D01*
X135046999Y-90525500D01*
X134905971Y-90563288D01*
X134905968Y-90563289D01*
X134779532Y-90636286D01*
X134779527Y-90636290D01*
X134676290Y-90739527D01*
X134676286Y-90739532D01*
X134603289Y-90865968D01*
X134603288Y-90865971D01*
X134565500Y-91006999D01*
X133748338Y-91006999D01*
X132755573Y-90014234D01*
X138244500Y-90014234D01*
X138244500Y-90165765D01*
X138283719Y-90312136D01*
X138290378Y-90323669D01*
X138359485Y-90443365D01*
X138466635Y-90550515D01*
X138597865Y-90626281D01*
X138744234Y-90665500D01*
X138744236Y-90665500D01*
X138895764Y-90665500D01*
X138895766Y-90665500D01*
X139042135Y-90626281D01*
X139173365Y-90550515D01*
X139280515Y-90443365D01*
X139356281Y-90312135D01*
X139395500Y-90165766D01*
X139395500Y-90014234D01*
X144024500Y-90014234D01*
X144024500Y-90165765D01*
X144063719Y-90312136D01*
X144070378Y-90323669D01*
X144139485Y-90443365D01*
X144246635Y-90550515D01*
X144377865Y-90626281D01*
X144524234Y-90665500D01*
X144524236Y-90665500D01*
X144675764Y-90665500D01*
X144675766Y-90665500D01*
X144822135Y-90626281D01*
X144953365Y-90550515D01*
X145060515Y-90443365D01*
X145136281Y-90312135D01*
X145175500Y-90165766D01*
X145175500Y-90014234D01*
X145136281Y-89867865D01*
X145060515Y-89736635D01*
X144953365Y-89629485D01*
X144884260Y-89589587D01*
X144822136Y-89553719D01*
X144735733Y-89530568D01*
X144675766Y-89514500D01*
X144524234Y-89514500D01*
X144377863Y-89553719D01*
X144246635Y-89629485D01*
X144246632Y-89629487D01*
X144139487Y-89736632D01*
X144139485Y-89736635D01*
X144063719Y-89867863D01*
X144024500Y-90014234D01*
X139395500Y-90014234D01*
X139356281Y-89867865D01*
X139280515Y-89736635D01*
X139173365Y-89629485D01*
X139104260Y-89589587D01*
X139042136Y-89553719D01*
X138955733Y-89530568D01*
X138895766Y-89514500D01*
X138744234Y-89514500D01*
X138597863Y-89553719D01*
X138466635Y-89629485D01*
X138466632Y-89629487D01*
X138359487Y-89736632D01*
X138359485Y-89736635D01*
X138283719Y-89867863D01*
X138244500Y-90014234D01*
X132755573Y-90014234D01*
X132520819Y-89779480D01*
X132487334Y-89718157D01*
X132484500Y-89691799D01*
X132484500Y-89617001D01*
X132484500Y-89616999D01*
X132446712Y-89475971D01*
X132403750Y-89401559D01*
X132373713Y-89349532D01*
X132373709Y-89349527D01*
X132270472Y-89246290D01*
X132270467Y-89246286D01*
X132144031Y-89173289D01*
X132144030Y-89173288D01*
X132144029Y-89173288D01*
X132110198Y-89164223D01*
X132050539Y-89127859D01*
X132020010Y-89065012D01*
X132022517Y-89012361D01*
X132054500Y-88893001D01*
X132054500Y-88746999D01*
X132050104Y-88730592D01*
X132051767Y-88660742D01*
X132090931Y-88602880D01*
X132155160Y-88575377D01*
X132169879Y-88574500D01*
X141020882Y-88574500D01*
X141020884Y-88574500D01*
X141111045Y-88550341D01*
X141191881Y-88503671D01*
X143496023Y-86199527D01*
X143557346Y-86166043D01*
X143627038Y-86171027D01*
X143671385Y-86199528D01*
X145296596Y-87824739D01*
X145317766Y-87838884D01*
X145359530Y-87866790D01*
X145359531Y-87866790D01*
X145359532Y-87866791D01*
X145458829Y-87886542D01*
X145458831Y-87886542D01*
X145458833Y-87886542D01*
X145525031Y-87873374D01*
X145558132Y-87866790D01*
X145621065Y-87824740D01*
X147353570Y-86092234D01*
X147395621Y-86029301D01*
X147397996Y-86017365D01*
X147415373Y-85930002D01*
X147415373Y-85929997D01*
X147395621Y-85830699D01*
X147395621Y-85830698D01*
X147353569Y-85767763D01*
X147353566Y-85767760D01*
X145728359Y-84142554D01*
X145694874Y-84081231D01*
X145699858Y-84011539D01*
X145728357Y-83967194D01*
X148587192Y-81108358D01*
X148648515Y-81074874D01*
X148718207Y-81079858D01*
X148762554Y-81108359D01*
X150387765Y-82733570D01*
X150419232Y-82754595D01*
X150450699Y-82775621D01*
X150450700Y-82775621D01*
X150450701Y-82775622D01*
X150549998Y-82795373D01*
X150550000Y-82795373D01*
X150550002Y-82795373D01*
X150607309Y-82783974D01*
X150676900Y-82790201D01*
X150732078Y-82833064D01*
X150755322Y-82898954D01*
X150755500Y-82905591D01*
X150755500Y-83023001D01*
X150788457Y-83145997D01*
X150793288Y-83164028D01*
X150793289Y-83164031D01*
X150866286Y-83290467D01*
X150866288Y-83290470D01*
X150866289Y-83290471D01*
X150969529Y-83393711D01*
X150969530Y-83393712D01*
X150969532Y-83393713D01*
X151032750Y-83430211D01*
X151095971Y-83466712D01*
X151236999Y-83504500D01*
X151237001Y-83504500D01*
X151382999Y-83504500D01*
X151383001Y-83504500D01*
X151524029Y-83466712D01*
X151650471Y-83393711D01*
X151753711Y-83290471D01*
X151826712Y-83164029D01*
X151864500Y-83023001D01*
X151864500Y-82876999D01*
X151826712Y-82735971D01*
X151772065Y-82641319D01*
X151753713Y-82609532D01*
X151753709Y-82609527D01*
X151650472Y-82506290D01*
X151650467Y-82506286D01*
X151524031Y-82433289D01*
X151524030Y-82433288D01*
X151524029Y-82433288D01*
X151383001Y-82395500D01*
X151349668Y-82395500D01*
X151282629Y-82375815D01*
X151236874Y-82323011D01*
X151226930Y-82253853D01*
X151255955Y-82190297D01*
X151261987Y-82183819D01*
X152444736Y-81001068D01*
X152444739Y-81001065D01*
X152486790Y-80938132D01*
X152488889Y-80927582D01*
X152521274Y-80865671D01*
X152581990Y-80831097D01*
X152610506Y-80827774D01*
X153097966Y-80827774D01*
X153165005Y-80847459D01*
X153185647Y-80864093D01*
X153440575Y-81119022D01*
X153440581Y-81119027D01*
X153485305Y-81155067D01*
X153554586Y-81186706D01*
X153610725Y-81212345D01*
X153610726Y-81212345D01*
X153610728Y-81212346D01*
X153747208Y-81231968D01*
X153883688Y-81212346D01*
X154009111Y-81155067D01*
X154053835Y-81119027D01*
X154269863Y-80902999D01*
X154415864Y-80756999D01*
X164105500Y-80756999D01*
X164105500Y-80903001D01*
X164142083Y-81039529D01*
X164143288Y-81044028D01*
X164143289Y-81044031D01*
X164216286Y-81170467D01*
X164216288Y-81170470D01*
X164216289Y-81170471D01*
X164319529Y-81273711D01*
X164319530Y-81273712D01*
X164319532Y-81273713D01*
X164329552Y-81279498D01*
X164445971Y-81346712D01*
X164586999Y-81384500D01*
X164587001Y-81384500D01*
X164732999Y-81384500D01*
X164733001Y-81384500D01*
X164874029Y-81346712D01*
X165000471Y-81273711D01*
X165103711Y-81170471D01*
X165176712Y-81044029D01*
X165214500Y-80903001D01*
X165214500Y-80756999D01*
X165176712Y-80615971D01*
X165140211Y-80552750D01*
X165103713Y-80489532D01*
X165103709Y-80489527D01*
X165000472Y-80386290D01*
X165000467Y-80386286D01*
X164874031Y-80313289D01*
X164874030Y-80313288D01*
X164874029Y-80313288D01*
X164733001Y-80275500D01*
X164586999Y-80275500D01*
X164445971Y-80313288D01*
X164445968Y-80313289D01*
X164319532Y-80386286D01*
X164319527Y-80386290D01*
X164216290Y-80489527D01*
X164216286Y-80489532D01*
X164143289Y-80615968D01*
X164143288Y-80615971D01*
X164105500Y-80756999D01*
X154415864Y-80756999D01*
X154511672Y-80661191D01*
X154649022Y-80523840D01*
X154649027Y-80523835D01*
X154685067Y-80479111D01*
X154742346Y-80353688D01*
X154761968Y-80217208D01*
X154742346Y-80080728D01*
X154739887Y-80075344D01*
X154688796Y-79963471D01*
X154685067Y-79955305D01*
X154649027Y-79910581D01*
X154649022Y-79910575D01*
X154265972Y-79527525D01*
X154265964Y-79527518D01*
X154221243Y-79491481D01*
X154221241Y-79491480D01*
X154095822Y-79434202D01*
X154095818Y-79434201D01*
X153959340Y-79414580D01*
X153822861Y-79434201D01*
X153822857Y-79434202D01*
X153697438Y-79491480D01*
X153697436Y-79491481D01*
X153652715Y-79527518D01*
X153652707Y-79527525D01*
X153397779Y-79782455D01*
X153336456Y-79815940D01*
X153310098Y-79818774D01*
X152638636Y-79818774D01*
X152571597Y-79799089D01*
X152525842Y-79746285D01*
X152515898Y-79677127D01*
X152531249Y-79632774D01*
X152541923Y-79614285D01*
X152576712Y-79554029D01*
X152614500Y-79413001D01*
X152614500Y-79266999D01*
X152610104Y-79250592D01*
X152611767Y-79180742D01*
X152650931Y-79122880D01*
X152715160Y-79095377D01*
X152729879Y-79094500D01*
X166896088Y-79094500D01*
X166963127Y-79114185D01*
G37*
%TD.AperFunction*%
%TA.AperFunction,Conductor*%
G36*
X159604887Y-86454185D02*
G01*
X159650642Y-86506989D01*
X159660586Y-86576147D01*
X159631561Y-86639703D01*
X159624313Y-86647187D01*
X159624375Y-86647249D01*
X159337588Y-86934034D01*
X159903274Y-87499720D01*
X160468958Y-88065405D01*
X160754028Y-87780336D01*
X160778024Y-87752240D01*
X160778028Y-87752233D01*
X160795291Y-87720832D01*
X160844836Y-87671566D01*
X160913151Y-87656907D01*
X160978546Y-87681509D01*
X160991636Y-87692885D01*
X161151200Y-87852449D01*
X161228786Y-87908819D01*
X161228787Y-87908819D01*
X161234759Y-87913158D01*
X161277424Y-87968488D01*
X161283403Y-88038102D01*
X161250797Y-88099897D01*
X161200195Y-88131406D01*
X161193430Y-88133604D01*
X161193428Y-88133605D01*
X161115845Y-88189973D01*
X160239973Y-89065845D01*
X160183605Y-89143428D01*
X160183604Y-89143430D01*
X160173903Y-89173289D01*
X160165283Y-89199818D01*
X160125846Y-89257493D01*
X160061487Y-89284692D01*
X160047352Y-89285500D01*
X158648201Y-89285500D01*
X158581162Y-89265815D01*
X158560520Y-89249181D01*
X158037744Y-88726405D01*
X159030139Y-88726405D01*
X159032039Y-88728027D01*
X159175952Y-88807145D01*
X159175962Y-88807148D01*
X159335016Y-88847987D01*
X159335024Y-88847988D01*
X159499252Y-88847988D01*
X159499259Y-88847987D01*
X159658313Y-88807148D01*
X159658322Y-88807145D01*
X159802233Y-88728028D01*
X159802240Y-88728024D01*
X159830336Y-88704028D01*
X160115405Y-88418958D01*
X159726498Y-88030050D01*
X159726497Y-88030050D01*
X159030139Y-88726405D01*
X158037744Y-88726405D01*
X157880818Y-88569479D01*
X157847333Y-88508156D01*
X157844499Y-88481798D01*
X157844499Y-88214348D01*
X157840639Y-88189973D01*
X157830054Y-88123138D01*
X157774040Y-88013204D01*
X157774036Y-88013200D01*
X157774035Y-88013198D01*
X157686801Y-87925964D01*
X157686797Y-87925961D01*
X157686796Y-87925960D01*
X157643175Y-87903734D01*
X158555006Y-87903734D01*
X158555006Y-88067977D01*
X158595845Y-88227031D01*
X158595850Y-88227044D01*
X158674964Y-88370952D01*
X158676586Y-88372852D01*
X158676587Y-88372853D01*
X159372943Y-87676496D01*
X159372943Y-87676495D01*
X158984034Y-87287588D01*
X158698965Y-87572658D01*
X158698964Y-87572659D01*
X158674969Y-87600753D01*
X158674965Y-87600760D01*
X158595848Y-87744671D01*
X158595845Y-87744680D01*
X158555006Y-87903734D01*
X157643175Y-87903734D01*
X157576862Y-87869946D01*
X157576860Y-87869945D01*
X157576857Y-87869944D01*
X157485658Y-87855500D01*
X157154348Y-87855500D01*
X157063136Y-87869946D01*
X156996825Y-87903734D01*
X156953204Y-87925960D01*
X156953203Y-87925961D01*
X156953198Y-87925964D01*
X156897681Y-87981482D01*
X156836358Y-88014967D01*
X156766666Y-88009983D01*
X156722319Y-87981482D01*
X156666801Y-87925964D01*
X156666797Y-87925961D01*
X156666796Y-87925960D01*
X156556862Y-87869946D01*
X156556860Y-87869945D01*
X156556857Y-87869944D01*
X156465658Y-87855500D01*
X156134346Y-87855500D01*
X156081504Y-87863869D01*
X156012211Y-87854912D01*
X155958760Y-87809915D01*
X155938122Y-87743163D01*
X155956849Y-87675849D01*
X155974424Y-87653718D01*
X157157323Y-86470818D01*
X157218646Y-86437334D01*
X157245004Y-86434500D01*
X159537848Y-86434500D01*
X159604887Y-86454185D01*
G37*
%TD.AperFunction*%
%TA.AperFunction,Conductor*%
G36*
X134295801Y-83408049D02*
G01*
X134351735Y-83449920D01*
X134359854Y-83462229D01*
X134368348Y-83476941D01*
X134471588Y-83580181D01*
X134471589Y-83580182D01*
X134471591Y-83580183D01*
X134523825Y-83610340D01*
X134598030Y-83653182D01*
X134739058Y-83690970D01*
X134813858Y-83690970D01*
X134880897Y-83710655D01*
X134901539Y-83727289D01*
X135728069Y-84553819D01*
X135761554Y-84615142D01*
X135756570Y-84684834D01*
X135714698Y-84740767D01*
X135649234Y-84765184D01*
X135640388Y-84765500D01*
X134921044Y-84765500D01*
X134854005Y-84745815D01*
X134833363Y-84729181D01*
X134780472Y-84676290D01*
X134780467Y-84676286D01*
X134654031Y-84603289D01*
X134654030Y-84603288D01*
X134654029Y-84603288D01*
X134513001Y-84565500D01*
X134366999Y-84565500D01*
X134225971Y-84603288D01*
X134225968Y-84603289D01*
X134099532Y-84676286D01*
X134099527Y-84676290D01*
X133996290Y-84779527D01*
X133996286Y-84779532D01*
X133923289Y-84905968D01*
X133923288Y-84905971D01*
X133885500Y-85046999D01*
X133885500Y-85193001D01*
X133917477Y-85312339D01*
X133923288Y-85334028D01*
X133923289Y-85334031D01*
X133996286Y-85460467D01*
X133996288Y-85460470D01*
X133996289Y-85460471D01*
X134099529Y-85563711D01*
X134099530Y-85563712D01*
X134099532Y-85563713D01*
X134139810Y-85586967D01*
X134225971Y-85636712D01*
X134366999Y-85674500D01*
X134367001Y-85674500D01*
X134512999Y-85674500D01*
X134513001Y-85674500D01*
X134654029Y-85636712D01*
X134780471Y-85563711D01*
X134833363Y-85510819D01*
X134894686Y-85477334D01*
X134921044Y-85474500D01*
X137078588Y-85474500D01*
X137145627Y-85494185D01*
X137191382Y-85546989D01*
X137201326Y-85616147D01*
X137198363Y-85630592D01*
X137193967Y-85646997D01*
X137193967Y-85646999D01*
X137193967Y-85793001D01*
X137230676Y-85930000D01*
X137231755Y-85934028D01*
X137231756Y-85934031D01*
X137304753Y-86060467D01*
X137304755Y-86060470D01*
X137304756Y-86060471D01*
X137407996Y-86163711D01*
X137407997Y-86163712D01*
X137407999Y-86163713D01*
X137470033Y-86199528D01*
X137534438Y-86236712D01*
X137675466Y-86274500D01*
X137675468Y-86274500D01*
X137821466Y-86274500D01*
X137821468Y-86274500D01*
X137962496Y-86236712D01*
X138088938Y-86163711D01*
X138192178Y-86060471D01*
X138265179Y-85934029D01*
X138302967Y-85793001D01*
X138302967Y-85646999D01*
X138298571Y-85630592D01*
X138300234Y-85560742D01*
X138339398Y-85502880D01*
X138403627Y-85475377D01*
X138418346Y-85474500D01*
X140102667Y-85474500D01*
X140169706Y-85494185D01*
X140215461Y-85546989D01*
X140225405Y-85616147D01*
X140196380Y-85679703D01*
X140190348Y-85686181D01*
X139156302Y-86720225D01*
X139156301Y-86720226D01*
X139156299Y-86720230D01*
X139136787Y-86754027D01*
X139089881Y-86835270D01*
X139077032Y-86883219D01*
X139072440Y-86893063D01*
X139070516Y-86895246D01*
X139067457Y-86902634D01*
X139057942Y-86919116D01*
X139043288Y-86944498D01*
X139005500Y-87085526D01*
X139005500Y-87231528D01*
X139026367Y-87309408D01*
X139024705Y-87379256D01*
X138985543Y-87437119D01*
X138921314Y-87464623D01*
X138906593Y-87465500D01*
X130638201Y-87465500D01*
X130571162Y-87445815D01*
X130550520Y-87429181D01*
X128779907Y-85658568D01*
X131912460Y-85658568D01*
X131912460Y-85804570D01*
X131945262Y-85926987D01*
X131950248Y-85945597D01*
X131950249Y-85945600D01*
X132023246Y-86072036D01*
X132023248Y-86072039D01*
X132023249Y-86072040D01*
X132126489Y-86175280D01*
X132126490Y-86175281D01*
X132126492Y-86175282D01*
X132167632Y-86199034D01*
X132252931Y-86248281D01*
X132393959Y-86286069D01*
X132393961Y-86286069D01*
X132539959Y-86286069D01*
X132539961Y-86286069D01*
X132680989Y-86248281D01*
X132807431Y-86175280D01*
X132910671Y-86072040D01*
X132983672Y-85945598D01*
X133021460Y-85804570D01*
X133021460Y-85658568D01*
X132983672Y-85517540D01*
X132910671Y-85391098D01*
X132807431Y-85287858D01*
X132807430Y-85287857D01*
X132807427Y-85287855D01*
X132680991Y-85214858D01*
X132680990Y-85214857D01*
X132680989Y-85214857D01*
X132539961Y-85177069D01*
X132393959Y-85177069D01*
X132252931Y-85214857D01*
X132252928Y-85214858D01*
X132126492Y-85287855D01*
X132126487Y-85287859D01*
X132023250Y-85391096D01*
X132023246Y-85391101D01*
X131950249Y-85517537D01*
X131950248Y-85517540D01*
X131912460Y-85658568D01*
X128779907Y-85658568D01*
X128672771Y-85551432D01*
X128639286Y-85490109D01*
X128644270Y-85420417D01*
X128686142Y-85364484D01*
X128751606Y-85340067D01*
X128792539Y-85343975D01*
X128815502Y-85350128D01*
X128815506Y-85350128D01*
X128961502Y-85350128D01*
X128961504Y-85350128D01*
X129102532Y-85312340D01*
X129228974Y-85239339D01*
X129332214Y-85136099D01*
X129405215Y-85009657D01*
X129443003Y-84868629D01*
X129443003Y-84789697D01*
X129451647Y-84760256D01*
X129458171Y-84730270D01*
X129461925Y-84725254D01*
X129462688Y-84722658D01*
X129479318Y-84702020D01*
X129542191Y-84639147D01*
X129603513Y-84605663D01*
X129673205Y-84610647D01*
X129729138Y-84652519D01*
X129737256Y-84664826D01*
X129740716Y-84670819D01*
X129743874Y-84676289D01*
X129746289Y-84680471D01*
X129849529Y-84783711D01*
X129849530Y-84783712D01*
X129849532Y-84783713D01*
X129859897Y-84789697D01*
X129975971Y-84856712D01*
X130116999Y-84894500D01*
X130117001Y-84894500D01*
X130262999Y-84894500D01*
X130263001Y-84894500D01*
X130404029Y-84856712D01*
X130530471Y-84783711D01*
X130583363Y-84730819D01*
X130644686Y-84697334D01*
X130671044Y-84694500D01*
X131934136Y-84694500D01*
X131934138Y-84694500D01*
X132024299Y-84670341D01*
X132105135Y-84623671D01*
X132508955Y-84219850D01*
X132570276Y-84186367D01*
X132639967Y-84191351D01*
X132684315Y-84219852D01*
X132698174Y-84233711D01*
X132698175Y-84233712D01*
X132698177Y-84233713D01*
X132726368Y-84249989D01*
X132824616Y-84306712D01*
X132965644Y-84344500D01*
X132965646Y-84344500D01*
X133111644Y-84344500D01*
X133111646Y-84344500D01*
X133252674Y-84306712D01*
X133379116Y-84233711D01*
X133482356Y-84130471D01*
X133492859Y-84112279D01*
X133524769Y-84075894D01*
X133527658Y-84073676D01*
X133527668Y-84073671D01*
X134164789Y-83436548D01*
X134226110Y-83403065D01*
X134295801Y-83408049D01*
G37*
%TD.AperFunction*%
%TA.AperFunction,Conductor*%
G36*
X146010365Y-81904185D02*
G01*
X146056120Y-81956989D01*
X146066064Y-82026147D01*
X146037039Y-82089703D01*
X146031007Y-82096181D01*
X140698007Y-87429181D01*
X140636684Y-87462666D01*
X140610326Y-87465500D01*
X140213407Y-87465500D01*
X140190533Y-87458783D01*
X140166814Y-87456413D01*
X140157624Y-87449120D01*
X140146368Y-87445815D01*
X140130757Y-87427800D01*
X140112084Y-87412981D01*
X140108295Y-87401877D01*
X140100613Y-87393011D01*
X140097220Y-87369415D01*
X140089523Y-87346855D01*
X140091450Y-87329288D01*
X140090669Y-87323853D01*
X140093032Y-87311735D01*
X140093309Y-87310612D01*
X140114500Y-87231528D01*
X140114500Y-87224913D01*
X140118022Y-87210670D01*
X140132278Y-87186227D01*
X140143724Y-87160353D01*
X140150704Y-87152766D01*
X145382652Y-81920819D01*
X145443975Y-81887334D01*
X145470333Y-81884500D01*
X145943326Y-81884500D01*
X146010365Y-81904185D01*
G37*
%TD.AperFunction*%
%TA.AperFunction,Conductor*%
G36*
X125965081Y-57361590D02*
G01*
X125976140Y-57362548D01*
X126377557Y-57415611D01*
X126388512Y-57417562D01*
X126783541Y-57506397D01*
X126794275Y-57509323D01*
X127179739Y-57633214D01*
X127190160Y-57637088D01*
X127562979Y-57795046D01*
X127573005Y-57799835D01*
X127751584Y-57895210D01*
X127930156Y-57990582D01*
X127939727Y-57996260D01*
X127963911Y-58012115D01*
X128278333Y-58218253D01*
X128287342Y-58224756D01*
X128343747Y-58269451D01*
X128604689Y-58476222D01*
X128613092Y-58483518D01*
X128629861Y-58499452D01*
X128743874Y-58607787D01*
X128906600Y-58762408D01*
X128914313Y-58770425D01*
X129103165Y-58985247D01*
X129157587Y-59047152D01*
X129159199Y-59049023D01*
X129166330Y-59057468D01*
X129175109Y-59072681D01*
X129201303Y-59098885D01*
X129204665Y-59102867D01*
X129204834Y-59103251D01*
X129206633Y-59105258D01*
X129226563Y-59130093D01*
X129226565Y-59130095D01*
X129241132Y-59140777D01*
X129241133Y-59140777D01*
X129248790Y-59146392D01*
X129268276Y-59165886D01*
X129301704Y-59185194D01*
X129332836Y-59208024D01*
X129349673Y-59214572D01*
X129366744Y-59222763D01*
X129382391Y-59231801D01*
X129397102Y-59235745D01*
X129413145Y-59240048D01*
X129425979Y-59244251D01*
X129437706Y-59248812D01*
X129455657Y-59255794D01*
X129455655Y-59255794D01*
X129462177Y-59256508D01*
X129483056Y-59258795D01*
X129509678Y-59265935D01*
X129548286Y-59265942D01*
X129586658Y-59270147D01*
X129604515Y-59267399D01*
X129623381Y-59265957D01*
X131394620Y-59266316D01*
X131461655Y-59286014D01*
X131507399Y-59338827D01*
X131517328Y-59407988D01*
X131510776Y-59433649D01*
X131466403Y-59552619D01*
X131466401Y-59552627D01*
X131460000Y-59612155D01*
X131460000Y-59785000D01*
X133460000Y-59785000D01*
X133460000Y-59612172D01*
X133459999Y-59612155D01*
X133453598Y-59552627D01*
X133453596Y-59552620D01*
X133409384Y-59434079D01*
X133404400Y-59364387D01*
X133437885Y-59303064D01*
X133499209Y-59269580D01*
X133525576Y-59266747D01*
X137394167Y-59267530D01*
X137461202Y-59287228D01*
X137506946Y-59340041D01*
X137516875Y-59409202D01*
X137510323Y-59434862D01*
X137466403Y-59552617D01*
X137466401Y-59552627D01*
X137460000Y-59612155D01*
X137460000Y-59785000D01*
X139460000Y-59785000D01*
X139460000Y-59612172D01*
X139459999Y-59612155D01*
X139453598Y-59552627D01*
X139453596Y-59552620D01*
X139409837Y-59435294D01*
X139404853Y-59365602D01*
X139438338Y-59304279D01*
X139499661Y-59270795D01*
X139526036Y-59267961D01*
X139917172Y-59268041D01*
X139984205Y-59287738D01*
X140029949Y-59340551D01*
X140039878Y-59409712D01*
X140020247Y-59460930D01*
X139960265Y-59550700D01*
X139960264Y-59550703D01*
X139945500Y-59624928D01*
X139945500Y-60425063D01*
X139960266Y-60499301D01*
X140016515Y-60583484D01*
X140050234Y-60606014D01*
X140100699Y-60639734D01*
X140100702Y-60639734D01*
X140100703Y-60639735D01*
X140125666Y-60644700D01*
X140174933Y-60654500D01*
X141225066Y-60654499D01*
X141299301Y-60639734D01*
X141383484Y-60583484D01*
X141439734Y-60499301D01*
X141439735Y-60499294D01*
X141444409Y-60488015D01*
X141445421Y-60488434D01*
X141472116Y-60437399D01*
X141532832Y-60402824D01*
X141561350Y-60399500D01*
X145838650Y-60399500D01*
X145905689Y-60419185D01*
X145951444Y-60471989D01*
X145960260Y-60499286D01*
X145960266Y-60499301D01*
X146016515Y-60583484D01*
X146050234Y-60606014D01*
X146100699Y-60639734D01*
X146100702Y-60639734D01*
X146100703Y-60639735D01*
X146125666Y-60644700D01*
X146174933Y-60654500D01*
X146776798Y-60654499D01*
X146843837Y-60674183D01*
X146864479Y-60690818D01*
X147109181Y-60935520D01*
X147142666Y-60996843D01*
X147145500Y-61023201D01*
X147145500Y-63021500D01*
X147125815Y-63088539D01*
X147073011Y-63134294D01*
X147021500Y-63145500D01*
X146174936Y-63145500D01*
X146100698Y-63160266D01*
X146016515Y-63216515D01*
X145962154Y-63297873D01*
X145960266Y-63300699D01*
X145952311Y-63340691D01*
X145919927Y-63402601D01*
X145859212Y-63437176D01*
X145830694Y-63440500D01*
X141569306Y-63440500D01*
X141502267Y-63420815D01*
X141456512Y-63368011D01*
X141447689Y-63340691D01*
X141441723Y-63310699D01*
X141439734Y-63300699D01*
X141404966Y-63248665D01*
X141383484Y-63216515D01*
X141325208Y-63177577D01*
X141299301Y-63160266D01*
X141299299Y-63160265D01*
X141299296Y-63160264D01*
X141225071Y-63145500D01*
X141225067Y-63145500D01*
X140633201Y-63145500D01*
X140566162Y-63125815D01*
X140545520Y-63109181D01*
X139940385Y-62504046D01*
X139940384Y-62504045D01*
X139859548Y-62457375D01*
X139859549Y-62457375D01*
X139829494Y-62449322D01*
X139769387Y-62433216D01*
X129148955Y-62433216D01*
X129055613Y-62433216D01*
X128995505Y-62449322D01*
X128965451Y-62457375D01*
X128884617Y-62504044D01*
X128884614Y-62504046D01*
X124749480Y-66639181D01*
X124688157Y-66672666D01*
X124661799Y-66675500D01*
X124586999Y-66675500D01*
X124445971Y-66713288D01*
X124445968Y-66713289D01*
X124319532Y-66786286D01*
X124319527Y-66786290D01*
X124216290Y-66889527D01*
X124216286Y-66889532D01*
X124143289Y-67015968D01*
X124143288Y-67015971D01*
X124105500Y-67156999D01*
X124105500Y-67303001D01*
X124143067Y-67443202D01*
X124143288Y-67444028D01*
X124143289Y-67444031D01*
X124216286Y-67570467D01*
X124216288Y-67570470D01*
X124216289Y-67570471D01*
X124319529Y-67673711D01*
X124319530Y-67673712D01*
X124319532Y-67673713D01*
X124382750Y-67710211D01*
X124445971Y-67746712D01*
X124586999Y-67784500D01*
X124587001Y-67784500D01*
X124732999Y-67784500D01*
X124733001Y-67784500D01*
X124874029Y-67746712D01*
X125000471Y-67673711D01*
X125103711Y-67570471D01*
X125176712Y-67444029D01*
X125214500Y-67303001D01*
X125214500Y-67250000D01*
X126121210Y-67250000D01*
X126122854Y-67270910D01*
X126167968Y-67426195D01*
X126250278Y-67565374D01*
X126250285Y-67565383D01*
X126364616Y-67679714D01*
X126364625Y-67679721D01*
X126503804Y-67762031D01*
X126650000Y-67804504D01*
X126650000Y-67250000D01*
X126121210Y-67250000D01*
X125214500Y-67250000D01*
X125214500Y-67228201D01*
X125223144Y-67198760D01*
X125229668Y-67168774D01*
X125233422Y-67163758D01*
X125234185Y-67161162D01*
X125250819Y-67140520D01*
X125273367Y-67117972D01*
X125605053Y-66786286D01*
X125981111Y-66410227D01*
X126042432Y-66376744D01*
X126112123Y-66381728D01*
X126168057Y-66423599D01*
X126192474Y-66489064D01*
X126177622Y-66557337D01*
X126175524Y-66561028D01*
X126167968Y-66573803D01*
X126167966Y-66573809D01*
X126122855Y-66729081D01*
X126122854Y-66729087D01*
X126121209Y-66749999D01*
X126121210Y-66750000D01*
X126650000Y-66750000D01*
X126650000Y-66195494D01*
X126649998Y-66195493D01*
X126503809Y-66237965D01*
X126503806Y-66237967D01*
X126491028Y-66245524D01*
X126423304Y-66262704D01*
X126357042Y-66240543D01*
X126313280Y-66186076D01*
X126305912Y-66116596D01*
X126337278Y-66054162D01*
X126340200Y-66051138D01*
X129212804Y-63178535D01*
X129274127Y-63145050D01*
X129300485Y-63142216D01*
X131604475Y-63142216D01*
X131671514Y-63161901D01*
X131717269Y-63214705D01*
X131727213Y-63283863D01*
X131724959Y-63295535D01*
X131721843Y-63308338D01*
X131720266Y-63310699D01*
X131715776Y-63333268D01*
X131715156Y-63335819D01*
X131698929Y-63363877D01*
X131683905Y-63392601D01*
X131681540Y-63393947D01*
X131680178Y-63396304D01*
X131651347Y-63411141D01*
X131623190Y-63427176D01*
X131619312Y-63427627D01*
X131618053Y-63428276D01*
X131615697Y-63428049D01*
X131594672Y-63430500D01*
X131501671Y-63430500D01*
X131408329Y-63430500D01*
X131348221Y-63446606D01*
X131318167Y-63454659D01*
X131237333Y-63501328D01*
X131237330Y-63501330D01*
X129106330Y-65632330D01*
X129106328Y-65632333D01*
X129059659Y-65713167D01*
X129035500Y-65803330D01*
X129035500Y-65972391D01*
X129015815Y-66039430D01*
X128963011Y-66085185D01*
X128958954Y-66086951D01*
X128912304Y-66106274D01*
X128912289Y-66106282D01*
X128747119Y-66216646D01*
X128747115Y-66216649D01*
X128606649Y-66357115D01*
X128606646Y-66357119D01*
X128496282Y-66522289D01*
X128496272Y-66522308D01*
X128495217Y-66524856D01*
X128494308Y-66525983D01*
X128493409Y-66527666D01*
X128493089Y-66527495D01*
X128451371Y-66579255D01*
X128385074Y-66601313D01*
X128317377Y-66584027D01*
X128292980Y-66565073D01*
X128234776Y-66506869D01*
X128234773Y-66506867D01*
X128234771Y-66506865D01*
X128123427Y-66450132D01*
X128123426Y-66450131D01*
X128123423Y-66450130D01*
X128031045Y-66435500D01*
X127688954Y-66435500D01*
X127631915Y-66444534D01*
X127562622Y-66435577D01*
X127524839Y-66409741D01*
X127435383Y-66320285D01*
X127435374Y-66320278D01*
X127296193Y-66237967D01*
X127296190Y-66237965D01*
X127150001Y-66195493D01*
X127150000Y-66195494D01*
X127150000Y-67804503D01*
X127296195Y-67762031D01*
X127435374Y-67679721D01*
X127435379Y-67679717D01*
X127524838Y-67590258D01*
X127586161Y-67556773D01*
X127631917Y-67555466D01*
X127688955Y-67564500D01*
X128031044Y-67564499D01*
X128123427Y-67549868D01*
X128234771Y-67493135D01*
X128292981Y-67434924D01*
X128354302Y-67401441D01*
X128423994Y-67406425D01*
X128479928Y-67448296D01*
X128495219Y-67475148D01*
X128496273Y-67477693D01*
X128496282Y-67477710D01*
X128606646Y-67642880D01*
X128606649Y-67642884D01*
X128747115Y-67783350D01*
X128747119Y-67783353D01*
X128912291Y-67893718D01*
X128912292Y-67893718D01*
X128912296Y-67893721D01*
X128958953Y-67913046D01*
X128974517Y-67925588D01*
X128992703Y-67933894D01*
X129001167Y-67947064D01*
X129013355Y-67956886D01*
X129019668Y-67975852D01*
X129030477Y-67992672D01*
X129034439Y-68020231D01*
X129035421Y-68023180D01*
X129035500Y-68027607D01*
X129035500Y-68268956D01*
X129015815Y-68335995D01*
X128999181Y-68356637D01*
X128946290Y-68409527D01*
X128946286Y-68409532D01*
X128873289Y-68535968D01*
X128873288Y-68535969D01*
X128852559Y-68613334D01*
X128816194Y-68672994D01*
X128753347Y-68703523D01*
X128683971Y-68695228D01*
X128645103Y-68668921D01*
X128620472Y-68644290D01*
X128620467Y-68644286D01*
X128494031Y-68571289D01*
X128494030Y-68571288D01*
X128494029Y-68571288D01*
X128353001Y-68533500D01*
X128353000Y-68533500D01*
X128278201Y-68533500D01*
X128211162Y-68513815D01*
X128190520Y-68497181D01*
X127859669Y-68166330D01*
X127859668Y-68166329D01*
X127778832Y-68119659D01*
X127778833Y-68119659D01*
X127742785Y-68110000D01*
X127688671Y-68095500D01*
X127688669Y-68095500D01*
X123747681Y-68095500D01*
X123680642Y-68075815D01*
X123660000Y-68059181D01*
X123520298Y-67919479D01*
X123486813Y-67858156D01*
X123483979Y-67831798D01*
X123483979Y-67644348D01*
X123483747Y-67642880D01*
X123469534Y-67553138D01*
X123413520Y-67443204D01*
X123413516Y-67443200D01*
X123413515Y-67443198D01*
X123326281Y-67355964D01*
X123326277Y-67355961D01*
X123326276Y-67355960D01*
X123216342Y-67299946D01*
X123216340Y-67299945D01*
X123216337Y-67299944D01*
X123125138Y-67285500D01*
X122693828Y-67285500D01*
X122602616Y-67299946D01*
X122528402Y-67337760D01*
X122492684Y-67355960D01*
X122492683Y-67355961D01*
X122492678Y-67355964D01*
X122467161Y-67381482D01*
X122405838Y-67414967D01*
X122336146Y-67409983D01*
X122291799Y-67381482D01*
X122266281Y-67355964D01*
X122266277Y-67355961D01*
X122266276Y-67355960D01*
X122156342Y-67299946D01*
X122156340Y-67299945D01*
X122156337Y-67299944D01*
X122065138Y-67285500D01*
X121633828Y-67285500D01*
X121542616Y-67299946D01*
X121468402Y-67337760D01*
X121432684Y-67355960D01*
X121432683Y-67355961D01*
X121432678Y-67355964D01*
X121407421Y-67381222D01*
X121346098Y-67414707D01*
X121276406Y-67409723D01*
X121232059Y-67381222D01*
X121206801Y-67355964D01*
X121206797Y-67355961D01*
X121206796Y-67355960D01*
X121096862Y-67299946D01*
X121096860Y-67299945D01*
X121096857Y-67299944D01*
X121005658Y-67285500D01*
X120574348Y-67285500D01*
X120483136Y-67299946D01*
X120408922Y-67337760D01*
X120373204Y-67355960D01*
X120373203Y-67355961D01*
X120373198Y-67355964D01*
X120347421Y-67381742D01*
X120286098Y-67415227D01*
X120216406Y-67410243D01*
X120172059Y-67381742D01*
X120146281Y-67355964D01*
X120146277Y-67355961D01*
X120146276Y-67355960D01*
X120036342Y-67299946D01*
X120036340Y-67299945D01*
X120036337Y-67299944D01*
X119945138Y-67285500D01*
X119513828Y-67285500D01*
X119422616Y-67299946D01*
X119348402Y-67337760D01*
X119312684Y-67355960D01*
X119312683Y-67355961D01*
X119312678Y-67355964D01*
X119287421Y-67381222D01*
X119226098Y-67414707D01*
X119156406Y-67409723D01*
X119112059Y-67381222D01*
X119086801Y-67355964D01*
X119086797Y-67355961D01*
X119086796Y-67355960D01*
X118976862Y-67299946D01*
X118976860Y-67299945D01*
X118976857Y-67299944D01*
X118885658Y-67285500D01*
X118454348Y-67285500D01*
X118363136Y-67299946D01*
X118288922Y-67337760D01*
X118253204Y-67355960D01*
X118253203Y-67355961D01*
X118253198Y-67355964D01*
X118165964Y-67443198D01*
X118165961Y-67443202D01*
X118109944Y-67553142D01*
X118095500Y-67644341D01*
X118095500Y-67975651D01*
X118109946Y-68066863D01*
X118117543Y-68081772D01*
X118165960Y-68176796D01*
X118165962Y-68176798D01*
X118165964Y-68176801D01*
X118221482Y-68232319D01*
X118254967Y-68293642D01*
X118249983Y-68363334D01*
X118221482Y-68407681D01*
X118165964Y-68463198D01*
X118165961Y-68463202D01*
X118165960Y-68463204D01*
X118128885Y-68535969D01*
X118109944Y-68573142D01*
X118095500Y-68664341D01*
X118095500Y-68995651D01*
X118109946Y-69086863D01*
X118114347Y-69095500D01*
X118165960Y-69196796D01*
X118253204Y-69284040D01*
X118253206Y-69284041D01*
X118253209Y-69284044D01*
X118261103Y-69289780D01*
X118259347Y-69292196D01*
X118298586Y-69329251D01*
X118315500Y-69391769D01*
X118315500Y-72173329D01*
X118315500Y-72266671D01*
X118339659Y-72356832D01*
X118386329Y-72437668D01*
X118862332Y-72913671D01*
X118862333Y-72913672D01*
X118862335Y-72913673D01*
X118868373Y-72917159D01*
X118894056Y-72936866D01*
X119423009Y-73465819D01*
X119456494Y-73527142D01*
X119451510Y-73596834D01*
X119409638Y-73652767D01*
X119344174Y-73677184D01*
X119335328Y-73677500D01*
X118372500Y-73677500D01*
X118372500Y-82253500D01*
X118352815Y-82320539D01*
X118300011Y-82366294D01*
X118248500Y-82377500D01*
X116465276Y-82377500D01*
X116398237Y-82357815D01*
X116352482Y-82305011D01*
X116342538Y-82235853D01*
X116345501Y-82221407D01*
X116349136Y-82207841D01*
X116364500Y-82150501D01*
X116364500Y-82004499D01*
X116326712Y-81863471D01*
X116260064Y-81748032D01*
X116253713Y-81737032D01*
X116253709Y-81737027D01*
X116150472Y-81633790D01*
X116150467Y-81633786D01*
X116024031Y-81560789D01*
X116024030Y-81560788D01*
X116024029Y-81560788D01*
X115883001Y-81523000D01*
X115736999Y-81523000D01*
X115595971Y-81560788D01*
X115595968Y-81560789D01*
X115469532Y-81633786D01*
X115469527Y-81633790D01*
X115366290Y-81737027D01*
X115366286Y-81737032D01*
X115293289Y-81863468D01*
X115293288Y-81863471D01*
X115255500Y-82004499D01*
X115255500Y-82150501D01*
X115270864Y-82207841D01*
X115274499Y-82221407D01*
X115272836Y-82291257D01*
X115233673Y-82349119D01*
X115169444Y-82376623D01*
X115154724Y-82377500D01*
X111072500Y-82377500D01*
X111072500Y-82653500D01*
X111052815Y-82720539D01*
X111000011Y-82766294D01*
X110948500Y-82777500D01*
X110572500Y-82777500D01*
X110572500Y-83527500D01*
X112222500Y-83527500D01*
X112222500Y-83229672D01*
X112222499Y-83229658D01*
X112220897Y-83214757D01*
X112233301Y-83145997D01*
X112280911Y-83094859D01*
X112344186Y-83077500D01*
X113701702Y-83077500D01*
X113768741Y-83097185D01*
X113814496Y-83149989D01*
X113824440Y-83219147D01*
X113823319Y-83225692D01*
X113818000Y-83252431D01*
X113818000Y-84302563D01*
X113832766Y-84376801D01*
X113881360Y-84449527D01*
X113889016Y-84460984D01*
X113933934Y-84490997D01*
X113978737Y-84544607D01*
X113987446Y-84613932D01*
X113957292Y-84676959D01*
X113897849Y-84713679D01*
X113884443Y-84716571D01*
X113863139Y-84719945D01*
X113863136Y-84719946D01*
X113807001Y-84748549D01*
X113753204Y-84775960D01*
X113753203Y-84775961D01*
X113753198Y-84775964D01*
X113665964Y-84863198D01*
X113665961Y-84863202D01*
X113609944Y-84973142D01*
X113595500Y-85064341D01*
X113595500Y-85495651D01*
X113609946Y-85586863D01*
X113623263Y-85612999D01*
X113665960Y-85696796D01*
X113665962Y-85696798D01*
X113665964Y-85696801D01*
X113753198Y-85784035D01*
X113753202Y-85784038D01*
X113753204Y-85784040D01*
X113863138Y-85840054D01*
X113863140Y-85840054D01*
X113863142Y-85840055D01*
X113954341Y-85854499D01*
X113954347Y-85854500D01*
X114285652Y-85854499D01*
X114376862Y-85840054D01*
X114486796Y-85784040D01*
X114542320Y-85728515D01*
X114603641Y-85695032D01*
X114673333Y-85700016D01*
X114717679Y-85728515D01*
X114773204Y-85784040D01*
X114883138Y-85840054D01*
X114883140Y-85840054D01*
X114883142Y-85840055D01*
X114974341Y-85854499D01*
X114974347Y-85854500D01*
X115208324Y-85854499D01*
X115275363Y-85874183D01*
X115321118Y-85926987D01*
X115331062Y-85996146D01*
X115302037Y-86059701D01*
X115264620Y-86088983D01*
X115232443Y-86105378D01*
X115232440Y-86105380D01*
X115178282Y-86144727D01*
X115178282Y-86144728D01*
X115810591Y-86777037D01*
X115747007Y-86794075D01*
X115632993Y-86859901D01*
X115539901Y-86952993D01*
X115474075Y-87067007D01*
X115457037Y-87130591D01*
X114824728Y-86498282D01*
X114824727Y-86498282D01*
X114785380Y-86552439D01*
X114688904Y-86741782D01*
X114623242Y-86943869D01*
X114623242Y-86943872D01*
X114590000Y-87153753D01*
X114590000Y-87366246D01*
X114623242Y-87576127D01*
X114623242Y-87576130D01*
X114688904Y-87778217D01*
X114785375Y-87967550D01*
X114824728Y-88021716D01*
X115457037Y-87389408D01*
X115474075Y-87452993D01*
X115539901Y-87567007D01*
X115632993Y-87660099D01*
X115747007Y-87725925D01*
X115810590Y-87742962D01*
X115178282Y-88375269D01*
X115178282Y-88375270D01*
X115232449Y-88414624D01*
X115421782Y-88511095D01*
X115623870Y-88576757D01*
X115833754Y-88610000D01*
X116046246Y-88610000D01*
X116256127Y-88576757D01*
X116256130Y-88576757D01*
X116458217Y-88511095D01*
X116647554Y-88414622D01*
X116701716Y-88375270D01*
X116701717Y-88375270D01*
X116069408Y-87742962D01*
X116132993Y-87725925D01*
X116247007Y-87660099D01*
X116340099Y-87567007D01*
X116405925Y-87452993D01*
X116422962Y-87389408D01*
X117055270Y-88021717D01*
X117055270Y-88021716D01*
X117094622Y-87967554D01*
X117191093Y-87778221D01*
X117221134Y-87685762D01*
X117260571Y-87628086D01*
X117324929Y-87600887D01*
X117393776Y-87612801D01*
X117445252Y-87660044D01*
X117454197Y-87679625D01*
X117454554Y-87679478D01*
X117456417Y-87683975D01*
X117456419Y-87683978D01*
X117456420Y-87683981D01*
X117535347Y-87838884D01*
X117637535Y-87979533D01*
X117760467Y-88102465D01*
X117901116Y-88204653D01*
X118056019Y-88283580D01*
X118056021Y-88283581D01*
X118221358Y-88337302D01*
X118221359Y-88337302D01*
X118221362Y-88337303D01*
X118393074Y-88364500D01*
X118393075Y-88364500D01*
X118566925Y-88364500D01*
X118566926Y-88364500D01*
X118738638Y-88337303D01*
X118738641Y-88337302D01*
X118738642Y-88337302D01*
X118903978Y-88283581D01*
X118903978Y-88283580D01*
X118903981Y-88283580D01*
X119058884Y-88204653D01*
X119199533Y-88102465D01*
X119322465Y-87979533D01*
X119424653Y-87838884D01*
X119503580Y-87683981D01*
X119557303Y-87518638D01*
X119584500Y-87346926D01*
X119584500Y-87173074D01*
X119915500Y-87173074D01*
X119915500Y-87346926D01*
X119920621Y-87379256D01*
X119942697Y-87518639D01*
X119942697Y-87518642D01*
X119996418Y-87683978D01*
X120068138Y-87824735D01*
X120075347Y-87838884D01*
X120177535Y-87979533D01*
X120300467Y-88102465D01*
X120441116Y-88204653D01*
X120596019Y-88283580D01*
X120596021Y-88283581D01*
X120761358Y-88337302D01*
X120761359Y-88337302D01*
X120761362Y-88337303D01*
X120933074Y-88364500D01*
X120933075Y-88364500D01*
X121106925Y-88364500D01*
X121106926Y-88364500D01*
X121278638Y-88337303D01*
X121278641Y-88337302D01*
X121278642Y-88337302D01*
X121443978Y-88283581D01*
X121443978Y-88283580D01*
X121443981Y-88283580D01*
X121598884Y-88204653D01*
X121739533Y-88102465D01*
X121862465Y-87979533D01*
X121964653Y-87838884D01*
X122043580Y-87683981D01*
X122097303Y-87518638D01*
X122124500Y-87346926D01*
X122124500Y-87173074D01*
X122097303Y-87001362D01*
X122097302Y-87001358D01*
X122097302Y-87001357D01*
X122043581Y-86836021D01*
X122013576Y-86777133D01*
X121964653Y-86681116D01*
X121862465Y-86540467D01*
X121739533Y-86417535D01*
X121694654Y-86384928D01*
X122455500Y-86384928D01*
X122455500Y-88135063D01*
X122470266Y-88209301D01*
X122526515Y-88293484D01*
X122560234Y-88316014D01*
X122610699Y-88349734D01*
X122610702Y-88349734D01*
X122610703Y-88349735D01*
X122635666Y-88354700D01*
X122684933Y-88364500D01*
X124435066Y-88364499D01*
X124509301Y-88349734D01*
X124593484Y-88293484D01*
X124649734Y-88209301D01*
X124664500Y-88135067D01*
X124664499Y-86384934D01*
X124649734Y-86310699D01*
X124624943Y-86273597D01*
X124593484Y-86226515D01*
X124527905Y-86182697D01*
X124509301Y-86170266D01*
X124509299Y-86170265D01*
X124509296Y-86170264D01*
X124435069Y-86155500D01*
X122684936Y-86155500D01*
X122610698Y-86170266D01*
X122526515Y-86226515D01*
X122470266Y-86310699D01*
X122470264Y-86310703D01*
X122455500Y-86384928D01*
X121694654Y-86384928D01*
X121598884Y-86315347D01*
X121541421Y-86286068D01*
X121443978Y-86236418D01*
X121278641Y-86182697D01*
X121149854Y-86162299D01*
X121106926Y-86155500D01*
X120933074Y-86155500D01*
X120881245Y-86163709D01*
X120761360Y-86182697D01*
X120761357Y-86182697D01*
X120596021Y-86236418D01*
X120441115Y-86315347D01*
X120371131Y-86366194D01*
X120300467Y-86417535D01*
X120300465Y-86417537D01*
X120300464Y-86417537D01*
X120177537Y-86540464D01*
X120177537Y-86540465D01*
X120177535Y-86540467D01*
X120168837Y-86552439D01*
X120075347Y-86681115D01*
X119996418Y-86836021D01*
X119942697Y-87001357D01*
X119942697Y-87001360D01*
X119932100Y-87068268D01*
X119915500Y-87173074D01*
X119584500Y-87173074D01*
X119557303Y-87001362D01*
X119557302Y-87001358D01*
X119557302Y-87001357D01*
X119503581Y-86836021D01*
X119473576Y-86777133D01*
X119424653Y-86681116D01*
X119322465Y-86540467D01*
X119199533Y-86417535D01*
X119058884Y-86315347D01*
X119001421Y-86286068D01*
X118903978Y-86236418D01*
X118788921Y-86199034D01*
X118731245Y-86159596D01*
X118704047Y-86095238D01*
X118715962Y-86026392D01*
X118745554Y-85990288D01*
X118744724Y-85989458D01*
X118788585Y-85945597D01*
X118853711Y-85880471D01*
X118926712Y-85754029D01*
X118964500Y-85613001D01*
X118964500Y-85468500D01*
X118984185Y-85401461D01*
X119036989Y-85355706D01*
X119088500Y-85344500D01*
X119222999Y-85344500D01*
X119223001Y-85344500D01*
X119364029Y-85306712D01*
X119490471Y-85233711D01*
X119593711Y-85130471D01*
X119666712Y-85004029D01*
X119704500Y-84863001D01*
X119704500Y-84852484D01*
X119724185Y-84785445D01*
X119776989Y-84739690D01*
X119846147Y-84729746D01*
X119871834Y-84736302D01*
X119965123Y-84771097D01*
X119965127Y-84771098D01*
X120024655Y-84777499D01*
X120024672Y-84777500D01*
X120422500Y-84777500D01*
X120922500Y-84777500D01*
X121320328Y-84777500D01*
X121320344Y-84777499D01*
X121379872Y-84771098D01*
X121379879Y-84771096D01*
X121514586Y-84720854D01*
X121514593Y-84720850D01*
X121629687Y-84634690D01*
X121629690Y-84634687D01*
X121715850Y-84519593D01*
X121715854Y-84519586D01*
X121766096Y-84384879D01*
X121766098Y-84384872D01*
X121772499Y-84325344D01*
X121772500Y-84325327D01*
X121772500Y-84301500D01*
X121792185Y-84234461D01*
X121844989Y-84188706D01*
X121896500Y-84177500D01*
X124522500Y-84177500D01*
X124522500Y-83801500D01*
X124542185Y-83734461D01*
X124594989Y-83688706D01*
X124646500Y-83677500D01*
X124722500Y-83677500D01*
X124722500Y-83077500D01*
X125222500Y-83077500D01*
X125222500Y-83677500D01*
X125620328Y-83677500D01*
X125620344Y-83677499D01*
X125679872Y-83671098D01*
X125679876Y-83671097D01*
X125797541Y-83627211D01*
X125867233Y-83622227D01*
X125928556Y-83655712D01*
X125962041Y-83717035D01*
X125957057Y-83786727D01*
X125948263Y-83805392D01*
X125913288Y-83865970D01*
X125913288Y-83865971D01*
X125875500Y-84006999D01*
X125875500Y-84153001D01*
X125902298Y-84253011D01*
X125913288Y-84294028D01*
X125913289Y-84294031D01*
X125986286Y-84420467D01*
X125986288Y-84420470D01*
X125986289Y-84420471D01*
X126089529Y-84523711D01*
X126089530Y-84523712D01*
X126089532Y-84523713D01*
X126215967Y-84596710D01*
X126215971Y-84596712D01*
X126247592Y-84605184D01*
X126307249Y-84641546D01*
X126337780Y-84704392D01*
X126329486Y-84773768D01*
X126303179Y-84812638D01*
X126256290Y-84859527D01*
X126256286Y-84859532D01*
X126183289Y-84985968D01*
X126183288Y-84985971D01*
X126145500Y-85126999D01*
X126145500Y-85273001D01*
X126179921Y-85401461D01*
X126183288Y-85414028D01*
X126183289Y-85414031D01*
X126256286Y-85540467D01*
X126256288Y-85540470D01*
X126256289Y-85540471D01*
X126359529Y-85643711D01*
X126359530Y-85643712D01*
X126359532Y-85643713D01*
X126412856Y-85674499D01*
X126485971Y-85716712D01*
X126626999Y-85754500D01*
X126701799Y-85754500D01*
X126768838Y-85774185D01*
X126789480Y-85790819D01*
X129436329Y-88437668D01*
X129502332Y-88503671D01*
X129583168Y-88550341D01*
X129673329Y-88574500D01*
X129766671Y-88574500D01*
X130830121Y-88574500D01*
X130897160Y-88594185D01*
X130942915Y-88646989D01*
X130952859Y-88716147D01*
X130949896Y-88730592D01*
X130945500Y-88746997D01*
X130945500Y-88746999D01*
X130945500Y-88893001D01*
X130971506Y-88990055D01*
X130983288Y-89034028D01*
X130983289Y-89034031D01*
X131056286Y-89160467D01*
X131056288Y-89160470D01*
X131056289Y-89160471D01*
X131159529Y-89263711D01*
X131285971Y-89336712D01*
X131319798Y-89345776D01*
X131379458Y-89382138D01*
X131409989Y-89444985D01*
X131407480Y-89497643D01*
X131375500Y-89616999D01*
X131375500Y-89763001D01*
X131403598Y-89867863D01*
X131413288Y-89904028D01*
X131413289Y-89904031D01*
X131486286Y-90030467D01*
X131486288Y-90030470D01*
X131486289Y-90030471D01*
X131589529Y-90133711D01*
X131715971Y-90206712D01*
X131856999Y-90244500D01*
X131931799Y-90244500D01*
X131998838Y-90264185D01*
X132019480Y-90280819D01*
X134196329Y-92457668D01*
X134262332Y-92523671D01*
X134343168Y-92570341D01*
X134362222Y-92575446D01*
X134433329Y-92594501D01*
X134526671Y-92594501D01*
X134526675Y-92594500D01*
X146753329Y-92594500D01*
X146846671Y-92594500D01*
X146936832Y-92570341D01*
X147017668Y-92523671D01*
X148429613Y-91111724D01*
X148490934Y-91078241D01*
X148560625Y-91083225D01*
X148616559Y-91125096D01*
X148620394Y-91130515D01*
X148655260Y-91182696D01*
X148655261Y-91182697D01*
X148655264Y-91182701D01*
X150387762Y-92915198D01*
X150387765Y-92915201D01*
X150419232Y-92936226D01*
X150450699Y-92957252D01*
X150450700Y-92957252D01*
X150450701Y-92957253D01*
X150549998Y-92977004D01*
X150550000Y-92977004D01*
X150550002Y-92977004D01*
X150616200Y-92963836D01*
X150649301Y-92957252D01*
X150712234Y-92915202D01*
X151032936Y-92594500D01*
X151268726Y-92358711D01*
X154219500Y-92358711D01*
X154219500Y-92601288D01*
X154251161Y-92841785D01*
X154313947Y-93076104D01*
X154406773Y-93300205D01*
X154406776Y-93300212D01*
X154528064Y-93510289D01*
X154528066Y-93510292D01*
X154528067Y-93510293D01*
X154675733Y-93702736D01*
X154675739Y-93702743D01*
X154847256Y-93874260D01*
X154847263Y-93874266D01*
X154882555Y-93901346D01*
X155039711Y-94021936D01*
X155249788Y-94143224D01*
X155473900Y-94236054D01*
X155708211Y-94298838D01*
X155888586Y-94322584D01*
X155948711Y-94330500D01*
X155948712Y-94330500D01*
X156191289Y-94330500D01*
X156239388Y-94324167D01*
X156431789Y-94298838D01*
X156666100Y-94236054D01*
X156890212Y-94143224D01*
X157100289Y-94021936D01*
X157292738Y-93874265D01*
X157464265Y-93702738D01*
X157611936Y-93510289D01*
X157733224Y-93300212D01*
X157826054Y-93076100D01*
X157888838Y-92841789D01*
X157920500Y-92601288D01*
X157920500Y-92358712D01*
X157919903Y-92354181D01*
X157903776Y-92231676D01*
X157888838Y-92118211D01*
X157826054Y-91883900D01*
X157733224Y-91659788D01*
X157611936Y-91449711D01*
X157492477Y-91294029D01*
X157464266Y-91257263D01*
X157464260Y-91257256D01*
X157292743Y-91085739D01*
X157292736Y-91085733D01*
X157100293Y-90938067D01*
X157100292Y-90938066D01*
X157100289Y-90938064D01*
X156890212Y-90816776D01*
X156890205Y-90816773D01*
X156666104Y-90723947D01*
X156431785Y-90661161D01*
X156191289Y-90629500D01*
X156191288Y-90629500D01*
X155948712Y-90629500D01*
X155948711Y-90629500D01*
X155708214Y-90661161D01*
X155473895Y-90723947D01*
X155249794Y-90816773D01*
X155249785Y-90816777D01*
X155118143Y-90892781D01*
X155053923Y-90929859D01*
X155039706Y-90938067D01*
X154847263Y-91085733D01*
X154847256Y-91085739D01*
X154675739Y-91257256D01*
X154675733Y-91257263D01*
X154528067Y-91449706D01*
X154406777Y-91659785D01*
X154406773Y-91659794D01*
X154313947Y-91883895D01*
X154251161Y-92118214D01*
X154219500Y-92358711D01*
X151268726Y-92358711D01*
X151360465Y-92266972D01*
X152444736Y-91182699D01*
X152444739Y-91182696D01*
X152486790Y-91119763D01*
X152490285Y-91102195D01*
X152506542Y-91020464D01*
X152506542Y-91020459D01*
X152486790Y-90921161D01*
X152486790Y-90921160D01*
X152444738Y-90858225D01*
X152444735Y-90858222D01*
X151176098Y-89589587D01*
X151142613Y-89528264D01*
X151147597Y-89458573D01*
X151189468Y-89402639D01*
X151254933Y-89378222D01*
X151263779Y-89377906D01*
X155756281Y-89377906D01*
X155823320Y-89397591D01*
X155843962Y-89414225D01*
X156687405Y-90257668D01*
X156753408Y-90323671D01*
X156834244Y-90370341D01*
X156924405Y-90394500D01*
X156924407Y-90394500D01*
X160945197Y-90394500D01*
X160945199Y-90394500D01*
X161035360Y-90370341D01*
X161116196Y-90323671D01*
X162837796Y-88602070D01*
X168194500Y-88602070D01*
X168194500Y-88857930D01*
X168197761Y-88878517D01*
X168234526Y-89110640D01*
X168313588Y-89353972D01*
X168313589Y-89353975D01*
X168374654Y-89473819D01*
X168400117Y-89523794D01*
X168429750Y-89581950D01*
X168580132Y-89788935D01*
X168580136Y-89788940D01*
X168761059Y-89969863D01*
X168761064Y-89969867D01*
X168941607Y-90101038D01*
X168968053Y-90120252D01*
X169117080Y-90196185D01*
X169196024Y-90236410D01*
X169196027Y-90236411D01*
X169281508Y-90264185D01*
X169439361Y-90315474D01*
X169692070Y-90355500D01*
X169692071Y-90355500D01*
X169947929Y-90355500D01*
X169947930Y-90355500D01*
X170200639Y-90315474D01*
X170443975Y-90236410D01*
X170671947Y-90120252D01*
X170878942Y-89969862D01*
X171059862Y-89788942D01*
X171210252Y-89581947D01*
X171326410Y-89353975D01*
X171405474Y-89110639D01*
X171445500Y-88857930D01*
X171445500Y-88602070D01*
X171405474Y-88349361D01*
X171353687Y-88189975D01*
X171326411Y-88106027D01*
X171326410Y-88106024D01*
X171277474Y-88009983D01*
X171210252Y-87878053D01*
X171181794Y-87838884D01*
X171059867Y-87671064D01*
X171059863Y-87671059D01*
X170878940Y-87490136D01*
X170878935Y-87490132D01*
X170671950Y-87339750D01*
X170671949Y-87339749D01*
X170671947Y-87339748D01*
X170569578Y-87287588D01*
X170443975Y-87223589D01*
X170443972Y-87223588D01*
X170200640Y-87144526D01*
X170074284Y-87124513D01*
X169947930Y-87104500D01*
X169692070Y-87104500D01*
X169607833Y-87117842D01*
X169439359Y-87144526D01*
X169196027Y-87223588D01*
X169196024Y-87223589D01*
X168968049Y-87339750D01*
X168761064Y-87490132D01*
X168761059Y-87490136D01*
X168580136Y-87671059D01*
X168580132Y-87671064D01*
X168429750Y-87878049D01*
X168313589Y-88106024D01*
X168313588Y-88106027D01*
X168234526Y-88349359D01*
X168195749Y-88594185D01*
X168194500Y-88602070D01*
X162837796Y-88602070D01*
X164997458Y-86442406D01*
X164997463Y-86442403D01*
X165007666Y-86432199D01*
X165007668Y-86432199D01*
X165073671Y-86366196D01*
X165120341Y-86285360D01*
X165123251Y-86274500D01*
X165144500Y-86195200D01*
X165144500Y-86101857D01*
X165144500Y-84371044D01*
X165164185Y-84304005D01*
X165180819Y-84283363D01*
X165190894Y-84273288D01*
X165233711Y-84230471D01*
X165306712Y-84104029D01*
X165344500Y-83963001D01*
X165344500Y-83888201D01*
X165364185Y-83821162D01*
X165380819Y-83800520D01*
X166741353Y-82439986D01*
X170415001Y-82439986D01*
X170425494Y-82542697D01*
X170480641Y-82709119D01*
X170480643Y-82709124D01*
X170572684Y-82858345D01*
X170696654Y-82982315D01*
X170845875Y-83074356D01*
X170845880Y-83074358D01*
X171012302Y-83129505D01*
X171012309Y-83129506D01*
X171115019Y-83139999D01*
X171564999Y-83139999D01*
X171565000Y-83139998D01*
X171565000Y-82290000D01*
X170415001Y-82290000D01*
X170415001Y-82439986D01*
X166741353Y-82439986D01*
X167541326Y-81640013D01*
X170415000Y-81640013D01*
X170415000Y-81790000D01*
X171565000Y-81790000D01*
X171565000Y-80940000D01*
X171115028Y-80940000D01*
X171115012Y-80940001D01*
X171012302Y-80950494D01*
X170845880Y-81005641D01*
X170845875Y-81005643D01*
X170696654Y-81097684D01*
X170572684Y-81221654D01*
X170480643Y-81370875D01*
X170480641Y-81370880D01*
X170425494Y-81537302D01*
X170425493Y-81537309D01*
X170415000Y-81640013D01*
X167541326Y-81640013D01*
X167850520Y-81330819D01*
X167911843Y-81297334D01*
X167938201Y-81294500D01*
X168596839Y-81294500D01*
X168691552Y-81279499D01*
X168691553Y-81279498D01*
X168691555Y-81279498D01*
X168805723Y-81221326D01*
X168896326Y-81130723D01*
X168954498Y-81016555D01*
X168954498Y-81016553D01*
X168954499Y-81016552D01*
X168969500Y-80921839D01*
X168969500Y-80558160D01*
X168954499Y-80463447D01*
X168933443Y-80422123D01*
X168896326Y-80349277D01*
X168896322Y-80349273D01*
X168896321Y-80349271D01*
X168874731Y-80327681D01*
X168841246Y-80266358D01*
X168846230Y-80196666D01*
X168874731Y-80152319D01*
X168896321Y-80130728D01*
X168896326Y-80130723D01*
X168954498Y-80016555D01*
X168954498Y-80016553D01*
X168954499Y-80016552D01*
X168969500Y-79921839D01*
X168969500Y-79558160D01*
X168954499Y-79463447D01*
X168952331Y-79459193D01*
X168896326Y-79349277D01*
X168896322Y-79349273D01*
X168896321Y-79349271D01*
X168874731Y-79327681D01*
X168841246Y-79266358D01*
X168846230Y-79196666D01*
X168874731Y-79152319D01*
X168896321Y-79130728D01*
X168896326Y-79130723D01*
X168954498Y-79016555D01*
X168954498Y-79016553D01*
X168954499Y-79016552D01*
X168969500Y-78921839D01*
X168969500Y-78558160D01*
X168954499Y-78463447D01*
X168943733Y-78442318D01*
X168896326Y-78349277D01*
X168896322Y-78349273D01*
X168896321Y-78349271D01*
X168874731Y-78327681D01*
X168841246Y-78266358D01*
X168846230Y-78196666D01*
X168874731Y-78152319D01*
X168896321Y-78130728D01*
X168896326Y-78130723D01*
X168954498Y-78016555D01*
X168954498Y-78016553D01*
X168954499Y-78016552D01*
X168969500Y-77921839D01*
X168969500Y-77558160D01*
X168954499Y-77463447D01*
X168949162Y-77452972D01*
X168896326Y-77349277D01*
X168896322Y-77349273D01*
X168896321Y-77349271D01*
X168874731Y-77327681D01*
X168841246Y-77266358D01*
X168846230Y-77196666D01*
X168874731Y-77152319D01*
X168896321Y-77130728D01*
X168896326Y-77130723D01*
X168954498Y-77016555D01*
X168954498Y-77016553D01*
X168954499Y-77016552D01*
X168969500Y-76921839D01*
X168969500Y-76558160D01*
X168954499Y-76463447D01*
X168945775Y-76446326D01*
X168896326Y-76349277D01*
X168896322Y-76349273D01*
X168896321Y-76349271D01*
X168874731Y-76327681D01*
X168841246Y-76266358D01*
X168846230Y-76196666D01*
X168874731Y-76152319D01*
X168896321Y-76130728D01*
X168896326Y-76130723D01*
X168954498Y-76016555D01*
X168954498Y-76016553D01*
X168954499Y-76016552D01*
X168969500Y-75921839D01*
X168969500Y-75558160D01*
X168954499Y-75463447D01*
X168935538Y-75426235D01*
X168896326Y-75349277D01*
X168896322Y-75349273D01*
X168896321Y-75349271D01*
X168874731Y-75327681D01*
X168841246Y-75266358D01*
X168846230Y-75196666D01*
X168874731Y-75152319D01*
X168896321Y-75130728D01*
X168896326Y-75130723D01*
X168954498Y-75016555D01*
X168954498Y-75016553D01*
X168954499Y-75016552D01*
X168969500Y-74921839D01*
X168969500Y-74558161D01*
X168958406Y-74488120D01*
X168967360Y-74418826D01*
X168993199Y-74381039D01*
X169082678Y-74291561D01*
X169082685Y-74291552D01*
X169166281Y-74150198D01*
X169212100Y-73992486D01*
X169212295Y-73990001D01*
X169212295Y-73990000D01*
X166667705Y-73990000D01*
X166653419Y-74005453D01*
X166650333Y-74020148D01*
X166640569Y-74030052D01*
X166634792Y-74042703D01*
X166616525Y-74054442D01*
X166601282Y-74069905D01*
X166586510Y-74073731D01*
X166576014Y-74080477D01*
X166541079Y-74085500D01*
X166504884Y-74085500D01*
X166453466Y-74072619D01*
X166453018Y-74073702D01*
X166368530Y-74038706D01*
X166310080Y-74014495D01*
X166310079Y-74014494D01*
X166304452Y-74012164D01*
X166304898Y-74011085D01*
X166259433Y-73983830D01*
X165897628Y-73622025D01*
X165765601Y-73489998D01*
X166667704Y-73489998D01*
X166667705Y-73490000D01*
X167690000Y-73490000D01*
X168190000Y-73490000D01*
X169212295Y-73490000D01*
X169212295Y-73489998D01*
X169212100Y-73487513D01*
X169166281Y-73329801D01*
X169082685Y-73188447D01*
X169082678Y-73188438D01*
X168966561Y-73072321D01*
X168966552Y-73072314D01*
X168825196Y-72988717D01*
X168825193Y-72988716D01*
X168667495Y-72942900D01*
X168667489Y-72942899D01*
X168630649Y-72940000D01*
X168190000Y-72940000D01*
X168190000Y-73490000D01*
X167690000Y-73490000D01*
X167690000Y-72940000D01*
X167249350Y-72940000D01*
X167212510Y-72942899D01*
X167212504Y-72942900D01*
X167054806Y-72988716D01*
X167054803Y-72988717D01*
X166913447Y-73072314D01*
X166913438Y-73072321D01*
X166797321Y-73188438D01*
X166797314Y-73188447D01*
X166713718Y-73329801D01*
X166667899Y-73487513D01*
X166667704Y-73489998D01*
X165765601Y-73489998D01*
X165342663Y-73067059D01*
X165309178Y-73005736D01*
X165314162Y-72936044D01*
X165318291Y-72927399D01*
X165318185Y-72927354D01*
X165321280Y-72920200D01*
X165344584Y-72839986D01*
X170415001Y-72839986D01*
X170425494Y-72942697D01*
X170480641Y-73109119D01*
X170480643Y-73109124D01*
X170572684Y-73258345D01*
X170696654Y-73382315D01*
X170845875Y-73474356D01*
X170845880Y-73474358D01*
X171012302Y-73529505D01*
X171012309Y-73529506D01*
X171115019Y-73539999D01*
X171564999Y-73539999D01*
X171565000Y-73539998D01*
X171565000Y-72690000D01*
X170415001Y-72690000D01*
X170415001Y-72839986D01*
X165344584Y-72839986D01*
X165367100Y-72762486D01*
X165367296Y-72760000D01*
X162822705Y-72760000D01*
X162822704Y-72760001D01*
X162822899Y-72762486D01*
X162868718Y-72920198D01*
X162952314Y-73061552D01*
X162952318Y-73061557D01*
X163041801Y-73151039D01*
X163075286Y-73212362D01*
X163076593Y-73258118D01*
X163065500Y-73328159D01*
X163065500Y-73691839D01*
X163080500Y-73786552D01*
X163087114Y-73799532D01*
X163138674Y-73900723D01*
X163138676Y-73900725D01*
X163138678Y-73900728D01*
X163229271Y-73991321D01*
X163229273Y-73991322D01*
X163229277Y-73991326D01*
X163343445Y-74049498D01*
X163343446Y-74049498D01*
X163343448Y-74049499D01*
X163343447Y-74049499D01*
X163438161Y-74064500D01*
X163438166Y-74064500D01*
X163709183Y-74064500D01*
X163776222Y-74084185D01*
X163778055Y-74085385D01*
X163784978Y-74090011D01*
X163904089Y-74139348D01*
X163904091Y-74139348D01*
X163904096Y-74139350D01*
X164030532Y-74164499D01*
X164030536Y-74164500D01*
X164030537Y-74164500D01*
X164537535Y-74164500D01*
X164604574Y-74184185D01*
X164625216Y-74200819D01*
X165333830Y-74909433D01*
X165361085Y-74954898D01*
X165362164Y-74954452D01*
X165364494Y-74960079D01*
X165364495Y-74960080D01*
X165372806Y-74980144D01*
X165421371Y-75097391D01*
X165484994Y-75192610D01*
X165505872Y-75259287D01*
X165487387Y-75326667D01*
X165435408Y-75373357D01*
X165381892Y-75385500D01*
X161739382Y-75385500D01*
X161672343Y-75365815D01*
X161626588Y-75313011D01*
X161616024Y-75248897D01*
X161619999Y-75209986D01*
X161620000Y-75209973D01*
X161620000Y-75060000D01*
X158820001Y-75060000D01*
X158820001Y-75209986D01*
X158823977Y-75248898D01*
X158811208Y-75317591D01*
X158763327Y-75368475D01*
X158700619Y-75385500D01*
X149546671Y-75385500D01*
X149453329Y-75385500D01*
X149393221Y-75401606D01*
X149363167Y-75409659D01*
X149282333Y-75456328D01*
X149282330Y-75456330D01*
X140449480Y-84289181D01*
X140388157Y-84322666D01*
X140361799Y-84325500D01*
X138809879Y-84325500D01*
X138742840Y-84305815D01*
X138697085Y-84253011D01*
X138687141Y-84183853D01*
X138690104Y-84169408D01*
X138691058Y-84165846D01*
X138694500Y-84153001D01*
X138694500Y-84006999D01*
X138656712Y-83865971D01*
X138630459Y-83820499D01*
X138613988Y-83752599D01*
X138636840Y-83686572D01*
X138691762Y-83643382D01*
X138737847Y-83634500D01*
X140300983Y-83634500D01*
X140300985Y-83634500D01*
X140391146Y-83610341D01*
X140471982Y-83563671D01*
X147464099Y-76571554D01*
X147525422Y-76538069D01*
X147551780Y-76535235D01*
X147626578Y-76535235D01*
X147626580Y-76535235D01*
X147767608Y-76497447D01*
X147894050Y-76424446D01*
X147997290Y-76321206D01*
X148070291Y-76194764D01*
X148108079Y-76053736D01*
X148108079Y-75907734D01*
X148070291Y-75766706D01*
X147997290Y-75640264D01*
X147894050Y-75537024D01*
X147894049Y-75537023D01*
X147894046Y-75537021D01*
X147767610Y-75464024D01*
X147767609Y-75464023D01*
X147767608Y-75464023D01*
X147626580Y-75426235D01*
X147503094Y-75426235D01*
X147436055Y-75406550D01*
X147390300Y-75353746D01*
X147380356Y-75284588D01*
X147409381Y-75221032D01*
X147415413Y-75214554D01*
X148099148Y-74530819D01*
X148160471Y-74497334D01*
X148186829Y-74494500D01*
X151598956Y-74494500D01*
X151665995Y-74514185D01*
X151686637Y-74530819D01*
X151739529Y-74583711D01*
X151739530Y-74583712D01*
X151739532Y-74583713D01*
X151760759Y-74595968D01*
X151865971Y-74656712D01*
X152006999Y-74694500D01*
X152007001Y-74694500D01*
X152152999Y-74694500D01*
X152153001Y-74694500D01*
X152294029Y-74656712D01*
X152420471Y-74583711D01*
X152523711Y-74480471D01*
X152564390Y-74410013D01*
X158820000Y-74410013D01*
X158820000Y-74560000D01*
X159970000Y-74560000D01*
X160470000Y-74560000D01*
X161619999Y-74560000D01*
X161619999Y-74410028D01*
X161619998Y-74410013D01*
X161609505Y-74307302D01*
X161554358Y-74140880D01*
X161554356Y-74140875D01*
X161462315Y-73991654D01*
X161338345Y-73867684D01*
X161189124Y-73775643D01*
X161189119Y-73775641D01*
X161022697Y-73720494D01*
X161022690Y-73720493D01*
X160919986Y-73710000D01*
X160470000Y-73710000D01*
X160470000Y-74560000D01*
X159970000Y-74560000D01*
X159970000Y-73710000D01*
X159520028Y-73710000D01*
X159520012Y-73710001D01*
X159417302Y-73720494D01*
X159250880Y-73775641D01*
X159250875Y-73775643D01*
X159101654Y-73867684D01*
X158977684Y-73991654D01*
X158885643Y-74140875D01*
X158885641Y-74140880D01*
X158830494Y-74307302D01*
X158830493Y-74307309D01*
X158820000Y-74410013D01*
X152564390Y-74410013D01*
X152596712Y-74354029D01*
X152634500Y-74213001D01*
X152634500Y-74066999D01*
X152596712Y-73925971D01*
X152523711Y-73799529D01*
X152420471Y-73696289D01*
X152420470Y-73696288D01*
X152420467Y-73696286D01*
X152294031Y-73623289D01*
X152294030Y-73623288D01*
X152294029Y-73623288D01*
X152153001Y-73585500D01*
X152006999Y-73585500D01*
X151865971Y-73623288D01*
X151865968Y-73623289D01*
X151739532Y-73696286D01*
X151739527Y-73696290D01*
X151686637Y-73749181D01*
X151625314Y-73782666D01*
X151598956Y-73785500D01*
X148035299Y-73785500D01*
X147941957Y-73785500D01*
X147889601Y-73799529D01*
X147851795Y-73809659D01*
X147770961Y-73856328D01*
X147770958Y-73856330D01*
X141538724Y-80088564D01*
X141477401Y-80122049D01*
X141407709Y-80117065D01*
X141351776Y-80075193D01*
X141331268Y-80032976D01*
X141326868Y-80016555D01*
X141326712Y-80015971D01*
X141283409Y-79940967D01*
X141253713Y-79889532D01*
X141253709Y-79889527D01*
X141150472Y-79786290D01*
X141150467Y-79786286D01*
X141058751Y-79733334D01*
X141010535Y-79682767D01*
X140997312Y-79614160D01*
X141023280Y-79549295D01*
X141033061Y-79538275D01*
X148670519Y-71900819D01*
X148731842Y-71867334D01*
X148758200Y-71864500D01*
X162790480Y-71864500D01*
X162857519Y-71884185D01*
X162903274Y-71936989D01*
X162913218Y-72006147D01*
X162897212Y-72051621D01*
X162868718Y-72099801D01*
X162822899Y-72257513D01*
X162822704Y-72259998D01*
X162822705Y-72260000D01*
X165367295Y-72260000D01*
X165367295Y-72259998D01*
X165367100Y-72257513D01*
X165321281Y-72099801D01*
X165237685Y-71958447D01*
X165237678Y-71958438D01*
X165148198Y-71868958D01*
X165114713Y-71807635D01*
X165113406Y-71761878D01*
X165114722Y-71753573D01*
X165117469Y-71736222D01*
X165124500Y-71691838D01*
X165124500Y-71328160D01*
X165109499Y-71233447D01*
X165095606Y-71206181D01*
X165051326Y-71119277D01*
X165051322Y-71119273D01*
X165051321Y-71119271D01*
X165029731Y-71097681D01*
X164996246Y-71036358D01*
X165001230Y-70966666D01*
X165029731Y-70922319D01*
X165051321Y-70900728D01*
X165051326Y-70900723D01*
X165109498Y-70786555D01*
X165109498Y-70786553D01*
X165109499Y-70786552D01*
X165124500Y-70691839D01*
X165124500Y-70395010D01*
X167425500Y-70395010D01*
X167425500Y-70624989D01*
X167425501Y-70625005D01*
X167455518Y-70853009D01*
X167455519Y-70853014D01*
X167455520Y-70853020D01*
X167515046Y-71075175D01*
X167515049Y-71075185D01*
X167603057Y-71287654D01*
X167603061Y-71287664D01*
X167718055Y-71486839D01*
X167858064Y-71669303D01*
X167858070Y-71669310D01*
X168020689Y-71831929D01*
X168020696Y-71831935D01*
X168203160Y-71971944D01*
X168402335Y-72086938D01*
X168402336Y-72086938D01*
X168402339Y-72086940D01*
X168514236Y-72133289D01*
X168581500Y-72161151D01*
X168614824Y-72174954D01*
X168836980Y-72234480D01*
X169065004Y-72264500D01*
X169065011Y-72264500D01*
X169294989Y-72264500D01*
X169294996Y-72264500D01*
X169523020Y-72234480D01*
X169745176Y-72174954D01*
X169957661Y-72086940D01*
X170156840Y-71971944D01*
X170216444Y-71926207D01*
X170281613Y-71901013D01*
X170350058Y-71915051D01*
X170400048Y-71963865D01*
X170415712Y-72031956D01*
X170415290Y-72037175D01*
X170415001Y-72040005D01*
X170415000Y-72040026D01*
X170415000Y-72190000D01*
X171565000Y-72190000D01*
X171565000Y-71340000D01*
X171115028Y-71340000D01*
X171115012Y-71340001D01*
X171012302Y-71350494D01*
X170943437Y-71373314D01*
X170873609Y-71375716D01*
X170813567Y-71339984D01*
X170782374Y-71277464D01*
X170789872Y-71208155D01*
X170790842Y-71205815D01*
X170844954Y-71075176D01*
X170904480Y-70853020D01*
X170934500Y-70624996D01*
X170934500Y-70395004D01*
X170904480Y-70166980D01*
X170844954Y-69944824D01*
X170756940Y-69732339D01*
X170747164Y-69715407D01*
X170641944Y-69533160D01*
X170501935Y-69350696D01*
X170501929Y-69350689D01*
X170339310Y-69188070D01*
X170339303Y-69188064D01*
X170156839Y-69048055D01*
X169957664Y-68933061D01*
X169957654Y-68933057D01*
X169745185Y-68845049D01*
X169745178Y-68845047D01*
X169745176Y-68845046D01*
X169523020Y-68785520D01*
X169523014Y-68785519D01*
X169523009Y-68785518D01*
X169295005Y-68755501D01*
X169295002Y-68755500D01*
X169294996Y-68755500D01*
X169065004Y-68755500D01*
X169064998Y-68755500D01*
X169064994Y-68755501D01*
X168836990Y-68785518D01*
X168836983Y-68785519D01*
X168836980Y-68785520D01*
X168630600Y-68840819D01*
X168614824Y-68845046D01*
X168614814Y-68845049D01*
X168402345Y-68933057D01*
X168402335Y-68933061D01*
X168203160Y-69048055D01*
X168020696Y-69188064D01*
X168020689Y-69188070D01*
X167858070Y-69350689D01*
X167858064Y-69350696D01*
X167718055Y-69533160D01*
X167603061Y-69732335D01*
X167603057Y-69732345D01*
X167515049Y-69944814D01*
X167515046Y-69944824D01*
X167459356Y-70152666D01*
X167455521Y-70166977D01*
X167455518Y-70166990D01*
X167425501Y-70394994D01*
X167425500Y-70395010D01*
X165124500Y-70395010D01*
X165124500Y-70328160D01*
X165109499Y-70233447D01*
X165105688Y-70225968D01*
X165051326Y-70119277D01*
X165051322Y-70119273D01*
X165051321Y-70119271D01*
X164960728Y-70028678D01*
X164960725Y-70028676D01*
X164960723Y-70028674D01*
X164846555Y-69970502D01*
X164846554Y-69970501D01*
X164846551Y-69970500D01*
X164846552Y-69970500D01*
X164751839Y-69955500D01*
X164751834Y-69955500D01*
X163438166Y-69955500D01*
X163438161Y-69955500D01*
X163343447Y-69970500D01*
X163267333Y-70009283D01*
X163229277Y-70028674D01*
X163229276Y-70028675D01*
X163229271Y-70028678D01*
X163138769Y-70119181D01*
X163077446Y-70152666D01*
X163051088Y-70155500D01*
X161606061Y-70155500D01*
X161539022Y-70135815D01*
X161493267Y-70083011D01*
X161483323Y-70013853D01*
X161500522Y-69966403D01*
X161554356Y-69879124D01*
X161554358Y-69879119D01*
X161609505Y-69712697D01*
X161609506Y-69712690D01*
X161619999Y-69609986D01*
X161620000Y-69609973D01*
X161620000Y-69460000D01*
X158820001Y-69460000D01*
X158820001Y-69609986D01*
X158830494Y-69712697D01*
X158885641Y-69879119D01*
X158885643Y-69879124D01*
X158939478Y-69966403D01*
X158957918Y-70033795D01*
X158936996Y-70100459D01*
X158883354Y-70145229D01*
X158833939Y-70155500D01*
X148767643Y-70155500D01*
X148709025Y-70171207D01*
X148677481Y-70179659D01*
X148596647Y-70226328D01*
X148596644Y-70226330D01*
X148530641Y-70292334D01*
X139953053Y-78869920D01*
X139891730Y-78903405D01*
X139822038Y-78898421D01*
X139766105Y-78856549D01*
X139757985Y-78844239D01*
X139749495Y-78829534D01*
X139749491Y-78829529D01*
X139646254Y-78726292D01*
X139646249Y-78726288D01*
X139519813Y-78653291D01*
X139519812Y-78653290D01*
X139519811Y-78653290D01*
X139378783Y-78615502D01*
X139232781Y-78615502D01*
X139091753Y-78653290D01*
X139091750Y-78653291D01*
X138965314Y-78726288D01*
X138965309Y-78726292D01*
X138912419Y-78779183D01*
X138851096Y-78812668D01*
X138824738Y-78815502D01*
X138273981Y-78815502D01*
X138206942Y-78795817D01*
X138161187Y-78743013D01*
X138151243Y-78673855D01*
X138180268Y-78610299D01*
X138186300Y-78603821D01*
X138204822Y-78585299D01*
X138270949Y-78519172D01*
X138343950Y-78392730D01*
X138381738Y-78251702D01*
X138381738Y-78105700D01*
X138377819Y-78091074D01*
X138379482Y-78021225D01*
X138418645Y-77963363D01*
X138465501Y-77939207D01*
X138474029Y-77936923D01*
X138600471Y-77863922D01*
X138703711Y-77760682D01*
X138776712Y-77634240D01*
X138814500Y-77493212D01*
X138814500Y-77365849D01*
X138834185Y-77298810D01*
X138886989Y-77253055D01*
X138900040Y-77248363D01*
X138904020Y-77246714D01*
X138904029Y-77246712D01*
X139030471Y-77173711D01*
X139133711Y-77070471D01*
X139206712Y-76944029D01*
X139244500Y-76803001D01*
X139244500Y-76656999D01*
X139206712Y-76515971D01*
X139166503Y-76446326D01*
X139133713Y-76389532D01*
X139133709Y-76389527D01*
X139030472Y-76286290D01*
X139030467Y-76286286D01*
X138904031Y-76213289D01*
X138904030Y-76213288D01*
X138904029Y-76213288D01*
X138763001Y-76175500D01*
X138616999Y-76175500D01*
X138475971Y-76213288D01*
X138475968Y-76213289D01*
X138349532Y-76286286D01*
X138349527Y-76286290D01*
X138296637Y-76339181D01*
X138235314Y-76372666D01*
X138208956Y-76375500D01*
X137177643Y-76375500D01*
X137125287Y-76389529D01*
X137087481Y-76399659D01*
X137044549Y-76424446D01*
X137044548Y-76424445D01*
X137006649Y-76446326D01*
X137006644Y-76446330D01*
X130503794Y-82949181D01*
X130442471Y-82982666D01*
X130416113Y-82985500D01*
X129820987Y-82985500D01*
X129727646Y-82985499D01*
X129727645Y-82985499D01*
X129727644Y-82985499D01*
X129689538Y-82995709D01*
X129637485Y-83009657D01*
X129604553Y-83028671D01*
X129556648Y-83056327D01*
X129497713Y-83115263D01*
X129497712Y-83115262D01*
X129497710Y-83115265D01*
X129165029Y-83447945D01*
X129103706Y-83481430D01*
X129045255Y-83480039D01*
X128906982Y-83442989D01*
X128760980Y-83442989D01*
X128619952Y-83480777D01*
X128619949Y-83480778D01*
X128493513Y-83553775D01*
X128493508Y-83553779D01*
X128390271Y-83657016D01*
X128390267Y-83657021D01*
X128317270Y-83783457D01*
X128317269Y-83783460D01*
X128279481Y-83924488D01*
X128279481Y-84070490D01*
X128311866Y-84191351D01*
X128317269Y-84211517D01*
X128317270Y-84211520D01*
X128390267Y-84337956D01*
X128390271Y-84337961D01*
X128400452Y-84348142D01*
X128433937Y-84409465D01*
X128428953Y-84479157D01*
X128420159Y-84497822D01*
X128371791Y-84581598D01*
X128371791Y-84581599D01*
X128334003Y-84722627D01*
X128334003Y-84868630D01*
X128340154Y-84891586D01*
X128338491Y-84961436D01*
X128299327Y-85019298D01*
X128235099Y-85046801D01*
X128166196Y-85035214D01*
X128132698Y-85011359D01*
X126917666Y-83796327D01*
X126917189Y-83795961D01*
X126916398Y-83795059D01*
X126911921Y-83790582D01*
X126912214Y-83790288D01*
X126885293Y-83759589D01*
X126873713Y-83739532D01*
X126873709Y-83739527D01*
X126770472Y-83636290D01*
X126770467Y-83636286D01*
X126644031Y-83563289D01*
X126644030Y-83563288D01*
X126644029Y-83563288D01*
X126503001Y-83525500D01*
X126356999Y-83525500D01*
X126215971Y-83563288D01*
X126215966Y-83563290D01*
X126191350Y-83577502D01*
X126123450Y-83593973D01*
X126057423Y-83571120D01*
X126014234Y-83516198D01*
X126007593Y-83446645D01*
X126013170Y-83426780D01*
X126066097Y-83284876D01*
X126066098Y-83284872D01*
X126072499Y-83225344D01*
X126072500Y-83225327D01*
X126072500Y-83077500D01*
X125222500Y-83077500D01*
X124722500Y-83077500D01*
X123872500Y-83077500D01*
X123872500Y-83225344D01*
X123879479Y-83290244D01*
X123867074Y-83359003D01*
X123819465Y-83410141D01*
X123756190Y-83427500D01*
X121896500Y-83427500D01*
X121829461Y-83407815D01*
X121783706Y-83355011D01*
X121772500Y-83303500D01*
X121772500Y-83229672D01*
X121772499Y-83229655D01*
X121766098Y-83170127D01*
X121766096Y-83170120D01*
X121715854Y-83035413D01*
X121715850Y-83035406D01*
X121629690Y-82920312D01*
X121629687Y-82920309D01*
X121514593Y-82834149D01*
X121514586Y-82834145D01*
X121379879Y-82783903D01*
X121379872Y-82783901D01*
X121320344Y-82777500D01*
X120922500Y-82777500D01*
X120922500Y-84777500D01*
X120422500Y-84777500D01*
X120422500Y-82777500D01*
X120024655Y-82777500D01*
X119965127Y-82783901D01*
X119965120Y-82783903D01*
X119830413Y-82834145D01*
X119830406Y-82834149D01*
X119715312Y-82920309D01*
X119715309Y-82920312D01*
X119629149Y-83035406D01*
X119629145Y-83035413D01*
X119578903Y-83170120D01*
X119578901Y-83170127D01*
X119572500Y-83229655D01*
X119572500Y-83303500D01*
X119552815Y-83370539D01*
X119500011Y-83416294D01*
X119448500Y-83427500D01*
X116472500Y-83427500D01*
X116472500Y-84177500D01*
X118678956Y-84177500D01*
X118745995Y-84197185D01*
X118791750Y-84249989D01*
X118801694Y-84319147D01*
X118772669Y-84382703D01*
X118766637Y-84389181D01*
X118706290Y-84449527D01*
X118706286Y-84449532D01*
X118633289Y-84575968D01*
X118633288Y-84575971D01*
X118595500Y-84716999D01*
X118595500Y-84861500D01*
X118575815Y-84928539D01*
X118523011Y-84974294D01*
X118471500Y-84985500D01*
X118336999Y-84985500D01*
X118195971Y-85023288D01*
X118195968Y-85023289D01*
X118069532Y-85096286D01*
X118069527Y-85096290D01*
X118028395Y-85137423D01*
X117967072Y-85170908D01*
X117940714Y-85173742D01*
X116366443Y-85173742D01*
X116299404Y-85154057D01*
X116278762Y-85137423D01*
X116137669Y-84996330D01*
X116137668Y-84996329D01*
X116056832Y-84949659D01*
X116056833Y-84949659D01*
X116026778Y-84941606D01*
X115966671Y-84925500D01*
X115966669Y-84925500D01*
X115701769Y-84925500D01*
X115634730Y-84905815D01*
X115619353Y-84894148D01*
X115601892Y-84878616D01*
X115594040Y-84863204D01*
X115506796Y-84775960D01*
X115459269Y-84751744D01*
X115447358Y-84741148D01*
X115436958Y-84724493D01*
X115422683Y-84711011D01*
X115418833Y-84695466D01*
X115410352Y-84681883D01*
X115410607Y-84662249D01*
X115405888Y-84643190D01*
X115411053Y-84628032D01*
X115411262Y-84612019D01*
X115422091Y-84595640D01*
X115428425Y-84577055D01*
X115440965Y-84567095D01*
X115449798Y-84553738D01*
X115467763Y-84545814D01*
X115483140Y-84533603D01*
X115505226Y-84529291D01*
X115513726Y-84525543D01*
X115519657Y-84526474D01*
X115529774Y-84524500D01*
X115572999Y-84524500D01*
X115573001Y-84524500D01*
X115714029Y-84486712D01*
X115840471Y-84413711D01*
X115943711Y-84310471D01*
X116016712Y-84184029D01*
X116054500Y-84043001D01*
X116054500Y-83896999D01*
X116016712Y-83755971D01*
X115970524Y-83675971D01*
X115943713Y-83629532D01*
X115943709Y-83629527D01*
X115840472Y-83526290D01*
X115840467Y-83526286D01*
X115714031Y-83453289D01*
X115714030Y-83453288D01*
X115714029Y-83453288D01*
X115573001Y-83415500D01*
X115426999Y-83415500D01*
X115283092Y-83454059D01*
X115261577Y-83453546D01*
X115240489Y-83457838D01*
X115227341Y-83452731D01*
X115213242Y-83452396D01*
X115195420Y-83440333D01*
X115175359Y-83432542D01*
X115167058Y-83421137D01*
X115155380Y-83413233D01*
X115146909Y-83393452D01*
X115134244Y-83376050D01*
X115130693Y-83355584D01*
X115127876Y-83349004D01*
X115127207Y-83341464D01*
X115126999Y-83337878D01*
X115126999Y-83252434D01*
X115120002Y-83217257D01*
X115119505Y-83208680D01*
X115125527Y-83182684D01*
X115127907Y-83156099D01*
X115133293Y-83149164D01*
X115135275Y-83140614D01*
X115154396Y-83121999D01*
X115170771Y-83100922D01*
X115179049Y-83098001D01*
X115185340Y-83091878D01*
X115211494Y-83086555D01*
X115236661Y-83077678D01*
X115243297Y-83077500D01*
X118672500Y-83077500D01*
X118672500Y-82501500D01*
X118692185Y-82434461D01*
X118744989Y-82388706D01*
X118796500Y-82377500D01*
X119972500Y-82377500D01*
X119972500Y-74314671D01*
X119992185Y-74247632D01*
X120044989Y-74201877D01*
X120114147Y-74191933D01*
X120177703Y-74220958D01*
X120184181Y-74226990D01*
X121855995Y-75898804D01*
X121889480Y-75960127D01*
X121892314Y-75986485D01*
X121892314Y-79905143D01*
X121892314Y-79998485D01*
X121916473Y-80088646D01*
X121932880Y-80117065D01*
X121963142Y-80169480D01*
X121963144Y-80169483D01*
X123107480Y-81313819D01*
X123140965Y-81375142D01*
X123135981Y-81444834D01*
X123094109Y-81500767D01*
X123028645Y-81525184D01*
X123019799Y-81525500D01*
X122956999Y-81525500D01*
X122815971Y-81563288D01*
X122815968Y-81563289D01*
X122689532Y-81636286D01*
X122689527Y-81636290D01*
X122586290Y-81739527D01*
X122586286Y-81739532D01*
X122513289Y-81865968D01*
X122513288Y-81865971D01*
X122475500Y-82006999D01*
X122475500Y-82153001D01*
X122512546Y-82291257D01*
X122513288Y-82294028D01*
X122513289Y-82294031D01*
X122586286Y-82420467D01*
X122586288Y-82420470D01*
X122586289Y-82420471D01*
X122689529Y-82523711D01*
X122689530Y-82523712D01*
X122689532Y-82523713D01*
X122720999Y-82541880D01*
X122815971Y-82596712D01*
X122956999Y-82634500D01*
X122957001Y-82634500D01*
X123102999Y-82634500D01*
X123103001Y-82634500D01*
X123244029Y-82596712D01*
X123370471Y-82523711D01*
X123473711Y-82420471D01*
X123546712Y-82294029D01*
X123584500Y-82153001D01*
X123584500Y-82090201D01*
X123590738Y-82068955D01*
X123592318Y-82046867D01*
X123600390Y-82036083D01*
X123604185Y-82023162D01*
X123620918Y-82008662D01*
X123634190Y-81990934D01*
X123646810Y-81986226D01*
X123656989Y-81977407D01*
X123678906Y-81974255D01*
X123699654Y-81966517D01*
X123712814Y-81969379D01*
X123726147Y-81967463D01*
X123746290Y-81976662D01*
X123767927Y-81981369D01*
X123785652Y-81994637D01*
X123789703Y-81996488D01*
X123796181Y-82002520D01*
X123899942Y-82106281D01*
X123933427Y-82167604D01*
X123928443Y-82237296D01*
X123928441Y-82237297D01*
X123878903Y-82370117D01*
X123878901Y-82370127D01*
X123872500Y-82429655D01*
X123872500Y-82577500D01*
X126072500Y-82577500D01*
X126072500Y-82429672D01*
X126072499Y-82429655D01*
X126065269Y-82362413D01*
X126068520Y-82362063D01*
X126071481Y-82307204D01*
X126112368Y-82250547D01*
X126177396Y-82224990D01*
X126188403Y-82224500D01*
X127822153Y-82224500D01*
X127889192Y-82244185D01*
X127934947Y-82296989D01*
X127944891Y-82366147D01*
X127929541Y-82410499D01*
X127903288Y-82455970D01*
X127903288Y-82455971D01*
X127865500Y-82596999D01*
X127865500Y-82743001D01*
X127901405Y-82876999D01*
X127903288Y-82884028D01*
X127903289Y-82884031D01*
X127976286Y-83010467D01*
X127976288Y-83010470D01*
X127976289Y-83010471D01*
X128079529Y-83113711D01*
X128079530Y-83113712D01*
X128079532Y-83113713D01*
X128135450Y-83145997D01*
X128205971Y-83186712D01*
X128346999Y-83224500D01*
X128347001Y-83224500D01*
X128492999Y-83224500D01*
X128493001Y-83224500D01*
X128634029Y-83186712D01*
X128760471Y-83113711D01*
X128863711Y-83010471D01*
X128936712Y-82884029D01*
X128974500Y-82743001D01*
X128974500Y-82596999D01*
X128936712Y-82455971D01*
X128910459Y-82410499D01*
X128893988Y-82342599D01*
X128916840Y-82276572D01*
X128971762Y-82233382D01*
X129017847Y-82224500D01*
X130456669Y-82224500D01*
X130456671Y-82224500D01*
X130546832Y-82200341D01*
X130627668Y-82153671D01*
X131039785Y-81741554D01*
X131101108Y-81708069D01*
X131127466Y-81705235D01*
X131202264Y-81705235D01*
X131202266Y-81705235D01*
X131343294Y-81667447D01*
X131469736Y-81594446D01*
X131572976Y-81491206D01*
X131645977Y-81364764D01*
X131683765Y-81223736D01*
X131683765Y-81077734D01*
X131645977Y-80936706D01*
X131596402Y-80850839D01*
X131572978Y-80810267D01*
X131572974Y-80810262D01*
X131469737Y-80707025D01*
X131469732Y-80707021D01*
X131343296Y-80634024D01*
X131343295Y-80634023D01*
X131343294Y-80634023D01*
X131202266Y-80596235D01*
X131056264Y-80596235D01*
X130915236Y-80634023D01*
X130915233Y-80634024D01*
X130788797Y-80707021D01*
X130708281Y-80787537D01*
X130646957Y-80821021D01*
X130577266Y-80816037D01*
X130521332Y-80774165D01*
X130500825Y-80731948D01*
X130499500Y-80727002D01*
X130499500Y-80726999D01*
X130461712Y-80585971D01*
X130409462Y-80495471D01*
X130388713Y-80459532D01*
X130388709Y-80459527D01*
X130285472Y-80356290D01*
X130285467Y-80356286D01*
X130159031Y-80283289D01*
X130159030Y-80283288D01*
X130159029Y-80283288D01*
X130018001Y-80245500D01*
X129871999Y-80245500D01*
X129730971Y-80283288D01*
X129730968Y-80283289D01*
X129604532Y-80356286D01*
X129604527Y-80356290D01*
X129574137Y-80386681D01*
X129512814Y-80420166D01*
X129486456Y-80423000D01*
X129119879Y-80423000D01*
X129052840Y-80403315D01*
X129007085Y-80350511D01*
X128997141Y-80281353D01*
X129000104Y-80266908D01*
X129002310Y-80258674D01*
X129004500Y-80250501D01*
X129004500Y-80104499D01*
X128966712Y-79963471D01*
X128928555Y-79897381D01*
X128913035Y-79870499D01*
X128896563Y-79802599D01*
X128919416Y-79736572D01*
X128974338Y-79693382D01*
X129020423Y-79684500D01*
X131036669Y-79684500D01*
X131036671Y-79684500D01*
X131126832Y-79660341D01*
X131207668Y-79613671D01*
X131220519Y-79600819D01*
X131281841Y-79567333D01*
X131308202Y-79564499D01*
X131495651Y-79564499D01*
X131495652Y-79564499D01*
X131586862Y-79550054D01*
X131696796Y-79494040D01*
X131784040Y-79406796D01*
X131840054Y-79296862D01*
X131844784Y-79267001D01*
X131852018Y-79221326D01*
X131854500Y-79205653D01*
X131854499Y-78874348D01*
X131840054Y-78783138D01*
X131784040Y-78673204D01*
X131728515Y-78617679D01*
X131695032Y-78556359D01*
X131700016Y-78486667D01*
X131728515Y-78442320D01*
X131784040Y-78386796D01*
X131840054Y-78276862D01*
X131854500Y-78185653D01*
X131854499Y-77854348D01*
X131840054Y-77763138D01*
X131784040Y-77653204D01*
X131784036Y-77653200D01*
X131784035Y-77653198D01*
X131720819Y-77589982D01*
X131687334Y-77528659D01*
X131684500Y-77502301D01*
X131684500Y-77118911D01*
X131693143Y-77089474D01*
X131699667Y-77059485D01*
X131703422Y-77054467D01*
X131704185Y-77051872D01*
X131720815Y-77031233D01*
X131802015Y-76950032D01*
X131827696Y-76930328D01*
X131835414Y-76925873D01*
X134166968Y-74594317D01*
X134228289Y-74560834D01*
X134297980Y-74565818D01*
X134353914Y-74607690D01*
X134362032Y-74619997D01*
X134370523Y-74634703D01*
X134370527Y-74634708D01*
X134370528Y-74634710D01*
X134473768Y-74737950D01*
X134473769Y-74737951D01*
X134473771Y-74737952D01*
X134500715Y-74753508D01*
X134600210Y-74810951D01*
X134741238Y-74848739D01*
X134741240Y-74848739D01*
X134887238Y-74848739D01*
X134887240Y-74848739D01*
X135028268Y-74810951D01*
X135154710Y-74737950D01*
X135257950Y-74634710D01*
X135330951Y-74508268D01*
X135368739Y-74367240D01*
X135368739Y-74292439D01*
X135388424Y-74225400D01*
X135405054Y-74204762D01*
X135637348Y-73972467D01*
X135698671Y-73938983D01*
X135768363Y-73943967D01*
X135824296Y-73985839D01*
X135832416Y-73998149D01*
X135840905Y-74012853D01*
X135840907Y-74012856D01*
X135840908Y-74012857D01*
X135944148Y-74116097D01*
X135944149Y-74116098D01*
X135944151Y-74116099D01*
X136005468Y-74151500D01*
X136070590Y-74189098D01*
X136211618Y-74226886D01*
X136211620Y-74226886D01*
X136357618Y-74226886D01*
X136357620Y-74226886D01*
X136374025Y-74222490D01*
X136443872Y-74224151D01*
X136501736Y-74263312D01*
X136529242Y-74327540D01*
X136530119Y-74342264D01*
X136530119Y-75174436D01*
X136510434Y-75241475D01*
X136493800Y-75262117D01*
X135149988Y-76605929D01*
X135088665Y-76639414D01*
X135062307Y-76642248D01*
X134987507Y-76642248D01*
X134846479Y-76680036D01*
X134846476Y-76680037D01*
X134720040Y-76753034D01*
X134720035Y-76753038D01*
X134616798Y-76856275D01*
X134616794Y-76856280D01*
X134543797Y-76982716D01*
X134543796Y-76982719D01*
X134506008Y-77123747D01*
X134506008Y-77269749D01*
X134536410Y-77383209D01*
X134543796Y-77410776D01*
X134543797Y-77410779D01*
X134616794Y-77537215D01*
X134616796Y-77537218D01*
X134616797Y-77537219D01*
X134720037Y-77640459D01*
X134720038Y-77640460D01*
X134720040Y-77640461D01*
X134742110Y-77653203D01*
X134846479Y-77713460D01*
X134987507Y-77751248D01*
X134987509Y-77751248D01*
X135133507Y-77751248D01*
X135133509Y-77751248D01*
X135274537Y-77713460D01*
X135400979Y-77640459D01*
X135504219Y-77537219D01*
X135577220Y-77410777D01*
X135615008Y-77269749D01*
X135615008Y-77194949D01*
X135634693Y-77127910D01*
X135651327Y-77107268D01*
X136409414Y-76349181D01*
X137168290Y-75590305D01*
X137214961Y-75509468D01*
X137239120Y-75419308D01*
X137239120Y-75325965D01*
X137239120Y-75318370D01*
X137239119Y-75318352D01*
X137239119Y-71843735D01*
X137238245Y-71840472D01*
X137214960Y-71753573D01*
X137168290Y-71672737D01*
X137102287Y-71606734D01*
X135381882Y-69886329D01*
X135301046Y-69839659D01*
X135301047Y-69839659D01*
X135270992Y-69831606D01*
X135210885Y-69815500D01*
X135210883Y-69815500D01*
X134208499Y-69815500D01*
X134141460Y-69795815D01*
X134095705Y-69743011D01*
X134084499Y-69691500D01*
X134084499Y-69644936D01*
X134084499Y-69644934D01*
X134069734Y-69570699D01*
X134043683Y-69531711D01*
X134013484Y-69486515D01*
X133961232Y-69451602D01*
X133916427Y-69397990D01*
X133907720Y-69328665D01*
X133937874Y-69265638D01*
X133997317Y-69228918D01*
X134030123Y-69224500D01*
X140163581Y-69224500D01*
X150621283Y-69224500D01*
X150683282Y-69241112D01*
X150705971Y-69254212D01*
X150846999Y-69292000D01*
X150847001Y-69292000D01*
X150992999Y-69292000D01*
X150993001Y-69292000D01*
X151134029Y-69254212D01*
X151260471Y-69181211D01*
X151363711Y-69077971D01*
X151436712Y-68951529D01*
X151474500Y-68810501D01*
X151474500Y-68810013D01*
X158820000Y-68810013D01*
X158820000Y-68960000D01*
X159970000Y-68960000D01*
X160470000Y-68960000D01*
X161619999Y-68960000D01*
X161619999Y-68810028D01*
X161619998Y-68810013D01*
X161609505Y-68707302D01*
X161554358Y-68540880D01*
X161554356Y-68540875D01*
X161462315Y-68391654D01*
X161338345Y-68267684D01*
X161189124Y-68175643D01*
X161189119Y-68175641D01*
X161022697Y-68120494D01*
X161022690Y-68120493D01*
X160919986Y-68110000D01*
X160470000Y-68110000D01*
X160470000Y-68960000D01*
X159970000Y-68960000D01*
X159970000Y-68110000D01*
X159520028Y-68110000D01*
X159520012Y-68110001D01*
X159417302Y-68120494D01*
X159250880Y-68175641D01*
X159250875Y-68175643D01*
X159101654Y-68267684D01*
X158977684Y-68391654D01*
X158885643Y-68540875D01*
X158885641Y-68540880D01*
X158830494Y-68707302D01*
X158830493Y-68707309D01*
X158820000Y-68810013D01*
X151474500Y-68810013D01*
X151474500Y-68664499D01*
X151436712Y-68523471D01*
X151383134Y-68430670D01*
X151363713Y-68397032D01*
X151363709Y-68397027D01*
X151260472Y-68293790D01*
X151260467Y-68293786D01*
X151134031Y-68220789D01*
X151134030Y-68220788D01*
X151134029Y-68220788D01*
X150993001Y-68183000D01*
X150846999Y-68183000D01*
X150741474Y-68211275D01*
X150709381Y-68215500D01*
X147487664Y-68215500D01*
X147420625Y-68195815D01*
X147374870Y-68143011D01*
X147364926Y-68073853D01*
X147393951Y-68010297D01*
X147440683Y-67976745D01*
X147451749Y-67972214D01*
X147464169Y-67969744D01*
X147647704Y-67893721D01*
X147812881Y-67783353D01*
X147953353Y-67642881D01*
X148063721Y-67477704D01*
X148139744Y-67294169D01*
X148178500Y-67099329D01*
X148178500Y-66901302D01*
X153536000Y-66901302D01*
X153536000Y-67098697D01*
X153566876Y-67293646D01*
X153627873Y-67481373D01*
X153717483Y-67657239D01*
X153743457Y-67692988D01*
X153743457Y-67692989D01*
X154307037Y-67129409D01*
X154324075Y-67192993D01*
X154389901Y-67307007D01*
X154482993Y-67400099D01*
X154597007Y-67465925D01*
X154660590Y-67482962D01*
X154097009Y-68046541D01*
X154097010Y-68046542D01*
X154132755Y-68072512D01*
X154132768Y-68072520D01*
X154308626Y-68162126D01*
X154496353Y-68223123D01*
X154691303Y-68254000D01*
X154888697Y-68254000D01*
X155083646Y-68223123D01*
X155271373Y-68162126D01*
X155447241Y-68072516D01*
X155482988Y-68046543D01*
X155482988Y-68046541D01*
X154919410Y-67482962D01*
X154982993Y-67465925D01*
X155097007Y-67400099D01*
X155190099Y-67307007D01*
X155255925Y-67192993D01*
X155272962Y-67129409D01*
X155836541Y-67692988D01*
X155836543Y-67692988D01*
X155862516Y-67657241D01*
X155952126Y-67481373D01*
X156013123Y-67293646D01*
X156044000Y-67098697D01*
X156044000Y-66901302D01*
X156013123Y-66706353D01*
X155952126Y-66518626D01*
X155862520Y-66342768D01*
X155862512Y-66342755D01*
X155836542Y-66307010D01*
X155836541Y-66307009D01*
X155272962Y-66870589D01*
X155255925Y-66807007D01*
X155190099Y-66692993D01*
X155097007Y-66599901D01*
X154982993Y-66534075D01*
X154919409Y-66517037D01*
X155482989Y-65953457D01*
X155447239Y-65927483D01*
X155271373Y-65837873D01*
X155083646Y-65776876D01*
X154888697Y-65746000D01*
X154691303Y-65746000D01*
X154496353Y-65776876D01*
X154308626Y-65837873D01*
X154132762Y-65927482D01*
X154132760Y-65927483D01*
X154097010Y-65953456D01*
X154097010Y-65953457D01*
X154660591Y-66517037D01*
X154597007Y-66534075D01*
X154482993Y-66599901D01*
X154389901Y-66692993D01*
X154324075Y-66807007D01*
X154307037Y-66870590D01*
X153743457Y-66307010D01*
X153743456Y-66307010D01*
X153717483Y-66342760D01*
X153717482Y-66342762D01*
X153627873Y-66518626D01*
X153566876Y-66706353D01*
X153536000Y-66901302D01*
X148178500Y-66901302D01*
X148178500Y-66900671D01*
X148139744Y-66705831D01*
X148065248Y-66525983D01*
X148063722Y-66522298D01*
X148063717Y-66522289D01*
X147953353Y-66357119D01*
X147953350Y-66357115D01*
X147890819Y-66294584D01*
X147876115Y-66267656D01*
X147859523Y-66241838D01*
X147858631Y-66235637D01*
X147857334Y-66233261D01*
X147854500Y-66206903D01*
X147854500Y-64361302D01*
X148456000Y-64361302D01*
X148456000Y-64558697D01*
X148486876Y-64753646D01*
X148547873Y-64941373D01*
X148637483Y-65117239D01*
X148663457Y-65152988D01*
X148663457Y-65152989D01*
X149227037Y-64589409D01*
X149244075Y-64652993D01*
X149309901Y-64767007D01*
X149402993Y-64860099D01*
X149517007Y-64925925D01*
X149580590Y-64942962D01*
X149017009Y-65506541D01*
X149017010Y-65506542D01*
X149052755Y-65532512D01*
X149052768Y-65532520D01*
X149228626Y-65622126D01*
X149416353Y-65683123D01*
X149611303Y-65714000D01*
X149808697Y-65714000D01*
X150003646Y-65683123D01*
X150191373Y-65622126D01*
X150367241Y-65532516D01*
X150402988Y-65506543D01*
X150402988Y-65506541D01*
X149839410Y-64942962D01*
X149902993Y-64925925D01*
X150017007Y-64860099D01*
X150110099Y-64767007D01*
X150175925Y-64652993D01*
X150192962Y-64589409D01*
X150756541Y-65152988D01*
X150756543Y-65152988D01*
X150782516Y-65117241D01*
X150872126Y-64941373D01*
X150933123Y-64753646D01*
X150964000Y-64558697D01*
X150964000Y-64361302D01*
X150963899Y-64360666D01*
X153781500Y-64360666D01*
X153781500Y-64559333D01*
X153820254Y-64754161D01*
X153820256Y-64754169D01*
X153896277Y-64937701D01*
X153896282Y-64937710D01*
X154006646Y-65102880D01*
X154006649Y-65102884D01*
X154147115Y-65243350D01*
X154147119Y-65243353D01*
X154312289Y-65353717D01*
X154312295Y-65353720D01*
X154312296Y-65353721D01*
X154495831Y-65429744D01*
X154690666Y-65468499D01*
X154690670Y-65468500D01*
X154690671Y-65468500D01*
X154889330Y-65468500D01*
X154889331Y-65468499D01*
X155084169Y-65429744D01*
X155267704Y-65353721D01*
X155432881Y-65243353D01*
X155573353Y-65102881D01*
X155683721Y-64937704D01*
X155759744Y-64754169D01*
X155798500Y-64559329D01*
X155798500Y-64360671D01*
X155759744Y-64165831D01*
X155688600Y-63994075D01*
X155684125Y-63983271D01*
X155676656Y-63913801D01*
X155707931Y-63851322D01*
X155768020Y-63815670D01*
X155814867Y-63812879D01*
X155948712Y-63830500D01*
X156191288Y-63830500D01*
X156303977Y-63815664D01*
X156373009Y-63826429D01*
X156425265Y-63872809D01*
X156444151Y-63940078D01*
X156434721Y-63986056D01*
X156360256Y-64165830D01*
X156360254Y-64165838D01*
X156321500Y-64360666D01*
X156321500Y-64559333D01*
X156360254Y-64754161D01*
X156360256Y-64754169D01*
X156436277Y-64937701D01*
X156436282Y-64937710D01*
X156546646Y-65102880D01*
X156546649Y-65102884D01*
X156687115Y-65243350D01*
X156687119Y-65243353D01*
X156852289Y-65353717D01*
X156852295Y-65353720D01*
X156852296Y-65353721D01*
X157035831Y-65429744D01*
X157230666Y-65468499D01*
X157230670Y-65468500D01*
X157230671Y-65468500D01*
X157429330Y-65468500D01*
X157429331Y-65468499D01*
X157624169Y-65429744D01*
X157807704Y-65353721D01*
X157972881Y-65243353D01*
X158113353Y-65102881D01*
X158223721Y-64937704D01*
X158299744Y-64754169D01*
X158338500Y-64559329D01*
X158338500Y-64361302D01*
X158616000Y-64361302D01*
X158616000Y-64558697D01*
X158646876Y-64753646D01*
X158707873Y-64941373D01*
X158797483Y-65117239D01*
X158823457Y-65152988D01*
X158823457Y-65152989D01*
X159387037Y-64589409D01*
X159404075Y-64652993D01*
X159469901Y-64767007D01*
X159562993Y-64860099D01*
X159677007Y-64925925D01*
X159740590Y-64942962D01*
X159177009Y-65506541D01*
X159177010Y-65506542D01*
X159212755Y-65532512D01*
X159212768Y-65532520D01*
X159388626Y-65622126D01*
X159576353Y-65683123D01*
X159771303Y-65714000D01*
X159968697Y-65714000D01*
X160163646Y-65683123D01*
X160351373Y-65622126D01*
X160390735Y-65602070D01*
X168194500Y-65602070D01*
X168194500Y-65857930D01*
X168204534Y-65921280D01*
X168234526Y-66110640D01*
X168313588Y-66353972D01*
X168313589Y-66353975D01*
X168384788Y-66493709D01*
X168428376Y-66579255D01*
X168429750Y-66581950D01*
X168580132Y-66788935D01*
X168580136Y-66788940D01*
X168761059Y-66969863D01*
X168761064Y-66969867D01*
X168938385Y-67098697D01*
X168968053Y-67120252D01*
X169079111Y-67176839D01*
X169196024Y-67236410D01*
X169196027Y-67236411D01*
X169302206Y-67270910D01*
X169439361Y-67315474D01*
X169692070Y-67355500D01*
X169692071Y-67355500D01*
X169947929Y-67355500D01*
X169947930Y-67355500D01*
X170200639Y-67315474D01*
X170443975Y-67236410D01*
X170671947Y-67120252D01*
X170878942Y-66969862D01*
X171059862Y-66788942D01*
X171210252Y-66581947D01*
X171326410Y-66353975D01*
X171405474Y-66110639D01*
X171445500Y-65857930D01*
X171445500Y-65602070D01*
X171405474Y-65349361D01*
X171345282Y-65164108D01*
X171326411Y-65106027D01*
X171326410Y-65106024D01*
X171242515Y-64941373D01*
X171210252Y-64878053D01*
X171129573Y-64767007D01*
X171059867Y-64671064D01*
X171059863Y-64671059D01*
X170878940Y-64490136D01*
X170878935Y-64490132D01*
X170671950Y-64339750D01*
X170671949Y-64339749D01*
X170671947Y-64339748D01*
X170598910Y-64302533D01*
X170443975Y-64223589D01*
X170443972Y-64223588D01*
X170200640Y-64144526D01*
X170074284Y-64124513D01*
X169947930Y-64104500D01*
X169692070Y-64104500D01*
X169607833Y-64117842D01*
X169439359Y-64144526D01*
X169196027Y-64223588D01*
X169196024Y-64223589D01*
X168968049Y-64339750D01*
X168761064Y-64490132D01*
X168761059Y-64490136D01*
X168580136Y-64671059D01*
X168580132Y-64671064D01*
X168429750Y-64878049D01*
X168313589Y-65106024D01*
X168313588Y-65106027D01*
X168234526Y-65349359D01*
X168209630Y-65506542D01*
X168194500Y-65602070D01*
X160390735Y-65602070D01*
X160527241Y-65532516D01*
X160562988Y-65506543D01*
X160562988Y-65506541D01*
X159999410Y-64942962D01*
X160062993Y-64925925D01*
X160177007Y-64860099D01*
X160270099Y-64767007D01*
X160335925Y-64652993D01*
X160352962Y-64589409D01*
X160916541Y-65152988D01*
X160916543Y-65152988D01*
X160942516Y-65117241D01*
X161032126Y-64941373D01*
X161093123Y-64753646D01*
X161124000Y-64558697D01*
X161124000Y-64361302D01*
X161123899Y-64360666D01*
X161401500Y-64360666D01*
X161401500Y-64559333D01*
X161440254Y-64754161D01*
X161440256Y-64754169D01*
X161516277Y-64937701D01*
X161516282Y-64937710D01*
X161626646Y-65102880D01*
X161626649Y-65102884D01*
X161767115Y-65243350D01*
X161767119Y-65243353D01*
X161932289Y-65353717D01*
X161932295Y-65353720D01*
X161932296Y-65353721D01*
X162115831Y-65429744D01*
X162310666Y-65468499D01*
X162310670Y-65468500D01*
X162310671Y-65468500D01*
X162509330Y-65468500D01*
X162509331Y-65468499D01*
X162704169Y-65429744D01*
X162887704Y-65353721D01*
X163052881Y-65243353D01*
X163193353Y-65102881D01*
X163303721Y-64937704D01*
X163379744Y-64754169D01*
X163418500Y-64559329D01*
X163418500Y-64360671D01*
X163418499Y-64360666D01*
X163941500Y-64360666D01*
X163941500Y-64559333D01*
X163980254Y-64754161D01*
X163980256Y-64754169D01*
X164056277Y-64937701D01*
X164056282Y-64937710D01*
X164166646Y-65102880D01*
X164166649Y-65102884D01*
X164307115Y-65243350D01*
X164307119Y-65243353D01*
X164472289Y-65353717D01*
X164472295Y-65353720D01*
X164472296Y-65353721D01*
X164655831Y-65429744D01*
X164850666Y-65468499D01*
X164850670Y-65468500D01*
X164850671Y-65468500D01*
X165049330Y-65468500D01*
X165049331Y-65468499D01*
X165244169Y-65429744D01*
X165427704Y-65353721D01*
X165592881Y-65243353D01*
X165733353Y-65102881D01*
X165843721Y-64937704D01*
X165919744Y-64754169D01*
X165958500Y-64559329D01*
X165958500Y-64360671D01*
X165919744Y-64165831D01*
X165848600Y-63994075D01*
X165843722Y-63982298D01*
X165843717Y-63982289D01*
X165733353Y-63817119D01*
X165733350Y-63817115D01*
X165592884Y-63676649D01*
X165592880Y-63676646D01*
X165427710Y-63566282D01*
X165427701Y-63566277D01*
X165244169Y-63490256D01*
X165244161Y-63490254D01*
X165049333Y-63451500D01*
X165049329Y-63451500D01*
X164850671Y-63451500D01*
X164850666Y-63451500D01*
X164655838Y-63490254D01*
X164655830Y-63490256D01*
X164472298Y-63566277D01*
X164472289Y-63566282D01*
X164307119Y-63676646D01*
X164307115Y-63676649D01*
X164166649Y-63817115D01*
X164166646Y-63817119D01*
X164056282Y-63982289D01*
X164056277Y-63982298D01*
X163980256Y-64165830D01*
X163980254Y-64165838D01*
X163941500Y-64360666D01*
X163418499Y-64360666D01*
X163379744Y-64165831D01*
X163308600Y-63994075D01*
X163303722Y-63982298D01*
X163303717Y-63982289D01*
X163193353Y-63817119D01*
X163193350Y-63817115D01*
X163052884Y-63676649D01*
X163052880Y-63676646D01*
X162887710Y-63566282D01*
X162887701Y-63566277D01*
X162704169Y-63490256D01*
X162704161Y-63490254D01*
X162509333Y-63451500D01*
X162509329Y-63451500D01*
X162310671Y-63451500D01*
X162310666Y-63451500D01*
X162115838Y-63490254D01*
X162115830Y-63490256D01*
X161932298Y-63566277D01*
X161932289Y-63566282D01*
X161767119Y-63676646D01*
X161767115Y-63676649D01*
X161626649Y-63817115D01*
X161626646Y-63817119D01*
X161516282Y-63982289D01*
X161516277Y-63982298D01*
X161440256Y-64165830D01*
X161440254Y-64165838D01*
X161401500Y-64360666D01*
X161123899Y-64360666D01*
X161093123Y-64166353D01*
X161032126Y-63978626D01*
X160942520Y-63802768D01*
X160942512Y-63802755D01*
X160916542Y-63767010D01*
X160916541Y-63767009D01*
X160352962Y-64330589D01*
X160335925Y-64267007D01*
X160270099Y-64152993D01*
X160177007Y-64059901D01*
X160062993Y-63994075D01*
X159999409Y-63977037D01*
X160562989Y-63413457D01*
X160527239Y-63387483D01*
X160351373Y-63297873D01*
X160163646Y-63236876D01*
X159968697Y-63206000D01*
X159771303Y-63206000D01*
X159576353Y-63236876D01*
X159388626Y-63297873D01*
X159212762Y-63387482D01*
X159212760Y-63387483D01*
X159177010Y-63413456D01*
X159177010Y-63413457D01*
X159740591Y-63977037D01*
X159677007Y-63994075D01*
X159562993Y-64059901D01*
X159469901Y-64152993D01*
X159404075Y-64267007D01*
X159387037Y-64330590D01*
X158823457Y-63767010D01*
X158823456Y-63767010D01*
X158797483Y-63802760D01*
X158797482Y-63802762D01*
X158707873Y-63978626D01*
X158646876Y-64166353D01*
X158616000Y-64361302D01*
X158338500Y-64361302D01*
X158338500Y-64360671D01*
X158299744Y-64165831D01*
X158228600Y-63994075D01*
X158223722Y-63982298D01*
X158223717Y-63982289D01*
X158113353Y-63817119D01*
X158113350Y-63817115D01*
X157972884Y-63676649D01*
X157972880Y-63676646D01*
X157807710Y-63566282D01*
X157807701Y-63566277D01*
X157624169Y-63490256D01*
X157624161Y-63490254D01*
X157478509Y-63461282D01*
X157416598Y-63428897D01*
X157382024Y-63368182D01*
X157385763Y-63298412D01*
X157415020Y-63251983D01*
X157464261Y-63202742D01*
X157464265Y-63202738D01*
X157611936Y-63010289D01*
X157733224Y-62800212D01*
X157826054Y-62576100D01*
X157888838Y-62341789D01*
X157920500Y-62101288D01*
X157920500Y-61858712D01*
X157888838Y-61618211D01*
X157826054Y-61383900D01*
X157824226Y-61379488D01*
X157733226Y-61159794D01*
X157733224Y-61159788D01*
X157611936Y-60949711D01*
X157464265Y-60757262D01*
X157464260Y-60757256D01*
X157292743Y-60585739D01*
X157292736Y-60585733D01*
X157100293Y-60438067D01*
X157100292Y-60438066D01*
X157100289Y-60438064D01*
X156890212Y-60316776D01*
X156813498Y-60285000D01*
X156666104Y-60223947D01*
X156431785Y-60161161D01*
X156191289Y-60129500D01*
X156191288Y-60129500D01*
X155948712Y-60129500D01*
X155948711Y-60129500D01*
X155708214Y-60161161D01*
X155473895Y-60223947D01*
X155249794Y-60316773D01*
X155249785Y-60316777D01*
X155207787Y-60341025D01*
X155062223Y-60425067D01*
X155039706Y-60438067D01*
X154847263Y-60585733D01*
X154847256Y-60585739D01*
X154675739Y-60757256D01*
X154675733Y-60757263D01*
X154528067Y-60949706D01*
X154406777Y-61159785D01*
X154406773Y-61159794D01*
X154313947Y-61383895D01*
X154251161Y-61618214D01*
X154219500Y-61858711D01*
X154219500Y-62101288D01*
X154251161Y-62341785D01*
X154313947Y-62576104D01*
X154406773Y-62800205D01*
X154406777Y-62800214D01*
X154409921Y-62805660D01*
X154528064Y-63010289D01*
X154528066Y-63010292D01*
X154528067Y-63010293D01*
X154675733Y-63202736D01*
X154675739Y-63202743D01*
X154721661Y-63248665D01*
X154755146Y-63309988D01*
X154750162Y-63379680D01*
X154708290Y-63435613D01*
X154658172Y-63457963D01*
X154495836Y-63490254D01*
X154495830Y-63490256D01*
X154312298Y-63566277D01*
X154312289Y-63566282D01*
X154147119Y-63676646D01*
X154147115Y-63676649D01*
X154006649Y-63817115D01*
X154006646Y-63817119D01*
X153896282Y-63982289D01*
X153896277Y-63982298D01*
X153820256Y-64165830D01*
X153820254Y-64165838D01*
X153781500Y-64360666D01*
X150963899Y-64360666D01*
X150933123Y-64166353D01*
X150872126Y-63978626D01*
X150782520Y-63802768D01*
X150782512Y-63802755D01*
X150756542Y-63767010D01*
X150756541Y-63767009D01*
X150192962Y-64330589D01*
X150175925Y-64267007D01*
X150110099Y-64152993D01*
X150017007Y-64059901D01*
X149902993Y-63994075D01*
X149839409Y-63977037D01*
X150402989Y-63413457D01*
X150367239Y-63387483D01*
X150191373Y-63297873D01*
X150003646Y-63236876D01*
X149808697Y-63206000D01*
X149611303Y-63206000D01*
X149416353Y-63236876D01*
X149228626Y-63297873D01*
X149052762Y-63387482D01*
X149052760Y-63387483D01*
X149017010Y-63413456D01*
X149017010Y-63413457D01*
X149580591Y-63977037D01*
X149517007Y-63994075D01*
X149402993Y-64059901D01*
X149309901Y-64152993D01*
X149244075Y-64267007D01*
X149227037Y-64330590D01*
X148663457Y-63767010D01*
X148663456Y-63767010D01*
X148637483Y-63802760D01*
X148637482Y-63802762D01*
X148547873Y-63978626D01*
X148486876Y-64166353D01*
X148456000Y-64361302D01*
X147854500Y-64361302D01*
X147854500Y-60778330D01*
X147848853Y-60757256D01*
X147830341Y-60688168D01*
X147783671Y-60607332D01*
X147717668Y-60541329D01*
X147490818Y-60314479D01*
X147457333Y-60253156D01*
X147454499Y-60226798D01*
X147454499Y-59624936D01*
X147454499Y-59624934D01*
X147439734Y-59550699D01*
X147383484Y-59466516D01*
X147380776Y-59462463D01*
X147359898Y-59395785D01*
X147378382Y-59328405D01*
X147430361Y-59281715D01*
X147483901Y-59269572D01*
X152024101Y-59270491D01*
X152051690Y-59274710D01*
X152089729Y-59270505D01*
X152127938Y-59270512D01*
X152127984Y-59270513D01*
X152127984Y-59270512D01*
X152127987Y-59270513D01*
X152145854Y-59265729D01*
X152164280Y-59262264D01*
X152182677Y-59260231D01*
X152218327Y-59246326D01*
X152255288Y-59236431D01*
X152279453Y-59222485D01*
X152305453Y-59212345D01*
X152336294Y-59189683D01*
X152369429Y-59170562D01*
X152389160Y-59150838D01*
X152411651Y-59134313D01*
X152431306Y-59109771D01*
X152433240Y-59107418D01*
X152436661Y-59103355D01*
X152462634Y-59077395D01*
X152471587Y-59061892D01*
X152478645Y-59053514D01*
X152479161Y-59053172D01*
X152480272Y-59051622D01*
X152723634Y-58774275D01*
X152731319Y-58766273D01*
X153024669Y-58487037D01*
X153033054Y-58479744D01*
X153350280Y-58227939D01*
X153359258Y-58221448D01*
X153697803Y-57999105D01*
X153707337Y-57993440D01*
X154001060Y-57836285D01*
X154064427Y-57802382D01*
X154074469Y-57797576D01*
X154435551Y-57644287D01*
X154447255Y-57639318D01*
X154457666Y-57635439D01*
X154843166Y-57511252D01*
X154853868Y-57508327D01*
X155248964Y-57419218D01*
X155259897Y-57417264D01*
X155661355Y-57363959D01*
X155672435Y-57362991D01*
X156077086Y-57345911D01*
X156088188Y-57345941D01*
X156492728Y-57365227D01*
X156503787Y-57366253D01*
X156904966Y-57421748D01*
X156915890Y-57423763D01*
X157310472Y-57515019D01*
X157321173Y-57518006D01*
X157705981Y-57644289D01*
X157716381Y-57648227D01*
X158088299Y-57808515D01*
X158098298Y-57813368D01*
X158454361Y-58006381D01*
X158463879Y-58012108D01*
X158774055Y-58218248D01*
X158801159Y-58236261D01*
X158810146Y-58242833D01*
X159125974Y-58496346D01*
X159134335Y-58503699D01*
X159407174Y-58766260D01*
X159426136Y-58784507D01*
X159433804Y-58792580D01*
X159699241Y-59098434D01*
X159706154Y-59107162D01*
X159943090Y-59435595D01*
X159949192Y-59444908D01*
X160155708Y-59793267D01*
X160160950Y-59803089D01*
X160335391Y-60168573D01*
X160339731Y-60178827D01*
X160480680Y-60558479D01*
X160484083Y-60569081D01*
X160590410Y-60959849D01*
X160592848Y-60970712D01*
X160663697Y-61369453D01*
X160665150Y-61380492D01*
X160699944Y-61783958D01*
X160700402Y-61795082D01*
X160699054Y-62150349D01*
X160699046Y-62151413D01*
X160698919Y-62161614D01*
X160698252Y-62164108D01*
X160698252Y-62215574D01*
X160698243Y-62216302D01*
X160698212Y-62216402D01*
X160698105Y-62220807D01*
X160695635Y-62271446D01*
X160698252Y-62283540D01*
X160698252Y-62295892D01*
X160712138Y-62347718D01*
X160712777Y-62350671D01*
X160712782Y-62350688D01*
X160723506Y-62400248D01*
X160723509Y-62400256D01*
X160729162Y-62411251D01*
X160732360Y-62423186D01*
X160759202Y-62469678D01*
X160783764Y-62517451D01*
X160792072Y-62526611D01*
X160798252Y-62537314D01*
X160836209Y-62575271D01*
X160872302Y-62615063D01*
X160882698Y-62621760D01*
X160891438Y-62630500D01*
X160937934Y-62657344D01*
X160983087Y-62686433D01*
X160994859Y-62690210D01*
X161005566Y-62696392D01*
X161057426Y-62710287D01*
X161060291Y-62711206D01*
X161060292Y-62711207D01*
X161081838Y-62718121D01*
X161108566Y-62726698D01*
X161108569Y-62726699D01*
X161120921Y-62727301D01*
X161132860Y-62730500D01*
X161186549Y-62730500D01*
X161240197Y-62733115D01*
X161244100Y-62732793D01*
X161265544Y-62730500D01*
X170254108Y-62730500D01*
X170316249Y-62730500D01*
X170323736Y-62730726D01*
X170341161Y-62731780D01*
X170613796Y-62748271D01*
X170628657Y-62750075D01*
X170902241Y-62800212D01*
X170910797Y-62801780D01*
X170925334Y-62805363D01*
X171199182Y-62890698D01*
X171213163Y-62896000D01*
X171474734Y-63013724D01*
X171487987Y-63020680D01*
X171733458Y-63169071D01*
X171745776Y-63177573D01*
X171941215Y-63330690D01*
X171971573Y-63354474D01*
X171982781Y-63364404D01*
X172185595Y-63567218D01*
X172195525Y-63578426D01*
X172371286Y-63802768D01*
X172372422Y-63804217D01*
X172380928Y-63816541D01*
X172529319Y-64062012D01*
X172536277Y-64075269D01*
X172619101Y-64259296D01*
X172653994Y-64336823D01*
X172659304Y-64350825D01*
X172744635Y-64624664D01*
X172748219Y-64639202D01*
X172799923Y-64921340D01*
X172801728Y-64936205D01*
X172819274Y-65226263D01*
X172819500Y-65233750D01*
X172819504Y-71245647D01*
X172799819Y-71312686D01*
X172747016Y-71358441D01*
X172677857Y-71368385D01*
X172656499Y-71363353D01*
X172617694Y-71350494D01*
X172617690Y-71350493D01*
X172514986Y-71340000D01*
X172065000Y-71340000D01*
X172065000Y-73539999D01*
X172514972Y-73539999D01*
X172514986Y-73539998D01*
X172617698Y-73529505D01*
X172656501Y-73516647D01*
X172726329Y-73514244D01*
X172786372Y-73549974D01*
X172817565Y-73612494D01*
X172819507Y-73634352D01*
X172819512Y-80845649D01*
X172799827Y-80912688D01*
X172747024Y-80958443D01*
X172677865Y-80968387D01*
X172656509Y-80963355D01*
X172617701Y-80950495D01*
X172617690Y-80950493D01*
X172514986Y-80940000D01*
X172065000Y-80940000D01*
X172065000Y-83139999D01*
X172514972Y-83139999D01*
X172514986Y-83139998D01*
X172617695Y-83129506D01*
X172656510Y-83116644D01*
X172726339Y-83114242D01*
X172786381Y-83149973D01*
X172817574Y-83212494D01*
X172819515Y-83234350D01*
X172819521Y-89164108D01*
X172819521Y-89226259D01*
X172819296Y-89233729D01*
X172801833Y-89523096D01*
X172800037Y-89537925D01*
X172748578Y-89819418D01*
X172745011Y-89833924D01*
X172660080Y-90107174D01*
X172654795Y-90121146D01*
X172537618Y-90382205D01*
X172530691Y-90395440D01*
X172382973Y-90640513D01*
X172374505Y-90652819D01*
X172198389Y-90878351D01*
X172188502Y-90889550D01*
X171986543Y-91092267D01*
X171975382Y-91102195D01*
X171750512Y-91279156D01*
X171738237Y-91287671D01*
X171493722Y-91436304D01*
X171480514Y-91443280D01*
X171219891Y-91561438D01*
X171205939Y-91566775D01*
X170933008Y-91652732D01*
X170918515Y-91656353D01*
X170637226Y-91708865D01*
X170622404Y-91710717D01*
X170365215Y-91727206D01*
X170333393Y-91729246D01*
X170325462Y-91729500D01*
X161253532Y-91729500D01*
X161241452Y-91726886D01*
X161187808Y-91729500D01*
X161134105Y-91729500D01*
X161130252Y-91730007D01*
X161113657Y-91732604D01*
X161109820Y-91733300D01*
X161061549Y-91748789D01*
X161061548Y-91748788D01*
X161058647Y-91749718D01*
X161006814Y-91763608D01*
X160996115Y-91769784D01*
X160984346Y-91773561D01*
X160984340Y-91773564D01*
X160941726Y-91801015D01*
X160941725Y-91801014D01*
X160939154Y-91802670D01*
X160892686Y-91829500D01*
X160883948Y-91838236D01*
X160873559Y-91844930D01*
X160873555Y-91844933D01*
X160839489Y-91882488D01*
X160839488Y-91882487D01*
X160837439Y-91884745D01*
X160799500Y-91922686D01*
X160793322Y-91933383D01*
X160785017Y-91942541D01*
X160761835Y-91987628D01*
X160761834Y-91987627D01*
X160760442Y-91990333D01*
X160733608Y-92036814D01*
X160730408Y-92048750D01*
X160724760Y-92059738D01*
X160724757Y-92059748D01*
X160714038Y-92109279D01*
X160712620Y-92115140D01*
X160699500Y-92164108D01*
X160699500Y-92176468D01*
X160696886Y-92188548D01*
X160699500Y-92242185D01*
X160699500Y-92297741D01*
X160700302Y-92309649D01*
X160701653Y-92664859D01*
X160701196Y-92675980D01*
X160666420Y-93079423D01*
X160664967Y-93090457D01*
X160594159Y-93489145D01*
X160591723Y-93500006D01*
X160485448Y-93890748D01*
X160482048Y-93901346D01*
X160341168Y-94280974D01*
X160336832Y-94291223D01*
X160162475Y-94656704D01*
X160157236Y-94666525D01*
X159950814Y-95014889D01*
X159944717Y-95024199D01*
X159707890Y-95352654D01*
X159700982Y-95361381D01*
X159435653Y-95667282D01*
X159427990Y-95675354D01*
X159136308Y-95956226D01*
X159127953Y-95963578D01*
X158812261Y-96217163D01*
X158803280Y-96223737D01*
X158466118Y-96447997D01*
X158456584Y-96453739D01*
X158100666Y-96646868D01*
X158090654Y-96651732D01*
X157718859Y-96812165D01*
X157708453Y-96816111D01*
X157323778Y-96942558D01*
X157313060Y-96945555D01*
X156918578Y-97037006D01*
X156907633Y-97039031D01*
X156506557Y-97094738D01*
X156495476Y-97095773D01*
X156091012Y-97115294D01*
X156079882Y-97115331D01*
X155675300Y-97098506D01*
X155664212Y-97097545D01*
X155262773Y-97044512D01*
X155251815Y-97042560D01*
X154856737Y-96953742D01*
X154845999Y-96950817D01*
X154460474Y-96826932D01*
X154450041Y-96823054D01*
X154077192Y-96665105D01*
X154067149Y-96660308D01*
X153709958Y-96469560D01*
X153700386Y-96463882D01*
X153361743Y-96241878D01*
X153352718Y-96235365D01*
X153035330Y-95983878D01*
X153026926Y-95976581D01*
X152733382Y-95697665D01*
X152725666Y-95689645D01*
X152712318Y-95674462D01*
X152482334Y-95412854D01*
X152480721Y-95410981D01*
X152473595Y-95402541D01*
X152464791Y-95387291D01*
X152438615Y-95361113D01*
X152435246Y-95357123D01*
X152435076Y-95356739D01*
X152433280Y-95354735D01*
X152413387Y-95329946D01*
X152412323Y-95329166D01*
X152398771Y-95319228D01*
X152384426Y-95306921D01*
X152371608Y-95294102D01*
X152371607Y-95294101D01*
X152344072Y-95278203D01*
X152338210Y-95274818D01*
X152307114Y-95252015D01*
X152281387Y-95242008D01*
X152265837Y-95233030D01*
X152257483Y-95228206D01*
X152241194Y-95223841D01*
X152220234Y-95218224D01*
X152184293Y-95204245D01*
X152156852Y-95201238D01*
X152147687Y-95198782D01*
X152147686Y-95198781D01*
X152130193Y-95194093D01*
X152130186Y-95194092D01*
X152098393Y-95194091D01*
X152098393Y-95194090D01*
X152091612Y-95194089D01*
X152053293Y-95189892D01*
X152026015Y-95194088D01*
X152016526Y-95194088D01*
X152016525Y-95194087D01*
X129622516Y-95193312D01*
X129603666Y-95191870D01*
X129585741Y-95189112D01*
X129585731Y-95189112D01*
X129554139Y-95192572D01*
X129554138Y-95192571D01*
X129547393Y-95193309D01*
X129508873Y-95193309D01*
X129482205Y-95200452D01*
X129472777Y-95201486D01*
X129472772Y-95201488D01*
X129454733Y-95203465D01*
X129425125Y-95214980D01*
X129412273Y-95219187D01*
X129381579Y-95227411D01*
X129381578Y-95227411D01*
X129365861Y-95236484D01*
X129348831Y-95244653D01*
X129331918Y-95251232D01*
X129331912Y-95251235D01*
X129306287Y-95270025D01*
X129294967Y-95277411D01*
X129267448Y-95293299D01*
X129267447Y-95293300D01*
X129254611Y-95306134D01*
X129247915Y-95312830D01*
X129225640Y-95329166D01*
X129201517Y-95359225D01*
X129196726Y-95364016D01*
X129196723Y-95364017D01*
X129174262Y-95386478D01*
X129174258Y-95386483D01*
X129170960Y-95392195D01*
X129156712Y-95412050D01*
X128995308Y-95595648D01*
X128926023Y-95674462D01*
X128913439Y-95688776D01*
X128905723Y-95696796D01*
X128838776Y-95760407D01*
X128612252Y-95975643D01*
X128603848Y-95982939D01*
X128286546Y-96234357D01*
X128277521Y-96240870D01*
X127938974Y-96462810D01*
X127929402Y-96468488D01*
X127572304Y-96659186D01*
X127562260Y-96663984D01*
X127189505Y-96821891D01*
X127179073Y-96825768D01*
X126793656Y-96949618D01*
X126782917Y-96952544D01*
X126387951Y-97041334D01*
X126376994Y-97043285D01*
X125975662Y-97096303D01*
X125964573Y-97097264D01*
X125560101Y-97114082D01*
X125548972Y-97114045D01*
X125144619Y-97094528D01*
X125133537Y-97093493D01*
X124732558Y-97037797D01*
X124721614Y-97035772D01*
X124327264Y-96944350D01*
X124316545Y-96941353D01*
X123931953Y-96814931D01*
X123921547Y-96810984D01*
X123549860Y-96650594D01*
X123539849Y-96645730D01*
X123202747Y-96462810D01*
X123184034Y-96452655D01*
X123174504Y-96446916D01*
X122837438Y-96222716D01*
X122828462Y-96216147D01*
X122512838Y-95962612D01*
X122504483Y-95955259D01*
X122236978Y-95697665D01*
X122212876Y-95674455D01*
X122205237Y-95666409D01*
X121939969Y-95360574D01*
X121933067Y-95351854D01*
X121734598Y-95076594D01*
X121696299Y-95023477D01*
X121690203Y-95014168D01*
X121483844Y-94665899D01*
X121478606Y-94656080D01*
X121304301Y-94290702D01*
X121299964Y-94280451D01*
X121282888Y-94234436D01*
X121229544Y-94090684D01*
X121159124Y-93900917D01*
X121155724Y-93890319D01*
X121049483Y-93499686D01*
X121047047Y-93488826D01*
X121032915Y-93409253D01*
X120976258Y-93090228D01*
X120974808Y-93079203D01*
X120960673Y-92915202D01*
X120940046Y-92675872D01*
X120939590Y-92664756D01*
X120940756Y-92358711D01*
X123719500Y-92358711D01*
X123719500Y-92601288D01*
X123751161Y-92841785D01*
X123813947Y-93076104D01*
X123906773Y-93300205D01*
X123906776Y-93300212D01*
X124028064Y-93510289D01*
X124028066Y-93510292D01*
X124028067Y-93510293D01*
X124175733Y-93702736D01*
X124175739Y-93702743D01*
X124347256Y-93874260D01*
X124347263Y-93874266D01*
X124382555Y-93901346D01*
X124539711Y-94021936D01*
X124749788Y-94143224D01*
X124973900Y-94236054D01*
X125208211Y-94298838D01*
X125388586Y-94322584D01*
X125448711Y-94330500D01*
X125448712Y-94330500D01*
X125691289Y-94330500D01*
X125739388Y-94324167D01*
X125931789Y-94298838D01*
X126166100Y-94236054D01*
X126390212Y-94143224D01*
X126600289Y-94021936D01*
X126792738Y-93874265D01*
X126964265Y-93702738D01*
X127111936Y-93510289D01*
X127233224Y-93300212D01*
X127326054Y-93076100D01*
X127388838Y-92841789D01*
X127420500Y-92601288D01*
X127420500Y-92358712D01*
X127419903Y-92354181D01*
X127403776Y-92231676D01*
X127388838Y-92118211D01*
X127326054Y-91883900D01*
X127233224Y-91659788D01*
X127111936Y-91449711D01*
X126992477Y-91294029D01*
X126964266Y-91257263D01*
X126964260Y-91257256D01*
X126792743Y-91085739D01*
X126792736Y-91085733D01*
X126600293Y-90938067D01*
X126600292Y-90938066D01*
X126600289Y-90938064D01*
X126390212Y-90816776D01*
X126390205Y-90816773D01*
X126166104Y-90723947D01*
X125931785Y-90661161D01*
X125691289Y-90629500D01*
X125691288Y-90629500D01*
X125448712Y-90629500D01*
X125448711Y-90629500D01*
X125208214Y-90661161D01*
X124973895Y-90723947D01*
X124749794Y-90816773D01*
X124749785Y-90816777D01*
X124618143Y-90892781D01*
X124553923Y-90929859D01*
X124539706Y-90938067D01*
X124347263Y-91085733D01*
X124347256Y-91085739D01*
X124175739Y-91257256D01*
X124175733Y-91257263D01*
X124028067Y-91449706D01*
X123906777Y-91659785D01*
X123906773Y-91659794D01*
X123813947Y-91883895D01*
X123751161Y-92118214D01*
X123719500Y-92358711D01*
X120940756Y-92358711D01*
X120940773Y-92354181D01*
X120940942Y-92309677D01*
X120941748Y-92297748D01*
X120941748Y-92245209D01*
X120941895Y-92239170D01*
X120944363Y-92188554D01*
X120944043Y-92184670D01*
X120942262Y-92168015D01*
X120941748Y-92164113D01*
X120941748Y-92164108D01*
X120927849Y-92112236D01*
X120916492Y-92059750D01*
X120910840Y-92048756D01*
X120907640Y-92036814D01*
X120880788Y-91990305D01*
X120856235Y-91942549D01*
X120847928Y-91933391D01*
X120841748Y-91922686D01*
X120805914Y-91886852D01*
X120801756Y-91882487D01*
X120767697Y-91844937D01*
X120767693Y-91844934D01*
X120767692Y-91844933D01*
X120757300Y-91838238D01*
X120748562Y-91829500D01*
X120702055Y-91802649D01*
X120668622Y-91781111D01*
X120656908Y-91773564D01*
X120653414Y-91771913D01*
X120638018Y-91765091D01*
X120634437Y-91763608D01*
X120585474Y-91750489D01*
X120585474Y-91750488D01*
X120582550Y-91749704D01*
X120531430Y-91733301D01*
X120519078Y-91732698D01*
X120509033Y-91730007D01*
X120507141Y-91729500D01*
X120507140Y-91729500D01*
X120456472Y-91729500D01*
X120450434Y-91729353D01*
X120399801Y-91726884D01*
X120395898Y-91727206D01*
X120374455Y-91729500D01*
X111323751Y-91729500D01*
X111316264Y-91729274D01*
X111026205Y-91711728D01*
X111011340Y-91709923D01*
X110729202Y-91658219D01*
X110714664Y-91654635D01*
X110440825Y-91569304D01*
X110426827Y-91563995D01*
X110274096Y-91495256D01*
X110165269Y-91446277D01*
X110152012Y-91439319D01*
X109906541Y-91290928D01*
X109894217Y-91282422D01*
X109890048Y-91279156D01*
X109686597Y-91119761D01*
X109668426Y-91105525D01*
X109657218Y-91095595D01*
X109454404Y-90892781D01*
X109444474Y-90881573D01*
X109393709Y-90816777D01*
X109267573Y-90655776D01*
X109259071Y-90643458D01*
X109110680Y-90397987D01*
X109103722Y-90384730D01*
X109090567Y-90355500D01*
X108986000Y-90123163D01*
X108980698Y-90109182D01*
X108895363Y-89835334D01*
X108891780Y-89820797D01*
X108840076Y-89538659D01*
X108838271Y-89523794D01*
X108820726Y-89233736D01*
X108820500Y-89226249D01*
X108820500Y-88602070D01*
X110194500Y-88602070D01*
X110194500Y-88857930D01*
X110197761Y-88878517D01*
X110234526Y-89110640D01*
X110313588Y-89353972D01*
X110313589Y-89353975D01*
X110374654Y-89473819D01*
X110400117Y-89523794D01*
X110429750Y-89581950D01*
X110580132Y-89788935D01*
X110580136Y-89788940D01*
X110761059Y-89969863D01*
X110761064Y-89969867D01*
X110941607Y-90101038D01*
X110968053Y-90120252D01*
X111117080Y-90196185D01*
X111196024Y-90236410D01*
X111196027Y-90236411D01*
X111281508Y-90264185D01*
X111439361Y-90315474D01*
X111692070Y-90355500D01*
X111692071Y-90355500D01*
X111947929Y-90355500D01*
X111947930Y-90355500D01*
X112200639Y-90315474D01*
X112443975Y-90236410D01*
X112671947Y-90120252D01*
X112878942Y-89969862D01*
X113059862Y-89788942D01*
X113210252Y-89581947D01*
X113326410Y-89353975D01*
X113405474Y-89110639D01*
X113445500Y-88857930D01*
X113445500Y-88602070D01*
X113444251Y-88594185D01*
X113405474Y-88349360D01*
X113326411Y-88106027D01*
X113326410Y-88106024D01*
X113277474Y-88009983D01*
X113210252Y-87878053D01*
X113181794Y-87838884D01*
X113059867Y-87671064D01*
X113059863Y-87671059D01*
X112878940Y-87490136D01*
X112878935Y-87490132D01*
X112671950Y-87339750D01*
X112671949Y-87339749D01*
X112671947Y-87339748D01*
X112511676Y-87258085D01*
X112443975Y-87223589D01*
X112443972Y-87223588D01*
X112200640Y-87144526D01*
X112074284Y-87124513D01*
X111947930Y-87104500D01*
X111692070Y-87104500D01*
X111607833Y-87117842D01*
X111439359Y-87144526D01*
X111196027Y-87223588D01*
X111196024Y-87223589D01*
X110968049Y-87339750D01*
X110761064Y-87490132D01*
X110761059Y-87490136D01*
X110580136Y-87671059D01*
X110580132Y-87671064D01*
X110429750Y-87878049D01*
X110313589Y-88106024D01*
X110313588Y-88106027D01*
X110234526Y-88349359D01*
X110195749Y-88594185D01*
X110194500Y-88602070D01*
X108820500Y-88602070D01*
X108820500Y-84901500D01*
X108840185Y-84834461D01*
X108892989Y-84788706D01*
X108944500Y-84777500D01*
X110072500Y-84777500D01*
X110572500Y-84777500D01*
X111770328Y-84777500D01*
X111770344Y-84777499D01*
X111829872Y-84771098D01*
X111829879Y-84771096D01*
X111964586Y-84720854D01*
X111964593Y-84720850D01*
X112079687Y-84634690D01*
X112079690Y-84634687D01*
X112165850Y-84519593D01*
X112165854Y-84519586D01*
X112216096Y-84384879D01*
X112216098Y-84384872D01*
X112222499Y-84325344D01*
X112222500Y-84325327D01*
X112222500Y-84027500D01*
X110572500Y-84027500D01*
X110572500Y-84777500D01*
X110072500Y-84777500D01*
X110072500Y-82777500D01*
X108944500Y-82777500D01*
X108877461Y-82757815D01*
X108831706Y-82705011D01*
X108820500Y-82653500D01*
X108820500Y-74736999D01*
X114915500Y-74736999D01*
X114915500Y-74883001D01*
X114951286Y-75016555D01*
X114953288Y-75024028D01*
X114953289Y-75024031D01*
X115026286Y-75150467D01*
X115026289Y-75150471D01*
X115129529Y-75253711D01*
X115129530Y-75253712D01*
X115129532Y-75253713D01*
X115151434Y-75266358D01*
X115255971Y-75326712D01*
X115396999Y-75364500D01*
X115397001Y-75364500D01*
X115542999Y-75364500D01*
X115543001Y-75364500D01*
X115684029Y-75326712D01*
X115810471Y-75253711D01*
X115913711Y-75150471D01*
X115986712Y-75024029D01*
X116024500Y-74883001D01*
X116024500Y-74736999D01*
X115986712Y-74595971D01*
X115940560Y-74516034D01*
X115924088Y-74448135D01*
X115946941Y-74382108D01*
X116001862Y-74338917D01*
X116015832Y-74334267D01*
X116044029Y-74326712D01*
X116170471Y-74253711D01*
X116273711Y-74150471D01*
X116346712Y-74024029D01*
X116384500Y-73883001D01*
X116384500Y-73736999D01*
X116346712Y-73595971D01*
X116304334Y-73522570D01*
X116273713Y-73469532D01*
X116273709Y-73469527D01*
X116170472Y-73366290D01*
X116170467Y-73366286D01*
X116044031Y-73293289D01*
X116044030Y-73293288D01*
X116044029Y-73293288D01*
X115903001Y-73255500D01*
X115756999Y-73255500D01*
X115615971Y-73293288D01*
X115615968Y-73293289D01*
X115489532Y-73366286D01*
X115489527Y-73366290D01*
X115386290Y-73469527D01*
X115386286Y-73469532D01*
X115313289Y-73595968D01*
X115313288Y-73595971D01*
X115275500Y-73736999D01*
X115275500Y-73883001D01*
X115310734Y-74014495D01*
X115313288Y-74024028D01*
X115313289Y-74024031D01*
X115359438Y-74103964D01*
X115375911Y-74171865D01*
X115353058Y-74237891D01*
X115298137Y-74281082D01*
X115284146Y-74285738D01*
X115255975Y-74293286D01*
X115255968Y-74293289D01*
X115129532Y-74366286D01*
X115129527Y-74366290D01*
X115026290Y-74469527D01*
X115026286Y-74469532D01*
X114953289Y-74595968D01*
X114953288Y-74595971D01*
X114915500Y-74736999D01*
X108820500Y-74736999D01*
X108820500Y-74151500D01*
X108840185Y-74084461D01*
X108892989Y-74038706D01*
X108944500Y-74027500D01*
X110272500Y-74027500D01*
X110272500Y-71551500D01*
X110292185Y-71484461D01*
X110344989Y-71438706D01*
X110396500Y-71427500D01*
X110870328Y-71427500D01*
X110870344Y-71427499D01*
X110929872Y-71421098D01*
X110929879Y-71421096D01*
X111064586Y-71370854D01*
X111064593Y-71370850D01*
X111179687Y-71284690D01*
X111179690Y-71284687D01*
X111265850Y-71169593D01*
X111265854Y-71169586D01*
X111316096Y-71034879D01*
X111316098Y-71034872D01*
X111322499Y-70975344D01*
X111322500Y-70975327D01*
X111322500Y-70527500D01*
X109996500Y-70527500D01*
X109929461Y-70507815D01*
X109883706Y-70455011D01*
X109872500Y-70403500D01*
X109872500Y-70277500D01*
X109746500Y-70277500D01*
X109679461Y-70257815D01*
X109633706Y-70205011D01*
X109622500Y-70153500D01*
X109622500Y-70027500D01*
X110122500Y-70027500D01*
X111322500Y-70027500D01*
X111322500Y-69736999D01*
X114615500Y-69736999D01*
X114615500Y-69883001D01*
X114650562Y-70013853D01*
X114653288Y-70024028D01*
X114653289Y-70024031D01*
X114726286Y-70150467D01*
X114726288Y-70150470D01*
X114726289Y-70150471D01*
X114829529Y-70253711D01*
X114829530Y-70253712D01*
X114829532Y-70253713D01*
X114870733Y-70277500D01*
X114955971Y-70326712D01*
X115096999Y-70364500D01*
X115097001Y-70364500D01*
X115242999Y-70364500D01*
X115243001Y-70364500D01*
X115384029Y-70326712D01*
X115510471Y-70253711D01*
X115510472Y-70253709D01*
X115510475Y-70253708D01*
X115516922Y-70248762D01*
X115518650Y-70251014D01*
X115567874Y-70224120D01*
X115637567Y-70229086D01*
X115681946Y-70257598D01*
X115698794Y-70274446D01*
X115698795Y-70274447D01*
X115698797Y-70274448D01*
X115729777Y-70292334D01*
X115825236Y-70347447D01*
X115966264Y-70385235D01*
X115966266Y-70385235D01*
X116112264Y-70385235D01*
X116112266Y-70385235D01*
X116253294Y-70347447D01*
X116379736Y-70274446D01*
X116482976Y-70171206D01*
X116555977Y-70044764D01*
X116593765Y-69903736D01*
X116593765Y-69757734D01*
X116555977Y-69616706D01*
X116507012Y-69531896D01*
X116482978Y-69490267D01*
X116482974Y-69490262D01*
X116379737Y-69387025D01*
X116379732Y-69387021D01*
X116253296Y-69314024D01*
X116253295Y-69314023D01*
X116253294Y-69314023D01*
X116112266Y-69276235D01*
X115966264Y-69276235D01*
X115825236Y-69314023D01*
X115825233Y-69314024D01*
X115698790Y-69387025D01*
X115692344Y-69391972D01*
X115690621Y-69389727D01*
X115641325Y-69416628D01*
X115571634Y-69411625D01*
X115527318Y-69383136D01*
X115510472Y-69366290D01*
X115510467Y-69366286D01*
X115384031Y-69293289D01*
X115384030Y-69293288D01*
X115384029Y-69293288D01*
X115243001Y-69255500D01*
X115096999Y-69255500D01*
X114955971Y-69293288D01*
X114955968Y-69293289D01*
X114829532Y-69366286D01*
X114829527Y-69366290D01*
X114726290Y-69469527D01*
X114726286Y-69469532D01*
X114653289Y-69595968D01*
X114653288Y-69595971D01*
X114615500Y-69736999D01*
X111322500Y-69736999D01*
X111322500Y-69579672D01*
X111322499Y-69579655D01*
X111316098Y-69520127D01*
X111316096Y-69520120D01*
X111265854Y-69385413D01*
X111265850Y-69385406D01*
X111179690Y-69270312D01*
X111179687Y-69270309D01*
X111064593Y-69184149D01*
X111064586Y-69184145D01*
X110929879Y-69133903D01*
X110929872Y-69133901D01*
X110870344Y-69127500D01*
X110122500Y-69127500D01*
X110122500Y-70027500D01*
X109622500Y-70027500D01*
X109622500Y-69127500D01*
X108944500Y-69127500D01*
X108877461Y-69107815D01*
X108831706Y-69055011D01*
X108820500Y-69003500D01*
X108820500Y-65602070D01*
X110194500Y-65602070D01*
X110194500Y-65857930D01*
X110204534Y-65921280D01*
X110234526Y-66110640D01*
X110313588Y-66353972D01*
X110313589Y-66353975D01*
X110384788Y-66493709D01*
X110428376Y-66579255D01*
X110429750Y-66581950D01*
X110580132Y-66788935D01*
X110580136Y-66788940D01*
X110761059Y-66969863D01*
X110761064Y-66969867D01*
X110938385Y-67098697D01*
X110968053Y-67120252D01*
X111079111Y-67176839D01*
X111196024Y-67236410D01*
X111196027Y-67236411D01*
X111302206Y-67270910D01*
X111439361Y-67315474D01*
X111692070Y-67355500D01*
X111692071Y-67355500D01*
X111947929Y-67355500D01*
X111947930Y-67355500D01*
X112200639Y-67315474D01*
X112443975Y-67236410D01*
X112671947Y-67120252D01*
X112878942Y-66969862D01*
X113059862Y-66788942D01*
X113210252Y-66581947D01*
X113326410Y-66353975D01*
X113405474Y-66110639D01*
X113445500Y-65857930D01*
X113445500Y-65602070D01*
X113405474Y-65349361D01*
X113345282Y-65164108D01*
X113326411Y-65106027D01*
X113326410Y-65106024D01*
X113242515Y-64941373D01*
X113210252Y-64878053D01*
X113129573Y-64767007D01*
X113059867Y-64671064D01*
X113059863Y-64671059D01*
X112878940Y-64490136D01*
X112878935Y-64490132D01*
X112671950Y-64339750D01*
X112671949Y-64339749D01*
X112671947Y-64339748D01*
X112598910Y-64302533D01*
X112443975Y-64223589D01*
X112443972Y-64223588D01*
X112200640Y-64144526D01*
X112074284Y-64124513D01*
X111947930Y-64104500D01*
X111692070Y-64104500D01*
X111607833Y-64117842D01*
X111439359Y-64144526D01*
X111196027Y-64223588D01*
X111196024Y-64223589D01*
X110968049Y-64339750D01*
X110761064Y-64490132D01*
X110761059Y-64490136D01*
X110580136Y-64671059D01*
X110580132Y-64671064D01*
X110429750Y-64878049D01*
X110313589Y-65106024D01*
X110313588Y-65106027D01*
X110234526Y-65349359D01*
X110209630Y-65506542D01*
X110194500Y-65602070D01*
X108820500Y-65602070D01*
X108820500Y-65313823D01*
X108820500Y-65305039D01*
X108820717Y-65304223D01*
X108820508Y-65241660D01*
X108820521Y-65241613D01*
X108820710Y-65234603D01*
X108837362Y-64943851D01*
X108839125Y-64928954D01*
X108839168Y-64928719D01*
X108890105Y-64646063D01*
X108893654Y-64631490D01*
X108915928Y-64559329D01*
X108978429Y-64356834D01*
X108983713Y-64342794D01*
X109017601Y-64267007D01*
X109101046Y-64080385D01*
X109107983Y-64067093D01*
X109256167Y-63820755D01*
X109264640Y-63808426D01*
X109441499Y-63581786D01*
X109451410Y-63570559D01*
X109654334Y-63366957D01*
X109665537Y-63357001D01*
X109891576Y-63179395D01*
X109903896Y-63170868D01*
X110149732Y-63021868D01*
X110162981Y-63014896D01*
X110425027Y-62896676D01*
X110439020Y-62891357D01*
X110713420Y-62805657D01*
X110727970Y-62802064D01*
X111010692Y-62750141D01*
X111025568Y-62748331D01*
X111316255Y-62730709D01*
X111323737Y-62730483D01*
X111385892Y-62730483D01*
X111385928Y-62730473D01*
X120373157Y-62729185D01*
X120393855Y-62731402D01*
X120398407Y-62731777D01*
X120398418Y-62731780D01*
X120449185Y-62729318D01*
X120455123Y-62729173D01*
X120505964Y-62729167D01*
X120517804Y-62725992D01*
X120530048Y-62725399D01*
X120581282Y-62708973D01*
X120633253Y-62695040D01*
X120633256Y-62695037D01*
X120637469Y-62693292D01*
X120651397Y-62687123D01*
X120655535Y-62685168D01*
X120655541Y-62685167D01*
X120700780Y-62656039D01*
X120747371Y-62629132D01*
X120756034Y-62620464D01*
X120761094Y-62617207D01*
X120766345Y-62613827D01*
X120802504Y-62573982D01*
X120840544Y-62535933D01*
X120846672Y-62525315D01*
X120854910Y-62516238D01*
X120879524Y-62468394D01*
X120906420Y-62421795D01*
X120909590Y-62409955D01*
X120915199Y-62399054D01*
X120926595Y-62346453D01*
X120940509Y-62294496D01*
X120940507Y-62282243D01*
X120943104Y-62270258D01*
X120940640Y-62219470D01*
X120940505Y-62214992D01*
X120940496Y-62214304D01*
X120940490Y-62162712D01*
X120939845Y-62160310D01*
X120939724Y-62150194D01*
X120939774Y-62150012D01*
X120939716Y-62149149D01*
X120938686Y-61858711D01*
X123719500Y-61858711D01*
X123719500Y-62101288D01*
X123751161Y-62341785D01*
X123813947Y-62576104D01*
X123906773Y-62800205D01*
X123906777Y-62800214D01*
X123909921Y-62805660D01*
X124028064Y-63010289D01*
X124028066Y-63010292D01*
X124028067Y-63010293D01*
X124175733Y-63202736D01*
X124175739Y-63202743D01*
X124347256Y-63374260D01*
X124347263Y-63374266D01*
X124417651Y-63428276D01*
X124539711Y-63521936D01*
X124749788Y-63643224D01*
X124973900Y-63736054D01*
X125208211Y-63798838D01*
X125374857Y-63820777D01*
X125448711Y-63830500D01*
X125448712Y-63830500D01*
X125691289Y-63830500D01*
X125739388Y-63824167D01*
X125931789Y-63798838D01*
X126166100Y-63736054D01*
X126390212Y-63643224D01*
X126600289Y-63521936D01*
X126792738Y-63374265D01*
X126964265Y-63202738D01*
X127111936Y-63010289D01*
X127233224Y-62800212D01*
X127326054Y-62576100D01*
X127388838Y-62341789D01*
X127420500Y-62101288D01*
X127420500Y-61858712D01*
X127388838Y-61618211D01*
X127326054Y-61383900D01*
X127324226Y-61379488D01*
X127233226Y-61159794D01*
X127233224Y-61159788D01*
X127111936Y-60949711D01*
X126964265Y-60757262D01*
X126964260Y-60757256D01*
X126792743Y-60585739D01*
X126792736Y-60585733D01*
X126626067Y-60457844D01*
X131460000Y-60457844D01*
X131466401Y-60517372D01*
X131466403Y-60517379D01*
X131516645Y-60652086D01*
X131516649Y-60652093D01*
X131602809Y-60767187D01*
X131602812Y-60767190D01*
X131717906Y-60853350D01*
X131717913Y-60853354D01*
X131852620Y-60903596D01*
X131852627Y-60903598D01*
X131912155Y-60909999D01*
X131912172Y-60910000D01*
X132210000Y-60910000D01*
X132710000Y-60910000D01*
X133007828Y-60910000D01*
X133007844Y-60909999D01*
X133067372Y-60903598D01*
X133067379Y-60903596D01*
X133202086Y-60853354D01*
X133202093Y-60853350D01*
X133317187Y-60767190D01*
X133317190Y-60767187D01*
X133403350Y-60652093D01*
X133403354Y-60652086D01*
X133453596Y-60517379D01*
X133453598Y-60517372D01*
X133459999Y-60457844D01*
X137460000Y-60457844D01*
X137466401Y-60517372D01*
X137466403Y-60517379D01*
X137516645Y-60652086D01*
X137516649Y-60652093D01*
X137602809Y-60767187D01*
X137602812Y-60767190D01*
X137717906Y-60853350D01*
X137717913Y-60853354D01*
X137852620Y-60903596D01*
X137852627Y-60903598D01*
X137912155Y-60909999D01*
X137912172Y-60910000D01*
X138210000Y-60910000D01*
X138710000Y-60910000D01*
X139007828Y-60910000D01*
X139007844Y-60909999D01*
X139067372Y-60903598D01*
X139067379Y-60903596D01*
X139202086Y-60853354D01*
X139202093Y-60853350D01*
X139317187Y-60767190D01*
X139317190Y-60767187D01*
X139403350Y-60652093D01*
X139403354Y-60652086D01*
X139453596Y-60517379D01*
X139453598Y-60517372D01*
X139459999Y-60457844D01*
X139460000Y-60457827D01*
X139460000Y-60285000D01*
X138710000Y-60285000D01*
X138710000Y-60910000D01*
X138210000Y-60910000D01*
X138210000Y-60285000D01*
X137460000Y-60285000D01*
X137460000Y-60457844D01*
X133459999Y-60457844D01*
X133460000Y-60457827D01*
X133460000Y-60285000D01*
X132710000Y-60285000D01*
X132710000Y-60910000D01*
X132210000Y-60910000D01*
X132210000Y-60285000D01*
X131460000Y-60285000D01*
X131460000Y-60457844D01*
X126626067Y-60457844D01*
X126600293Y-60438067D01*
X126600292Y-60438066D01*
X126600289Y-60438064D01*
X126390212Y-60316776D01*
X126313498Y-60285000D01*
X126166104Y-60223947D01*
X125931785Y-60161161D01*
X125691289Y-60129500D01*
X125691288Y-60129500D01*
X125448712Y-60129500D01*
X125448711Y-60129500D01*
X125208214Y-60161161D01*
X124973895Y-60223947D01*
X124749794Y-60316773D01*
X124749785Y-60316777D01*
X124707787Y-60341025D01*
X124562223Y-60425067D01*
X124539706Y-60438067D01*
X124347263Y-60585733D01*
X124347256Y-60585739D01*
X124175739Y-60757256D01*
X124175733Y-60757263D01*
X124028067Y-60949706D01*
X123906777Y-61159785D01*
X123906773Y-61159794D01*
X123813947Y-61383895D01*
X123751161Y-61618214D01*
X123719500Y-61858711D01*
X120938686Y-61858711D01*
X120938456Y-61793972D01*
X120938915Y-61782886D01*
X120973787Y-61379478D01*
X120975241Y-61368455D01*
X121041332Y-60996843D01*
X121046137Y-60969820D01*
X121048574Y-60958970D01*
X121154930Y-60568277D01*
X121158317Y-60557725D01*
X121299275Y-60178137D01*
X121303603Y-60167911D01*
X121478026Y-59802488D01*
X121483258Y-59792686D01*
X121689739Y-59444376D01*
X121695821Y-59435094D01*
X121932702Y-59106696D01*
X121939580Y-59098010D01*
X122204955Y-58792166D01*
X122212597Y-58784119D01*
X122504324Y-58503301D01*
X122512655Y-58495972D01*
X122828378Y-58242445D01*
X122837336Y-58235891D01*
X123174514Y-58011694D01*
X123184019Y-58005971D01*
X123539939Y-57812908D01*
X123549934Y-57808053D01*
X123921746Y-57647671D01*
X123932098Y-57643747D01*
X124316791Y-57517347D01*
X124327482Y-57514358D01*
X124721933Y-57422964D01*
X124732872Y-57420941D01*
X125133939Y-57365278D01*
X125144988Y-57364248D01*
X125549435Y-57344766D01*
X125560521Y-57344731D01*
X125965081Y-57361590D01*
G37*
%TD.AperFunction*%
%TA.AperFunction,Conductor*%
G36*
X117941545Y-85889891D02*
G01*
X117966728Y-85893063D01*
X117977616Y-85900483D01*
X117984237Y-85902427D01*
X117996748Y-85911622D01*
X118000975Y-85915157D01*
X118069529Y-85983711D01*
X118112857Y-86008726D01*
X118121099Y-86015619D01*
X118134772Y-86036097D01*
X118151764Y-86053917D01*
X118153831Y-86064642D01*
X118159897Y-86073727D01*
X118160327Y-86098345D01*
X118164988Y-86122524D01*
X118160927Y-86132665D01*
X118161119Y-86143586D01*
X118148172Y-86164527D01*
X118139021Y-86187389D01*
X118130123Y-86193725D01*
X118124379Y-86203017D01*
X118102161Y-86213636D01*
X118082107Y-86227918D01*
X118079869Y-86228669D01*
X118056024Y-86236417D01*
X117901115Y-86315347D01*
X117831131Y-86366194D01*
X117760467Y-86417535D01*
X117760465Y-86417537D01*
X117760464Y-86417537D01*
X117637537Y-86540464D01*
X117637537Y-86540465D01*
X117637535Y-86540467D01*
X117628837Y-86552439D01*
X117535347Y-86681115D01*
X117456417Y-86836024D01*
X117454554Y-86840522D01*
X117453118Y-86839927D01*
X117417529Y-86891939D01*
X117353162Y-86919116D01*
X117284319Y-86907180D01*
X117232858Y-86859919D01*
X117221135Y-86834237D01*
X117191096Y-86741784D01*
X117094624Y-86552449D01*
X117055270Y-86498282D01*
X117055269Y-86498282D01*
X116422962Y-87130590D01*
X116405925Y-87067007D01*
X116340099Y-86952993D01*
X116247007Y-86859901D01*
X116132993Y-86794075D01*
X116069409Y-86777037D01*
X116701716Y-86144728D01*
X116701716Y-86144727D01*
X116649871Y-86107060D01*
X116607205Y-86051731D01*
X116601226Y-85982117D01*
X116633831Y-85920322D01*
X116694670Y-85885965D01*
X116722756Y-85882742D01*
X117917198Y-85882742D01*
X117941545Y-85889891D01*
G37*
%TD.AperFunction*%
%TA.AperFunction,Conductor*%
G36*
X123206517Y-76118400D02*
G01*
X123212995Y-76124432D01*
X123679389Y-76590826D01*
X123679399Y-76590837D01*
X123749734Y-76661172D01*
X123776678Y-76676727D01*
X123830569Y-76707841D01*
X123920729Y-76732000D01*
X123920730Y-76732000D01*
X124012145Y-76732000D01*
X124079184Y-76751685D01*
X124121149Y-76796889D01*
X124130099Y-76813394D01*
X124132766Y-76826801D01*
X124157197Y-76863364D01*
X124159922Y-76868389D01*
X124166098Y-76897183D01*
X124174898Y-76925286D01*
X124173342Y-76930955D01*
X124174576Y-76936705D01*
X124164204Y-76964267D01*
X124156414Y-76992666D01*
X124154020Y-76996391D01*
X124132765Y-77028199D01*
X124132764Y-77028203D01*
X124118000Y-77102428D01*
X124118000Y-77852563D01*
X124125380Y-77889668D01*
X124132766Y-77926801D01*
X124148275Y-77950012D01*
X124154020Y-77958609D01*
X124174898Y-78025286D01*
X124156414Y-78092666D01*
X124154020Y-78096391D01*
X124132765Y-78128199D01*
X124132764Y-78128203D01*
X124118000Y-78202428D01*
X124118000Y-78831367D01*
X124098315Y-78898406D01*
X124068312Y-78930633D01*
X124015314Y-78970307D01*
X124015308Y-78970314D01*
X123929149Y-79085406D01*
X123929145Y-79085413D01*
X123878903Y-79220120D01*
X123878901Y-79220127D01*
X123872500Y-79279655D01*
X123872500Y-79427500D01*
X126072500Y-79427500D01*
X126072500Y-79279672D01*
X126072499Y-79279655D01*
X126066098Y-79220127D01*
X126066096Y-79220120D01*
X126021046Y-79099333D01*
X126016062Y-79029641D01*
X126049547Y-78968318D01*
X126110870Y-78934834D01*
X126137228Y-78932000D01*
X127504730Y-78932000D01*
X127571769Y-78951685D01*
X127617524Y-79004489D01*
X127627468Y-79073647D01*
X127615540Y-79108105D01*
X127616399Y-79108461D01*
X127613288Y-79115971D01*
X127575500Y-79256999D01*
X127575500Y-79403001D01*
X127608141Y-79524818D01*
X127613288Y-79544028D01*
X127613289Y-79544031D01*
X127686286Y-79670467D01*
X127686288Y-79670470D01*
X127686289Y-79670471D01*
X127789529Y-79773711D01*
X127875661Y-79823439D01*
X127923876Y-79874005D01*
X127937100Y-79942612D01*
X127933436Y-79962919D01*
X127895500Y-80104499D01*
X127895500Y-80250502D01*
X127899896Y-80266908D01*
X127898233Y-80336758D01*
X127859069Y-80394620D01*
X127794840Y-80422123D01*
X127780121Y-80423000D01*
X126137228Y-80423000D01*
X126070189Y-80403315D01*
X126024434Y-80350511D01*
X126014490Y-80281353D01*
X126021046Y-80255667D01*
X126066096Y-80134879D01*
X126066098Y-80134872D01*
X126072499Y-80075344D01*
X126072500Y-80075327D01*
X126072500Y-79927500D01*
X123872500Y-79927500D01*
X123872500Y-80075344D01*
X123878901Y-80134872D01*
X123878903Y-80134880D01*
X123906932Y-80210030D01*
X123911916Y-80279722D01*
X123878430Y-80341045D01*
X123817107Y-80374529D01*
X123747415Y-80369544D01*
X123703069Y-80341044D01*
X123037633Y-79675608D01*
X123004148Y-79614285D01*
X123001314Y-79587927D01*
X123001314Y-76212113D01*
X123020999Y-76145074D01*
X123073803Y-76099319D01*
X123142961Y-76089375D01*
X123206517Y-76118400D01*
G37*
%TD.AperFunction*%
%TA.AperFunction,Conductor*%
G36*
X132258142Y-74624370D02*
G01*
X132258461Y-74623601D01*
X132265964Y-74626708D01*
X132265971Y-74626712D01*
X132406999Y-74664500D01*
X132407001Y-74664500D01*
X132552998Y-74664500D01*
X132553001Y-74664500D01*
X132651982Y-74637978D01*
X132721828Y-74639641D01*
X132779690Y-74678803D01*
X132807195Y-74743031D01*
X132795609Y-74811934D01*
X132771753Y-74845434D01*
X131362837Y-76254350D01*
X131337161Y-76274053D01*
X131329437Y-76278512D01*
X131031631Y-76576320D01*
X130578770Y-77029181D01*
X130517447Y-77062666D01*
X130491089Y-77065500D01*
X129346668Y-77065500D01*
X129342285Y-77064213D01*
X129337823Y-77065184D01*
X129309068Y-77054459D01*
X129279629Y-77045815D01*
X129275443Y-77041918D01*
X129272359Y-77040768D01*
X129247402Y-77015812D01*
X129240704Y-77006865D01*
X129183977Y-76931088D01*
X129159561Y-76865627D01*
X129174412Y-76797353D01*
X129218148Y-76751240D01*
X129272733Y-76717571D01*
X129392572Y-76597732D01*
X129392575Y-76597728D01*
X129481542Y-76453492D01*
X129481547Y-76453481D01*
X129534855Y-76292606D01*
X129544999Y-76193322D01*
X129545000Y-76193309D01*
X129545000Y-76170000D01*
X127595001Y-76170000D01*
X127595001Y-76193322D01*
X127605144Y-76292607D01*
X127658452Y-76453481D01*
X127658457Y-76453492D01*
X127747424Y-76597728D01*
X127747427Y-76597732D01*
X127867267Y-76717572D01*
X127867271Y-76717575D01*
X127921851Y-76751241D01*
X127931616Y-76762097D01*
X127944436Y-76769098D01*
X127954513Y-76787554D01*
X127968576Y-76803189D01*
X127970921Y-76817604D01*
X127977920Y-76830422D01*
X127976419Y-76851396D01*
X127979797Y-76872151D01*
X127973888Y-76886798D01*
X127972936Y-76900113D01*
X127956021Y-76931088D01*
X127899296Y-77006865D01*
X127892599Y-77015811D01*
X127836665Y-77057682D01*
X127793332Y-77065500D01*
X127380902Y-77065500D01*
X127313863Y-77045815D01*
X127268108Y-76993011D01*
X127258164Y-76923853D01*
X127261825Y-76906906D01*
X127304504Y-76760000D01*
X126624000Y-76760000D01*
X126556961Y-76740315D01*
X126511206Y-76687511D01*
X126500000Y-76636000D01*
X126500000Y-76384000D01*
X126519685Y-76316961D01*
X126572489Y-76271206D01*
X126624000Y-76260000D01*
X127304504Y-76260000D01*
X127262031Y-76113804D01*
X127179721Y-75974625D01*
X127179714Y-75974616D01*
X127065383Y-75860285D01*
X127065374Y-75860278D01*
X126926195Y-75777968D01*
X126879480Y-75764396D01*
X126678601Y-75728015D01*
X126656923Y-75717146D01*
X126633660Y-75710315D01*
X126626254Y-75701768D01*
X126616142Y-75696698D01*
X126603781Y-75675833D01*
X126587905Y-75657511D01*
X126586347Y-75646677D01*
X127595000Y-75646677D01*
X127595000Y-75670000D01*
X128320000Y-75670000D01*
X128820000Y-75670000D01*
X129544999Y-75670000D01*
X129544999Y-75646692D01*
X129544998Y-75646677D01*
X129534855Y-75547392D01*
X129481547Y-75386518D01*
X129481542Y-75386507D01*
X129392575Y-75242271D01*
X129392572Y-75242267D01*
X129272732Y-75122427D01*
X129272728Y-75122424D01*
X129128492Y-75033457D01*
X129128481Y-75033452D01*
X128967606Y-74980144D01*
X128868322Y-74970000D01*
X128820000Y-74970000D01*
X128820000Y-75670000D01*
X128320000Y-75670000D01*
X128320000Y-74970000D01*
X128319999Y-74969999D01*
X128271693Y-74970000D01*
X128271675Y-74970001D01*
X128172392Y-74980144D01*
X128011518Y-75033452D01*
X128011507Y-75033457D01*
X127867271Y-75122424D01*
X127867267Y-75122427D01*
X127747427Y-75242267D01*
X127747424Y-75242271D01*
X127658457Y-75386507D01*
X127658452Y-75386518D01*
X127605144Y-75547393D01*
X127595000Y-75646677D01*
X126586347Y-75646677D01*
X126586295Y-75646317D01*
X126580530Y-75636585D01*
X126581411Y-75612352D01*
X126577961Y-75588353D01*
X126582659Y-75578064D01*
X126583071Y-75566762D01*
X126596912Y-75546855D01*
X126606986Y-75524797D01*
X126612998Y-75518340D01*
X127470520Y-74660819D01*
X127531843Y-74627334D01*
X127558201Y-74624500D01*
X131043515Y-74624500D01*
X131110554Y-74644185D01*
X131150902Y-74686500D01*
X131176286Y-74730467D01*
X131176288Y-74730470D01*
X131176289Y-74730471D01*
X131279529Y-74833711D01*
X131279530Y-74833712D01*
X131279532Y-74833713D01*
X131305558Y-74848739D01*
X131405971Y-74906712D01*
X131546999Y-74944500D01*
X131547001Y-74944500D01*
X131692999Y-74944500D01*
X131693001Y-74944500D01*
X131834029Y-74906712D01*
X131960471Y-74833711D01*
X132063711Y-74730471D01*
X132097205Y-74672456D01*
X132147771Y-74624242D01*
X132216378Y-74611018D01*
X132258142Y-74624370D01*
G37*
%TD.AperFunction*%
%TA.AperFunction,Conductor*%
G36*
X122392826Y-69227871D02*
G01*
X122422814Y-69230016D01*
X122427904Y-69233287D01*
X122432161Y-69233945D01*
X122461653Y-69253334D01*
X122464475Y-69255831D01*
X122492684Y-69284040D01*
X122501335Y-69288448D01*
X122513153Y-69298905D01*
X122550314Y-69358073D01*
X122554980Y-69391769D01*
X122554980Y-72067809D01*
X122554980Y-72161151D01*
X122579139Y-72251312D01*
X122620751Y-72323388D01*
X122625808Y-72332146D01*
X122625810Y-72332149D01*
X124081681Y-73788020D01*
X124115166Y-73849343D01*
X124118000Y-73875701D01*
X124118000Y-74552563D01*
X124124196Y-74583713D01*
X124132766Y-74626801D01*
X124152751Y-74656711D01*
X124154020Y-74658609D01*
X124158319Y-74672338D01*
X124166974Y-74683831D01*
X124168550Y-74705014D01*
X124174898Y-74725286D01*
X124171189Y-74740471D01*
X124172160Y-74753508D01*
X124162333Y-74776739D01*
X124159922Y-74786612D01*
X124157200Y-74791631D01*
X124132766Y-74828199D01*
X124130099Y-74841605D01*
X124121148Y-74858112D01*
X124109216Y-74870112D01*
X124101372Y-74885107D01*
X124085092Y-74894376D01*
X124071885Y-74907660D01*
X124055359Y-74911304D01*
X124040654Y-74919678D01*
X124012144Y-74923000D01*
X123631288Y-74923000D01*
X123564249Y-74903315D01*
X123543607Y-74886681D01*
X122240819Y-73583893D01*
X122207334Y-73522570D01*
X122204500Y-73496212D01*
X122204500Y-69391504D01*
X122224185Y-69324465D01*
X122260022Y-69292044D01*
X122258377Y-69289780D01*
X122266273Y-69284042D01*
X122266273Y-69284041D01*
X122266276Y-69284040D01*
X122291799Y-69258517D01*
X122296384Y-69256012D01*
X122299256Y-69251646D01*
X122326736Y-69239439D01*
X122353122Y-69225032D01*
X122358333Y-69225404D01*
X122363110Y-69223283D01*
X122392826Y-69227871D01*
G37*
%TD.AperFunction*%
%TA.AperFunction,Conductor*%
G36*
X131548837Y-70944184D02*
G01*
X131569479Y-70960818D01*
X132406329Y-71797668D01*
X132472332Y-71863671D01*
X132553168Y-71910341D01*
X132643329Y-71934500D01*
X135248132Y-71934500D01*
X135270451Y-71941053D01*
X135293617Y-71943144D01*
X135303345Y-71950712D01*
X135315171Y-71954185D01*
X135330401Y-71971762D01*
X135348763Y-71986047D01*
X135352855Y-71997675D01*
X135360926Y-72006989D01*
X135364236Y-72030011D01*
X135371959Y-72051954D01*
X135370032Y-72070323D01*
X135370870Y-72076147D01*
X135368787Y-72087106D01*
X135367998Y-72090431D01*
X135367907Y-72090590D01*
X135330119Y-72231618D01*
X135330119Y-72250204D01*
X135326774Y-72264313D01*
X135316356Y-72282575D01*
X135310434Y-72302746D01*
X135293800Y-72323388D01*
X133992270Y-73624917D01*
X133930947Y-73658402D01*
X133861255Y-73653418D01*
X133805322Y-73611546D01*
X133797201Y-73599234D01*
X133788713Y-73584532D01*
X133788709Y-73584527D01*
X133685472Y-73481290D01*
X133685467Y-73481286D01*
X133559031Y-73408289D01*
X133559030Y-73408288D01*
X133559029Y-73408288D01*
X133418001Y-73370500D01*
X133418000Y-73370500D01*
X133343201Y-73370500D01*
X133276162Y-73350815D01*
X133255520Y-73334181D01*
X133027669Y-73106330D01*
X133027668Y-73106329D01*
X132946832Y-73059659D01*
X132946833Y-73059659D01*
X132916778Y-73051606D01*
X132856671Y-73035500D01*
X132856669Y-73035500D01*
X131111265Y-73035500D01*
X131044226Y-73015815D01*
X130998471Y-72963011D01*
X130988527Y-72893853D01*
X130996705Y-72864044D01*
X130996708Y-72864035D01*
X130996712Y-72864029D01*
X131034500Y-72723001D01*
X131034500Y-72576999D01*
X130996712Y-72435971D01*
X130951021Y-72356832D01*
X130923713Y-72309532D01*
X130923709Y-72309527D01*
X130833330Y-72219148D01*
X130799845Y-72157825D01*
X130804829Y-72088133D01*
X130846701Y-72032200D01*
X130873571Y-72016901D01*
X130874019Y-72016714D01*
X130874029Y-72016712D01*
X131000471Y-71943711D01*
X131103711Y-71840471D01*
X131176712Y-71714029D01*
X131214500Y-71573001D01*
X131214500Y-71426999D01*
X131176712Y-71285971D01*
X131120831Y-71189181D01*
X131103713Y-71159532D01*
X131103709Y-71159527D01*
X131080362Y-71136180D01*
X131046877Y-71074857D01*
X131051861Y-71005165D01*
X131093733Y-70949232D01*
X131159197Y-70924815D01*
X131168029Y-70924499D01*
X131481798Y-70924499D01*
X131548837Y-70944184D01*
G37*
%TD.AperFunction*%
%TA.AperFunction,Conductor*%
G36*
X121332937Y-69228120D02*
G01*
X121363072Y-69230276D01*
X121368008Y-69233448D01*
X121372147Y-69234077D01*
X121401685Y-69253394D01*
X121404639Y-69255995D01*
X121432684Y-69284040D01*
X121441715Y-69288641D01*
X121453445Y-69298970D01*
X121490751Y-69358046D01*
X121495500Y-69392034D01*
X121495500Y-73104898D01*
X121475815Y-73171937D01*
X121423011Y-73217692D01*
X121353853Y-73227636D01*
X121290297Y-73198611D01*
X121283819Y-73192579D01*
X121040819Y-72949579D01*
X121007334Y-72888256D01*
X121004500Y-72861898D01*
X121004500Y-69460155D01*
X121024185Y-69393116D01*
X121076989Y-69347361D01*
X121090189Y-69342222D01*
X121096860Y-69340054D01*
X121096862Y-69340054D01*
X121206796Y-69284040D01*
X121232059Y-69258776D01*
X121236508Y-69256346D01*
X121239285Y-69252102D01*
X121266861Y-69239772D01*
X121293380Y-69225292D01*
X121298440Y-69225653D01*
X121303070Y-69223584D01*
X121332937Y-69228120D01*
G37*
%TD.AperFunction*%
%TA.AperFunction,Conductor*%
G36*
X124241909Y-69419096D02*
G01*
X124286258Y-69447597D01*
X126722480Y-71883819D01*
X126755965Y-71945142D01*
X126750981Y-72014834D01*
X126709109Y-72070767D01*
X126643645Y-72095184D01*
X126634799Y-72095500D01*
X126576999Y-72095500D01*
X126435971Y-72133288D01*
X126435968Y-72133289D01*
X126309532Y-72206286D01*
X126309527Y-72206290D01*
X126284181Y-72231637D01*
X126222858Y-72265122D01*
X126153166Y-72260138D01*
X126097233Y-72218266D01*
X126072816Y-72152802D01*
X126072500Y-72143956D01*
X126072500Y-72079672D01*
X126072499Y-72079655D01*
X126066098Y-72020127D01*
X126066096Y-72020120D01*
X126015854Y-71885413D01*
X126015850Y-71885406D01*
X125929690Y-71770312D01*
X125929687Y-71770309D01*
X125814593Y-71684149D01*
X125814586Y-71684145D01*
X125679879Y-71633903D01*
X125679872Y-71633901D01*
X125620344Y-71627500D01*
X125222500Y-71627500D01*
X125222500Y-72503500D01*
X125202815Y-72570539D01*
X125150011Y-72616294D01*
X125098500Y-72627500D01*
X124846500Y-72627500D01*
X124779461Y-72607815D01*
X124733706Y-72555011D01*
X124722500Y-72503500D01*
X124722500Y-71627500D01*
X124324655Y-71627500D01*
X124265127Y-71633901D01*
X124265120Y-71633903D01*
X124130413Y-71684145D01*
X124130406Y-71684149D01*
X124015312Y-71770309D01*
X124015309Y-71770312D01*
X123929149Y-71885406D01*
X123929145Y-71885413D01*
X123878903Y-72020120D01*
X123878901Y-72020127D01*
X123872500Y-72079655D01*
X123872500Y-72276799D01*
X123852815Y-72343838D01*
X123800011Y-72389593D01*
X123730853Y-72399537D01*
X123667297Y-72370512D01*
X123660819Y-72364480D01*
X123300299Y-72003960D01*
X123266814Y-71942637D01*
X123263980Y-71916279D01*
X123263980Y-69639283D01*
X123283665Y-69572244D01*
X123336469Y-69526489D01*
X123405627Y-69516545D01*
X123449979Y-69531895D01*
X123510283Y-69566712D01*
X123651311Y-69604500D01*
X123651313Y-69604500D01*
X123797311Y-69604500D01*
X123797313Y-69604500D01*
X123938341Y-69566712D01*
X124064783Y-69493711D01*
X124110897Y-69447596D01*
X124172218Y-69414112D01*
X124241909Y-69419096D01*
G37*
%TD.AperFunction*%
%TA.AperFunction,Conductor*%
G36*
X129899862Y-69126831D02*
G01*
X129944211Y-69155332D01*
X129982242Y-69193363D01*
X130015727Y-69254686D01*
X130018561Y-69281044D01*
X130018561Y-69658737D01*
X129998876Y-69725776D01*
X129982242Y-69746418D01*
X128234830Y-71493829D01*
X128179245Y-71525922D01*
X128151759Y-71533287D01*
X128151754Y-71533289D01*
X128025319Y-71606286D01*
X128025314Y-71606290D01*
X127922077Y-71709527D01*
X127922073Y-71709532D01*
X127867004Y-71804916D01*
X127816437Y-71853132D01*
X127747830Y-71866355D01*
X127682965Y-71840387D01*
X127671936Y-71830597D01*
X127047520Y-71206181D01*
X127014035Y-71144858D01*
X127019019Y-71075166D01*
X127060891Y-71019233D01*
X127126355Y-70994816D01*
X127135201Y-70994500D01*
X127152999Y-70994500D01*
X127153001Y-70994500D01*
X127294029Y-70956712D01*
X127420471Y-70883711D01*
X127523711Y-70780471D01*
X127596712Y-70654029D01*
X127634500Y-70513001D01*
X127634500Y-70366999D01*
X127607227Y-70265214D01*
X127608890Y-70195367D01*
X127648052Y-70137504D01*
X127665003Y-70125736D01*
X127720464Y-70093715D01*
X127720463Y-70093715D01*
X127720471Y-70093711D01*
X127823711Y-69990471D01*
X127896712Y-69864029D01*
X127934500Y-69723001D01*
X127934500Y-69722992D01*
X127935561Y-69714941D01*
X127939103Y-69715407D01*
X127954185Y-69664045D01*
X128006989Y-69618290D01*
X128076147Y-69608346D01*
X128090586Y-69611307D01*
X128206999Y-69642500D01*
X128207001Y-69642500D01*
X128352999Y-69642500D01*
X128353001Y-69642500D01*
X128494029Y-69604712D01*
X128620471Y-69531711D01*
X128723711Y-69428471D01*
X128796712Y-69302029D01*
X128817441Y-69224664D01*
X128853804Y-69165006D01*
X128916651Y-69134476D01*
X128986026Y-69142770D01*
X129024896Y-69169078D01*
X129049529Y-69193711D01*
X129049530Y-69193712D01*
X129049532Y-69193713D01*
X129071396Y-69206336D01*
X129175971Y-69266712D01*
X129316999Y-69304500D01*
X129317001Y-69304500D01*
X129462999Y-69304500D01*
X129463001Y-69304500D01*
X129604029Y-69266712D01*
X129730471Y-69193711D01*
X129768850Y-69155331D01*
X129830171Y-69121847D01*
X129899862Y-69126831D01*
G37*
%TD.AperFunction*%
%TA.AperFunction,Conductor*%
G36*
X139591554Y-63161901D02*
G01*
X139612196Y-63178535D01*
X139909181Y-63475520D01*
X139942666Y-63536843D01*
X139945500Y-63563201D01*
X139945500Y-64175063D01*
X139960266Y-64249301D01*
X140016515Y-64333484D01*
X140040716Y-64349654D01*
X140100699Y-64389734D01*
X140100702Y-64389734D01*
X140100703Y-64389735D01*
X140123020Y-64394174D01*
X140174933Y-64404500D01*
X141225066Y-64404499D01*
X141299301Y-64389734D01*
X141383484Y-64333484D01*
X141439734Y-64249301D01*
X141439735Y-64249294D01*
X141444409Y-64238015D01*
X141445421Y-64238434D01*
X141472116Y-64187399D01*
X141532832Y-64152824D01*
X141561350Y-64149500D01*
X145838650Y-64149500D01*
X145905689Y-64169185D01*
X145951444Y-64221989D01*
X145960260Y-64249286D01*
X145960266Y-64249301D01*
X146016515Y-64333484D01*
X146040716Y-64349654D01*
X146100699Y-64389734D01*
X146100702Y-64389734D01*
X146100703Y-64389735D01*
X146123020Y-64394174D01*
X146174933Y-64404500D01*
X147021500Y-64404499D01*
X147088539Y-64424183D01*
X147134294Y-64476987D01*
X147145500Y-64528499D01*
X147145500Y-65874851D01*
X147125815Y-65941890D01*
X147073011Y-65987645D01*
X147045691Y-65996468D01*
X146875838Y-66030254D01*
X146875830Y-66030256D01*
X146692298Y-66106277D01*
X146692289Y-66106282D01*
X146527119Y-66216646D01*
X146527115Y-66216649D01*
X146386649Y-66357115D01*
X146386646Y-66357119D01*
X146276282Y-66522289D01*
X146276277Y-66522298D01*
X146200256Y-66705830D01*
X146200254Y-66705838D01*
X146161500Y-66900666D01*
X146161500Y-67099333D01*
X146200254Y-67294161D01*
X146200256Y-67294169D01*
X146276277Y-67477701D01*
X146276282Y-67477710D01*
X146386646Y-67642880D01*
X146386649Y-67642884D01*
X146527115Y-67783350D01*
X146527119Y-67783353D01*
X146692289Y-67893717D01*
X146692298Y-67893722D01*
X146733874Y-67910943D01*
X146875831Y-67969744D01*
X146875835Y-67969744D01*
X146875836Y-67969745D01*
X146876528Y-67969883D01*
X146876856Y-67970054D01*
X146881663Y-67971513D01*
X146881386Y-67972424D01*
X146938439Y-68002268D01*
X146973013Y-68062984D01*
X146969272Y-68132754D01*
X146928406Y-68189426D01*
X146863387Y-68215007D01*
X146852336Y-68215500D01*
X139482340Y-68215500D01*
X139415301Y-68195815D01*
X139369546Y-68143011D01*
X139359602Y-68073853D01*
X139388627Y-68010297D01*
X139447405Y-67972523D01*
X139450217Y-67971733D01*
X139454029Y-67970712D01*
X139580471Y-67897711D01*
X139683711Y-67794471D01*
X139756712Y-67668029D01*
X139794500Y-67527001D01*
X139794500Y-67380999D01*
X139756712Y-67239971D01*
X139699294Y-67140520D01*
X139683713Y-67113532D01*
X139683709Y-67113527D01*
X139580472Y-67010290D01*
X139580467Y-67010286D01*
X139454031Y-66937289D01*
X139454030Y-66937288D01*
X139454029Y-66937288D01*
X139313001Y-66899500D01*
X139166999Y-66899500D01*
X139025971Y-66937288D01*
X139025968Y-66937289D01*
X138899532Y-67010286D01*
X138899527Y-67010290D01*
X138796290Y-67113527D01*
X138796286Y-67113532D01*
X138723289Y-67239968D01*
X138723288Y-67239971D01*
X138685500Y-67380999D01*
X138685500Y-67527001D01*
X138720398Y-67657241D01*
X138723288Y-67668028D01*
X138723289Y-67668031D01*
X138796286Y-67794467D01*
X138796288Y-67794470D01*
X138796289Y-67794471D01*
X138899529Y-67897711D01*
X138899530Y-67897712D01*
X138899532Y-67897713D01*
X138962200Y-67933894D01*
X139025971Y-67970712D01*
X139029754Y-67971725D01*
X139032584Y-67973450D01*
X139033478Y-67973821D01*
X139033420Y-67973960D01*
X139089414Y-68008090D01*
X139119943Y-68070937D01*
X139111648Y-68140312D01*
X139067163Y-68194190D01*
X139000611Y-68215465D01*
X138997660Y-68215500D01*
X135283834Y-68215500D01*
X135216795Y-68195815D01*
X135171040Y-68143011D01*
X135160216Y-68081772D01*
X135162988Y-68046541D01*
X134599408Y-67482962D01*
X134662993Y-67465925D01*
X134777007Y-67400099D01*
X134870099Y-67307007D01*
X134935925Y-67192993D01*
X134952962Y-67129409D01*
X135516541Y-67692988D01*
X135516543Y-67692988D01*
X135542516Y-67657241D01*
X135632126Y-67481373D01*
X135693123Y-67293646D01*
X135724000Y-67098697D01*
X135724000Y-66901302D01*
X135693123Y-66706353D01*
X135632126Y-66518626D01*
X135542520Y-66342768D01*
X135542512Y-66342755D01*
X135516542Y-66307010D01*
X135516541Y-66307009D01*
X134952962Y-66870589D01*
X134935925Y-66807007D01*
X134870099Y-66692993D01*
X134777007Y-66599901D01*
X134662993Y-66534075D01*
X134599409Y-66517037D01*
X135139447Y-65976999D01*
X144125500Y-65976999D01*
X144125500Y-66123001D01*
X144156305Y-66237965D01*
X144163288Y-66264028D01*
X144163289Y-66264031D01*
X144236286Y-66390467D01*
X144236288Y-66390470D01*
X144236289Y-66390471D01*
X144339529Y-66493711D01*
X144465971Y-66566712D01*
X144606999Y-66604500D01*
X144607001Y-66604500D01*
X144752999Y-66604500D01*
X144753001Y-66604500D01*
X144894029Y-66566712D01*
X145020471Y-66493711D01*
X145123711Y-66390471D01*
X145196712Y-66264029D01*
X145234500Y-66123001D01*
X145234500Y-65976999D01*
X145196712Y-65835971D01*
X145160211Y-65772750D01*
X145123713Y-65709532D01*
X145123709Y-65709527D01*
X145020472Y-65606290D01*
X145020467Y-65606286D01*
X144894031Y-65533289D01*
X144894030Y-65533288D01*
X144894029Y-65533288D01*
X144753001Y-65495500D01*
X144606999Y-65495500D01*
X144465971Y-65533288D01*
X144465968Y-65533289D01*
X144339532Y-65606286D01*
X144339527Y-65606290D01*
X144236290Y-65709527D01*
X144236286Y-65709532D01*
X144163289Y-65835968D01*
X144163288Y-65835971D01*
X144125500Y-65976999D01*
X135139447Y-65976999D01*
X135162989Y-65953457D01*
X135127239Y-65927483D01*
X134951373Y-65837873D01*
X134763646Y-65776876D01*
X134568697Y-65746000D01*
X134371303Y-65746000D01*
X134176353Y-65776876D01*
X133988626Y-65837873D01*
X133812762Y-65927482D01*
X133812760Y-65927483D01*
X133777010Y-65953456D01*
X133777010Y-65953457D01*
X134340591Y-66517037D01*
X134277007Y-66534075D01*
X134162993Y-66599901D01*
X134069901Y-66692993D01*
X134004075Y-66807007D01*
X133987037Y-66870591D01*
X133423457Y-66307010D01*
X133423456Y-66307010D01*
X133397483Y-66342760D01*
X133397482Y-66342762D01*
X133307873Y-66518626D01*
X133246876Y-66706353D01*
X133216000Y-66901302D01*
X133216000Y-67033167D01*
X133196315Y-67100206D01*
X133143511Y-67145961D01*
X133074353Y-67155905D01*
X133010797Y-67126880D01*
X133004319Y-67120848D01*
X132516365Y-66632894D01*
X132489485Y-66592665D01*
X132486712Y-66585972D01*
X132486712Y-66585971D01*
X132413711Y-66459529D01*
X132310471Y-66356289D01*
X132310470Y-66356288D01*
X132310467Y-66356286D01*
X132184031Y-66283289D01*
X132184030Y-66283288D01*
X132184029Y-66283288D01*
X132043001Y-66245500D01*
X131896999Y-66245500D01*
X131755971Y-66283288D01*
X131755968Y-66283289D01*
X131629532Y-66356286D01*
X131629527Y-66356290D01*
X131526290Y-66459527D01*
X131526286Y-66459532D01*
X131453289Y-66585968D01*
X131453288Y-66585971D01*
X131415500Y-66726999D01*
X131415500Y-66873001D01*
X131449530Y-67000001D01*
X131453288Y-67014028D01*
X131453289Y-67014031D01*
X131526286Y-67140467D01*
X131526288Y-67140470D01*
X131526289Y-67140471D01*
X131629529Y-67243711D01*
X131755971Y-67316712D01*
X131755973Y-67316712D01*
X131762665Y-67319485D01*
X131802894Y-67346365D01*
X133580230Y-69123701D01*
X133653162Y-69165808D01*
X133684867Y-69184113D01*
X133733083Y-69234680D01*
X133746305Y-69303287D01*
X133720337Y-69368152D01*
X133663423Y-69408680D01*
X133622867Y-69415500D01*
X132804936Y-69415500D01*
X132730698Y-69430266D01*
X132646515Y-69486515D01*
X132590266Y-69570699D01*
X132590264Y-69570703D01*
X132575500Y-69644928D01*
X132575500Y-70664799D01*
X132555815Y-70731838D01*
X132503011Y-70777593D01*
X132433853Y-70787537D01*
X132370297Y-70758512D01*
X132363819Y-70752480D01*
X132070818Y-70459479D01*
X132037333Y-70398156D01*
X132034499Y-70371798D01*
X132034499Y-69644936D01*
X132034499Y-69644934D01*
X132019734Y-69570699D01*
X131993683Y-69531711D01*
X131963484Y-69486515D01*
X131905238Y-69447597D01*
X131879301Y-69430266D01*
X131879299Y-69430265D01*
X131879296Y-69430264D01*
X131805071Y-69415500D01*
X130851561Y-69415500D01*
X130842875Y-69412949D01*
X130833914Y-69414238D01*
X130809873Y-69403259D01*
X130784522Y-69395815D01*
X130778594Y-69388974D01*
X130770358Y-69385213D01*
X130756068Y-69362978D01*
X130738767Y-69343011D01*
X130736479Y-69332496D01*
X130732584Y-69326435D01*
X130727561Y-69291500D01*
X130727561Y-69281044D01*
X130747246Y-69214005D01*
X130763880Y-69193363D01*
X130788165Y-69169078D01*
X130816772Y-69140471D01*
X130889773Y-69014029D01*
X130927561Y-68873001D01*
X130927561Y-68726999D01*
X130889773Y-68585971D01*
X130850158Y-68517355D01*
X130816774Y-68459532D01*
X130816770Y-68459527D01*
X130713533Y-68356290D01*
X130713528Y-68356286D01*
X130587092Y-68283289D01*
X130587091Y-68283288D01*
X130587090Y-68283288D01*
X130446062Y-68245500D01*
X130300060Y-68245500D01*
X130159032Y-68283288D01*
X130159029Y-68283289D01*
X130032593Y-68356286D01*
X130032588Y-68356290D01*
X129994210Y-68394668D01*
X129986264Y-68399006D01*
X129980840Y-68406253D01*
X129956083Y-68415486D01*
X129932887Y-68428153D01*
X129923856Y-68427506D01*
X129915376Y-68430670D01*
X129889554Y-68425052D01*
X129863195Y-68423167D01*
X129854142Y-68417349D01*
X129847103Y-68415818D01*
X129818849Y-68394667D01*
X129780819Y-68356637D01*
X129747334Y-68295314D01*
X129744500Y-68268956D01*
X129744500Y-68027607D01*
X129764185Y-67960568D01*
X129816989Y-67914813D01*
X129821009Y-67913062D01*
X129867704Y-67893721D01*
X130032881Y-67783353D01*
X130173353Y-67642881D01*
X130283721Y-67477704D01*
X130359744Y-67294169D01*
X130398500Y-67099329D01*
X130398500Y-66900671D01*
X130359744Y-66705831D01*
X130285248Y-66525983D01*
X130283722Y-66522298D01*
X130283717Y-66522289D01*
X130173353Y-66357119D01*
X130173350Y-66357115D01*
X130032884Y-66216649D01*
X130032880Y-66216646D01*
X129868415Y-66106753D01*
X129868405Y-66106747D01*
X129867704Y-66106279D01*
X129867106Y-66106031D01*
X129862125Y-66103285D01*
X129838065Y-66079026D01*
X129813705Y-66055098D01*
X129813518Y-66054275D01*
X129812924Y-66053676D01*
X129805801Y-66020269D01*
X129798243Y-65986961D01*
X129798530Y-65986167D01*
X129798355Y-65985343D01*
X129810414Y-65953412D01*
X129822072Y-65921280D01*
X129822925Y-65920286D01*
X129823041Y-65919980D01*
X129823447Y-65919678D01*
X129834313Y-65907025D01*
X131519268Y-64222070D01*
X131580589Y-64188587D01*
X131650281Y-64193571D01*
X131706214Y-64235443D01*
X131717115Y-64254585D01*
X131776515Y-64343484D01*
X131787502Y-64350825D01*
X131860699Y-64399734D01*
X131860702Y-64399734D01*
X131860703Y-64399735D01*
X131884654Y-64404499D01*
X131934933Y-64414500D01*
X132985066Y-64414499D01*
X133059301Y-64399734D01*
X133143484Y-64343484D01*
X133199734Y-64259301D01*
X133203710Y-64239308D01*
X133236095Y-64177399D01*
X133296810Y-64142824D01*
X133325328Y-64139500D01*
X137594672Y-64139500D01*
X137661711Y-64159185D01*
X137707466Y-64211989D01*
X137716289Y-64239309D01*
X137720264Y-64259297D01*
X137720266Y-64259301D01*
X137776515Y-64343484D01*
X137787502Y-64350825D01*
X137860699Y-64399734D01*
X137860702Y-64399734D01*
X137860703Y-64399735D01*
X137884654Y-64404499D01*
X137934933Y-64414500D01*
X138985066Y-64414499D01*
X139059301Y-64399734D01*
X139143484Y-64343484D01*
X139199734Y-64259301D01*
X139214500Y-64185067D01*
X139214499Y-63384934D01*
X139199734Y-63310699D01*
X139199733Y-63310697D01*
X139197351Y-63298721D01*
X139199314Y-63298330D01*
X139197456Y-63281044D01*
X139192787Y-63248569D01*
X139193741Y-63246479D01*
X139193496Y-63244197D01*
X139208178Y-63214866D01*
X139221812Y-63185013D01*
X139223744Y-63183771D01*
X139224772Y-63181718D01*
X139252992Y-63164974D01*
X139280590Y-63147239D01*
X139283619Y-63146803D01*
X139284861Y-63146067D01*
X139315525Y-63142216D01*
X139524515Y-63142216D01*
X139591554Y-63161901D01*
G37*
%TD.AperFunction*%
%TD*%
M02*
