%TF.GenerationSoftware,KiCad,Pcbnew,10.0.1*%
%TF.CreationDate,2026-06-14T11:07:34+02:00*%
%TF.ProjectId,Aero-Zero,4165726f-2d5a-4657-926f-2e6b69636164,rev?*%
%TF.SameCoordinates,Original*%
%TF.FileFunction,Paste,Top*%
%TF.FilePolarity,Positive*%
%FSLAX46Y46*%
G04 Gerber Fmt 4.6, Leading zero omitted, Abs format (unit mm)*
G04 Created by KiCad (PCBNEW 10.0.1) date 2026-06-14 11:07:34*
%MOMM*%
%LPD*%
G01*
G04 APERTURE LIST*
G04 Aperture macros list*
%AMRoundRect*
0 Rectangle with rounded corners*
0 $1 Rounding radius*
0 $2 $3 $4 $5 $6 $7 $8 $9 X,Y pos of 4 corners*
0 Add a 4 corners polygon primitive as box body*
4,1,4,$2,$3,$4,$5,$6,$7,$8,$9,$2,$3,0*
0 Add four circle primitives for the rounded corners*
1,1,$1+$1,$2,$3*
1,1,$1+$1,$4,$5*
1,1,$1+$1,$6,$7*
1,1,$1+$1,$8,$9*
0 Add four rect primitives between the rounded corners*
20,1,$1+$1,$2,$3,$4,$5,0*
20,1,$1+$1,$4,$5,$6,$7,0*
20,1,$1+$1,$6,$7,$8,$9,0*
20,1,$1+$1,$8,$9,$2,$3,0*%
G04 Aperture macros list end*
%ADD10RoundRect,0.140000X0.170000X-0.140000X0.170000X0.140000X-0.170000X0.140000X-0.170000X-0.140000X0*%
%ADD11RoundRect,0.140000X-0.170000X0.140000X-0.170000X-0.140000X0.170000X-0.140000X0.170000X0.140000X0*%
%ADD12RoundRect,0.140000X0.140000X0.170000X-0.140000X0.170000X-0.140000X-0.170000X0.140000X-0.170000X0*%
%ADD13RoundRect,0.150000X-0.150000X0.512500X-0.150000X-0.512500X0.150000X-0.512500X0.150000X0.512500X0*%
%ADD14RoundRect,0.250000X0.250000X0.475000X-0.250000X0.475000X-0.250000X-0.475000X0.250000X-0.475000X0*%
%ADD15R,1.545000X0.997000*%
%ADD16RoundRect,0.140000X-0.140000X-0.170000X0.140000X-0.170000X0.140000X0.170000X-0.140000X0.170000X0*%
%ADD17RoundRect,0.140000X0.021213X-0.219203X0.219203X-0.021213X-0.021213X0.219203X-0.219203X0.021213X0*%
%ADD18R,0.500000X0.350000*%
%ADD19RoundRect,0.225000X0.250000X-0.225000X0.250000X0.225000X-0.250000X0.225000X-0.250000X-0.225000X0*%
%ADD20RoundRect,0.135000X-0.135000X-0.185000X0.135000X-0.185000X0.135000X0.185000X-0.135000X0.185000X0*%
%ADD21RoundRect,0.250000X0.950000X-0.750000X0.950000X0.750000X-0.950000X0.750000X-0.950000X-0.750000X0*%
%ADD22RoundRect,0.250000X-0.475000X0.250000X-0.475000X-0.250000X0.475000X-0.250000X0.475000X0.250000X0*%
%ADD23RoundRect,0.150000X-0.700000X0.150000X-0.700000X-0.150000X0.700000X-0.150000X0.700000X0.150000X0*%
%ADD24RoundRect,0.250000X-1.100000X0.250000X-1.100000X-0.250000X1.100000X-0.250000X1.100000X0.250000X0*%
%ADD25RoundRect,0.150000X0.150000X-0.512500X0.150000X0.512500X-0.150000X0.512500X-0.150000X-0.512500X0*%
%ADD26R,2.474000X5.020000*%
%ADD27RoundRect,0.135000X0.226274X0.035355X0.035355X0.226274X-0.226274X-0.035355X-0.035355X-0.226274X0*%
%ADD28RoundRect,0.135000X0.185000X-0.135000X0.185000X0.135000X-0.185000X0.135000X-0.185000X-0.135000X0*%
%ADD29RoundRect,0.150000X0.512500X0.150000X-0.512500X0.150000X-0.512500X-0.150000X0.512500X-0.150000X0*%
%ADD30R,0.280000X0.675000*%
%ADD31R,0.675000X0.280000*%
%ADD32RoundRect,0.150000X0.150000X0.625000X-0.150000X0.625000X-0.150000X-0.625000X0.150000X-0.625000X0*%
%ADD33RoundRect,0.250000X0.350000X0.650000X-0.350000X0.650000X-0.350000X-0.650000X0.350000X-0.650000X0*%
%ADD34RoundRect,0.150000X-0.625000X0.150000X-0.625000X-0.150000X0.625000X-0.150000X0.625000X0.150000X0*%
%ADD35RoundRect,0.250000X-0.650000X0.350000X-0.650000X-0.350000X0.650000X-0.350000X0.650000X0.350000X0*%
%ADD36RoundRect,0.135000X-0.185000X0.135000X-0.185000X-0.135000X0.185000X-0.135000X0.185000X0.135000X0*%
%ADD37RoundRect,0.140000X-0.219203X-0.021213X-0.021213X-0.219203X0.219203X0.021213X0.021213X0.219203X0*%
%ADD38RoundRect,0.150000X-0.150000X-0.500000X0.150000X-0.500000X0.150000X0.500000X-0.150000X0.500000X0*%
%ADD39RoundRect,0.075000X-0.075000X-0.575000X0.075000X-0.575000X0.075000X0.575000X-0.075000X0.575000X0*%
%ADD40RoundRect,0.250000X-0.512652X-0.159099X-0.159099X-0.512652X0.512652X0.159099X0.159099X0.512652X0*%
%ADD41RoundRect,0.225000X0.225000X0.250000X-0.225000X0.250000X-0.225000X-0.250000X0.225000X-0.250000X0*%
%ADD42RoundRect,0.225000X-0.250000X0.225000X-0.250000X-0.225000X0.250000X-0.225000X0.250000X0.225000X0*%
%ADD43RoundRect,0.250000X-0.650000X1.000000X-0.650000X-1.000000X0.650000X-1.000000X0.650000X1.000000X0*%
%ADD44RoundRect,0.135000X0.135000X0.185000X-0.135000X0.185000X-0.135000X-0.185000X0.135000X-0.185000X0*%
%ADD45RoundRect,0.250000X-1.000000X-0.650000X1.000000X-0.650000X1.000000X0.650000X-1.000000X0.650000X0*%
%ADD46RoundRect,0.100000X0.100000X0.155000X-0.100000X0.155000X-0.100000X-0.155000X0.100000X-0.155000X0*%
%ADD47RoundRect,0.062500X0.287500X0.062500X-0.287500X0.062500X-0.287500X-0.062500X0.287500X-0.062500X0*%
%ADD48RoundRect,0.200000X0.200000X0.275000X-0.200000X0.275000X-0.200000X-0.275000X0.200000X-0.275000X0*%
%ADD49RoundRect,0.075000X-0.700000X-0.075000X0.700000X-0.075000X0.700000X0.075000X-0.700000X0.075000X0*%
%ADD50RoundRect,0.075000X-0.075000X-0.700000X0.075000X-0.700000X0.075000X0.700000X-0.075000X0.700000X0*%
G04 APERTURE END LIST*
D10*
%TO.C,C24*%
X139642500Y-71660000D03*
X139642500Y-70700000D03*
%TD*%
D11*
%TO.C,C15*%
X165560000Y-75660000D03*
X165560000Y-76620000D03*
%TD*%
D12*
%TO.C,C6*%
X119905000Y-76212500D03*
X118945000Y-76212500D03*
%TD*%
D13*
%TO.C,U5*%
X142660000Y-84377500D03*
X141710000Y-84377500D03*
X140760000Y-84377500D03*
X140760000Y-86652500D03*
X141710000Y-86652500D03*
X142660000Y-86652500D03*
%TD*%
D14*
%TO.C,C36*%
X157260000Y-72580000D03*
X155360000Y-72580000D03*
%TD*%
D15*
%TO.C,LED1*%
X131852500Y-92180000D03*
X131852500Y-93960000D03*
X135127500Y-93960000D03*
X135127500Y-92180000D03*
%TD*%
D11*
%TO.C,C7*%
X146850000Y-70740000D03*
X146850000Y-71700000D03*
%TD*%
D16*
%TO.C,C38*%
X143980000Y-75000000D03*
X144940000Y-75000000D03*
%TD*%
D17*
%TO.C,C65*%
X149080000Y-66890000D03*
X149758822Y-66211178D03*
%TD*%
D11*
%TO.C,C51*%
X142830000Y-72960000D03*
X142830000Y-73920000D03*
%TD*%
D18*
%TO.C,U7*%
X122070000Y-73300000D03*
X122070000Y-72650000D03*
X122070000Y-72000000D03*
X122070000Y-71350000D03*
X123520000Y-71350000D03*
X123520000Y-72000000D03*
X123520000Y-72650000D03*
X123520000Y-73300000D03*
%TD*%
D19*
%TO.C,C4*%
X137560000Y-76415000D03*
X137560000Y-74865000D03*
%TD*%
D14*
%TO.C,C34*%
X157260000Y-74620000D03*
X155360000Y-74620000D03*
%TD*%
D20*
%TO.C,R14*%
X138480000Y-86130000D03*
X139500000Y-86130000D03*
%TD*%
D10*
%TO.C,C46*%
X123380000Y-77580000D03*
X123380000Y-76620000D03*
%TD*%
D21*
%TO.C,Y2*%
X119910000Y-81630000D03*
X119910000Y-77930000D03*
%TD*%
D12*
%TO.C,C57*%
X167265000Y-80420000D03*
X166305000Y-80420000D03*
%TD*%
D22*
%TO.C,C23*%
X137810000Y-69760000D03*
X137810000Y-71660000D03*
%TD*%
D23*
%TO.C,J13*%
X113670000Y-80220000D03*
X113670000Y-81470000D03*
X113670000Y-82720000D03*
X113670000Y-83970000D03*
D24*
X110470000Y-78370000D03*
X110470000Y-85820000D03*
%TD*%
D11*
%TO.C,C14*%
X160280000Y-72650000D03*
X160280000Y-73610000D03*
%TD*%
%TO.C,C47*%
X135790000Y-87090000D03*
X135790000Y-88050000D03*
%TD*%
D25*
%TO.C,U4*%
X161507500Y-74737500D03*
X162457500Y-74737500D03*
X163407500Y-74737500D03*
X163407500Y-72462500D03*
X162457500Y-72462500D03*
X161507500Y-72462500D03*
%TD*%
D11*
%TO.C,C21*%
X141790000Y-72960000D03*
X141790000Y-73920000D03*
%TD*%
D26*
%TO.C,L1*%
X162453000Y-79280000D03*
X157247000Y-79280000D03*
%TD*%
D27*
%TO.C,R7*%
X126970624Y-71830624D03*
X126249376Y-71109376D03*
%TD*%
D12*
%TO.C,C49*%
X136310000Y-75570000D03*
X135350000Y-75570000D03*
%TD*%
D28*
%TO.C,R62*%
X165390000Y-82080000D03*
X165390000Y-81060000D03*
%TD*%
D29*
%TO.C,U10*%
X144350000Y-71660000D03*
X144350000Y-70710000D03*
X144350000Y-69760000D03*
X142075000Y-69760000D03*
X142075000Y-71660000D03*
%TD*%
D11*
%TO.C,C9*%
X147580000Y-72960000D03*
X147580000Y-73920000D03*
%TD*%
D30*
%TO.C,U6*%
X140069900Y-78492000D03*
X140570100Y-78492000D03*
X141069900Y-78492000D03*
X141570100Y-78492000D03*
D31*
X141832400Y-77730000D03*
X141832400Y-77230100D03*
X141832400Y-76730000D03*
D30*
X141570100Y-75968000D03*
X141069900Y-75968000D03*
X140570100Y-75968000D03*
X140069900Y-75968000D03*
D31*
X139807600Y-76730000D03*
X139807600Y-77230100D03*
X139807600Y-77730000D03*
%TD*%
D32*
%TO.C,J8*%
X141240000Y-64830000D03*
X140240000Y-64830000D03*
X139240000Y-64830000D03*
D33*
X142540000Y-60955000D03*
X137940000Y-60955000D03*
%TD*%
D34*
%TO.C,J11*%
X113870000Y-69810000D03*
X113870000Y-70810000D03*
X113870000Y-71810000D03*
X113870000Y-72810000D03*
X113870000Y-73810000D03*
X113870000Y-74810000D03*
D35*
X109995000Y-68510000D03*
X109995000Y-76110000D03*
%TD*%
D36*
%TO.C,R17*%
X143960000Y-85795000D03*
X143960000Y-86815000D03*
%TD*%
D11*
%TO.C,C55*%
X124545000Y-73295000D03*
X124545000Y-74255000D03*
%TD*%
D37*
%TO.C,C16*%
X161031178Y-67021178D03*
X161710000Y-67700000D03*
%TD*%
D38*
%TO.C,J9*%
X138510000Y-88950000D03*
X139310000Y-88950000D03*
D39*
X140460000Y-88950000D03*
X141460000Y-88950000D03*
X141960000Y-88950000D03*
X142960000Y-88950000D03*
D38*
X144110000Y-88950000D03*
X144910000Y-88950000D03*
X144910000Y-88950000D03*
X144110000Y-88950000D03*
D39*
X143460000Y-88950000D03*
X142460000Y-88950000D03*
X140960000Y-88950000D03*
X139960000Y-88950000D03*
D38*
X139310000Y-88950000D03*
X138510000Y-88950000D03*
%TD*%
D16*
%TO.C,C63*%
X153510000Y-88510000D03*
X154470000Y-88510000D03*
%TD*%
D40*
%TO.C,C22*%
X159336498Y-67366498D03*
X160680000Y-68710000D03*
%TD*%
D20*
%TO.C,R1*%
X127730000Y-73280000D03*
X128750000Y-73280000D03*
%TD*%
D41*
%TO.C,C3*%
X134775000Y-89370000D03*
X133225000Y-89370000D03*
%TD*%
D10*
%TO.C,C64*%
X130810000Y-61480000D03*
X130810000Y-60520000D03*
%TD*%
D11*
%TO.C,C62*%
X130244758Y-92183170D03*
X130244758Y-93143170D03*
%TD*%
D42*
%TO.C,C33*%
X165960000Y-70845000D03*
X165960000Y-72395000D03*
%TD*%
D43*
%TO.C,D1*%
X169820000Y-75932500D03*
X169820000Y-79932500D03*
%TD*%
D15*
%TO.C,LED4*%
X132487092Y-61473000D03*
X132487092Y-63253000D03*
X135762092Y-63253000D03*
X135762092Y-61473000D03*
%TD*%
D10*
%TO.C,C56*%
X124555000Y-72005000D03*
X124555000Y-71045000D03*
%TD*%
D12*
%TO.C,C58*%
X143800000Y-77730000D03*
X142840000Y-77730000D03*
%TD*%
D28*
%TO.C,R55*%
X121050000Y-72000000D03*
X121050000Y-70980000D03*
%TD*%
D10*
%TO.C,C48*%
X125990000Y-75630000D03*
X125990000Y-74670000D03*
%TD*%
D15*
%TO.C,LED3*%
X147947500Y-63303817D03*
X147947500Y-61523817D03*
X144672500Y-61523817D03*
X144672500Y-63303817D03*
%TD*%
D37*
%TO.C,C53*%
X146940000Y-80840000D03*
X147618822Y-81518822D03*
%TD*%
D44*
%TO.C,R29*%
X138780000Y-81540000D03*
X137760000Y-81540000D03*
%TD*%
D12*
%TO.C,C54*%
X123440000Y-80960000D03*
X122480000Y-80960000D03*
%TD*%
D37*
%TO.C,C8*%
X147670589Y-80100589D03*
X148349411Y-80779411D03*
%TD*%
D11*
%TO.C,C41*%
X123395000Y-83580000D03*
X123395000Y-84540000D03*
%TD*%
D15*
%TO.C,LED2*%
X151325000Y-93870000D03*
X151325000Y-92090000D03*
X148050000Y-92090000D03*
X148050000Y-93870000D03*
%TD*%
D45*
%TO.C,D2*%
X148922500Y-70740000D03*
X152922500Y-70740000D03*
%TD*%
D28*
%TO.C,R61*%
X165390000Y-79690000D03*
X165390000Y-78670000D03*
%TD*%
D46*
%TO.C,U9*%
X144780000Y-73775000D03*
X144780000Y-73145000D03*
D47*
X145580000Y-73960000D03*
X145580000Y-73460000D03*
X145580000Y-72960000D03*
X143980000Y-72960000D03*
X143980000Y-73460000D03*
X143980000Y-73960000D03*
%TD*%
D10*
%TO.C,C52*%
X140662500Y-71660000D03*
X140662500Y-70700000D03*
%TD*%
D20*
%TO.C,R5*%
X163700000Y-70850000D03*
X164720000Y-70850000D03*
%TD*%
D43*
%TO.C,D3*%
X150320000Y-74120000D03*
X150320000Y-78120002D03*
%TD*%
D20*
%TO.C,R3*%
X124870000Y-69010000D03*
X125890000Y-69010000D03*
%TD*%
D16*
%TO.C,C50*%
X127840000Y-88550000D03*
X128800000Y-88550000D03*
%TD*%
D12*
%TO.C,C5*%
X119905000Y-83362500D03*
X118945000Y-83362500D03*
%TD*%
D48*
%TO.C,R4*%
X162435000Y-70720000D03*
X160785000Y-70720000D03*
%TD*%
D12*
%TO.C,C60*%
X140900000Y-74910000D03*
X139940000Y-74910000D03*
%TD*%
D49*
%TO.C,U1*%
X124920000Y-77580000D03*
X124920000Y-78080000D03*
X124920000Y-78580000D03*
X124920000Y-79080000D03*
X124920000Y-79580000D03*
X124920000Y-80080000D03*
X124920000Y-80580000D03*
X124920000Y-81080000D03*
X124920000Y-81580000D03*
X124920000Y-82080000D03*
X124920000Y-82580000D03*
X124920000Y-83080000D03*
X124920000Y-83580000D03*
X124920000Y-84080000D03*
X124920000Y-84580000D03*
X124920000Y-85080000D03*
D50*
X126845000Y-87005000D03*
X127345000Y-87005000D03*
X127845000Y-87005000D03*
X128345000Y-87005000D03*
X128845000Y-87005000D03*
X129345000Y-87005000D03*
X129845000Y-87005000D03*
X130345000Y-87005000D03*
X130845000Y-87005000D03*
X131345000Y-87005000D03*
X131845000Y-87005000D03*
X132345000Y-87005000D03*
X132845000Y-87005000D03*
X133345000Y-87005000D03*
X133845000Y-87005000D03*
X134345000Y-87005000D03*
D49*
X136270000Y-85080000D03*
X136270000Y-84580000D03*
X136270000Y-84080000D03*
X136270000Y-83580000D03*
X136270000Y-83080000D03*
X136270000Y-82580000D03*
X136270000Y-82080000D03*
X136270000Y-81580000D03*
X136270000Y-81080000D03*
X136270000Y-80580000D03*
X136270000Y-80080000D03*
X136270000Y-79580000D03*
X136270000Y-79080000D03*
X136270000Y-78580000D03*
X136270000Y-78080000D03*
X136270000Y-77580000D03*
D50*
X134345000Y-75655000D03*
X133845000Y-75655000D03*
X133345000Y-75655000D03*
X132845000Y-75655000D03*
X132345000Y-75655000D03*
X131845000Y-75655000D03*
X131345000Y-75655000D03*
X130845000Y-75655000D03*
X130345000Y-75655000D03*
X129845000Y-75655000D03*
X129345000Y-75655000D03*
X128845000Y-75655000D03*
X128345000Y-75655000D03*
X127845000Y-75655000D03*
X127345000Y-75655000D03*
X126845000Y-75655000D03*
%TD*%
D44*
%TO.C,R54*%
X122070000Y-69980000D03*
X121050000Y-69980000D03*
%TD*%
M02*
