M48
; DRILL file KiCad 10.0.1 date 2026-06-14T11:07:26
; FORMAT={-:-/ absolute / metric / decimal}
; #@! TF.CreationDate,2026-06-14T11:07:26+02:00
; #@! TF.GenerationSoftware,Kicad,Pcbnew,10.0.1
; #@! TF.FileFunction,Plated,1,4,PTH
FMAT,2
METRIC
; #@! TA.AperFunction,Plated,PTH,ViaDrill
T1C0.300
; #@! TA.AperFunction,Plated,PTH,ViaDrill
T2C0.400
; #@! TA.AperFunction,Plated,PTH,ViaDrill
T3C0.500
; #@! TA.AperFunction,Plated,PTH,ComponentDrill
T4C0.600
; #@! TA.AperFunction,Plated,PTH,ComponentDrill
T5C1.000
; #@! TA.AperFunction,Plated,PTH,ComponentDrill
T6C1.500
%
G90
G05
T1
X110.6Y-81.91
X110.97Y-72.73
X115.15Y-77.55
X115.17Y-69.81
X115.47Y-74.81
X115.5Y-83.97
X115.81Y-82.078
X115.83Y-73.81
X115.97Y-90.1
X116.039Y-69.831
X116.56Y-65.3
X118.072Y-75.41
X118.41Y-85.54
X119.15Y-84.79
X120.39Y-85.39
X121.25Y-72.812
X121.921Y-83.127
X122.812Y-73.808
X122.85Y-85.54
X123.03Y-82.08
X123.14Y-66.07
X123.724Y-69.05
X123.75Y-74.677
X123.882Y-67.85
X124.66Y-67.23
X125.39Y-71.29
X126.331Y-83.079
X126.43Y-84.08
X126.439Y-88.26
X126.65Y-72.65
X126.67Y-79.69
X126.7Y-85.2
X127.08Y-70.44
X127.32Y-66.04
X127.35Y-76.82
X127.38Y-69.65
X127.748Y-71.432
X128.13Y-79.33
X128.28Y-69.088
X128.366Y-72.05
X128.42Y-82.67
X128.45Y-80.177
X128.834Y-83.997
X128.889Y-84.796
X129.29Y-94.4
X129.39Y-68.75
X129.945Y-80.8
X130.19Y-84.34
X130.19Y-89.02
X130.31Y-78.58
X130.373Y-68.8
X130.48Y-72.65
X130.66Y-71.5
X131.129Y-81.151
X131.5Y-88.82
X131.62Y-74.39
X131.649Y-83.729
X131.93Y-89.69
X131.97Y-66.8
X132.38Y-79.95
X132.467Y-85.732
X132.48Y-74.11
X132.54Y-72.34
X133.039Y-83.79
X133.33Y-77.69
X133.345Y-73.925
X134.14Y-59.94
X134.44Y-85.12
X134.812Y-83.136
X134.814Y-74.294
X135.01Y-76.398
X135.061Y-77.197
X135.12Y-91.08
X135.79Y-86.03
X135.85Y-89.13
X135.885Y-72.305
X136.285Y-73.672
X137.73Y-87.09
X137.748Y-85.72
X137.794Y-80.155
X137.827Y-78.179
X137.86Y-83.18
X138.14Y-84.08
X138.26Y-77.42
X138.318Y-80.76
X138.481Y-82.675
X138.69Y-76.73
X138.96Y-75.44
X139.24Y-67.454
X139.306Y-79.17
X139.56Y-87.159
X139.84Y-73.72
X140.169Y-69.47
X140.23Y-60.97
X140.58Y-67.44
X140.8Y-76.88
X140.81Y-80.23
X140.82Y-77.58
X141.408Y-82.975
X141.5Y-91.4
X142.83Y-74.86
X143.15Y-64.88
X143.21Y-70.71
X144.217Y-83.48
X144.474Y-76.534
X144.68Y-66.05
X145.217Y-79.166
X145.94Y-72.01
X145.95Y-65.09
X146.36Y-87.5
X146.4Y-81.38
X147.13Y-84.08
X147.554Y-75.981
X147.581Y-76.811
X148.56Y-89.52
X149.25Y-82.73
X150.92Y-68.737
X151.13Y-61.68
X151.31Y-82.95
X152.06Y-79.34
X152.08Y-74.14
X153.93Y-73.68
X154.82Y-79.38
X157.52Y-83.19
X157.86Y-69.6
X158.22Y-88.14
X158.42Y-75.1
X158.79Y-86.82
X158.85Y-73.33
X159.84Y-83.58
X160.22Y-74.81
X161.25Y-83.03
X163.06Y-68.81
X164.35Y-79.63
X164.515Y-82.745
X164.66Y-80.83
X164.79Y-83.89
X164.96Y-89.81
X166.29Y-66.55
X166.33Y-79.53
T2
X165.368Y-69.98
T3
X166.09Y-74.74
T5
X115.94Y-87.26
X118.48Y-87.26
X121.02Y-87.26
X123.56Y-87.26
X129.39Y-67.0
X134.47Y-67.0
X147.17Y-67.0
X149.71Y-64.46
X154.79Y-64.46
X154.79Y-67.0
X157.33Y-64.46
X159.87Y-64.46
X162.41Y-64.46
X164.95Y-64.46
T6
X169.12Y-84.29
X169.18Y-70.51
T4
G00X137.39Y-89.04
M15
G01X137.39Y-90.14
M16
G05
G00X137.39Y-93.47
M15
G01X137.39Y-94.07
M16
G05
G00X146.03Y-89.04
M15
G01X146.03Y-90.14
M16
G05
G00X146.03Y-93.47
M15
G01X146.03Y-94.07
M16
G05
M30
