%TF.GenerationSoftware,KiCad,Pcbnew,10.0.1*%
%TF.CreationDate,2026-05-21T12:18:26+02:00*%
%TF.ProjectId,Aero-Zero,4165726f-2d5a-4657-926f-2e6b69636164,rev?*%
%TF.SameCoordinates,Original*%
%TF.FileFunction,Paste,Bot*%
%TF.FilePolarity,Positive*%
%FSLAX46Y46*%
G04 Gerber Fmt 4.6, Leading zero omitted, Abs format (unit mm)*
G04 Created by KiCad (PCBNEW 10.0.1) date 2026-05-21 12:18:26*
%MOMM*%
%LPD*%
G01*
G04 APERTURE LIST*
G04 Aperture macros list*
%AMRoundRect*
0 Rectangle with rounded corners*
0 $1 Rounding radius*
0 $2 $3 $4 $5 $6 $7 $8 $9 X,Y pos of 4 corners*
0 Add a 4 corners polygon primitive as box body*
4,1,4,$2,$3,$4,$5,$6,$7,$8,$9,$2,$3,0*
0 Add four circle primitives for the rounded corners*
1,1,$1+$1,$2,$3*
1,1,$1+$1,$4,$5*
1,1,$1+$1,$6,$7*
1,1,$1+$1,$8,$9*
0 Add four rect primitives between the rounded corners*
20,1,$1+$1,$2,$3,$4,$5,0*
20,1,$1+$1,$4,$5,$6,$7,0*
20,1,$1+$1,$6,$7,$8,$9,0*
20,1,$1+$1,$8,$9,$2,$3,0*%
%AMRotRect*
0 Rectangle, with rotation*
0 The origin of the aperture is its center*
0 $1 length*
0 $2 width*
0 $3 Rotation angle, in degrees counterclockwise*
0 Add horizontal line*
21,1,$1,$2,0,0,$3*%
G04 Aperture macros list end*
%ADD10RoundRect,0.135000X-0.135000X-0.185000X0.135000X-0.185000X0.135000X0.185000X-0.135000X0.185000X0*%
%ADD11RoundRect,0.135000X-0.185000X0.135000X-0.185000X-0.135000X0.185000X-0.135000X0.185000X0.135000X0*%
%ADD12RoundRect,0.225000X0.250000X-0.225000X0.250000X0.225000X-0.250000X0.225000X-0.250000X-0.225000X0*%
%ADD13RoundRect,0.225000X-0.424264X-0.106066X-0.106066X-0.424264X0.424264X0.106066X0.106066X0.424264X0*%
%ADD14R,1.000000X0.750000*%
%ADD15RoundRect,0.150000X0.625000X-0.150000X0.625000X0.150000X-0.625000X0.150000X-0.625000X-0.150000X0*%
%ADD16RoundRect,0.250000X0.650000X-0.350000X0.650000X0.350000X-0.650000X0.350000X-0.650000X-0.350000X0*%
%ADD17RoundRect,0.135000X0.185000X-0.135000X0.185000X0.135000X-0.185000X0.135000X-0.185000X-0.135000X0*%
%ADD18RoundRect,0.140000X0.170000X-0.140000X0.170000X0.140000X-0.170000X0.140000X-0.170000X-0.140000X0*%
%ADD19RoundRect,0.150000X-0.625000X0.150000X-0.625000X-0.150000X0.625000X-0.150000X0.625000X0.150000X0*%
%ADD20RoundRect,0.250000X-0.650000X0.350000X-0.650000X-0.350000X0.650000X-0.350000X0.650000X0.350000X0*%
%ADD21RoundRect,0.150000X-0.309359X-0.521491X0.521491X0.309359X0.309359X0.521491X-0.521491X-0.309359X0*%
%ADD22RotRect,2.400000X2.400000X315.000000*%
%ADD23R,1.200000X0.700000*%
%ADD24R,1.200000X1.000000*%
%ADD25R,2.800000X1.000000*%
%ADD26R,1.900000X1.300000*%
%ADD27R,0.800000X1.000000*%
%ADD28RoundRect,0.140000X0.140000X0.170000X-0.140000X0.170000X-0.140000X-0.170000X0.140000X-0.170000X0*%
G04 APERTURE END LIST*
D10*
%TO.C,R68*%
X114120000Y-85280000D03*
X115140000Y-85280000D03*
%TD*%
D11*
%TO.C,R2*%
X131280000Y-78020000D03*
X131280000Y-79040000D03*
%TD*%
D12*
%TO.C,C68*%
X128570000Y-77470000D03*
X128570000Y-75920000D03*
%TD*%
D13*
%TO.C,D4*%
X153853274Y-80323274D03*
X156186726Y-82656726D03*
%TD*%
D14*
%TO.C,Flash1*%
X140700000Y-63775000D03*
X146700000Y-63775000D03*
X140700000Y-60025000D03*
X146700000Y-60025000D03*
%TD*%
D15*
%TO.C,J1*%
X164095000Y-73510000D03*
X164095000Y-72510000D03*
X164095000Y-71510000D03*
X164095000Y-70510000D03*
D16*
X160220000Y-74810000D03*
X160220000Y-69210000D03*
%TD*%
D17*
%TO.C,R53*%
X120790000Y-68830000D03*
X120790000Y-67810000D03*
%TD*%
D14*
%TO.C,Reset2*%
X138460000Y-60035000D03*
X132460000Y-60035000D03*
X138460000Y-63785000D03*
X132460000Y-63785000D03*
%TD*%
D10*
%TO.C,R6*%
X156300000Y-88430000D03*
X157320000Y-88430000D03*
%TD*%
D18*
%TO.C,C69*%
X126500000Y-77470000D03*
X126500000Y-76510000D03*
%TD*%
D17*
%TO.C,R69*%
X121849480Y-68830000D03*
X121849480Y-67810000D03*
%TD*%
D19*
%TO.C,J5*%
X167940000Y-73740000D03*
X167940000Y-74740000D03*
X167940000Y-75740000D03*
X167940000Y-76740000D03*
X167940000Y-77740000D03*
X167940000Y-78740000D03*
X167940000Y-79740000D03*
X167940000Y-80740000D03*
D20*
X171815000Y-72440000D03*
X171815000Y-82040000D03*
%TD*%
D21*
%TO.C,Q1*%
X161070000Y-89020000D03*
X159726497Y-87676497D03*
X161724074Y-87022423D03*
%TD*%
D17*
%TO.C,R71*%
X118670000Y-68830000D03*
X118670000Y-67810000D03*
%TD*%
D22*
%TO.C,BZ1*%
X150550000Y-80838831D03*
X155641169Y-85930000D03*
X150550000Y-91020462D03*
X145458831Y-85930000D03*
%TD*%
D23*
%TO.C,J4*%
X124972500Y-74177500D03*
X124972500Y-75277500D03*
X124972500Y-76377500D03*
X124972500Y-77477500D03*
X124972500Y-78577500D03*
X124972500Y-79677500D03*
X124972500Y-80777500D03*
X124972500Y-81877500D03*
D24*
X120672500Y-83777500D03*
D25*
X110322500Y-83777500D03*
D26*
X109872500Y-70277500D03*
D24*
X124972500Y-72627500D03*
D27*
X114472500Y-83777500D03*
D23*
X124972500Y-82827500D03*
%TD*%
D17*
%TO.C,R70*%
X119729480Y-68830000D03*
X119729480Y-67810000D03*
%TD*%
%TO.C,R72*%
X122909480Y-68830000D03*
X122909480Y-67810000D03*
%TD*%
D28*
%TO.C,C35*%
X127860000Y-67000000D03*
X126900000Y-67000000D03*
%TD*%
M02*
